<?xml version="1.0" standalone="no"?>
<!DOCTYPE svg PUBLIC "-//W3C//DTD SVG 20010904//EN"
 "http://www.w3.org/TR/2001/REC-SVG-20010904/DTD/svg10.dtd">
<svg version="1.0" xmlns="http://www.w3.org/2000/svg"
 width="700.000000pt" height="700.000000pt" viewBox="0 0 700.000000 700.000000"
 preserveAspectRatio="xMidYMid meet">
<metadata>
Created by potrace 1.11, written by Peter Selinger 2001-2013
</metadata>
<g transform="translate(0.000000,700.000000) scale(0.100000,-0.100000)"
fill="#000000" stroke="none">
<path d="M540 5124 c-118 -35 -185 -166 -155 -304 16 -73 81 -144 154 -168 24
-8 368 -12 1215 -12 650 0 1195 -4 1212 -9 115 -33 184 -137 171 -259 -10 -98
-46 -159 -116 -200 l-46 -27 -535 -5 -535 -5 -32 -23 c-71 -50 -104 -118 -104
-211 0 -84 38 -163 99 -206 l43 -29 522 -1 c501 -1 524 -2 567 -21 183 -83
184 -370 2 -461 -35 -17 -87 -18 -1027 -20 -721 -1 -998 -4 -1020 -13 -118
-45 -178 -161 -151 -295 16 -81 65 -142 137 -168 40 -15 142 -17 1039 -20
l995 -2 35 -22 c80 -49 118 -109 127 -198 11 -108 -41 -209 -132 -254 -48 -24
-52 -24 -369 -26 -268 -1 -327 -4 -357 -17 -199 -87 -178 -410 30 -468 46 -13
2646 -12 2746 1 39 4 90 11 114 14 81 11 205 43 316 83 617 220 1064 797 1130
1457 8 77 8 282 1 337 -4 24 -8 59 -11 78 -41 347 -223 716 -484 978 -248 250
-547 412 -896 483 l-110 22 -2267 2 c-1733 1 -2277 -2 -2308 -11z"/>
<path d="M716 4110 c-84 -29 -131 -81 -154 -172 -16 -65 -15 -89 8 -159 24
-72 58 -111 118 -140 42 -21 59 -22 311 -23 146 -1 288 2 316 6 154 23 237
216 161 372 -28 58 -59 85 -123 113 -55 23 -571 25 -637 3z"/>
<path d="M1545 2166 c-90 -28 -143 -77 -174 -161 -82 -218 148 -417 358 -311
182 93 178 361 -7 455 -49 25 -127 32 -177 17z"/>
</g>
</svg>
