<svg width="56" height="38" viewBox="0 0 56 38" fill="none" xmlns="http://www.w3.org/2000/svg">
<path d="M33.0197 27.156H3.68151C2.20205 27.156 1 25.9459 1 24.4566V3.69937C1 2.21006 2.20205 1 3.68151 1H44.5514C46.0308 1 47.2329 2.21006 47.2329 3.69937V4.49057" stroke="#131431" stroke-width="2" stroke-miterlimit="10" stroke-linecap="round" stroke-linejoin="round"/>
<path d="M33.6866 22.7346H6.13184V5.0025H34.5651" stroke="#009B8E" stroke-width="1.5" stroke-miterlimit="10" stroke-linecap="round" stroke-linejoin="round"/>
<path d="M30.6815 27.156H17.875V32.1358H30.6815V27.156Z" stroke="#131431" stroke-width="2" stroke-miterlimit="10" stroke-linecap="round" stroke-linejoin="round"/>
<path d="M34.9349 36.6968H12.5582V32.1358H32.7647" stroke="#131431" stroke-width="2" stroke-miterlimit="10" stroke-linecap="round" stroke-linejoin="round"/>
<path d="M52.2723 36.3844H36.6455C35.4435 36.3844 34.4726 35.4389 34.4726 34.2683V7.34465C34.4726 6.17406 35.4435 5.22858 36.6455 5.22858H52.2723C53.4743 5.22858 54.4452 6.17406 54.4452 7.34465V34.2683C54.4452 35.4389 53.4743 36.3844 52.2723 36.3844Z" stroke="#131431" stroke-width="2" stroke-miterlimit="10" stroke-linecap="round" stroke-linejoin="round"/>
<path d="M50.8235 8.45712H38.1176V30.6571H50.8235V8.45712Z" stroke="#009B8E" stroke-width="1.5" stroke-miterlimit="10" stroke-linecap="round" stroke-linejoin="round"/>
<path d="M44.564 34.0103C45.0236 34.0103 45.3962 33.6474 45.3962 33.1998C45.3962 32.7523 45.0236 32.3894 44.564 32.3894C44.1044 32.3894 43.7318 32.7523 43.7318 33.1998C43.7318 33.6474 44.1044 34.0103 44.564 34.0103Z" stroke="#009B8E" stroke-miterlimit="10" stroke-linecap="round" stroke-linejoin="round"/>
</svg>
