<svg width="26" height="50" viewBox="0 0 26 50" fill="none" xmlns="http://www.w3.org/2000/svg">
<path d="M24.3753 29.8963V40.3311C24.3753 44.7191 20.8872 48.3044 16.6182 48.3044C12.3492 48.3044 8.86117 44.7191 8.86117 40.3311V31.6087" stroke="#009B8E" stroke-width="2" stroke-miterlimit="10" stroke-linecap="round" stroke-linejoin="round"/>
<path d="M10.3709 8.22409H7.24729V2.92643C7.24729 2.23078 7.81996 1.64215 8.49675 1.64215H9.12148C9.79827 1.64215 10.3709 2.23078 10.3709 2.92643V8.22409Z" stroke="#009B8E" stroke-width="2" stroke-miterlimit="10" stroke-linecap="round" stroke-linejoin="round"/>
<path d="M14.7961 17.6422H2.82213C2.14534 17.6422 1.62473 17.107 1.62473 16.4114V16.2509C1.62473 15.5552 2.14534 15.0201 2.82213 15.0201H14.7961C15.4729 15.0201 15.9935 15.5552 15.9935 16.2509V16.4114C15.9935 17.107 15.4729 17.6422 14.7961 17.6422Z" stroke="#131431" stroke-width="2" stroke-miterlimit="10" stroke-linecap="round" stroke-linejoin="round"/>
<path d="M14.7961 10.8462H2.82213C2.14534 10.8462 1.62473 10.311 1.62473 9.6154V9.45486C1.62473 8.75921 2.14534 8.22409 2.82213 8.22409H14.7961C15.4729 8.22409 15.9935 8.75921 15.9935 9.45486V9.6154C15.9935 10.311 15.4729 10.8462 14.7961 10.8462Z" stroke="#131431" stroke-width="2" stroke-miterlimit="10" stroke-linecap="round" stroke-linejoin="round"/>
<path d="M14.9002 17.9097V28.9331C14.9002 30.3779 13.7549 31.5552 12.3492 31.5552H5.32104C3.9154 31.5552 2.77007 30.3779 2.77007 28.9331V17.6422" stroke="#131431" stroke-width="2" stroke-miterlimit="10" stroke-linecap="round" stroke-linejoin="round"/>
<path d="M15.3688 11.1672V14.8595" stroke="#131431" stroke-width="2" stroke-miterlimit="10" stroke-linecap="round" stroke-linejoin="round"/>
<path d="M2.30152 15.0201V10.8462" stroke="#131431" stroke-width="2" stroke-miterlimit="10" stroke-linecap="round" stroke-linejoin="round"/>
</svg>
