<svg width="44" height="41" viewBox="0 0 44 41" fill="none" xmlns="http://www.w3.org/2000/svg">
<path d="M15.6149 5.01962C12.5878 8.13005 12.5878 13.1546 15.6149 16.265" stroke="#009B8E" stroke-width="2" stroke-miterlimit="10" stroke-linecap="round" stroke-linejoin="round"/>
<path d="M13.9595 1.52637C9.04053 6.55091 9.04053 14.638 13.9595 19.6626" stroke="#009B8E" stroke-width="2" stroke-miterlimit="10" stroke-linecap="round" stroke-linejoin="round"/>
<path d="M17.6013 8.13004C16.1351 9.61347 16.1351 12.0061 17.6013 13.4895" stroke="#009B8E" stroke-width="2" stroke-miterlimit="10" stroke-linecap="round" stroke-linejoin="round"/>
<path d="M28.054 5.01962C31.0811 8.13005 31.0811 13.1546 28.054 16.265" stroke="#009B8E" stroke-width="2" stroke-miterlimit="10" stroke-linecap="round" stroke-linejoin="round"/>
<path d="M29.7095 1.52637C34.6284 6.55091 34.6284 14.638 29.7095 19.6626" stroke="#009B8E" stroke-width="2" stroke-miterlimit="10" stroke-linecap="round" stroke-linejoin="round"/>
<path d="M26.0676 8.13004C27.5338 9.61347 27.5338 12.0061 26.0676 13.4895" stroke="#009B8E" stroke-width="2" stroke-miterlimit="10" stroke-linecap="round" stroke-linejoin="round"/>
<path d="M22 12.9153C23.0971 12.9153 23.9865 12.0155 23.9865 10.9055C23.9865 9.79552 23.0971 8.89569 22 8.89569C20.9029 8.89569 20.0135 9.79552 20.0135 10.9055C20.0135 12.0155 20.9029 12.9153 22 12.9153Z" stroke="#131431" stroke-width="2" stroke-miterlimit="10" stroke-linecap="round" stroke-linejoin="round"/>
<path d="M39.8784 39.4258H4.12162C2.7027 39.4258 1.56757 38.2773 1.56757 36.8417V30.3337C1.56757 28.8982 2.7027 27.7497 4.12162 27.7497H39.8784C41.2973 27.7497 42.4324 28.8982 42.4324 30.3337V36.8896C42.4324 38.2773 41.2973 39.4258 39.8784 39.4258Z" stroke="#131431" stroke-width="2" stroke-miterlimit="10" stroke-linecap="round" stroke-linejoin="round"/>
<path d="M37.6554 33.7742H28.527C28.0068 33.7742 27.5811 33.3436 27.5811 32.8172V32.1951C27.5811 31.6687 28.0068 31.238 28.527 31.238H37.6554C38.1757 31.238 38.6014 31.6687 38.6014 32.1951V32.8172C38.5541 33.3914 38.1757 33.7742 37.6554 33.7742Z" stroke="#131431" stroke-width="2" stroke-miterlimit="10" stroke-linecap="round" stroke-linejoin="round"/>
<path d="M15.473 33.7742H6.34459C5.82432 33.7742 5.39864 33.3436 5.39864 32.8172V32.1951C5.39864 31.6687 5.82432 31.238 6.34459 31.238H15.473C15.9932 31.238 16.4189 31.6687 16.4189 32.1951V32.8172C16.4189 33.3914 15.9932 33.7742 15.473 33.7742Z" stroke="#131431" stroke-width="2" stroke-miterlimit="10" stroke-linecap="round" stroke-linejoin="round"/>
<path d="M22 13.1546V27.5583" stroke="#131431" stroke-width="2" stroke-miterlimit="10" stroke-linecap="round" stroke-linejoin="round"/>
</svg>
