<svg width="32" height="48" viewBox="0 0 32 48" fill="none" xmlns="http://www.w3.org/2000/svg">
<path d="M23.9592 46.3212H9.11224C8.44898 46.3212 7.93877 45.7991 7.93877 45.1203V44.3893C7.93877 43.7105 8.44898 43.1884 9.11224 43.1884H23.9592C24.6224 43.1884 25.1326 43.7105 25.1326 44.3893V45.1203C25.1326 45.7991 24.5714 46.3212 23.9592 46.3212Z" stroke="#131431" stroke-width="2" stroke-miterlimit="10" stroke-linecap="round" stroke-linejoin="round"/>
<path d="M11.3571 26.689C10.6939 22.3031 8.7551 18.2304 5.74489 14.9932L5.33673 14.5755" stroke="#131431" stroke-width="2" stroke-miterlimit="10" stroke-linecap="round" stroke-linejoin="round"/>
<path d="M16.2551 26.3757V6.32578" stroke="#131431" stroke-width="2" stroke-miterlimit="10" stroke-linecap="round" stroke-linejoin="round"/>
<path d="M13.7551 26.3757C13.2449 20.2667 11.7653 14.2622 9.31632 8.62314" stroke="#131431" stroke-width="2" stroke-miterlimit="10" stroke-linecap="round" stroke-linejoin="round"/>
<path d="M3.60204 14.8365C4.70097 14.8365 5.59184 13.9248 5.59184 12.8002C5.59184 11.6756 4.70097 10.7639 3.60204 10.7639C2.50311 10.7639 1.61224 11.6756 1.61224 12.8002C1.61224 13.9248 2.50311 14.8365 3.60204 14.8365Z" stroke="#009B8E" stroke-width="2" stroke-miterlimit="10" stroke-linecap="round" stroke-linejoin="round"/>
<path d="M8.34694 8.25764C9.44587 8.25764 10.3367 7.34595 10.3367 6.22132C10.3367 5.09669 9.44587 4.185 8.34694 4.185C7.248 4.185 6.35714 5.09669 6.35714 6.22132C6.35714 7.34595 7.248 8.25764 8.34694 8.25764Z" stroke="#009B8E" stroke-width="2" stroke-miterlimit="10" stroke-linecap="round" stroke-linejoin="round"/>
<path d="M16.2551 5.6992C17.354 5.6992 18.2449 4.78751 18.2449 3.66288C18.2449 2.53825 17.354 1.62656 16.2551 1.62656C15.1562 1.62656 14.2653 2.53825 14.2653 3.66288C14.2653 4.78751 15.1562 5.6992 16.2551 5.6992Z" stroke="#009B8E" stroke-width="2" stroke-miterlimit="10" stroke-linecap="round" stroke-linejoin="round"/>
<path d="M21.2551 26.5846C22.0204 22.0942 24.0612 17.8649 27.1735 14.5233" stroke="#131431" stroke-width="2" stroke-miterlimit="10" stroke-linecap="round" stroke-linejoin="round"/>
<path d="M18.7041 26.5845C19.1633 20.3712 20.6939 14.3144 23.1429 8.62314" stroke="#131431" stroke-width="2" stroke-miterlimit="10" stroke-linecap="round" stroke-linejoin="round"/>
<path d="M21.2551 43.0318H11.8163C10.7449 43.0318 9.87755 42.1442 9.87755 41.0477V28.6731C9.87755 27.7333 10.4898 26.8978 11.3571 26.689C11.5102 26.6368 11.7143 26.6368 11.8673 26.6368H21.1531C22.2755 26.6368 23.1939 27.5766 23.1939 28.7253V41.0477C23.1939 42.1442 22.3265 43.0318 21.2551 43.0318Z" stroke="#131431" stroke-width="2" stroke-miterlimit="10" stroke-linecap="round" stroke-linejoin="round"/>
<path d="M28.398 14.8365C29.4969 14.8365 30.3878 13.9248 30.3878 12.8002C30.3878 11.6756 29.4969 10.7639 28.398 10.7639C27.299 10.7639 26.4082 11.6756 26.4082 12.8002C26.4082 13.9248 27.299 14.8365 28.398 14.8365Z" stroke="#009B8E" stroke-width="2" stroke-miterlimit="10" stroke-linecap="round" stroke-linejoin="round"/>
<path d="M24.2143 8.25764C25.3132 8.25764 26.2041 7.34595 26.2041 6.22132C26.2041 5.09669 25.3132 4.185 24.2143 4.185C23.1154 4.185 22.2245 5.09669 22.2245 6.22132C22.2245 7.34595 23.1154 8.25764 24.2143 8.25764Z" stroke="#009B8E" stroke-width="2" stroke-miterlimit="10" stroke-linecap="round" stroke-linejoin="round"/>
</svg>
