<svg width="34" height="42" viewBox="0 0 34 42" fill="none" xmlns="http://www.w3.org/2000/svg">
<path d="M13.7438 36.1532L13.7442 36.1538C15.7364 39.2817 19.1028 41.05 22.6068 41.05C24.4615 41.05 26.3173 40.574 28.0355 39.4178C28.0358 39.4176 28.0361 39.4173 28.0365 39.4171L32.2738 36.8465L32.2745 36.846C33.0477 36.359 33.3319 35.3137 32.8372 34.5436C32.8371 34.5434 32.837 34.5433 32.8369 34.5432L28.2574 27.1008C28.0424 26.6772 27.6159 26.4692 27.2037 26.3332L27.2039 26.3327L27.1962 26.3314C26.7745 26.2618 26.3537 26.3317 25.9351 26.5389L25.935 26.5388L25.9313 26.5411L21.4868 29.2483L21.4867 29.2482L21.484 29.2502C21.0188 29.5791 20.4872 29.6456 19.9522 29.5132L19.9522 29.513L19.9472 29.5123C19.4856 29.447 19.0195 29.119 18.7527 28.6569L18.7527 28.6569L18.7519 28.6556L11.4357 16.8113L11.4358 16.8112L11.4337 16.8083C11.1016 16.3481 11.0345 15.8223 11.1681 15.2931L11.1684 15.2932L11.1691 15.288C11.235 14.8317 11.5661 14.3703 12.0332 14.1061L12.0332 14.1062L12.0346 14.1053L16.4772 11.3992C16.9048 11.1865 17.115 10.7643 17.2525 10.3561L17.2531 10.3563L17.2544 10.3484C17.3248 9.9307 17.254 9.51385 17.0446 9.09929L17.0448 9.09919L17.0424 9.09528L12.4612 1.78563L12.4609 1.78515C11.9687 1.0196 10.9133 0.738936 10.1361 1.2282C10.136 1.22827 10.1359 1.22835 10.1357 1.22843L5.89714 3.7999L5.897 3.79999C3.56174 5.22771 1.84348 7.47202 1.22481 10.1257C0.606563 12.7776 1.01857 15.5662 2.46185 17.8793L13.7438 36.1532ZM15.4269 9.9848L11.0938 12.5985L11.0936 12.5986C10.1945 13.1463 9.56976 13.9694 9.36139 14.9319C9.1539 15.8903 9.29159 16.9195 9.84688 17.7446L17.1619 29.5869C17.162 29.5871 17.1622 29.5873 17.1623 29.5875C18.2029 31.3722 20.559 31.9193 22.3592 30.8228C22.3592 30.8228 22.3593 30.8228 22.3593 30.8227L26.693 28.2088L31.2213 35.501L27.0939 37.9791L27.0938 37.9792C23.083 40.4016 17.7802 39.1229 15.3332 35.1531L15.3331 35.1531L4.05109 16.879L4.05091 16.8787C2.82745 14.9276 2.48762 12.708 3.03148 10.4874L3.03173 10.4863C3.50718 8.33482 4.93407 6.45088 6.83772 5.30682L6.8379 5.30671L11.0345 2.76071L15.4269 9.9848Z" fill="#131431" stroke="#131431" stroke-width="0.1"/>
<path d="M12.4872 10.0017C12.2821 10.0017 12.0085 9.86633 11.8718 9.66329L9.47863 5.8731C9.2735 5.53469 9.41026 5.1286 9.68376 4.92555C10.0256 4.72251 10.4359 4.85787 10.641 5.1286L13.0342 8.91878C13.2393 9.25719 13.1026 9.66329 12.8291 9.86633C12.7607 10.0017 12.6239 10.0017 12.4872 10.0017Z" fill="#009B8E"/>
<path d="M28.1453 35.4501C27.9402 35.4501 27.6667 35.3147 27.5299 35.1117L25.1368 31.3215C24.9316 30.9831 25.0684 30.577 25.3419 30.3739C25.6838 30.1709 26.094 30.3063 26.2992 30.577L28.6923 34.3672C28.8974 34.7056 28.7607 35.1117 28.4872 35.3147C28.4188 35.4501 28.2821 35.4501 28.1453 35.4501Z" fill="#009B8E"/>
</svg>
