<svg width="40" height="43" viewBox="0 0 40 43" fill="none" xmlns="http://www.w3.org/2000/svg">
<path d="M34.5542 11.7484C33.2472 6.842 28.3096 3.87873 23.372 5.09318" stroke="#009B8E" stroke-width="2" stroke-miterlimit="10" stroke-linecap="round" stroke-linejoin="round"/>
<path d="M38.9593 12.1856C36.9261 4.26734 28.8905 -0.541899 21 1.44981" stroke="#009B8E" stroke-width="2" stroke-miterlimit="10" stroke-linecap="round" stroke-linejoin="round"/>
<path d="M30.2459 11.9427C29.665 9.61095 27.2446 8.20218 24.921 8.78512" stroke="#009B8E" stroke-width="2" stroke-miterlimit="10" stroke-linecap="round" stroke-linejoin="round"/>
<path d="M2.25862 18.391C2.21021 18.5853 2.16181 18.8282 2.1134 19.0225C0.322315 26.5521 3.46881 34.6647 10.4395 38.7938C17.6038 43.0687 26.5109 41.8057 32.223 36.2678L15.7159 26.4064L2.25862 18.391Z" stroke="#131431" stroke-width="2" stroke-miterlimit="10" stroke-linecap="round" stroke-linejoin="round"/>
<path d="M15.7644 25.532L23.7516 16.545L19.9274 28.3981" stroke="#131431" stroke-width="2" stroke-miterlimit="10" stroke-linecap="round" stroke-linejoin="round"/>
<path d="M24.8166 16.8365C26.0731 16.8365 27.0917 15.8143 27.0917 14.5533C27.0917 13.2924 26.0731 12.2701 24.8166 12.2701C23.56 12.2701 22.5414 13.2924 22.5414 14.5533C22.5414 15.8143 23.56 16.8365 24.8166 16.8365Z" stroke="#131431" stroke-width="2" stroke-miterlimit="10" stroke-linecap="round" stroke-linejoin="round"/>
</svg>
