<svg width="32" height="42" viewBox="0 0 32 42" fill="none" xmlns="http://www.w3.org/2000/svg">
<path d="M26.75 40.1988H5.25C3.3125 40.1988 1.8125 38.6579 1.8125 36.8089V15.6071C1.8125 13.6965 3.375 12.2173 5.25 12.2173H26.75C28.6875 12.2173 30.1875 13.7581 30.1875 15.6071V36.8089C30.1875 38.6579 28.625 40.1988 26.75 40.1988Z" stroke="#131431" stroke-width="2" stroke-miterlimit="10" stroke-linecap="round" stroke-linejoin="round"/>
<path d="M9.8125 11.9707V7.84129C9.8125 4.51309 12.5625 1.73959 16 1.73959C19.375 1.73959 22.1875 4.45146 22.1875 7.84129V11.9707" stroke="#131431" stroke-width="2" stroke-miterlimit="10" stroke-linecap="round" stroke-linejoin="round"/>
<path d="M20.8125 23.9892C20.8125 25.8382 19.75 27.5023 18.125 28.2419V35.0216H13.625V28.1803C12.125 27.379 11.0625 25.7766 11.0625 23.9892C11.0625 21.339 13.25 19.1818 15.9375 19.1818C18.625 19.1818 20.8125 21.339 20.8125 23.9892Z" stroke="#009B8E" stroke-width="2" stroke-miterlimit="10" stroke-linecap="round" stroke-linejoin="round"/>
</svg>
