<svg width="44" height="35" viewBox="0 0 44 35" fill="none" xmlns="http://www.w3.org/2000/svg">
<path d="M40.0907 24.9583H3.90927C2.59805 24.9583 1.53268 23.875 1.53268 22.5417V3.95832C1.53268 2.62499 2.59805 1.54166 3.90927 1.54166H40.1317C41.4429 1.54166 42.5083 2.62499 42.5083 3.95832V22.5417C42.5083 23.875 41.4019 24.9583 40.0907 24.9583Z" stroke="#131431" stroke-width="2" stroke-miterlimit="10" stroke-linecap="round" stroke-linejoin="round"/>
<path d="M27.7981 24.9583H16.4478V29.4166H27.7981V24.9583Z" stroke="#131431" stroke-width="2" stroke-miterlimit="10" stroke-linecap="round" stroke-linejoin="round"/>
<path d="M33.4936 29.4167H11.7356V33.4583H33.4936V29.4167Z" stroke="#131431" stroke-width="2" stroke-miterlimit="10" stroke-linecap="round" stroke-linejoin="round"/>
<path d="M17.065 6.87043C17.065 5.92373 18.0229 5.3557 18.7413 5.7975L23.7104 8.76384L28.6795 11.7302C29.4578 12.172 29.4578 13.308 28.6795 13.8129L23.7104 16.8424L18.8012 19.8718C18.0229 20.3136 17.1249 19.7456 17.1249 18.862L17.065 12.8662V6.87043Z" stroke="#009B8E" stroke-width="2" stroke-miterlimit="10" stroke-linecap="round" stroke-linejoin="round"/>
</svg>
