<svg width="43" height="25" viewBox="0 0 43 25" fill="none" xmlns="http://www.w3.org/2000/svg">
<path d="M21.5493 23.4064C22.9373 23.4064 24.0625 22.277 24.0625 20.8838C24.0625 19.4907 22.9373 18.3613 21.5493 18.3613C20.1613 18.3613 19.0361 19.4907 19.0361 20.8838C19.0361 22.277 20.1613 23.4064 21.5493 23.4064Z" stroke="#009B8E" stroke-width="2" stroke-miterlimit="10" stroke-linecap="round" stroke-linejoin="round"/>
<path d="M12.1863 17.1247C13.6647 15.2946 16.6707 12.4753 21.4507 12.4753C26.5264 12.4753 29.631 15.1957 31.1587 17.0258" stroke="#131431" stroke-width="2" stroke-miterlimit="10" stroke-linecap="round" stroke-linejoin="round"/>
<path d="M7.0613 14.9484C8.34255 13.0193 12.9255 7.28171 21.1551 7.28171C29.9267 7.28171 34.5589 12.8215 35.9387 14.8494" stroke="#131431" stroke-width="2" stroke-miterlimit="10" stroke-linecap="round" stroke-linejoin="round"/>
<path d="M1.59135 12.2774C3.21755 9.85375 9.52524 1.59354 21.0565 1.59354C33.3762 1.59354 39.7332 9.55698 41.4087 12.129" stroke="#131431" stroke-width="2" stroke-miterlimit="10" stroke-linecap="round" stroke-linejoin="round"/>
</svg>
