<svg width="285" height="131" viewBox="0 0 285 131" fill="none" xmlns="http://www.w3.org/2000/svg">
<path d="M166.977 111.333H7.88276C4.38494 111.333 1.45129 108.507 1.45129 104.89V7.57239C1.45129 4.06849 4.27211 1.12973 7.88276 1.12973H166.977C170.475 1.12973 173.408 3.95546 173.408 7.57239V105.003C173.408 108.507 170.588 111.333 166.977 111.333Z" fill="white" stroke="#0075CB" stroke-width="2" stroke-miterlimit="10"/>
<path d="M168.895 105.003H6.19031V7.00725C6.19031 6.89422 6.30314 6.78119 6.41597 6.78119H168.669C168.782 6.78119 168.895 6.89422 168.895 7.00725V105.003Z" stroke="#C7E9F4" stroke-width="3.577" stroke-miterlimit="10" stroke-linecap="round" stroke-linejoin="round"/>
<path d="M166.413 8.8157H8.55981V102.291H166.413V8.8157Z" fill="white" stroke="#0075CB" stroke-width="2" stroke-miterlimit="10"/>
<path d="M100.18 111.333H74.2284V123.54H100.18V111.333Z" fill="white" stroke="#0075CB" stroke-width="2" stroke-miterlimit="10"/>
<path d="M108.642 124.896H64.8633C63.9607 124.896 62.9452 123.879 62.9452 122.523C62.9452 121.28 63.9607 120.149 65.3147 120.149H109.094C110.335 120.149 111.463 121.166 111.463 122.523C111.463 123.766 110.448 124.896 108.642 124.896Z" fill="white" stroke="#0075CB" stroke-width="2" stroke-miterlimit="10"/>
<path d="M160.207 96.8653H16.5708C15.5553 96.8653 14.7655 96.0741 14.7655 95.0568C14.7655 94.0396 15.5553 93.2484 16.5708 93.2484H160.207C161.222 93.2484 162.012 94.0396 162.012 95.0568C162.125 96.0741 161.222 96.8653 160.207 96.8653Z" fill="#6ED4FF"/>
<path d="M160.207 96.8653H67.2328C66.2173 96.8653 65.4275 96.0741 65.4275 95.0568C65.4275 94.0396 66.2173 93.2484 67.2328 93.2484H160.207C161.222 93.2484 162.012 94.0396 162.012 95.0568C162.125 96.0741 161.222 96.8653 160.207 96.8653Z" fill="#0791ED"/>
<path d="M66.443 98.7867C68.4994 98.7867 70.1664 97.1168 70.1664 95.0568C70.1664 92.9968 68.4994 91.3268 66.443 91.3268C64.3865 91.3268 62.7195 92.9968 62.7195 95.0568C62.7195 97.1168 64.3865 98.7867 66.443 98.7867Z" fill="white" stroke="#0791ED" stroke-width="0.8942" stroke-miterlimit="10"/>
<path d="M115.751 73.7545H56.2881C51.7747 73.7545 48.0513 70.0245 48.0513 65.5034V37.2461C48.0513 32.725 51.7747 28.995 56.2881 28.995H115.751C120.264 28.995 123.988 32.725 123.988 37.2461V65.5034C123.988 70.1376 120.264 73.7545 115.751 73.7545Z" stroke="#0075CB" stroke-width="0.9837" stroke-miterlimit="10"/>
<path d="M76.8007 43.3437V61.2023C76.8007 62.5586 78.2675 63.5759 79.5086 62.8977L98.126 53.4033C99.5929 52.7251 99.48 50.6906 98.0132 50.0124L79.3958 41.6482C78.2675 41.0831 76.8007 41.9873 76.8007 43.3437Z" fill="#C7E9F4"/>
<path d="M244.267 127.948H130.645C123.988 127.948 118.685 122.523 118.685 115.967H256.341C256.228 122.636 250.925 127.948 244.267 127.948Z" fill="white" stroke="#0075CB" stroke-width="1.5" stroke-miterlimit="10"/>
<path d="M242.575 125.122H131.209C127.824 125.122 125.116 122.41 125.116 119.019H248.668C248.668 122.41 245.96 125.122 242.575 125.122Z" fill="#C7E9F4"/>
<path d="M170.7 115.967L175.327 121.958H201.278L204.55 115.967H170.7Z" fill="white" stroke="#0075CB" stroke-width="1.1959" stroke-miterlimit="10"/>
<path d="M245.283 114.046H129.629V50.7494C129.629 47.2456 132.45 44.4198 135.948 44.4198H238.964C242.462 44.4198 245.283 47.2456 245.283 50.7494V114.046Z" fill="white" stroke="#0075CB" stroke-width="1.5" stroke-miterlimit="10"/>
<path d="M240.093 50.5234H135.045V109.185H240.093V50.5234Z" fill="white" stroke="#0075CB" stroke-width="1.1959" stroke-miterlimit="10"/>
<path opacity="0.3" d="M174.311 117.437L176.342 120.149H199.811L201.391 117.437H174.311Z" fill="#75D1F7"/>
<path d="M242.236 111.785H132.789V51.6537C132.789 49.6191 134.481 47.9237 136.512 47.9237H238.513C240.544 47.9237 242.236 49.6191 242.236 51.6537V111.785Z" stroke="#C7E9F4" stroke-width="1.9932" stroke-miterlimit="10"/>
<path d="M188.415 48.8279C188.976 48.8279 189.431 48.3725 189.431 47.8107C189.431 47.2489 188.976 46.7934 188.415 46.7934C187.854 46.7934 187.4 47.2489 187.4 47.8107C187.4 48.3725 187.854 48.8279 188.415 48.8279Z" fill="white" stroke="#0075CB" stroke-width="1.1959" stroke-miterlimit="10"/>
<path d="M233.548 102.969H142.041C140.913 102.969 139.897 102.065 139.897 100.821V58.8875C139.897 57.7573 140.8 56.74 142.041 56.74H233.548C234.677 56.74 235.692 57.6442 235.692 58.8875V100.821C235.692 102.065 234.789 102.969 233.548 102.969Z" stroke="#0791ED" stroke-width="0.7973" stroke-miterlimit="10" stroke-linecap="round" stroke-linejoin="round"/>
<path d="M228.245 66.5735H146.893C145.2 66.5735 143.846 65.2172 143.846 63.5217C143.846 61.8263 145.2 60.4699 146.893 60.4699H228.245C229.938 60.4699 231.292 61.8263 231.292 63.5217C231.292 65.3302 229.938 66.5735 228.245 66.5735Z" stroke="#0791ED" stroke-width="0.7973" stroke-miterlimit="10" stroke-linecap="round" stroke-linejoin="round"/>
<path fill-rule="evenodd" clip-rule="evenodd" d="M165.736 78.2155H153.324C152.647 78.2155 152.083 77.6504 152.083 76.9722C152.083 76.294 152.647 75.7289 153.324 75.7289H165.736C166.413 75.7289 166.977 76.294 166.977 76.9722C166.977 77.6504 166.413 78.2155 165.736 78.2155Z" stroke="#0791ED" stroke-width="0.7973" stroke-miterlimit="10" stroke-linecap="round" stroke-linejoin="round"/>
<path fill-rule="evenodd" clip-rule="evenodd" d="M165.736 84.8842H153.324C152.647 84.8842 152.083 84.319 152.083 83.6409C152.083 82.9627 152.647 82.3976 153.324 82.3976H165.736C166.413 82.3976 166.977 82.9627 166.977 83.6409C166.977 84.319 166.413 84.8842 165.736 84.8842Z" stroke="#0791ED" stroke-width="0.7973" stroke-miterlimit="10" stroke-linecap="round" stroke-linejoin="round"/>
<path fill-rule="evenodd" clip-rule="evenodd" d="M165.736 91.4399H153.324C152.647 91.4399 152.083 90.8747 152.083 90.1965C152.083 89.5184 152.647 88.9532 153.324 88.9532H165.736C166.413 88.9532 166.977 89.5184 166.977 90.1965C166.977 90.8747 166.413 91.4399 165.736 91.4399Z" stroke="#0791ED" stroke-width="0.7973" stroke-miterlimit="10" stroke-linecap="round" stroke-linejoin="round"/>
<path fill-rule="evenodd" clip-rule="evenodd" d="M221.024 78.2155H208.612C207.935 78.2155 207.371 77.6504 207.371 76.9722C207.371 76.294 207.935 75.7289 208.612 75.7289H221.024C221.701 75.7289 222.265 76.294 222.265 76.9722C222.265 77.6504 221.701 78.2155 221.024 78.2155Z" stroke="#0791ED" stroke-width="0.7973" stroke-miterlimit="10" stroke-linecap="round" stroke-linejoin="round"/>
<path fill-rule="evenodd" clip-rule="evenodd" d="M221.024 84.8842H208.612C207.935 84.8842 207.371 84.319 207.371 83.6409C207.371 82.9627 207.935 82.3976 208.612 82.3976H221.024C221.701 82.3976 222.265 82.9627 222.265 83.6409C222.265 84.319 221.701 84.8842 221.024 84.8842Z" stroke="#0791ED" stroke-width="0.7973" stroke-miterlimit="10" stroke-linecap="round" stroke-linejoin="round"/>
<path fill-rule="evenodd" clip-rule="evenodd" d="M221.024 91.4399H208.612C207.935 91.4399 207.371 90.8747 207.371 90.1965C207.371 89.5184 207.935 88.9532 208.612 88.9532H221.024C221.701 88.9532 222.265 89.5184 222.265 90.1965C222.265 90.8747 221.701 91.4399 221.024 91.4399Z" stroke="#0791ED" stroke-width="0.7973" stroke-miterlimit="10" stroke-linecap="round" stroke-linejoin="round"/>
<path d="M283.42 68.9471H252.053V129.644H283.42V68.9471Z" fill="white"/>
<path d="M280.938 67.4777H254.084C252.166 67.4777 250.586 69.0601 250.586 70.9816V110.429V127.27C250.586 129.079 252.053 130.435 253.745 130.435H280.938C282.856 130.435 284.436 128.852 284.436 126.931V70.9816C284.549 69.0601 282.969 67.4777 280.938 67.4777ZM282.179 125.575C282.179 127.044 281.164 128.287 279.922 128.287H255.325C254.084 128.287 253.068 127.044 253.068 125.575V72.7901C253.068 71.3207 254.084 70.0774 255.325 70.0774H259.161C259.5 70.0774 259.725 70.4165 259.725 70.7556C259.725 71.6598 260.29 72.338 261.079 72.338L273.717 72.2249C274.507 72.2249 275.184 71.7728 275.184 70.8686V70.7556C275.184 70.4165 275.409 70.0774 275.748 70.0774H280.035C281.276 70.0774 282.292 71.3207 282.292 72.7901V125.575H282.179Z" fill="white" stroke="#0075CB" stroke-width="0.8942" stroke-miterlimit="10"/>
<path d="M270.445 70.7556H264.69C264.464 70.7556 264.352 70.6426 264.352 70.4165C264.352 70.1904 264.464 70.0774 264.69 70.0774H270.445C270.67 70.0774 270.783 70.1904 270.783 70.4165C270.783 70.6426 270.557 70.7556 270.445 70.7556Z" fill="#0075CB"/>
<path d="M278.343 71.5468H277.892V72.451H278.343V71.5468Z" fill="#6ED4FF"/>
<path d="M278.907 71.2077H278.456V72.451H278.907V71.2077Z" fill="#6ED4FF"/>
<path d="M279.471 70.9816H279.02V72.451H279.471V70.9816Z" fill="#6ED4FF"/>
<path d="M257.356 73.3552H255.663C255.212 73.3552 254.874 73.0161 254.874 72.564C254.874 72.1119 255.212 71.7728 255.663 71.7728H257.356C257.807 71.7728 258.146 72.1119 258.146 72.564C258.259 72.9031 257.807 73.3552 257.356 73.3552Z" fill="#0791ED"/>
<path d="M256.002 73.3553C255.663 73.3553 255.325 73.0162 255.325 72.6771V72.338C255.325 71.9989 255.663 71.6598 256.002 71.6598C256.34 71.6598 256.679 71.9989 256.679 72.338V72.6771C256.679 73.0162 256.34 73.3553 256.002 73.3553Z" fill="white"/>
<path d="M276.65 81.0412H258.597C258.146 81.0412 257.694 80.7021 257.694 80.137C257.694 79.6849 258.033 79.2328 258.597 79.2328H276.65C277.102 79.2328 277.553 79.5718 277.553 80.137C277.553 80.7021 277.215 81.0412 276.65 81.0412Z" stroke="#0791ED" stroke-width="0.4367" stroke-miterlimit="10" stroke-linecap="round" stroke-linejoin="round"/>
<path d="M276.65 84.7711H258.597C258.146 84.7711 257.694 84.4321 257.694 83.8669C257.694 83.4148 258.033 82.9627 258.597 82.9627H276.65C277.102 82.9627 277.553 83.3018 277.553 83.8669C277.553 84.319 277.215 84.7711 276.65 84.7711Z" stroke="#0791ED" stroke-width="0.4367" stroke-miterlimit="10" stroke-linecap="round" stroke-linejoin="round"/>
<path d="M276.65 115.289H258.597C258.146 115.289 257.694 114.95 257.694 114.385C257.694 113.933 258.033 113.481 258.597 113.481H276.65C277.102 113.481 277.553 113.82 277.553 114.385C277.553 114.95 277.215 115.289 276.65 115.289Z" stroke="#0791ED" stroke-width="0.4367" stroke-miterlimit="10" stroke-linecap="round" stroke-linejoin="round"/>
<path d="M276.65 119.019H258.597C258.146 119.019 257.694 118.68 257.694 118.115C257.694 117.663 258.033 117.21 258.597 117.21H276.65C277.102 117.21 277.553 117.55 277.553 118.115C277.553 118.567 277.215 119.019 276.65 119.019Z" stroke="#0791ED" stroke-width="0.4367" stroke-miterlimit="10" stroke-linecap="round" stroke-linejoin="round"/>
<path d="M280.938 129.418H254.422C253.068 129.418 251.94 128.287 251.94 126.931V71.4338C251.94 70.0774 253.068 68.9471 254.422 68.9471H280.938C282.292 68.9471 283.42 70.0774 283.42 71.4338V126.931C283.533 128.287 282.405 129.418 280.938 129.418Z" stroke="#C7E9F4" stroke-width="0.8942" stroke-miterlimit="10"/>
<path d="M267.695 104.771C268.219 104.771 268.643 104.346 268.643 103.821C268.643 103.297 268.219 102.872 267.695 102.872C267.172 102.872 266.748 103.297 266.748 103.821C266.748 104.346 267.172 104.771 267.695 104.771Z" stroke="#0791ED" stroke-miterlimit="10" stroke-linecap="round" stroke-linejoin="round"/>
<path d="M265.01 101.131C265.8 100.814 266.906 100.498 267.696 100.498C268.644 100.498 269.592 100.814 270.382 101.289" stroke="#0791ED" stroke-miterlimit="10" stroke-linecap="round" stroke-linejoin="round"/>
<path d="M262.798 98.7568C264.22 98.1237 266.116 97.6489 267.854 97.6489C269.75 97.6489 271.487 98.1237 272.909 98.9151" stroke="#0791ED" stroke-miterlimit="10" stroke-linecap="round" stroke-linejoin="round"/>
<path d="M260.744 96.2245C262.64 95.2749 265.326 94.6418 267.696 94.6418C270.224 94.6418 272.594 95.2749 274.647 96.541" stroke="#0791ED" stroke-miterlimit="10" stroke-linecap="round" stroke-linejoin="round"/>
<path d="M98.7131 112.689H75.6952V118.906H98.7131V112.689Z" fill="#C7E9F4"/>
<path d="M187.512 97.3174C194.43 97.3174 200.037 91.7003 200.037 84.7712C200.037 77.8421 194.43 72.225 187.512 72.225C180.595 72.225 174.988 77.8421 174.988 84.7712C174.988 91.7003 180.595 97.3174 187.512 97.3174Z" fill="white" stroke="#0791ED" stroke-miterlimit="10"/>
<path d="M187.287 89.4054C187.723 89.4054 188.077 89.0511 188.077 88.6142C188.077 88.1772 187.723 87.8229 187.287 87.8229C186.851 87.8229 186.497 88.1772 186.497 88.6142C186.497 89.0511 186.851 89.4054 187.287 89.4054Z" stroke="#0791ED" stroke-miterlimit="10" stroke-linecap="round" stroke-linejoin="round"/>
<path d="M184.917 86.0145C185.594 85.6754 186.61 85.4493 187.4 85.4493C188.302 85.4493 189.205 85.6754 189.882 86.1275" stroke="#0791ED" stroke-miterlimit="10" stroke-linecap="round" stroke-linejoin="round"/>
<path d="M182.774 83.9799C184.015 83.3018 185.82 82.9627 187.4 82.9627C189.092 82.9627 190.672 83.4148 192.026 84.206" stroke="#0791ED" stroke-miterlimit="10" stroke-linecap="round" stroke-linejoin="round"/>
<path d="M181.081 81.6063C182.774 80.7021 185.369 80.137 187.4 80.137C189.769 80.137 191.913 80.7021 193.718 81.8324" stroke="#0791ED" stroke-miterlimit="10" stroke-linecap="round" stroke-linejoin="round"/>
</svg>
