<svg width="223" height="222" viewBox="0 0 223 222" fill="none" xmlns="http://www.w3.org/2000/svg">
<path d="M111.5 220.316C172.145 220.316 221.308 171.373 221.308 111C221.308 50.6265 172.145 1.68408 111.5 1.68408C50.8546 1.68408 1.69177 50.6265 1.69177 111C1.69177 171.373 50.8546 220.316 111.5 220.316Z" stroke="#006D61" stroke-width="3" stroke-miterlimit="10"/>
<path d="M111.5 215C169.214 215 216 168.438 216 111C216 53.5624 169.214 7 111.5 7C53.7862 7 7 53.5624 7 111C7 168.438 53.7862 215 111.5 215Z" stroke="#54CDBE" stroke-width="6" stroke-miterlimit="10" stroke-linecap="round" stroke-linejoin="round"/>
<path d="M111.5 206.383C163.822 206.383 206.237 164.158 206.237 112.071C206.237 59.9846 163.822 17.7598 111.5 17.7598C59.1785 17.7598 16.7635 59.9846 16.7635 112.071C16.7635 164.158 59.1785 206.383 111.5 206.383Z" fill="#CCFFF9" stroke="#006D61" stroke-width="3" stroke-miterlimit="10" stroke-linecap="round" stroke-linejoin="round"/>
<path d="M133.493 133.812H89.3539C82.587 133.812 77.2042 128.454 77.2042 121.717V86.0439C77.2042 79.3074 82.587 73.9487 89.3539 73.9487H133.493C140.259 73.9487 145.642 79.3074 145.642 86.0439V121.717C145.642 128.454 140.259 133.812 133.493 133.812Z" stroke="#006D61" stroke-width="1.6521" stroke-miterlimit="10" stroke-linecap="round" stroke-linejoin="round"/>
<path d="M128.417 141.314H94.5828C92.7373 141.314 91.1993 139.783 91.1993 137.946V137.334C91.1993 135.496 92.7373 133.965 94.5828 133.965H128.417C130.263 133.965 131.801 135.496 131.801 137.334V137.946C131.801 139.783 130.263 141.314 128.417 141.314Z" fill="white" stroke="#006D61" stroke-width="1.6521" stroke-miterlimit="10"/>
<path d="M85.9703 134.119H85.0476C80.28 134.119 76.2814 130.291 76.2814 125.392V74.1022C76.2814 72.2649 77.8193 70.7339 79.6648 70.7339H82.5869C84.4324 70.7339 85.9703 72.2649 85.9703 74.1022V134.119Z" fill="#F3FAFF" stroke="#006D61" stroke-width="1.6521" stroke-miterlimit="10"/>
<path d="M137.03 134.119H137.952C142.72 134.119 146.719 130.291 146.719 125.392V74.1022C146.719 72.2649 145.181 70.7339 143.335 70.7339H140.413C138.568 70.7339 137.03 72.2649 137.03 74.1022V134.119Z" fill="#F3FAFF" stroke="#006D61" stroke-width="1.6521" stroke-miterlimit="10"/>
<path d="M135.03 76.5518H88.2773V131.21H135.03V76.5518Z" fill="#54CDBE"/>
<path d="M97.8125 114.521H97.3511C96.1208 114.521 95.198 113.603 95.198 112.378V73.9487H99.9656V112.378C99.9656 113.603 99.0428 114.521 97.8125 114.521Z" fill="white" stroke="#006D61" stroke-width="1.2702" stroke-miterlimit="10"/>
<path d="M111.654 114.521H111.192C109.962 114.521 109.039 113.603 109.039 112.378V73.9487H113.807V112.378C113.807 113.603 112.884 114.521 111.654 114.521Z" fill="white" stroke="#006D61" stroke-width="1.2702" stroke-miterlimit="10"/>
<path d="M125.649 114.521H125.188C123.957 114.521 123.035 113.603 123.035 112.378V73.9487H127.802V112.378C127.802 113.603 126.726 114.521 125.649 114.521Z" fill="white" stroke="#006D61" stroke-width="1.2702" stroke-miterlimit="10"/>
<path opacity="0.3" d="M127.494 139.018H94.8904C94.1214 139.018 93.5062 138.406 93.5062 137.64V137.334C93.5062 136.568 94.1214 135.956 94.8904 135.956H127.494C128.263 135.956 128.879 136.568 128.879 137.334V137.64C128.879 138.406 128.263 139.018 127.494 139.018Z" fill="#75D1F7"/>
<path d="M99.9656 127.076H95.8132C95.5056 127.076 95.198 126.77 95.198 126.463V122.33C95.198 122.023 95.5056 121.717 95.8132 121.717H99.9656C100.273 121.717 100.581 122.023 100.581 122.33V126.463C100.581 126.923 100.273 127.076 99.9656 127.076Z" fill="white" stroke="#006D61" stroke-width="1.2702" stroke-miterlimit="10"/>
<path d="M113.653 127.076H109.501C109.193 127.076 108.886 126.77 108.886 126.463V122.33C108.886 122.023 109.193 121.717 109.501 121.717H113.653C113.961 121.717 114.268 122.023 114.268 122.33V126.463C114.268 126.923 113.961 127.076 113.653 127.076Z" fill="white" stroke="#006D61" stroke-width="1.2702" stroke-miterlimit="10"/>
<path d="M127.495 127.076H123.342C123.035 127.076 122.727 126.77 122.727 126.463V122.33C122.727 122.023 123.035 121.717 123.342 121.717H127.495C127.802 121.717 128.11 122.023 128.11 122.33V126.463C128.11 126.923 127.802 127.076 127.495 127.076Z" fill="white" stroke="#006D61" stroke-width="1.2702" stroke-miterlimit="10"/>
<path d="M126.879 205.159C126.879 205.159 122.266 206.383 111.5 206.383C100.427 206.383 95.6594 205.005 95.6594 205.005V141.314H127.033V205.159H126.879Z" fill="#54CDBE" stroke="#006D61" stroke-width="1.6521" stroke-miterlimit="10"/>
</svg>
