<svg width="308" height="197" viewBox="0 0 308 197" fill="none" xmlns="http://www.w3.org/2000/svg">
<g clip-path="url(#clip0_2_2303)">
<path d="M267.777 130.77H36.8574V5.63315C36.8574 3.13846 38.8605 1.04614 41.4245 1.04614H263.21C265.694 1.04614 267.777 3.05799 267.777 5.63315V130.77Z" fill="white" stroke="#006D61" stroke-width="2.7166" stroke-miterlimit="10"/>
<path opacity="0.3" d="M261.768 124.493H43.1072V7.80597C43.1072 7.72549 43.1873 7.64502 43.2674 7.64502H261.608C261.688 7.64502 261.768 7.72549 261.768 7.80597V124.493Z" stroke="#54CDBE" stroke-width="6.3388" stroke-miterlimit="10" stroke-linecap="round" stroke-linejoin="round"/>
<path d="M269.3 136.162V156.924C269.3 159.821 266.976 162.155 264.092 162.155H178.278V177.042H193.341C197.668 177.042 201.194 180.583 201.194 184.929V185.734H106.486V184.929C106.486 180.583 110.011 177.042 114.338 177.042H126.437V162.155H42.1457C39.2612 162.155 36.9376 159.821 36.9376 156.924V136.162H269.3Z" fill="white" stroke="#006D61" stroke-width="2.7166" stroke-miterlimit="10"/>
<path opacity="0.3" d="M262.89 159.016H43.4277C41.9053 159.016 40.6233 157.729 40.6233 156.2V140.105H265.774V156.2C265.694 157.729 264.492 159.016 262.89 159.016Z" fill="#54CDBE"/>
<path d="M258.723 10.9445H47.5941V120.228H258.723V10.9445Z" fill="#F3FFFE" stroke="#006D61" stroke-width="1.9922" stroke-miterlimit="10"/>
<path d="M301.991 196.034H5.92921C3.12484 196.034 0.881348 193.781 0.881348 190.965C0.881348 188.148 3.12484 185.895 5.92921 185.895H301.991C304.795 185.895 307.038 188.148 307.038 190.965C307.038 193.781 304.795 196.034 301.991 196.034Z" fill="white" stroke="#006D61" stroke-width="2.3858" stroke-miterlimit="10"/>
<path d="M5.60876 190.964H302.552" stroke="#6DBF9E" stroke-width="3.9763" stroke-miterlimit="10" stroke-linecap="round" stroke-linejoin="round"/>
<path d="M249.509 113.549H56.8085C56.0073 113.549 55.2861 112.905 55.2861 112.02V20.3599C55.2861 19.5552 55.9271 18.8309 56.8085 18.8309H249.509C250.31 18.8309 251.031 19.4747 251.031 20.3599V112.02C251.031 112.905 250.31 113.549 249.509 113.549Z" stroke="#9FC9B3" stroke-width="1.8111" stroke-miterlimit="10" stroke-linecap="round" stroke-linejoin="round"/>
<path d="M116.101 41.7659L150.955 27.4415L185.81 41.7659C185.81 41.7659 187.572 54.9636 178.518 74.5187C168.503 96.0857 150.955 105.743 150.955 105.743C150.955 105.743 137.014 98.5804 123.152 74.1164C114.899 59.4701 116.101 41.7659 116.101 41.7659Z" fill="white" stroke="#025E53" stroke-width="1.8965" stroke-miterlimit="10" stroke-linecap="round" stroke-linejoin="round"/>
<path d="M121.79 45.3872L150.955 33.3966L180.121 45.3872C180.121 45.3872 181.563 56.4121 174.031 72.7483C165.698 90.7745 150.955 98.9023 150.955 98.9023C150.955 98.9023 139.257 92.8668 127.719 72.4264C120.828 60.1944 121.79 45.3872 121.79 45.3872Z" stroke="#B2DDC8" stroke-width="2.5286" stroke-miterlimit="10" stroke-linecap="round" stroke-linejoin="round"/>
<path fill-rule="evenodd" clip-rule="evenodd" d="M156.724 79.5886H145.907C142.382 79.5886 139.578 76.772 139.578 73.2312V62.3672C139.578 58.8264 142.382 56.0098 145.907 56.0098H156.724C160.25 56.0098 163.054 58.8264 163.054 62.3672V73.2312C163.054 76.772 160.25 79.5886 156.724 79.5886Z" stroke="#5EC4B9" stroke-width="2.5286" stroke-miterlimit="10"/>
<path d="M145.427 56.1707V51.8251C145.427 48.5256 148.071 45.87 151.356 45.87C154.641 45.87 157.285 48.5256 157.285 51.8251V55.9292" stroke="#5EC4B9" stroke-width="2.5286" stroke-miterlimit="10"/>
<path fill-rule="evenodd" clip-rule="evenodd" d="M154.24 65.3447C154.24 66.4713 153.599 67.5175 152.558 67.9199V73.6335C152.558 73.714 152.478 73.7945 152.398 73.7945H150.234C150.154 73.7945 150.074 73.714 150.074 73.6335V67.9199C149.112 67.437 148.471 66.4713 148.471 65.3447C148.471 63.8157 149.753 62.5281 151.276 62.5281C153.039 62.4476 154.24 63.7352 154.24 65.3447Z" stroke="#5EC4B9" stroke-width="1.8965" stroke-miterlimit="10"/>
</g>
<defs>
<clipPath id="clip0_2_2303">
<rect width="308" height="197" fill="white"/>
</clipPath>
</defs>
</svg>
