<svg width="225" height="224" viewBox="0 0 225 224" fill="none" xmlns="http://www.w3.org/2000/svg">
<path d="M112.5 222.301C173.689 222.301 223.293 172.917 223.293 112C223.293 51.0825 173.689 1.69922 112.5 1.69922C51.3107 1.69922 1.70691 51.0825 1.70691 112C1.70691 172.917 51.3107 222.301 112.5 222.301Z" stroke="#0075CB" stroke-width="3" stroke-miterlimit="10"/>
<path d="M112.5 216.969C170.731 216.969 217.937 169.973 217.937 112C217.937 54.0275 170.731 7.03149 112.5 7.03149C54.2686 7.03149 7.06274 54.0275 7.06274 112C7.06274 169.973 54.2686 216.969 112.5 216.969Z" stroke="#6ED4FF" stroke-width="6.67" stroke-miterlimit="10" stroke-linecap="round" stroke-linejoin="round"/>
<path d="M112.5 208C165.795 208 209 165.019 209 112C209 58.9807 165.795 16 112.5 16C59.2045 16 16 58.9807 16 112C16 165.019 59.2045 208 112.5 208Z" fill="#D4F2FF" stroke="#0075CB" stroke-width="3" stroke-miterlimit="10" stroke-linecap="round" stroke-linejoin="round"/>
<path d="M48.2586 142.124L36 127.448H188.069L176.741 142.124H48.2586Z" fill="white" stroke="#0075CB" stroke-width="1.5" stroke-miterlimit="10"/>
<path d="M44.5344 85.8923L59.5861 121.578H65.0172L48.8792 86.6647L44.5344 85.8923Z" fill="white" stroke="#0075CB" stroke-width="2" stroke-miterlimit="10"/>
<path d="M77.8966 74.4607L92.0173 121.578H97.6035L82.8621 75.0786L77.8966 74.4607Z" fill="white" stroke="#0075CB" stroke-width="2" stroke-miterlimit="10"/>
<path d="M174.724 86.2014L159.672 122.041H154.241L170.224 87.1283L174.724 86.2014Z" fill="white" stroke="#0075CB" stroke-width="2" stroke-miterlimit="10"/>
<path d="M141.362 74.9241L127.086 122.041H121.655L136.241 75.542L141.362 74.9241Z" fill="white" stroke="#0075CB" stroke-width="2" stroke-miterlimit="10"/>
<path d="M193.81 130.384H36H31.1897V122.042H193.81V130.384Z" fill="white" stroke="#0075CB" stroke-width="2" stroke-miterlimit="10"/>
<path d="M51.2069 134.091H173.017" stroke="#0075CB" stroke-width="1.5" stroke-miterlimit="10" stroke-linecap="round" stroke-linejoin="round"/>
<path d="M51.2069 136.563H173.017" stroke="#0075CB" stroke-width="1.5" stroke-miterlimit="10" stroke-linecap="round" stroke-linejoin="round"/>
<path d="M51.2069 139.034H173.017" stroke="#0075CB" stroke-width="1.5" stroke-miterlimit="10" stroke-linecap="round" stroke-linejoin="round"/>
<path d="M191.172 124.05H33.8276V129.147H191.172V124.05Z" fill="#6ED4FF"/>
<path d="M77.1207 127.757C77.892 127.757 78.5172 127.135 78.5172 126.367C78.5172 125.599 77.892 124.977 77.1207 124.977C76.3494 124.977 75.7241 125.599 75.7241 126.367C75.7241 127.135 76.3494 127.757 77.1207 127.757Z" fill="white" stroke="#0075CB" stroke-width="1.5" stroke-miterlimit="10"/>
<path d="M97.1379 127.757C97.9092 127.757 98.5344 127.135 98.5344 126.367C98.5344 125.599 97.9092 124.977 97.1379 124.977C96.3666 124.977 95.7413 125.599 95.7413 126.367C95.7413 127.135 96.3666 127.757 97.1379 127.757Z" fill="white" stroke="#0075CB" stroke-width="1.5" stroke-miterlimit="10"/>
<path d="M116.069 127.757C116.84 127.757 117.465 127.135 117.465 126.367C117.465 125.599 116.84 124.977 116.069 124.977C115.298 124.977 114.672 125.599 114.672 126.367C114.672 127.135 115.298 127.757 116.069 127.757Z" fill="white" stroke="#0075CB" stroke-width="1.5" stroke-miterlimit="10"/>
<path d="M135.931 127.757C136.702 127.757 137.328 127.135 137.328 126.367C137.328 125.599 136.702 124.977 135.931 124.977C135.16 124.977 134.534 125.599 134.534 126.367C134.534 127.135 135.16 127.757 135.931 127.757Z" fill="white" stroke="#0075CB" stroke-width="1.5" stroke-miterlimit="10"/>
<path d="M47.7931 88.3643L61.7586 120.033" stroke="#6ED4FF" stroke-miterlimit="10" stroke-linecap="round" stroke-linejoin="round"/>
<path d="M80.8448 76.6235L93.8793 119.57" stroke="#6ED4FF" stroke-miterlimit="10" stroke-linecap="round" stroke-linejoin="round"/>
<path d="M138.414 76.6235L124.914 119.57" stroke="#6ED4FF" stroke-miterlimit="10" stroke-linecap="round" stroke-linejoin="round"/>
<path d="M171.465 88.6731L164.638 104.43L157.81 120.188" stroke="#6ED4FF" stroke-miterlimit="10" stroke-linecap="round" stroke-linejoin="round"/>
</svg>
