<svg width="235" height="235" viewBox="0 0 235 235" fill="none" xmlns="http://www.w3.org/2000/svg">
<path d="M117.5 230.369C179.197 230.369 229.212 180.354 229.212 118.658C229.212 56.9609 179.197 6.9458 117.5 6.9458C55.8033 6.9458 5.78821 56.9609 5.78821 118.658C5.78821 180.354 55.8033 230.369 117.5 230.369Z" stroke="#0075CB" stroke-width="3.2" stroke-miterlimit="10"/>
<path d="M117.5 225.762C176.665 225.762 224.628 177.799 224.628 118.634C224.628 59.4695 176.665 11.5068 117.5 11.5068C58.3351 11.5068 10.3724 59.4695 10.3724 118.634C10.3724 177.799 58.3351 225.762 117.5 225.762Z" stroke="#6ED4FF" stroke-width="5.67" stroke-miterlimit="10" stroke-linecap="round" stroke-linejoin="round"/>
<path d="M117.5 218.469C172.637 218.469 217.335 173.772 217.335 118.635C217.335 63.4975 172.637 18.8 117.5 18.8C62.3629 18.8 17.6655 63.4975 17.6655 118.635C17.6655 173.772 62.3629 218.469 117.5 218.469Z" fill="#D5F2FF" stroke="#0075CB" stroke-width="3" stroke-miterlimit="10" stroke-linecap="round" stroke-linejoin="round"/>
<path d="M132.654 141.648H103.643C101.45 141.648 99.6725 143.426 99.6725 145.619C99.6725 147.812 101.45 149.59 103.643 149.59H132.654C134.846 149.59 136.624 147.812 136.624 145.619C136.624 143.426 134.846 141.648 132.654 141.648Z" fill="white" stroke="#0075CB" stroke-width="2.5" stroke-miterlimit="10"/>
<path d="M134.679 217.172C134.679 217.172 129.817 218.469 118.472 218.469C106.803 218.469 101.779 217.01 101.779 217.01V153.479C101.779 151.372 103.562 149.59 105.669 149.59H130.952C133.059 149.59 134.841 151.372 134.841 153.479V217.172H134.679Z" fill="white" stroke="#0075CB" stroke-width="2.5" stroke-miterlimit="10"/>
<path d="M106.155 113.124V111.341C106.155 97.8896 100.969 84.924 91.8932 75.0378L90.9208 74.0654" stroke="#0075CB" stroke-width="2" stroke-miterlimit="10"/>
<path d="M117.5 113.124V54.2932" stroke="#0075CB" stroke-width="2.5" stroke-miterlimit="10"/>
<path d="M111.828 113.124V112.8C111.828 94.6483 107.938 76.4966 100.645 59.9656" stroke="#0075CB" stroke-width="2.5" stroke-miterlimit="10"/>
<path d="M88.9759 74.5517C90.408 74.5517 91.569 73.3907 91.569 71.9586C91.569 70.5265 90.408 69.3655 88.9759 69.3655C87.5438 69.3655 86.3828 70.5265 86.3828 71.9586C86.3828 73.3907 87.5438 74.5517 88.9759 74.5517Z" fill="white" stroke="#0075CB" stroke-width="1.6521" stroke-miterlimit="10"/>
<path d="M99.3484 59.4794C100.78 59.4794 101.941 58.3184 101.941 56.8863C101.941 55.4542 100.78 54.2932 99.3484 54.2932C97.9162 54.2932 96.7552 55.4542 96.7552 56.8863C96.7552 58.3184 97.9162 59.4794 99.3484 59.4794Z" fill="white" stroke="#0075CB" stroke-width="1.6521" stroke-miterlimit="10"/>
<path d="M128.683 113.124V112.638C128.683 98.2139 134.193 84.438 143.917 73.9036" stroke="#0075CB" stroke-width="2.5" stroke-miterlimit="10"/>
<path d="M123.172 113.124V112.8C123.172 94.6483 127.062 76.4966 134.355 59.9656" stroke="#0075CB" stroke-width="2.5" stroke-miterlimit="10"/>
<path d="M146.024 74.5517C147.456 74.5517 148.617 73.3907 148.617 71.9586C148.617 70.5265 147.456 69.3655 146.024 69.3655C144.592 69.3655 143.431 70.5265 143.431 71.9586C143.431 73.3907 144.592 74.5517 146.024 74.5517Z" fill="white" stroke="#0075CB" stroke-width="1.6521" stroke-miterlimit="10"/>
<path d="M135.652 59.4794C137.084 59.4794 138.245 58.3184 138.245 56.8863C138.245 55.4542 137.084 54.2932 135.652 54.2932C134.22 54.2932 133.059 55.4542 133.059 56.8863C133.059 58.3184 134.22 59.4794 135.652 59.4794Z" fill="white" stroke="#0075CB" stroke-width="1.6521" stroke-miterlimit="10"/>
<path d="M117.5 54.2931C118.932 54.2931 120.093 53.1322 120.093 51.7C120.093 50.2679 118.932 49.1069 117.5 49.1069C116.068 49.1069 114.907 50.2679 114.907 51.7C114.907 53.1322 116.068 54.2931 117.5 54.2931Z" fill="white" stroke="#0075CB" stroke-width="1.6521" stroke-miterlimit="10"/>
<path d="M129.655 141.648H106.641C104.048 141.648 101.941 139.541 101.941 136.948V107.614C101.941 104.859 104.21 102.59 106.966 102.59H129.493C132.248 102.59 134.517 104.859 134.517 107.614V136.948C134.355 139.541 132.248 141.648 129.655 141.648Z" fill="white" stroke="#0075CB" stroke-width="2.5" stroke-miterlimit="10"/>
<path d="M131.6 106.641H104.859V138.083H131.6V106.641Z" fill="#6ED4FF"/>
<rect x="104.187" y="152.808" width="27.7833" height="62.5123" fill="#6ED4FF"/>
</svg>
