<svg width="335" height="149" viewBox="0 0 335 149" fill="none" xmlns="http://www.w3.org/2000/svg">
<path opacity="0.3" d="M56.686 135.883L46.3246 132.254C45.3682 132.414 44.4118 132.521 43.4553 132.521H28.046C27.0365 132.521 26.0269 132.414 25.0704 132.2L14.6559 135.83C12.2117 136.684 9.76743 134.602 10.1925 132.04L13.115 116.668C13.1681 116.027 13.2212 115.387 13.3275 114.8C13.4869 113.892 13.6995 113.038 14.0183 112.237C16.6219 104.871 25.0173 101.402 32.1906 104.391L32.9345 104.711H37.823L38.9919 104.231C46.2715 101.349 54.6138 104.871 57.3768 112.237C57.7488 113.198 58.0144 114.159 58.1738 115.227L58.227 115.173L61.1494 132.094C61.5745 134.656 59.1303 136.737 56.686 135.883Z" fill="#6ED4FF"/>
<path d="M242.395 98.5731H69.9167V4.68311C69.9167 3.02842 71.2451 1.64062 72.9455 1.64062H239.419C241.066 1.64062 242.448 2.97505 242.448 4.68311V98.5731H242.395Z" fill="white" stroke="#0075CB" stroke-width="2.5" stroke-miterlimit="10"/>
<path d="M237.931 93.876H74.5927V6.71149C74.5927 6.65811 74.6458 6.60474 74.6989 6.60474H237.825C237.878 6.60474 237.931 6.65811 237.931 6.71149V93.876Z" stroke="#6ED4FF" stroke-width="5" stroke-miterlimit="10" stroke-linecap="round" stroke-linejoin="round"/>
<path d="M243.563 102.576V118.109C243.563 120.244 241.81 122.006 239.685 122.006H175.497V133.108H186.709C189.95 133.108 192.553 135.723 192.553 138.979V139.62H121.883V138.979C121.883 135.723 124.487 133.108 127.728 133.108H136.761V122.006H73.7956C71.6171 122.006 69.9167 120.244 69.9167 118.109V102.576H243.563Z" fill="white" stroke="#0075CB" stroke-width="2.5" stroke-miterlimit="10" stroke-linejoin="bevel"/>
<path d="M238.994 119.657H74.5396C73.53 119.657 72.6798 118.803 72.6798 117.789V105.512H240.907V117.789C240.854 118.856 240.057 119.657 238.994 119.657Z" fill="#6ED4FF"/>
<path d="M235.646 9.06006H77.8871V90.7267H235.646V9.06006Z" stroke="#0075CB" stroke-width="2.5" stroke-miterlimit="10"/>
<path d="M329.643 147.306H5.35714C3.338 147.306 1.6908 145.652 1.6908 143.623V143.463C1.6908 141.435 3.338 139.78 5.35714 139.78H329.696C331.715 139.78 333.362 141.435 333.362 143.463V143.623C333.309 145.652 331.662 147.306 329.643 147.306Z" fill="white" stroke="#0075CB" stroke-width="2.5" stroke-miterlimit="10"/>
<path d="M6.68555 143.57H328.474" stroke="#6ED4FF" stroke-width="3" stroke-miterlimit="10" stroke-linecap="round" stroke-linejoin="round"/>
<path d="M228.898 85.7092H84.6884C84.157 85.7092 83.6788 85.2822 83.6788 84.695V15.9456C83.6788 15.4118 84.1039 14.9314 84.6884 14.9314H228.898C229.429 14.9314 229.908 15.3584 229.908 15.9456V84.695C229.855 85.2288 229.429 85.7092 228.898 85.7092Z" stroke="#6ED4FF" stroke-width="2" stroke-miterlimit="10" stroke-linecap="round" stroke-linejoin="round"/>
<path d="M308.814 138.819H257.113C256.316 138.819 255.731 138.179 255.731 137.432V17.3868C255.731 16.5862 256.369 15.999 257.113 15.999H308.814C309.611 15.999 310.195 16.6395 310.195 17.3868V137.432C310.195 138.232 309.611 138.819 308.814 138.819Z" fill="white" stroke="#0075CB" stroke-width="2.5" stroke-miterlimit="10"/>
<path opacity="0.3" d="M307.592 19.095H258.654V135.51H307.592V19.095Z" fill="#6ED4FF"/>
<path d="M300.046 121.418H265.933C264.552 121.418 263.383 120.297 263.383 118.856C263.383 117.468 264.499 116.294 265.933 116.294H300.046C301.428 116.294 302.597 117.415 302.597 118.856C302.597 120.297 301.481 121.418 300.046 121.418Z" stroke="#0075CB" stroke-width="2" stroke-miterlimit="10"/>
<path d="M300.046 130.599H265.933C264.552 130.599 263.383 129.478 263.383 128.037C263.383 126.649 264.499 125.475 265.933 125.475H300.046C301.428 125.475 302.597 126.596 302.597 128.037C302.597 129.425 301.481 130.599 300.046 130.599Z" stroke="#0075CB" stroke-width="2" stroke-miterlimit="10"/>
<path d="M282.246 109.409C285.944 109.409 288.941 106.397 288.941 102.683C288.941 98.9686 285.944 95.9575 282.246 95.9575C278.548 95.9575 275.551 98.9686 275.551 102.683C275.551 106.397 278.548 109.409 282.246 109.409Z" stroke="#0075CB" stroke-width="2" stroke-miterlimit="10"/>
<path d="M282.246 105.512C283.801 105.512 285.062 104.246 285.062 102.683C285.062 101.121 283.801 99.8542 282.246 99.8542C280.691 99.8542 279.43 101.121 279.43 102.683C279.43 104.246 280.691 105.512 282.246 105.512Z" stroke="#0075CB" stroke-width="2" stroke-miterlimit="10"/>
<path d="M301.375 27.6691H264.605C264.511 27.6691 264.414 27.5748 264.414 27.4752C264.414 27.3755 264.511 27.2812 264.605 27.2812H301.375C301.468 27.2812 301.566 27.3755 301.566 27.4752C301.566 27.5748 301.468 27.6691 301.375 27.6691Z" fill="#006D61" stroke="#0791ED"/>
<path d="M301.375 32.4728H264.605C264.511 32.4728 264.414 32.3785 264.414 32.2789C264.414 32.1792 264.511 32.085 264.605 32.085H301.375C301.468 32.085 301.566 32.1792 301.566 32.2789C301.566 32.3785 301.468 32.4728 301.375 32.4728Z" fill="#006D61" stroke="#0791ED"/>
<path d="M301.375 37.2235H264.605C264.511 37.2235 264.414 37.1292 264.414 37.0296C264.414 36.93 264.511 36.8357 264.605 36.8357H301.375C301.468 36.8357 301.566 36.93 301.566 37.0296C301.566 37.1292 301.468 37.2235 301.375 37.2235Z" fill="#006D61" stroke="#0791ED"/>
<path d="M277.251 84.0013H266.305C265.721 84.0013 265.296 83.5209 265.296 82.9872V49.8401C265.296 49.2529 265.774 48.8259 266.305 48.8259H277.251C277.836 48.8259 278.261 49.3063 278.261 49.8401V82.9872C278.314 83.5743 277.836 84.0013 277.251 84.0013Z" fill="white" stroke="#0075CB" stroke-width="2" stroke-miterlimit="10"/>
<path d="M300.472 84.0013H289.526C288.941 84.0013 288.516 83.5209 288.516 82.9872V49.8401C288.516 49.2529 288.994 48.8259 289.526 48.8259H300.472C301.056 48.8259 301.481 49.3063 301.481 49.8401V82.9872C301.481 83.5743 301.003 84.0013 300.472 84.0013Z" fill="white" stroke="#0075CB" stroke-width="2" stroke-miterlimit="10"/>
<path d="M268.112 111.17C269.667 111.17 270.928 109.904 270.928 108.341C270.928 106.779 269.667 105.512 268.112 105.512C266.557 105.512 265.296 106.779 265.296 108.341C265.296 109.904 266.557 111.17 268.112 111.17Z" stroke="#0075CB" stroke-width="2" stroke-miterlimit="10"/>
<path d="M297.549 111.17C299.104 111.17 300.365 109.904 300.365 108.341C300.365 106.779 299.104 105.512 297.549 105.512C295.994 105.512 294.733 106.779 294.733 108.341C294.733 109.904 295.994 111.17 297.549 111.17Z" stroke="#0075CB" stroke-width="2" stroke-miterlimit="10"/>
<path d="M60.1398 139.139L48.1843 134.976C47.1216 135.19 46.0057 135.296 44.8368 135.296H27.2489C26.0799 135.296 24.911 135.19 23.8482 134.976L11.8396 139.139C9.02345 140.1 6.20727 137.698 6.73862 134.763L10.1393 117.095C10.1924 116.348 10.2456 115.654 10.405 114.96C10.5644 113.946 10.8301 112.931 11.202 112.024C14.2307 103.59 23.8482 99.5872 32.0842 103.003L32.9344 103.377H38.5668L39.8951 102.843C48.2374 99.5338 57.8549 103.59 60.9899 112.024C61.415 113.092 61.6807 114.266 61.8932 115.44L61.9464 115.387L65.2939 134.816C65.7721 137.698 62.9559 140.1 60.1398 139.139Z" fill="#DAF4FF" stroke="#0075CB" stroke-width="2.5" stroke-miterlimit="10"/>
<path d="M28.8961 115.067V116.241H25.1766V119.924H22.9449V116.241H19.2255V113.946H22.9449V110.263H25.1766V113.946H28.8961V115.067Z" fill="white" stroke="#0075CB" stroke-width="1.5" stroke-miterlimit="10"/>
<path d="M46.9091 113.679C47.8481 113.679 48.6094 112.914 48.6094 111.971C48.6094 111.027 47.8481 110.263 46.9091 110.263C45.97 110.263 45.2087 111.027 45.2087 111.971C45.2087 112.914 45.97 113.679 46.9091 113.679Z" fill="#CDECF6" stroke="#0075CB" stroke-width="1.5" stroke-miterlimit="10"/>
<path d="M46.9091 120.404C47.8481 120.404 48.6094 119.639 48.6094 118.696C48.6094 117.753 47.8481 116.988 46.9091 116.988C45.97 116.988 45.2087 117.753 45.2087 118.696C45.2087 119.639 45.97 120.404 46.9091 120.404Z" fill="#CDECF6" stroke="#0075CB" stroke-width="1.5" stroke-miterlimit="10"/>
<path d="M50.2566 117.042C51.1957 117.042 51.957 116.277 51.957 115.334C51.957 114.39 51.1957 113.625 50.2566 113.625C49.3175 113.625 48.5563 114.39 48.5563 115.334C48.5563 116.277 49.3175 117.042 50.2566 117.042Z" fill="#CDECF6" stroke="#0075CB" stroke-width="1.5" stroke-miterlimit="10"/>
<path d="M43.5615 117.042C44.5006 117.042 45.2619 116.277 45.2619 115.334C45.2619 114.39 44.5006 113.625 43.5615 113.625C42.6225 113.625 41.8612 114.39 41.8612 115.334C41.8612 116.277 42.6225 117.042 43.5615 117.042Z" fill="#CDECF6" stroke="#0075CB" stroke-width="1.5" stroke-miterlimit="10"/>
<path d="M40.5328 125.101H31.1278V126.276H40.5328V125.101Z" fill="#0075CB"/>
<path d="M40.5328 127.77H31.1278V128.945H40.5328V127.77Z" fill="#0075CB"/>
<path d="M36.9489 85.4067H35.0569V103.426H36.9489V85.4067Z" fill="#0075CB"/>
<path d="M176.883 44.4458C177.415 54.0003 171.304 62.1136 162.855 64.6757L158.126 74.07C157.648 74.9774 156.373 74.9774 155.895 74.07L151.006 64.5689C142.717 61.9001 136.872 53.9469 137.244 44.7661C137.722 33.3434 147.659 24.5896 159.136 25.7639C168.7 26.7781 176.299 34.7846 176.883 44.4458Z" fill="#DAF4FF" stroke="#0791ED" stroke-width="2" stroke-miterlimit="10"/>
<path d="M156.851 54.4275C157.643 54.4275 158.286 53.7823 158.286 52.9863C158.286 52.1904 157.643 51.5452 156.851 51.5452C156.059 51.5452 155.417 52.1904 155.417 52.9863C155.417 53.7823 156.059 54.4275 156.851 54.4275Z" fill="#DAF4FF" stroke="#0791ED" stroke-width="2" stroke-miterlimit="10" stroke-linecap="round" stroke-linejoin="round"/>
<path d="M152.707 48.6094C153.876 48.0222 155.576 47.5952 157.011 47.5952C158.605 47.5952 160.039 48.0222 161.314 48.7695" fill="#DAF4FF"/>
<path d="M152.707 48.6094C153.876 48.0222 155.576 47.5952 157.011 47.5952C158.605 47.5952 160.039 48.0222 161.314 48.7695" stroke="#0791ED" stroke-width="2" stroke-miterlimit="10" stroke-linecap="round" stroke-linejoin="round"/>
<path d="M149.146 44.9796C151.325 43.9121 154.407 43.1648 157.011 43.1648C159.88 43.1648 162.59 43.9121 164.928 45.2465" fill="#DAF4FF"/>
<path d="M149.146 44.9796C151.325 43.9121 154.407 43.1648 157.011 43.1648C159.88 43.1648 162.59 43.9121 164.928 45.2465" stroke="#0791ED" stroke-width="2" stroke-miterlimit="10" stroke-linecap="round" stroke-linejoin="round"/>
<path d="M146.118 40.8697C149.093 39.3752 153.397 38.3076 156.957 38.3076C160.943 38.3076 164.662 39.3752 167.903 41.2433" fill="#DAF4FF"/>
<path d="M146.118 40.8697C149.093 39.3752 153.397 38.3076 156.957 38.3076C160.943 38.3076 164.662 39.3752 167.903 41.2433" stroke="#0791ED" stroke-width="2" stroke-miterlimit="10" stroke-linecap="round" stroke-linejoin="round"/>
<rect x="267.778" y="51.2644" width="7.56818" height="30.3484" fill="#6ED4FF"/>
<rect x="291.429" y="51.2644" width="7.56821" height="30.3484" fill="#6ED4FF"/>
</svg>
