<svg width="280" height="214" viewBox="0 0 280 214" fill="none" xmlns="http://www.w3.org/2000/svg">
<g clip-path="url(#clip0_2_2006)">
<path d="M254.507 212.672H25.493C12.1712 212.672 1.3927 201.93 1.3927 188.653H278.668C278.607 201.87 267.829 212.672 254.507 212.672Z" fill="white" stroke="#0075CB" stroke-width="3" stroke-miterlimit="10"/>
<path opacity="0.3" d="M256.263 206.879H21.6176C17.6816 206.879 14.4723 203.68 14.4723 199.757V194.628H263.408V199.757C263.408 203.68 260.199 206.879 256.263 206.879Z" fill="#75D1F7"/>
<path d="M106.272 188.593L115.536 200.602H167.855L174.394 188.593H106.272Z" fill="white" stroke="#0075CB" stroke-width="3" stroke-miterlimit="10"/>
<path d="M256.384 184.791H23.6158V51.5386C23.6158 48.0987 26.4013 45.3226 29.8529 45.3226H250.208C253.659 45.3226 256.445 48.0987 256.445 51.5386V184.791H256.384Z" fill="white" stroke="#0075CB" stroke-width="3" stroke-miterlimit="10"/>
<path d="M246.029 57.5132H34.3339V175.074H246.029V57.5132Z" fill="white" stroke="#0075CB" stroke-width="3" stroke-miterlimit="10"/>
<path opacity="0.3" d="M113.478 191.49L117.656 196.861H164.948L168.157 191.49H113.478Z" fill="#75D1F7"/>
<path opacity="0.3" d="M250.45 180.083H30.0345V54.013C30.0345 52.9267 30.9429 52.0214 32.0328 52.0214H248.512C249.602 52.0214 250.51 52.9267 250.51 54.013V180.083H250.45Z" stroke="#75D1F7" stroke-width="5" stroke-miterlimit="10"/>
<path d="M141.998 54.013C143.102 54.013 143.997 53.1213 143.997 52.0214C143.997 50.9215 143.102 50.0299 141.998 50.0299C140.895 50.0299 140 50.9215 140 52.0214C140 53.1213 140.895 54.013 141.998 54.013Z" fill="white" stroke="#006D61" stroke-width="3" stroke-miterlimit="10"/>
<path d="M236.099 162.582H45.5363C44.9307 162.582 44.3857 162.099 44.3857 161.435V71.0919C44.3857 70.4884 44.8702 69.9453 45.5363 69.9453H236.099C236.704 69.9453 237.249 70.4281 237.249 71.0919V161.435C237.189 162.099 236.704 162.582 236.099 162.582Z" stroke="#6ED4FF" stroke-width="2" stroke-miterlimit="10" stroke-linecap="round" stroke-linejoin="round"/>
<path d="M224.412 89.6796H56.0121C53.8928 89.6796 52.2578 87.9898 52.2578 85.9379V81.4721C52.2578 79.3598 53.9533 77.7304 56.0121 77.7304H224.412C226.531 77.7304 228.166 79.4202 228.166 81.4721V85.9379C228.166 87.9898 226.471 89.6796 224.412 89.6796Z" stroke="#6ED4FF" stroke-width="2" stroke-miterlimit="10" stroke-linecap="round" stroke-linejoin="round"/>
<path fill-rule="evenodd" clip-rule="evenodd" d="M121.652 132.83C121.349 132.89 121.107 133.071 120.926 133.312C120.683 133.493 120.502 133.735 120.441 134.037C120.32 134.338 120.26 134.64 120.26 134.942C120.26 135.123 120.381 135.364 120.381 135.545C120.502 135.908 120.683 136.27 120.986 136.571C121.107 136.692 121.289 136.752 121.41 136.873C121.713 137.054 122.137 137.175 122.5 137.175C122.803 137.175 123.045 137.115 123.287 136.994C123.59 136.933 123.832 136.752 124.014 136.511C124.256 136.33 124.438 136.089 124.498 135.787C124.619 135.485 124.68 135.183 124.68 134.882C124.68 134.7 124.559 134.459 124.559 134.278C124.438 133.916 124.256 133.554 123.953 133.252C123.832 133.131 123.651 133.071 123.529 132.95C123.227 132.769 122.803 132.649 122.439 132.649H122.318C122.137 132.649 121.894 132.709 121.652 132.83Z" fill="#6ED4FF"/>
<path fill-rule="evenodd" clip-rule="evenodd" d="M115.415 115.63C112.569 115.63 112.569 120.036 115.415 120.036H119.533C122.379 120.036 122.379 115.63 119.533 115.63H115.415Z" fill="#6ED4FF"/>
<path fill-rule="evenodd" clip-rule="evenodd" d="M151.324 115.027C147.509 115.027 144.481 118.104 144.481 121.846C144.481 125.588 147.569 128.666 151.324 128.666C155.078 128.605 158.045 125.527 157.984 121.846C158.045 118.165 155.078 115.087 151.324 115.027Z" fill="#6ED4FF"/>
<path fill-rule="evenodd" clip-rule="evenodd" d="M166.765 121.665C166.644 113.337 159.801 106.698 151.445 106.759H151.324V106.879H113.78C111.055 107 111.055 111.224 113.901 111.224H133.884C136.73 111.224 136.73 115.57 133.884 115.57H125.407C123.469 116.173 123.469 119.191 125.407 119.673H133.884C136.73 119.673 136.73 124.019 133.884 124.019H117.535C114.689 124.019 114.689 128.364 117.535 128.364H133.884C136.73 128.364 136.73 132.709 133.884 132.709H129.221C126.375 132.709 126.375 137.054 129.221 137.054H151.808C160.164 136.813 166.886 129.993 166.765 121.665ZM160.588 121.786C160.588 126.915 156.471 131.14 151.324 131.261C146.176 131.2 141.998 126.976 142.059 121.846C142.059 121.846 142.059 121.846 142.059 121.786C142.059 116.656 146.237 112.552 151.324 112.552C156.41 112.492 160.588 116.656 160.588 121.786Z" fill="#6ED4FF"/>
<path fill-rule="evenodd" clip-rule="evenodd" d="M97.1886 112.914H70.3633C69.5156 112.914 68.7889 112.19 68.7889 111.345V109.474C68.7889 108.629 69.5156 107.905 70.3633 107.905H97.1886C98.0364 107.905 98.763 108.629 98.763 109.474V111.345C98.763 112.19 98.0969 112.914 97.1886 112.914Z" stroke="#6ED4FF" stroke-width="2" stroke-miterlimit="10" stroke-linecap="round" stroke-linejoin="round"/>
<path fill-rule="evenodd" clip-rule="evenodd" d="M97.1886 126.312H70.3633C69.5156 126.312 68.7889 125.588 68.7889 124.743V122.872C68.7889 122.027 69.5156 121.303 70.3633 121.303H97.1886C98.0364 121.303 98.763 122.027 98.763 122.872V124.743C98.763 125.648 98.0969 126.312 97.1886 126.312Z" stroke="#6ED4FF" stroke-width="2" stroke-miterlimit="10" stroke-linecap="round" stroke-linejoin="round"/>
<path fill-rule="evenodd" clip-rule="evenodd" d="M97.1886 139.408H70.3633C69.5156 139.408 68.7889 138.684 68.7889 137.839V135.968C68.7889 135.123 69.5156 134.399 70.3633 134.399H97.1886C98.0364 134.399 98.763 135.123 98.763 135.968V137.839C98.763 138.744 98.0969 139.408 97.1886 139.408Z" stroke="#6ED4FF" stroke-width="2" stroke-miterlimit="10" stroke-linecap="round" stroke-linejoin="round"/>
<path fill-rule="evenodd" clip-rule="evenodd" d="M208.547 112.914H181.721C180.874 112.914 180.147 112.19 180.147 111.345V109.474C180.147 108.629 180.874 107.905 181.721 107.905H208.547C209.395 107.905 210.121 108.629 210.121 109.474V111.345C210.121 112.19 209.455 112.914 208.547 112.914Z" stroke="#6ED4FF" stroke-width="2" stroke-miterlimit="10" stroke-linecap="round" stroke-linejoin="round"/>
<path fill-rule="evenodd" clip-rule="evenodd" d="M208.547 126.312H181.721C180.874 126.312 180.147 125.588 180.147 124.743V122.872C180.147 122.027 180.874 121.303 181.721 121.303H208.547C209.395 121.303 210.121 122.027 210.121 122.872V124.743C210.121 125.648 209.455 126.312 208.547 126.312Z" stroke="#6ED4FF" stroke-width="2" stroke-miterlimit="10" stroke-linecap="round" stroke-linejoin="round"/>
<path fill-rule="evenodd" clip-rule="evenodd" d="M208.547 139.408H181.721C180.874 139.408 180.147 138.684 180.147 137.839V135.968C180.147 135.123 180.874 134.399 181.721 134.399H208.547C209.395 134.399 210.121 135.123 210.121 135.968V137.839C210.121 138.744 209.455 139.408 208.547 139.408Z" stroke="#6ED4FF" stroke-width="2" stroke-miterlimit="10" stroke-linecap="round" stroke-linejoin="round"/>
<path d="M176.346 34.4952C177.216 49.7102 167.423 62.6111 153.923 66.7186L146.391 81.7022C145.638 83.1485 143.552 83.2063 142.799 81.7022L134.977 66.5451C121.708 62.3219 112.38 49.6524 112.959 35.0738C113.712 16.9083 129.646 2.96609 148.013 4.81735C163.31 6.43719 175.477 19.1646 176.346 34.4952Z" fill="white" stroke="#0075CB" stroke-width="3" stroke-miterlimit="10"/>
<path d="M144.2 50.2435C145.489 50.2435 146.533 49.2021 146.533 47.9174C146.533 46.6328 145.489 45.5913 144.2 45.5913C142.911 45.5913 141.867 46.6328 141.867 47.9174C141.867 49.2021 142.911 50.2435 144.2 50.2435Z" stroke="#0075CB" stroke-width="2" stroke-miterlimit="10" stroke-linecap="round" stroke-linejoin="round"/>
<path d="M137.2 40.7065C139.09 39.7761 141.867 39.0783 144.17 39.0783C146.711 39.0783 149.132 39.7761 151.2 40.9391" stroke="#0075CB" stroke-width="2" stroke-miterlimit="10" stroke-linecap="round" stroke-linejoin="round"/>
<path d="M131.6 35.0197C135.018 33.5759 140.058 32.5652 144.171 32.5652C148.748 32.5652 153.092 33.5759 156.8 35.3566" stroke="#0075CB" stroke-width="2" stroke-miterlimit="10" stroke-linecap="round" stroke-linejoin="round"/>
<path d="M126.933 29.1924C131.637 26.75 138.464 25.1218 144.143 25.1218C150.453 25.1218 156.361 26.8082 161.467 29.7739" stroke="#0075CB" stroke-width="2" stroke-miterlimit="10" stroke-linecap="round" stroke-linejoin="round"/>
</g>
<defs>
<clipPath id="clip0_2_2006">
<rect width="280" height="214" fill="white"/>
</clipPath>
</defs>
</svg>
