<svg width="224" height="259" viewBox="0 0 224 259" fill="none" xmlns="http://www.w3.org/2000/svg">
<g clip-path="url(#clip0_301_59)">
<rect x="59" y="8" width="126" height="243" fill="white"/>
<path opacity="0.3" d="M51.1246 102.446C67.762 102.446 81.2492 88.9541 81.2492 72.3114C81.2492 55.6686 67.762 42.177 51.1246 42.177C34.4872 42.177 21 55.6686 21 72.3114C21 88.9541 34.4872 102.446 51.1246 102.446Z" fill="#75D1F7"/>
<path opacity="0.3" d="M189.875 241.186C206.513 241.186 220 227.694 220 211.051C220 194.409 206.513 180.917 189.875 180.917C173.238 180.917 159.751 194.409 159.751 211.051C159.751 227.694 173.238 241.186 189.875 241.186Z" fill="#75D1F7"/>
<path d="M176.117 1.05444H66.603C58.6141 1.05444 52.1232 7.54748 52.1232 15.5389V176.311V244.849C52.1232 252.063 58.0038 257.946 65.216 257.946H176.117C184.106 257.946 190.597 251.453 190.597 243.461V15.5389C190.597 7.54748 184.106 1.05444 176.117 1.05444ZM180.888 237.745C180.888 243.739 176.672 248.567 171.512 248.567H71.2076C66.0482 248.567 61.8318 243.739 61.8318 237.745V22.6424C61.8318 16.6488 66.0482 11.8207 71.2076 11.8207H86.7415C88.0175 11.8207 89.0161 12.9861 89.0161 14.429C89.0161 18.0362 91.5681 21.033 94.6749 21.033L146.103 20.7555C149.265 20.811 151.873 18.7022 151.873 15.0394V14.429C151.873 12.9861 152.871 11.8207 154.147 11.8207H171.512C176.672 11.8207 180.888 16.6488 180.888 22.6424V237.745Z" fill="#6ED4FF" stroke="#0075CB" stroke-width="3" stroke-miterlimit="10"/>
<path d="M133.565 14.651H109.21C108.711 14.651 108.323 14.2625 108.323 13.763V12.7086C108.323 12.2092 108.711 11.8207 109.21 11.8207H133.565C134.064 11.8207 134.453 12.2092 134.453 12.7086V13.763C134.397 14.2625 134.009 14.651 133.565 14.651Z" fill="#0075CB"/>
<path d="M149.321 164.324H93.399C90.0148 164.324 87.2964 161.605 87.2964 158.219V102.279C87.2964 98.894 90.0148 96.1747 93.399 96.1747H149.265C152.65 96.1747 155.368 98.894 155.368 102.279V158.164C155.424 161.549 152.705 164.324 149.321 164.324Z" fill="white" stroke="#0791ED" stroke-width="2" stroke-miterlimit="10"/>
<path opacity="0.3" d="M121.415 151.06C133.089 151.06 142.553 141.594 142.553 129.916C142.553 118.239 133.089 108.772 121.415 108.772C109.742 108.772 100.278 118.239 100.278 129.916C100.278 141.594 109.742 151.06 121.415 151.06Z" fill="#75D1F7"/>
<path d="M121.582 151.671C133.256 151.671 142.719 142.204 142.719 130.527C142.719 118.849 133.256 109.383 121.582 109.383C109.908 109.383 100.445 118.849 100.445 130.527C100.445 142.204 109.908 151.671 121.582 151.671Z" stroke="#0791ED" stroke-width="2" stroke-miterlimit="10"/>
<path d="M121.471 141.182C122.268 141.182 122.913 140.536 122.913 139.739C122.913 138.942 122.268 138.296 121.471 138.296C120.674 138.296 120.028 138.942 120.028 139.739C120.028 140.536 120.674 141.182 121.471 141.182Z" stroke="#0791ED" stroke-width="2" stroke-miterlimit="10" stroke-linecap="round" stroke-linejoin="round"/>
<path d="M117.255 135.299C118.42 134.578 120.139 134.078 121.582 134.078C123.191 134.078 124.633 134.578 125.965 135.466" stroke="#0791ED" stroke-width="2" stroke-miterlimit="10" stroke-linecap="round" stroke-linejoin="round"/>
<path d="M113.648 130.86C115.812 129.528 118.974 128.584 121.582 128.584C124.467 128.584 127.185 129.528 129.571 131.193" stroke="#0791ED" stroke-width="2" stroke-miterlimit="10" stroke-linecap="round" stroke-linejoin="round"/>
<path d="M110.597 125.865C113.593 124.034 117.976 122.757 121.582 122.757C125.576 122.757 129.349 124.034 132.622 126.309" stroke="#0791ED" stroke-width="2" stroke-miterlimit="10" stroke-linecap="round" stroke-linejoin="round"/>
<path d="M165.188 17.7032H163.301V21.4215H165.188V17.7032Z" fill="#6ED4FF"/>
<path d="M167.629 16.4823H165.742V21.3659H167.629V16.4823Z" fill="#6ED4FF"/>
<path d="M170.125 15.4834H168.239V21.4215H170.125V15.4834Z" fill="#6ED4FF"/>
<path d="M82.2478 24.8622H70.6529C70.0981 24.8622 69.6543 24.4182 69.6543 23.8633V19.0906C69.6543 18.5356 70.0981 18.0917 70.6529 18.0917H82.2478C82.8026 18.0917 83.2464 18.5356 83.2464 19.0906V23.8633C83.2464 24.4182 82.8026 24.8622 82.2478 24.8622Z" fill="#6ED4FF"/>
<path d="M75.9789 24.8622H72.8166C72.2618 24.8622 71.818 24.4182 71.818 23.8633V19.0906C71.818 18.5356 72.2618 18.0917 72.8166 18.0917H75.9789C76.5336 18.0917 76.9775 18.5356 76.9775 19.0906V23.8633C76.9775 24.4182 76.5336 24.8622 75.9789 24.8622Z" fill="white"/>
<path fill-rule="evenodd" clip-rule="evenodd" d="M113.149 239.299C112.983 239.354 112.872 239.465 112.761 239.576C112.65 239.687 112.539 239.798 112.484 239.965C112.428 240.131 112.373 240.298 112.373 240.464C112.373 240.575 112.428 240.686 112.428 240.797C112.484 241.019 112.594 241.186 112.761 241.352C112.816 241.408 112.927 241.463 112.983 241.519C113.149 241.63 113.371 241.685 113.593 241.685C113.76 241.685 113.87 241.63 114.037 241.574C114.203 241.519 114.314 241.408 114.425 241.297C114.536 241.186 114.647 241.075 114.703 240.908C114.758 240.742 114.814 240.575 114.814 240.409C114.814 240.298 114.758 240.187 114.758 240.076C114.703 239.854 114.592 239.687 114.425 239.521C114.37 239.465 114.259 239.41 114.203 239.354C114.037 239.243 113.815 239.188 113.593 239.188H113.538C113.371 239.243 113.26 239.243 113.149 239.299Z" fill="#6ED4FF"/>
<path fill-rule="evenodd" clip-rule="evenodd" d="M109.71 229.809C108.156 229.809 108.156 232.251 109.71 232.251H111.984C113.538 232.251 113.538 229.809 111.984 229.809H109.71Z" fill="#6ED4FF"/>
<path fill-rule="evenodd" clip-rule="evenodd" d="M129.46 229.476C127.352 229.476 125.687 231.197 125.687 233.25C125.687 235.359 127.407 237.024 129.46 237.024C131.512 236.968 133.177 235.303 133.121 233.25C133.177 231.197 131.512 229.476 129.46 229.476Z" fill="#6ED4FF"/>
<path fill-rule="evenodd" clip-rule="evenodd" d="M138.003 233.139C137.948 228.533 134.175 224.87 129.571 224.925H129.515V224.981H108.822C107.324 225.036 107.324 227.367 108.877 227.367H119.862C121.415 227.367 121.415 229.754 119.862 229.754H115.202C114.148 230.087 114.148 231.751 115.202 232.029H119.862C121.415 232.029 121.415 234.415 119.862 234.415H110.875C109.321 234.415 109.321 236.802 110.875 236.802H119.862C121.415 236.802 121.415 239.188 119.862 239.188H117.31C115.757 239.188 115.757 241.574 117.31 241.574H129.737C134.342 241.519 138.059 237.745 138.003 233.139ZM134.619 233.194C134.619 236.025 132.345 238.355 129.515 238.411C126.686 238.411 124.356 236.08 124.411 233.194C124.411 230.364 126.686 228.089 129.515 228.089C132.289 228.089 134.619 230.364 134.619 233.194Z" fill="#6ED4FF"/>
<path d="M157.809 56.606H82.3587C80.8054 56.606 79.5848 55.3851 79.5848 53.8312V52.2218C79.5848 50.6679 80.8054 49.447 82.3587 49.447H157.864C159.418 49.447 160.638 50.6679 160.638 52.2218V53.8312C160.583 55.3851 159.362 56.606 157.809 56.606Z" stroke="#6ED4FF" stroke-width="1.2897" stroke-miterlimit="10"/>
<path d="M157.809 71.5343H82.3587C80.8054 71.5343 79.5848 70.3134 79.5848 68.7596V67.1502C79.5848 65.5963 80.8054 64.3754 82.3587 64.3754H157.864C159.418 64.3754 160.638 65.5963 160.638 67.1502V68.7596C160.583 70.3134 159.362 71.5343 157.809 71.5343Z" stroke="#6ED4FF" stroke-width="1.2897" stroke-miterlimit="10"/>
</g>
<path opacity="0.3" d="M213.5 146C219.299 146 224 141.299 224 135.5C224 129.701 219.299 125 213.5 125C207.701 125 203 129.701 203 135.5C203 141.299 207.701 146 213.5 146Z" fill="#75D1F7"/>
<path opacity="0.3" d="M10.5 146C16.299 146 21 141.299 21 135.5C21 129.701 16.299 125 10.5 125C4.70101 125 0 129.701 0 135.5C0 141.299 4.70101 146 10.5 146Z" fill="#75D1F7"/>
<defs>
<clipPath id="clip0_301_59">
<rect width="199" height="259" fill="white" transform="translate(21)"/>
</clipPath>
</defs>
</svg>
