<svg width="236" height="235" viewBox="0 0 236 235" fill="none" xmlns="http://www.w3.org/2000/svg">
<path d="M118 229.846C179.74 229.846 229.79 180.009 229.79 118.531C229.79 57.0526 179.74 7.21484 118 7.21484C56.2604 7.21484 6.21057 57.0526 6.21057 118.531C6.21057 180.009 56.2604 229.846 118 229.846Z" stroke="#006D61" stroke-width="3" stroke-miterlimit="10"/>
<path d="M118 225.762C177.417 225.762 225.584 177.799 225.584 118.634C225.584 59.4695 177.417 11.5068 118 11.5068C58.5834 11.5068 10.4166 59.4695 10.4166 118.634C10.4166 177.799 58.5834 225.762 118 225.762Z" stroke="#54CDBE" stroke-width="5.67" stroke-miterlimit="10" stroke-linecap="round" stroke-linejoin="round"/>
<path d="M118 218.469C173.372 218.469 218.259 173.772 218.259 118.635C218.259 63.4975 173.372 18.8 118 18.8C62.6283 18.8 17.7407 63.4975 17.7407 118.635C17.7407 173.772 62.6283 218.469 118 218.469Z" fill="#CCFFF9" stroke="#006D61" stroke-width="3" stroke-miterlimit="10" stroke-linecap="round" stroke-linejoin="round"/>
<path d="M77.9614 128.521L124.999 82.3311C124.999 82.3311 133.625 102.59 116.047 120.417C98.469 138.245 77.9614 128.521 77.9614 128.521Z" fill="#B2DDC8"/>
<path d="M72.4276 129.817C83.0069 140.352 103.352 136.786 118.163 122.2C132.811 107.614 136.229 87.1932 125.812 76.6587L72.4276 129.817Z" fill="#A9FFF4" stroke="#006C61" stroke-width="2.5" stroke-miterlimit="10" stroke-linecap="round" stroke-linejoin="round"/>
<path d="M114.582 131.438L127.277 118.797C130.044 116.041 134.439 116.041 137.206 118.797L153.319 134.841C156.086 137.597 156.086 141.972 153.319 144.728L140.624 157.369C137.857 160.124 133.462 160.124 130.695 157.369L114.582 141.324C111.815 138.569 111.815 134.193 114.582 131.438Z" fill="#A9FFF4"/>
<path d="M114.582 131.438L113.877 130.729L114.582 131.438ZM127.277 118.797L127.983 119.505L127.277 118.797ZM137.206 118.797L136.5 119.505L137.206 118.797ZM153.319 134.841L154.024 134.133L153.319 134.841ZM153.319 144.728L154.024 145.436L153.319 144.728ZM140.624 157.369L139.918 156.66L140.624 157.369ZM130.695 157.369L129.99 158.078L130.695 157.369ZM114.582 141.324L115.288 140.616L114.582 141.324ZM115.288 132.147L127.983 119.505L126.572 118.088L113.877 130.729L115.288 132.147ZM127.983 119.505C130.36 117.139 134.123 117.139 136.5 119.505L137.911 118.088C134.754 114.944 129.729 114.944 126.572 118.088L127.983 119.505ZM136.5 119.505L152.613 135.55L154.024 134.133L137.911 118.088L136.5 119.505ZM152.613 135.55C154.987 137.914 154.987 141.655 152.613 144.019L154.024 145.436C157.184 142.29 157.184 137.279 154.024 134.133L152.613 135.55ZM152.613 144.019L139.918 156.66L141.329 158.078L154.024 145.436L152.613 144.019ZM139.918 156.66C137.541 159.027 133.778 159.027 131.401 156.66L129.99 158.078C133.147 161.221 138.172 161.221 141.329 158.078L139.918 156.66ZM131.401 156.66L115.288 140.616L113.877 142.033L129.99 158.078L131.401 156.66ZM115.288 140.616C112.913 138.251 112.913 134.511 115.288 132.147L113.877 130.729C110.717 133.875 110.717 138.887 113.877 142.033L115.288 140.616Z" fill="#006C61"/>
<path d="M95.0087 105.902L82.7034 88.7181L100.635 100.175L95.0087 105.902Z" fill="#54CDBE" stroke="#006C61" stroke-width="2"/>
<path d="M80.24 89.1378C81.7682 89.1378 83.0069 87.9043 83.0069 86.3826C83.0069 84.861 81.7682 83.6274 80.24 83.6274C78.7119 83.6274 77.4731 84.861 77.4731 86.3826C77.4731 87.9043 78.7119 89.1378 80.24 89.1378Z" fill="#54CDBE" stroke="#025E53" stroke-width="1.6521" stroke-miterlimit="10" stroke-linecap="round" stroke-linejoin="round"/>
<path d="M79.7518 174.224L110.025 144.241C112.141 142.134 115.559 142.134 117.512 144.241L127.766 154.452C129.881 156.559 129.881 159.962 127.766 161.907L97.6553 192.052C95.5394 194.159 92.1215 194.159 90.1684 192.052L79.9146 181.841C77.6359 179.734 77.6359 176.331 79.7518 174.224Z" fill="#54CDBE" stroke="#006C61" stroke-width="2.5" stroke-miterlimit="10" stroke-linecap="round" stroke-linejoin="round"/>
<path d="M140.135 114.421L170.571 84.1137C172.524 82.1688 175.779 82.1688 177.895 84.1137L188.475 94.6481C190.428 96.593 190.428 99.8343 188.475 101.941L158.039 132.248C156.086 134.193 152.83 134.193 150.715 132.248L140.135 121.714C138.182 119.607 138.182 116.365 140.135 114.421Z" fill="#54CDBE" stroke="#006C61" stroke-width="2.5" stroke-miterlimit="10" stroke-linecap="round" stroke-linejoin="round"/>
<path d="M142.739 155.424L152.017 146.186L153.156 147.321C154.621 148.779 154.621 151.048 153.156 152.507L149.087 156.559C147.622 158.017 145.344 158.017 143.879 156.559L142.739 155.424Z" fill="#025E53"/>
<path d="M122.883 149.427L85.1228 187.027" stroke="#006C61" stroke-width="2" stroke-miterlimit="10" stroke-linecap="round" stroke-linejoin="round"/>
<path d="M183.266 89.3L145.506 126.9" stroke="#006C61" stroke-width="2" stroke-miterlimit="10" stroke-linecap="round" stroke-linejoin="round"/>
<path d="M183.103 106.641L165.526 89.1379" stroke="#006C61" stroke-width="2" stroke-miterlimit="10" stroke-linecap="round" stroke-linejoin="round"/>
<path d="M173.012 116.69L156.248 99.9966" stroke="#006C61" stroke-width="2" stroke-miterlimit="10" stroke-linecap="round" stroke-linejoin="round"/>
<path d="M162.921 126.9L145.344 109.234" stroke="#006C61" stroke-width="2" stroke-miterlimit="10" stroke-linecap="round" stroke-linejoin="round"/>
<path d="M122.72 166.931L105.142 149.265" stroke="#006C61" stroke-width="2" stroke-miterlimit="10" stroke-linecap="round" stroke-linejoin="round"/>
<path d="M112.629 176.817L94.8883 159.314" stroke="#006C61" stroke-width="2" stroke-miterlimit="10" stroke-linecap="round" stroke-linejoin="round"/>
<path d="M102.538 187.028L84.9601 169.362" stroke="#006C61" stroke-width="2" stroke-miterlimit="10" stroke-linecap="round" stroke-linejoin="round"/>
<path d="M79.589 77.9551C75.3573 77.9551 72.1021 81.3585 71.9393 85.5723" stroke="#54CDBE" stroke-width="2" stroke-miterlimit="10" stroke-linecap="round" stroke-linejoin="round"/>
<path d="M81.5421 71.6345C72.7531 71.6345 65.7545 78.7656 65.7545 87.3552" stroke="#54CDBE" stroke-width="2" stroke-miterlimit="10" stroke-linecap="round" stroke-linejoin="round"/>
<path d="M84.1462 64.5034C69.9862 64.5034 58.5931 76.0103 58.5931 89.9482" stroke="#54CDBE" stroke-width="2" stroke-miterlimit="10" stroke-linecap="round" stroke-linejoin="round"/>
<path opacity="0.3" d="M117.675 135.004L135.741 153.642L149.25 139.217L130.858 121.876L117.675 135.004Z" fill="#54CDBE"/>
</svg>
