<svg width="322" height="154" viewBox="0 0 322 154" fill="none" xmlns="http://www.w3.org/2000/svg">
<g clip-path="url(#clip0_2_2396)">
<path d="M315.701 153.146H6.20329C3.24478 153.146 0.858887 150.772 0.858887 147.829C0.858887 144.885 3.24478 142.512 6.20329 142.512H315.701C318.66 142.512 321.046 144.885 321.046 147.829C321.046 150.677 318.66 153.146 315.701 153.146Z" fill="white" stroke="#006D61" stroke-width="1.8345" stroke-miterlimit="10"/>
<path d="M5.72607 147.734H316.369" stroke="#6DBF9E" stroke-width="3.0575" stroke-miterlimit="10" stroke-linecap="round" stroke-linejoin="round"/>
<path d="M279.054 141.847H273.137C265.598 141.847 259.49 135.771 259.49 128.27V104.629H292.701V128.175C292.797 135.771 286.593 141.847 279.054 141.847Z" fill="white" stroke="#006D61" stroke-width="2.1102" stroke-miterlimit="10"/>
<path d="M297.091 125.802H292.701V115.548H297.091C299.954 115.548 302.245 117.826 302.245 120.675C302.245 123.523 299.954 125.802 297.091 125.802Z" stroke="#006D61" stroke-width="2.1102" stroke-miterlimit="10"/>
<path d="M222.27 142.512H59.6473C50.1992 142.512 42.5643 134.916 42.5643 125.517H239.448C239.448 134.821 231.718 142.512 222.27 142.512Z" fill="white" stroke="#006D61" stroke-width="2.0226" stroke-miterlimit="10"/>
<path opacity="0.3" d="M223.415 138.429H57.8341C53.0623 138.429 49.1494 134.536 49.1494 129.789H232.195C232.1 134.536 228.187 138.429 223.415 138.429Z" fill="#54CDBE"/>
<path d="M117.1 125.422L123.589 133.967H160.809L165.39 125.422H117.1Z" fill="white" stroke="#006D61" stroke-width="2.0226" stroke-miterlimit="10"/>
<path d="M223.606 122.763H58.3113V30.4772C58.3113 26.7743 61.2698 23.8311 64.9918 23.8311H217.021C220.743 23.8311 223.701 26.7743 223.701 30.4772V122.763H223.606Z" fill="white" stroke="#006D61" stroke-width="2.0226" stroke-miterlimit="10"/>
<path d="M216.257 32.5659H65.946V115.927H216.257V32.5659Z" fill="white" stroke="#006D61" stroke-width="2.0226" stroke-miterlimit="10"/>
<path opacity="0.3" d="M122.158 127.51L125.116 131.308H158.71L161 127.51H122.158Z" fill="#75D1F7"/>
<path opacity="0.3" d="M219.407 119.44H62.8921V31.7115C62.8921 30.0025 64.3236 28.5784 66.0415 28.5784H216.257C217.975 28.5784 219.407 30.0025 219.407 31.7115V119.44V119.44Z" stroke="#54CDBE" stroke-width="4.2204" stroke-miterlimit="10"/>
<path d="M142.39 30.0974C143.181 30.0974 143.822 29.4597 143.822 28.6732C143.822 27.8866 143.181 27.249 142.39 27.249C141.599 27.249 140.958 27.8866 140.958 28.6732C140.958 29.4597 141.599 30.0974 142.39 30.0974Z" fill="white" stroke="#006D61" stroke-width="2.0226" stroke-miterlimit="10"/>
<path d="M207.764 108.237H74.4399C73.4855 108.237 72.6266 107.477 72.6266 106.433V41.5857C72.6266 40.6362 73.3901 39.7817 74.4399 39.7817H207.764C208.718 39.7817 209.577 40.5413 209.577 41.5857V106.433C209.577 107.477 208.813 108.237 207.764 108.237Z" stroke="#039B8E" stroke-width="1.3767" stroke-miterlimit="10" stroke-linecap="round" stroke-linejoin="round"/>
<path d="M118.149 45.5735H79.4025V70.2591H118.149V45.5735Z" stroke="#039B8E" stroke-width="1.1879" stroke-miterlimit="10" stroke-linecap="round" stroke-linejoin="round"/>
<path d="M161.191 45.5735H122.444V70.2591H161.191V45.5735Z" stroke="#039B8E" stroke-width="1.1879" stroke-miterlimit="10" stroke-linecap="round" stroke-linejoin="round"/>
<path d="M203.373 45.5735H164.627V70.2591H203.373V45.5735Z" stroke="#039B8E" stroke-width="1.1879" stroke-miterlimit="10" stroke-linecap="round" stroke-linejoin="round"/>
<path d="M118.149 75.386H79.4025V100.072H118.149V75.386Z" stroke="#039B8E" stroke-width="1.1879" stroke-miterlimit="10" stroke-linecap="round" stroke-linejoin="round"/>
<path d="M161.191 75.386H122.444V100.072H161.191V75.386Z" stroke="#039B8E" stroke-width="1.1879" stroke-miterlimit="10" stroke-linecap="round" stroke-linejoin="round"/>
<path d="M203.373 75.386H164.627V100.072H203.373V75.386Z" stroke="#039B8E" stroke-width="1.1879" stroke-miterlimit="10" stroke-linecap="round" stroke-linejoin="round"/>
<path opacity="0.45" d="M99.1576 59.4353C102.109 59.4353 104.502 57.0548 104.502 54.1184C104.502 51.182 102.109 48.8015 99.1576 48.8015C96.206 48.8015 93.8132 51.182 93.8132 54.1184C93.8132 57.0548 96.206 59.4353 99.1576 59.4353Z" fill="#54CDBE"/>
<path opacity="0.45" d="M107.747 70.2589H90.9502V70.069C90.9502 65.5117 94.6722 61.7139 99.3485 61.7139C103.929 61.7139 107.747 65.4167 107.747 70.069V70.2589Z" fill="#54CDBE"/>
<path opacity="0.45" d="M141.436 59.4353C144.387 59.4353 146.78 57.0548 146.78 54.1184C146.78 51.182 144.387 48.8015 141.436 48.8015C138.484 48.8015 136.091 51.182 136.091 54.1184C136.091 57.0548 138.484 59.4353 141.436 59.4353Z" fill="#54CDBE"/>
<path opacity="0.45" d="M150.025 70.2589H133.324V70.069C133.324 65.5117 137.046 61.7139 141.722 61.7139C146.303 61.7139 150.12 65.4167 150.12 70.069V70.2589H150.025Z" fill="#54CDBE"/>
<path opacity="0.45" d="M183.809 59.4353C186.761 59.4353 189.154 57.0548 189.154 54.1184C189.154 51.182 186.761 48.8015 183.809 48.8015C180.857 48.8015 178.465 51.182 178.465 54.1184C178.465 57.0548 180.857 59.4353 183.809 59.4353Z" fill="#54CDBE"/>
<path opacity="0.45" d="M192.398 70.2589H175.602V70.069C175.602 65.5117 179.324 61.7139 184 61.7139C188.581 61.7139 192.398 65.4167 192.398 70.069V70.2589Z" fill="#54CDBE"/>
<path opacity="0.45" d="M99.1576 88.8682C102.109 88.8682 104.502 86.4877 104.502 83.5513C104.502 80.6148 102.109 78.2344 99.1576 78.2344C96.206 78.2344 93.8132 80.6148 93.8132 83.5513C93.8132 86.4877 96.206 88.8682 99.1576 88.8682Z" fill="#54CDBE"/>
<path opacity="0.45" d="M107.747 99.6917H90.9502V99.5018C90.9502 94.9445 94.6722 91.1467 99.3485 91.1467C103.929 91.1467 107.747 94.8496 107.747 99.5018V99.6917Z" fill="#54CDBE"/>
<path opacity="0.45" d="M141.436 88.8682C144.387 88.8682 146.78 86.4877 146.78 83.5513C146.78 80.6148 144.387 78.2344 141.436 78.2344C138.484 78.2344 136.091 80.6148 136.091 83.5513C136.091 86.4877 138.484 88.8682 141.436 88.8682Z" fill="#54CDBE"/>
<path opacity="0.45" d="M150.025 99.6917H133.324V99.5018C133.324 94.9445 137.046 91.1467 141.722 91.1467C146.303 91.1467 150.12 94.8496 150.12 99.5018V99.6917H150.025Z" fill="#54CDBE"/>
<path opacity="0.45" d="M183.809 88.8682C186.761 88.8682 189.154 86.4877 189.154 83.5513C189.154 80.6148 186.761 78.2344 183.809 78.2344C180.857 78.2344 178.465 80.6148 178.465 83.5513C178.465 86.4877 180.857 88.8682 183.809 88.8682Z" fill="#54CDBE"/>
<path opacity="0.45" d="M192.398 99.6917H175.602V99.5018C175.602 94.9445 179.324 91.1467 184 91.1467C188.581 91.1467 192.398 94.8496 192.398 99.5018V99.6917Z" fill="#54CDBE"/>
<path d="M219.693 53.5487C234.293 53.5487 246.129 41.774 246.129 27.2491C246.129 12.7242 234.293 0.949463 219.693 0.949463C205.093 0.949463 193.257 12.7242 193.257 27.2491C193.257 41.774 205.093 53.5487 219.693 53.5487Z" fill="white" stroke="#006D61" stroke-width="2.0226" stroke-miterlimit="10"/>
<path opacity="0.45" d="M225.133 36.0789H206.714C205.282 36.0789 204.137 34.9396 204.137 33.5154V18.4192C204.137 16.995 205.282 15.8557 206.714 15.8557H225.133C226.564 15.8557 227.71 16.995 227.71 18.4192V33.4205C227.71 34.8446 226.564 36.0789 225.133 36.0789Z" fill="#039B8E"/>
<path opacity="0.45" d="M234.199 31.9963L228.568 29.2429V22.312L234.199 18.7041V31.9963Z" fill="#039B8E"/>
<path d="M226.564 37.5032H208.145C206.714 37.5032 205.568 36.3639 205.568 34.9397V19.8435C205.568 18.4194 206.714 17.28 208.145 17.28H226.564C227.996 17.28 229.141 18.4194 229.141 19.8435V34.8448C229.141 36.2689 227.996 37.5032 226.564 37.5032Z" stroke="#006D61" stroke-width="0.8973" stroke-miterlimit="10"/>
<path d="M236.49 33.4204L230.954 30.667V23.7361L236.49 20.1282V33.4204Z" stroke="#006D61" stroke-width="0.8973" stroke-miterlimit="10"/>
</g>
<defs>
<clipPath id="clip0_2_2396">
<rect width="322" height="154" fill="white"/>
</clipPath>
</defs>
</svg>
