<svg width="301" height="236" viewBox="0 0 301 236" fill="none" xmlns="http://www.w3.org/2000/svg">
<g clip-path="url(#clip0_2_2375)">
<path d="M62.2713 219.83C62.2713 227.648 55.9645 233.929 48.1972 233.995C48.1308 234.062 48.1308 234.062 48.1308 234.062H17.8582C9.69256 234.062 3.05383 227.38 3.05383 219.229C3.05383 212.881 6.97068 207.536 12.5472 205.331C12.5472 205.264 12.5472 205.13 12.5472 205.063C12.5472 198.315 18.0574 192.769 24.7625 192.769C29.8743 192.769 34.1895 195.909 36.0483 200.319C37.3097 199.651 38.8366 199.25 40.3635 199.25C44.4795 199.25 47.9316 201.99 49.0602 205.732C56.4292 206.132 62.2713 212.28 62.2713 219.83Z" fill="#D3FFFA"/>
<path d="M60.2797 217.759C60.2797 225.576 53.9729 231.857 46.2056 231.924C46.1392 231.991 46.1392 231.991 46.1392 231.991H15.8666C7.70098 231.991 1.06226 225.309 1.06226 217.157C1.06226 210.81 4.97911 205.464 10.5556 203.259C10.5556 203.192 10.5556 203.059 10.5556 202.992C10.5556 196.243 16.0658 190.698 22.7709 190.698C27.8827 190.698 32.1979 193.838 34.0567 198.248C35.3181 197.58 36.845 197.179 38.3719 197.179C42.4879 197.179 45.9401 199.918 47.0687 203.66C54.4376 204.128 60.2797 210.275 60.2797 217.759Z" stroke="#006D61" stroke-width="3.0072" stroke-miterlimit="10" stroke-linecap="round" stroke-linejoin="round"/>
<path d="M301 218.961C301 232.659 290.113 236 290.113 236H266.147C257.981 236 251.342 229.318 251.342 221.166C251.342 214.819 255.259 209.473 260.836 207.268C260.836 207.202 260.836 207.068 260.836 207.001C260.836 200.253 266.346 194.707 273.051 194.707C278.495 194.707 283.075 198.248 284.669 203.193C284.868 203.193 285.067 203.193 285.266 203.193C293.963 203.193 301 210.275 301 218.961Z" fill="#D3FFFA"/>
<path d="M235.675 231.991H69.3083V90.6047L152.492 34.5447L235.675 90.6047V231.991Z" fill="#CCF2ED" stroke="#006D61" stroke-width="3.5" stroke-miterlimit="10" stroke-linecap="round" stroke-linejoin="round"/>
<path d="M189.735 119.002L235.609 100.226L281.549 119.002C281.549 119.002 283.872 136.375 271.922 161.966C258.711 190.297 235.609 202.992 235.609 202.992C235.609 202.992 217.219 193.571 199.029 161.431C188.142 142.188 189.735 119.002 189.735 119.002Z" fill="#D3FFFA" stroke="#006C61" stroke-width="3.0072" stroke-miterlimit="10" stroke-linecap="round" stroke-linejoin="round"/>
<path d="M197.237 123.746L235.609 108.044L273.98 123.746C273.98 123.746 275.906 138.246 265.948 159.694C254.927 183.414 235.609 194.038 235.609 194.038C235.609 194.038 220.207 186.154 205.004 159.293C195.909 143.123 197.237 123.746 197.237 123.746Z" fill="#F3FAFF" stroke="#039B8E" stroke-width="2.5" stroke-miterlimit="10" stroke-linecap="round" stroke-linejoin="round"/>
<path fill-rule="evenodd" clip-rule="evenodd" d="M246.297 168.648H225.85C222.929 168.648 220.605 166.309 220.605 163.369V142.99C220.605 140.05 222.929 137.711 225.85 137.711H246.297C249.218 137.711 251.542 140.05 251.542 142.99V163.369C251.608 166.309 249.218 168.648 246.297 168.648Z" stroke="#039B8E" stroke-width="2" stroke-miterlimit="10"/>
<path d="M228.306 137.912V132.232C228.306 127.956 231.758 124.414 236.073 124.414C240.388 124.414 243.841 127.889 243.841 132.232V137.644" stroke="#039B8E" stroke-width="2" stroke-miterlimit="10"/>
<path d="M237.799 153.28C239.127 152.678 239.99 151.409 239.99 149.872C239.99 147.801 238.397 146.197 236.339 146.197C234.281 146.197 232.621 147.867 232.621 149.939C232.621 151.409 233.484 152.678 234.745 153.28V160.763C234.745 160.83 234.812 160.897 234.878 160.897H237.667C237.733 160.897 237.799 160.83 237.799 160.763V153.28Z" stroke="#039B8E" stroke-width="2" stroke-miterlimit="10"/>
<path d="M159.993 231.991H101.971V169.917C101.971 153.881 114.916 140.852 130.849 140.852H131.115C147.048 140.852 159.993 153.881 159.993 169.917V231.991Z" fill="white" stroke="#025E53" stroke-width="3.5" stroke-miterlimit="10" stroke-linecap="round" stroke-linejoin="round"/>
<path d="M115.514 205.665C119.07 205.665 121.953 202.763 121.953 199.183C121.953 195.604 119.07 192.702 115.514 192.702C111.957 192.702 109.074 195.604 109.074 199.183C109.074 202.763 111.957 205.665 115.514 205.665Z" stroke="#5EC4B9" stroke-width="4.0096" stroke-miterlimit="10"/>
<path d="M27.3517 90.6047H57.1596C57.2259 90.6047 57.2923 90.6047 57.3587 90.5379L152.293 23.1189C152.425 23.0521 152.558 23.0521 152.691 23.1189L249.218 90.2038C249.284 90.2706 249.351 90.2706 249.417 90.2706L276.503 90.6047C276.835 90.6047 276.968 90.2038 276.702 90.0034L152.691 1.40314C152.558 1.33632 152.425 1.33632 152.293 1.40314L27.1525 89.9366C26.8869 90.137 27.0197 90.6047 27.3517 90.6047Z" fill="#F3FFFE" stroke="#006D61" stroke-width="3.5" stroke-miterlimit="10" stroke-linecap="round" stroke-linejoin="round"/>
<path d="M49.4586 84.9252L152.492 12.5617L251.608 82.1189" stroke="#54CDBE" stroke-width="5.02" stroke-miterlimit="10" stroke-linecap="round" stroke-linejoin="round"/>
<path d="M151.894 105.371C164.287 105.371 174.333 95.2899 174.333 82.8538C174.333 70.4178 164.287 60.3363 151.894 60.3363C139.502 60.3363 129.455 70.4178 129.455 82.8538C129.455 95.2899 139.502 105.371 151.894 105.371Z" fill="#B2DDC9" stroke="#006D61" stroke-width="3.5" stroke-miterlimit="10" stroke-linecap="round" stroke-linejoin="round"/>
<path d="M134.899 97.5537C134.899 97.5537 145.189 95.616 149.77 80.4484C152.691 70.693 151.894 60.3363 151.894 60.3363" stroke="#006D61" stroke-width="3.5" stroke-miterlimit="10" stroke-linecap="round" stroke-linejoin="round"/>
<path d="M169.022 97.5537C169.022 97.5537 158.732 95.616 154.151 80.4484C151.23 70.693 152.027 60.3363 152.027 60.3363" stroke="#006D61" stroke-width="3.5" stroke-miterlimit="10" stroke-linecap="round" stroke-linejoin="round"/>
<path d="M299.009 216.957C299.009 230.655 288.121 233.995 288.121 233.995H264.155C255.99 233.995 249.351 227.314 249.351 219.162C249.351 212.814 253.268 207.469 258.844 205.264C258.844 205.197 258.844 205.063 258.844 204.997C258.844 198.248 264.354 192.702 271.059 192.702C276.503 192.702 281.084 196.243 282.677 201.188C282.876 201.188 283.076 201.188 283.275 201.188C291.971 201.188 299.009 208.271 299.009 216.957Z" stroke="#006D61" stroke-width="3.0072" stroke-miterlimit="10" stroke-linecap="round" stroke-linejoin="round"/>
</g>
<defs>
<clipPath id="clip0_2_2375">
<rect width="301" height="236" fill="white"/>
</clipPath>
</defs>
</svg>
