<svg width="316" height="174" viewBox="0 0 316 174" fill="none" xmlns="http://www.w3.org/2000/svg">
<g clip-path="url(#clip0_2_2541)">
<path d="M311.776 160.229H4.14426C2.23152 160.229 0.637573 161.821 0.637573 163.732C0.637573 165.642 2.23152 167.234 4.14426 167.234H311.776C313.689 167.234 315.283 165.642 315.283 163.732C315.283 161.821 313.768 160.229 311.776 160.229Z" fill="white" stroke="#006D61" stroke-width="1.6426" stroke-miterlimit="10"/>
<path d="M4.78186 163.732H311.776" stroke="#6DBF9E" stroke-width="2.7377" stroke-miterlimit="10" stroke-linecap="round" stroke-linejoin="round"/>
<path d="M260.929 142.877H53.8754C49.7312 142.877 46.3042 139.534 46.3042 135.316V8.27806C46.3042 4.139 49.6515 0.716309 53.8754 0.716309H260.929C265.073 0.716309 268.5 4.0594 268.5 8.27806V135.316C268.5 139.455 265.153 142.877 260.929 142.877Z" fill="white" stroke="#006D61" stroke-width="1.9442" stroke-miterlimit="10"/>
<path d="M262.762 134.599H52.3612V8.11891C52.3612 8.03931 52.4409 7.95972 52.5206 7.95972H262.603C262.682 7.95972 262.762 8.03931 262.762 8.11891V134.599Z" stroke="#C0E3CF" stroke-width="6.548" stroke-miterlimit="10" stroke-linecap="round" stroke-linejoin="round"/>
<path d="M259.495 10.666H55.3101V131.256H259.495V10.666Z" fill="#F3FFFE" stroke="#006D61" stroke-width="1.9442" stroke-miterlimit="10"/>
<path fill-rule="evenodd" clip-rule="evenodd" d="M148.636 29.4512C148.556 29.4512 148.476 29.5308 148.396 29.6104C148.317 29.69 148.237 29.7696 148.237 29.8492C148.157 29.9288 148.157 30.088 148.157 30.1676C148.157 30.2472 148.157 30.3267 148.157 30.4063C148.157 30.5655 148.237 30.6451 148.396 30.7247C148.396 30.7247 148.476 30.8043 148.556 30.8043C148.636 30.8839 148.795 30.8839 148.954 30.8839C149.034 30.8839 149.114 30.8839 149.273 30.8043C149.353 30.8043 149.433 30.7247 149.512 30.6451C149.592 30.5655 149.672 30.4859 149.672 30.4063C149.751 30.3267 149.751 30.1676 149.751 30.088C149.751 30.0084 149.751 29.9288 149.751 29.8492C149.751 29.69 149.672 29.6104 149.512 29.5308C149.512 29.5308 149.432 29.4512 149.353 29.4512C149.273 29.3716 149.114 29.3716 148.954 29.3716C148.795 29.3716 148.715 29.4512 148.636 29.4512Z" fill="#B2DDC8"/>
<path fill-rule="evenodd" clip-rule="evenodd" d="M146.404 23.4016C145.368 23.4016 145.368 24.9936 146.404 24.9936H147.839C148.875 24.9936 148.875 23.4016 147.839 23.4016H146.404Z" fill="#B2DDC8"/>
<path fill-rule="evenodd" clip-rule="evenodd" d="M159.156 23.1628C157.801 23.1628 156.765 24.2772 156.765 25.5508C156.765 26.9039 157.881 27.9387 159.156 27.9387C160.511 27.9387 161.547 26.8243 161.547 25.5508C161.547 24.2772 160.431 23.1628 159.156 23.1628Z" fill="#B2DDC8"/>
<path fill-rule="evenodd" clip-rule="evenodd" d="M164.575 25.4712C164.575 22.5261 162.104 20.1382 159.156 20.2178H145.846C144.89 20.2178 144.89 21.7301 145.846 21.7301H152.939C153.975 21.7301 153.975 23.2425 152.939 23.2425H149.911C149.193 23.4812 149.193 24.516 149.911 24.6752H152.939C153.975 24.6752 153.975 26.1876 152.939 26.1876H147.201C146.165 26.1876 146.165 27.6999 147.201 27.6999H153.019C154.055 27.6999 154.055 29.2123 153.019 29.2123H151.345C150.309 29.2123 150.309 30.7246 151.345 30.7246H159.315C162.264 30.8838 164.655 28.4163 164.575 25.4712ZM162.423 25.5508C162.423 27.3815 160.989 28.8939 159.156 28.8939C157.323 28.8939 155.888 27.3815 155.888 25.5508C155.888 23.72 157.323 22.2873 159.156 22.2873C160.909 22.2873 162.423 23.72 162.423 25.5508Z" fill="#B2DDC8"/>
<path d="M173.9 142.877H140.267V158.638H173.9V142.877Z" fill="white" stroke="#006D61" stroke-width="1.8007" stroke-miterlimit="10"/>
<path d="M184.818 160.23H128.233C127.117 160.23 125.762 158.876 125.762 157.205C125.762 155.533 127.117 154.18 128.791 154.18H185.376C187.05 154.18 188.405 155.533 188.405 157.205C188.405 158.876 187.05 160.23 184.818 160.23Z" fill="white" stroke="#006D61" stroke-width="1.8007" stroke-miterlimit="10"/>
<path d="M251.525 124.172H65.7504C64.3956 124.172 63.3595 123.057 63.3595 121.784C63.3595 120.431 64.4753 119.396 65.7504 119.396H251.525C252.88 119.396 253.916 120.51 253.916 121.784C253.916 123.137 252.8 124.172 251.525 124.172Z" fill="#B2DDC8"/>
<path d="M251.525 124.172H131.341C129.986 124.172 128.95 123.057 128.95 121.784C128.95 120.431 130.066 119.396 131.341 119.396H251.525C252.88 119.396 253.916 120.51 253.916 121.784C253.916 123.137 252.8 124.172 251.525 124.172Z" fill="#5EC4B9"/>
<path d="M130.226 126.639C132.91 126.639 135.087 124.465 135.087 121.784C135.087 119.102 132.91 116.928 130.226 116.928C127.541 116.928 125.364 119.102 125.364 121.784C125.364 124.465 127.541 126.639 130.226 126.639Z" fill="white" stroke="#006D61" stroke-width="1.637" stroke-miterlimit="10"/>
<path d="M195.896 100.054H115.163C110.381 100.054 106.476 96.1536 106.476 91.3777V51.0218C106.476 46.246 110.381 42.3457 115.163 42.3457H195.896C200.678 42.3457 204.583 46.246 204.583 51.0218V91.3777C204.583 96.1536 200.678 100.054 195.896 100.054Z" stroke="#006D61" stroke-width="1.8007" stroke-miterlimit="10"/>
<path d="M144.172 59.698V82.7016C144.172 84.5324 146.085 85.7263 147.679 84.8508L171.748 72.5928C173.581 71.6376 173.501 69.0109 171.668 68.2149L147.599 57.4692C145.926 56.7529 144.172 57.9468 144.172 59.698Z" fill="#B2DDC8"/>
<path d="M171.907 144.469H142.18V152.509H171.907V144.469Z" fill="#C0E3CF"/>
<path d="M282.447 173.284H242.997C240.128 173.284 237.737 170.975 237.737 168.03V75.5379C237.737 72.6723 240.048 70.2844 242.997 70.2844H282.447C285.317 70.2844 287.707 72.5927 287.707 75.5379V168.03C287.707 170.896 285.396 173.284 282.447 173.284Z" fill="white" stroke="#006D61" stroke-width="1.9442" stroke-miterlimit="10"/>
<path opacity="0.4" d="M279.977 170.179H245.468C242.599 170.179 240.208 167.871 240.208 164.926V78.4829C240.208 75.6174 242.519 73.2295 245.468 73.2295H279.977C282.846 73.2295 285.237 75.5378 285.237 78.4829V165.005C285.237 167.871 282.926 170.179 279.977 170.179Z" fill="#039B8E"/>
<path d="M262.762 124.57C271.169 124.57 277.984 117.763 277.984 109.367C277.984 100.97 271.169 94.1636 262.762 94.1636C254.355 94.1636 247.54 100.97 247.54 109.367C247.54 117.763 254.355 124.57 262.762 124.57Z" fill="white" stroke="#006D61" stroke-width="1.8007" stroke-miterlimit="10"/>
<path d="M262.762 116.053C266.46 116.053 269.457 113.06 269.457 109.367C269.457 105.674 266.46 102.681 262.762 102.681C259.065 102.681 256.068 105.674 256.068 109.367C256.068 113.06 259.065 116.053 262.762 116.053Z" fill="white" stroke="#006D61" stroke-width="1.8007" stroke-miterlimit="10"/>
<path d="M262.762 114.382C265.535 114.382 267.783 112.136 267.783 109.367C267.783 106.597 265.535 104.352 262.762 104.352C259.989 104.352 257.741 106.597 257.741 109.367C257.741 112.136 259.989 114.382 262.762 114.382Z" fill="#C0E3CF"/>
<path d="M253.198 139.932H247.699C247.062 139.932 246.504 139.375 246.504 138.738V133.246C246.504 132.609 247.062 132.052 247.699 132.052H253.198C253.836 132.052 254.394 132.609 254.394 133.246V138.738C254.474 139.375 253.916 139.932 253.198 139.932Z" fill="white" stroke="#006D61" stroke-width="1.3315" stroke-miterlimit="10"/>
<path d="M265.392 139.932H259.893C259.256 139.932 258.698 139.375 258.698 138.738V133.246C258.698 132.609 259.256 132.052 259.893 132.052H265.392C266.03 132.052 266.588 132.609 266.588 133.246V138.738C266.667 139.375 266.109 139.932 265.392 139.932Z" fill="white" stroke="#006D61" stroke-width="1.3315" stroke-miterlimit="10"/>
<path d="M277.825 139.932H272.326C271.688 139.932 271.13 139.375 271.13 138.738V133.246C271.13 132.609 271.688 132.052 272.326 132.052H277.825C278.462 132.052 279.02 132.609 279.02 133.246V138.738C279.02 139.375 278.462 139.932 277.825 139.932Z" fill="white" stroke="#006D61" stroke-width="1.3315" stroke-miterlimit="10"/>
<path d="M253.198 81.428H247.699C247.062 81.428 246.504 80.8708 246.504 80.234V79.9952C246.504 79.3585 247.062 78.8013 247.699 78.8013H253.198C253.836 78.8013 254.394 79.3585 254.394 79.9952V80.234C254.474 80.9504 253.916 81.428 253.198 81.428Z" fill="white" stroke="#006D61" stroke-width="1.3315" stroke-miterlimit="10"/>
<path d="M265.392 81.428H259.893C259.256 81.428 258.698 80.8708 258.698 80.234V79.9952C258.698 79.3585 259.256 78.8013 259.893 78.8013H265.392C266.03 78.8013 266.588 79.3585 266.588 79.9952V80.234C266.667 80.9504 266.109 81.428 265.392 81.428Z" fill="white" stroke="#006D61" stroke-width="1.3315" stroke-miterlimit="10"/>
<path d="M277.825 81.428H272.326C271.688 81.428 271.13 80.8708 271.13 80.234V79.9952C271.13 79.3585 271.688 78.8013 272.326 78.8013H277.825C278.462 78.8013 279.02 79.3585 279.02 79.9952V80.234C279.02 80.9504 278.462 81.428 277.825 81.428Z" fill="white" stroke="#006D61" stroke-width="1.3315" stroke-miterlimit="10"/>
<path d="M253.198 87.7959H247.699C247.062 87.7959 246.504 87.2387 246.504 86.602V86.3632C246.504 85.7264 247.062 85.1692 247.699 85.1692H253.198C253.836 85.1692 254.394 85.7264 254.394 86.3632V86.602C254.474 87.2387 253.916 87.7959 253.198 87.7959Z" fill="white" stroke="#006D61" stroke-width="1.3315" stroke-miterlimit="10"/>
<path d="M265.392 87.7959H259.893C259.256 87.7959 258.698 87.2387 258.698 86.602V86.3632C258.698 85.7264 259.256 85.1692 259.893 85.1692H265.392C266.03 85.1692 266.588 85.7264 266.588 86.3632V86.602C266.667 87.2387 266.109 87.7959 265.392 87.7959Z" fill="white" stroke="#006D61" stroke-width="1.3315" stroke-miterlimit="10"/>
<path d="M277.825 87.7959H272.326C271.688 87.7959 271.13 87.2387 271.13 86.602V86.3632C271.13 85.7264 271.688 85.1692 272.326 85.1692H277.825C278.462 85.1692 279.02 85.7264 279.02 86.3632V86.602C279.02 87.2387 278.462 87.7959 277.825 87.7959Z" fill="white" stroke="#006D61" stroke-width="1.3315" stroke-miterlimit="10"/>
<path d="M253.198 151.713H247.699C247.062 151.713 246.504 151.155 246.504 150.519V145.026C246.504 144.39 247.062 143.833 247.699 143.833H253.198C253.836 143.833 254.394 144.39 254.394 145.026V150.519C254.474 151.155 253.916 151.713 253.198 151.713Z" fill="white" stroke="#006D61" stroke-width="1.3315" stroke-miterlimit="10"/>
<path d="M265.392 151.713H259.893C259.256 151.713 258.698 151.155 258.698 150.519V145.026C258.698 144.39 259.256 143.833 259.893 143.833H265.392C266.03 143.833 266.588 144.39 266.588 145.026V150.519C266.667 151.155 266.109 151.713 265.392 151.713Z" fill="white" stroke="#006D61" stroke-width="1.3315" stroke-miterlimit="10"/>
<path d="M277.825 151.713H272.326C271.688 151.713 271.13 151.155 271.13 150.519V145.026C271.13 144.39 271.688 143.833 272.326 143.833H277.825C278.462 143.833 279.02 144.39 279.02 145.026V150.519C279.02 151.155 278.462 151.713 277.825 151.713Z" fill="white" stroke="#006D61" stroke-width="1.3315" stroke-miterlimit="10"/>
<path d="M253.198 164.21H247.699C247.062 164.21 246.504 163.652 246.504 163.016V157.523C246.504 156.887 247.062 156.329 247.699 156.329H253.198C253.836 156.329 254.394 156.887 254.394 157.523V163.016C254.474 163.652 253.916 164.21 253.198 164.21Z" fill="white" stroke="#006D61" stroke-width="1.3315" stroke-miterlimit="10"/>
<path d="M265.392 164.21H259.893C259.256 164.21 258.698 163.652 258.698 163.016V157.523C258.698 156.887 259.256 156.329 259.893 156.329H265.392C266.03 156.329 266.588 156.887 266.588 157.523V163.016C266.667 163.652 266.109 164.21 265.392 164.21Z" fill="white" stroke="#006D61" stroke-width="1.3315" stroke-miterlimit="10"/>
<path d="M277.825 164.21H272.326C271.688 164.21 271.13 163.652 271.13 163.016V157.523C271.13 156.887 271.688 156.329 272.326 156.329H277.825C278.462 156.329 279.02 156.887 279.02 157.523V163.016C279.02 163.652 278.462 164.21 277.825 164.21Z" fill="white" stroke="#006D61" stroke-width="1.3315" stroke-miterlimit="10"/>
<path d="M252.561 138.738H248.337C247.938 138.738 247.62 138.42 247.62 138.022V133.803C247.62 133.405 247.938 133.087 248.337 133.087H252.561C252.959 133.087 253.278 133.405 253.278 133.803V138.022C253.278 138.42 252.959 138.738 252.561 138.738Z" fill="#C0E3CF"/>
<path d="M277.108 138.738H272.884C272.485 138.738 272.167 138.42 272.167 138.022V133.803C272.167 133.405 272.485 133.087 272.884 133.087H277.108C277.506 133.087 277.825 133.405 277.825 133.803V138.022C277.825 138.42 277.506 138.738 277.108 138.738Z" fill="#C0E3CF"/>
<path d="M264.755 138.738H260.531C260.132 138.738 259.813 138.42 259.813 138.022V133.803C259.813 133.405 260.132 133.087 260.531 133.087H264.755C265.153 133.087 265.472 133.405 265.472 133.803V138.022C265.472 138.42 265.153 138.738 264.755 138.738Z" fill="#C0E3CF"/>
<path d="M252.561 150.519H248.337C247.938 150.519 247.62 150.2 247.62 149.802V145.584C247.62 145.186 247.938 144.867 248.337 144.867H252.561C252.959 144.867 253.278 145.186 253.278 145.584V149.802C253.278 150.2 252.959 150.519 252.561 150.519Z" fill="#C0E3CF"/>
<path d="M277.108 150.519H272.884C272.485 150.519 272.167 150.2 272.167 149.802V145.584C272.167 145.186 272.485 144.867 272.884 144.867H277.108C277.506 144.867 277.825 145.186 277.825 145.584V149.802C277.825 150.2 277.506 150.519 277.108 150.519Z" fill="#C0E3CF"/>
<path d="M264.755 150.519H260.531C260.132 150.519 259.813 150.2 259.813 149.802V145.584C259.813 145.186 260.132 144.867 260.531 144.867H264.755C265.153 144.867 265.472 145.186 265.472 145.584V149.802C265.472 150.2 265.153 150.519 264.755 150.519Z" fill="#C0E3CF"/>
<path d="M252.561 163.015H248.337C247.938 163.015 247.62 162.697 247.62 162.299V158.08C247.62 157.682 247.938 157.364 248.337 157.364H252.561C252.959 157.364 253.278 157.682 253.278 158.08V162.299C253.278 162.697 252.959 163.015 252.561 163.015Z" fill="#C0E3CF"/>
<path d="M277.108 163.015H272.884C272.485 163.015 272.167 162.697 272.167 162.299V158.08C272.167 157.682 272.485 157.364 272.884 157.364H277.108C277.506 157.364 277.825 157.682 277.825 158.08V162.299C277.825 162.697 277.506 163.015 277.108 163.015Z" fill="#C0E3CF"/>
<path d="M264.755 163.015H260.531C260.132 163.015 259.813 162.697 259.813 162.299V158.08C259.813 157.682 260.132 157.364 260.531 157.364H264.755C265.153 157.364 265.472 157.682 265.472 158.08V162.299C265.472 162.697 265.153 163.015 264.755 163.015Z" fill="#C0E3CF"/>
</g>
<defs>
<clipPath id="clip0_2_2541">
<rect width="316" height="174" fill="white"/>
</clipPath>
</defs>
</svg>
