<svg width="310" height="177" viewBox="0 0 310 177" fill="none" xmlns="http://www.w3.org/2000/svg">
<path d="M257.608 146.643H40.3565C37.721 146.643 35.5248 144.54 35.5248 141.824V6.60841C35.5248 3.97947 37.6332 1.78868 40.3565 1.78868H257.608C260.244 1.78868 262.44 3.89184 262.44 6.60841V141.911C262.352 144.54 260.244 146.643 257.608 146.643Z" fill="white" stroke="#006D61" stroke-width="2.5" stroke-miterlimit="10"/>
<path d="M256.466 138.231H41.6742V9.32499C41.6742 9.23736 41.762 9.14973 41.8499 9.14973H256.29C256.378 9.14973 256.466 9.23736 256.466 9.32499V138.231Z" stroke="#54CDBE" stroke-opacity="0.4" stroke-width="6.064" stroke-miterlimit="10" stroke-linecap="round" stroke-linejoin="round"/>
<path d="M253.128 11.8663H44.749V134.813H253.128V11.8663Z" fill="#F7FFFE" stroke="#006D61" stroke-width="2.5" stroke-miterlimit="10"/>
<path d="M165.805 146.643H131.456V162.68H165.805V146.643Z" fill="white" stroke="#006D61" stroke-width="1.8005" stroke-miterlimit="10"/>
<path d="M176.962 164.345H119.157C118.015 164.345 116.698 162.943 116.698 161.278C116.698 159.613 118.103 158.211 119.772 158.211H177.577C179.246 158.211 180.652 159.613 180.652 161.278C180.564 162.943 179.246 164.345 176.962 164.345Z" fill="white" stroke="#006D61" stroke-width="1.8005" stroke-miterlimit="10"/>
<path d="M245.046 127.627H55.3787C54.061 127.627 52.9189 126.488 52.9189 125.174C52.9189 123.859 54.061 122.72 55.3787 122.72H244.958C246.275 122.72 247.417 123.859 247.417 125.174C247.505 126.488 246.363 127.627 245.046 127.627Z" fill="#B2DDC8"/>
<path d="M245.046 127.627H122.32C121.002 127.627 119.86 126.488 119.86 125.174C119.86 123.859 121.002 122.72 122.32 122.72H245.046C246.363 122.72 247.505 123.859 247.505 125.174C247.505 126.488 246.363 127.627 245.046 127.627Z" fill="#5EC4B9"/>
<path d="M121.266 130.081C123.983 130.081 126.185 127.884 126.185 125.174C126.185 122.464 123.983 120.266 121.266 120.266C118.549 120.266 116.346 122.464 116.346 125.174C116.346 127.884 118.549 130.081 121.266 130.081Z" fill="white" stroke="#006D61" stroke-width="1.516" stroke-miterlimit="10"/>
<path d="M187.504 96.7812H106.507C101.236 96.7812 96.9315 92.4872 96.9315 87.2293V47.5323C96.9315 42.2744 101.236 37.9805 106.507 37.9805H187.504C192.775 37.9805 197.08 42.2744 197.08 47.5323V87.2293C197.08 92.4872 192.775 96.7812 187.504 96.7812Z" stroke="#006D61" stroke-width="1.6676" stroke-miterlimit="10"/>
<path d="M135.41 55.5944V79.0796C135.41 80.9199 137.342 82.1467 139.011 81.2704L163.609 68.8267C165.454 67.8628 165.366 65.2339 163.521 64.3575L138.924 53.4036C137.254 52.6149 135.41 53.8418 135.41 55.5944Z" fill="#B2DDC8"/>
<path d="M163.785 148.308H133.389V156.458H163.785V148.308Z" fill="#C0E3CF"/>
<path d="M278.516 170.917H4.68964C3.0205 170.917 1.70276 169.603 1.70276 167.938C1.70276 166.273 3.0205 164.958 4.68964 164.958H278.516" fill="white"/>
<path d="M278.516 170.917H4.68964C3.0205 170.917 1.70276 169.603 1.70276 167.938C1.70276 166.273 3.0205 164.958 4.68964 164.958H278.516" stroke="#006D61" stroke-width="1.8005" stroke-miterlimit="10"/>
<path d="M298.546 175.211H285.281C281.24 175.211 277.989 171.969 277.989 167.938C277.989 163.907 281.24 160.664 285.281 160.664H298.546V175.211Z" fill="white" stroke="#006D61" stroke-width="1.8005" stroke-miterlimit="10"/>
<path d="M306.716 166.361H298.546V163.381H306.716C307.507 163.381 308.209 164.082 308.209 164.871C308.209 165.659 307.507 166.361 306.716 166.361Z" fill="white" stroke="#006D61" stroke-width="1.8005" stroke-miterlimit="10"/>
<path d="M306.716 172.495H298.546V169.515H306.716C307.507 169.515 308.209 170.216 308.209 171.005C308.209 171.794 307.507 172.495 306.716 172.495Z" fill="white" stroke="#006D61" stroke-width="1.8005" stroke-miterlimit="10"/>
<path d="M6.35876 167.938H275.354" stroke="#6DBF9E" stroke-width="1.9762" stroke-miterlimit="10" stroke-linecap="round" stroke-linejoin="round"/>
<path opacity="0.3" d="M296.613 172.67H285.369C282.645 172.67 280.449 170.479 280.449 167.763C280.449 165.046 282.645 162.855 285.369 162.855H296.613V172.67Z" fill="#54CDBE"/>
</svg>
