<svg width="324" height="174" viewBox="0 0 324 174" fill="none" xmlns="http://www.w3.org/2000/svg">
<g clip-path="url(#clip0_2_2239)">
<path d="M122.06 83.8583C122.06 83.8583 111.881 40.7611 144.289 36.0083C170.916 32.0611 177.105 58.2416 176.86 83.8583C176.779 95.6999 144.941 100.855 144.941 100.855L122.06 83.8583Z" fill="white" stroke="#006D61" stroke-width="1.218" stroke-miterlimit="10" stroke-linecap="round" stroke-linejoin="round"/>
<path d="M133.134 30.3695C138.486 30.3695 142.824 26.0776 142.824 20.7834C142.824 15.4891 138.486 11.1973 133.134 11.1973C127.782 11.1973 123.444 15.4891 123.444 20.7834C123.444 26.0776 127.782 30.3695 133.134 30.3695Z" fill="#006D61"/>
<path d="M115.383 67.1833C122.533 67.1833 128.33 61.4488 128.33 54.375C128.33 47.3011 122.533 41.5667 115.383 41.5667C108.232 41.5667 102.436 47.3011 102.436 54.375C102.436 61.4488 108.232 67.1833 115.383 67.1833Z" fill="#00538F"/>
<path d="M106.426 55.4223C113.576 55.4223 119.373 49.6878 119.373 42.614C119.373 35.5402 113.576 29.8057 106.426 29.8057C99.2753 29.8057 93.4788 35.5402 93.4788 42.614C93.4788 49.6878 99.2753 55.4223 106.426 55.4223Z" fill="#00538F"/>
<path d="M107.403 68.2306C113.204 68.2306 117.907 63.5781 117.907 57.8389C117.907 52.0998 113.204 47.4473 107.403 47.4473C101.602 47.4473 96.8987 52.0998 96.8987 57.8389C96.8987 63.5781 101.602 68.2306 107.403 68.2306Z" fill="#00538F"/>
<path d="M125.805 63.0751C125.805 68.7945 122.467 78.6223 116.686 78.6223C110.904 78.6223 106.181 73.9501 106.181 68.2306C106.181 62.5112 110.904 57.839 116.686 57.839C122.467 57.839 125.805 57.3556 125.805 63.0751Z" fill="#00538F"/>
<path d="M115.953 38.6666C123.103 38.6666 128.9 32.9321 128.9 25.8583C128.9 18.7844 123.103 13.0499 115.953 13.0499C108.802 13.0499 103.006 18.7844 103.006 25.8583C103.006 32.9321 108.802 38.6666 115.953 38.6666Z" fill="#00538F"/>
<path d="M122.06 54.2945C132.043 54.2945 140.137 46.2879 140.137 36.4112C140.137 26.5345 132.043 18.5278 122.06 18.5278C112.076 18.5278 103.983 26.5345 103.983 36.4112C103.983 46.2879 112.076 54.2945 122.06 54.2945Z" fill="#00538F"/>
<path d="M148.849 48.4944C158.428 48.4944 166.193 40.8124 166.193 31.3361C166.193 21.8598 158.428 14.1777 148.849 14.1777C139.271 14.1777 131.505 21.8598 131.505 31.3361C131.505 40.8124 139.271 48.4944 148.849 48.4944Z" fill="#00538F"/>
<path d="M183.375 64.9278C190.525 64.9278 196.322 59.1933 196.322 52.1195C196.322 45.0456 190.525 39.3112 183.375 39.3112C176.224 39.3112 170.428 45.0456 170.428 52.1195C170.428 59.1933 176.224 64.9278 183.375 64.9278Z" fill="#00538F"/>
<path d="M189.726 53.1666C196.876 53.1666 202.673 47.4321 202.673 40.3583C202.673 33.2844 196.876 27.5499 189.726 27.5499C182.576 27.5499 176.779 33.2844 176.779 40.3583C176.779 47.4321 182.576 53.1666 189.726 53.1666Z" fill="#00538F"/>
<path d="M188.423 65.975C194.224 65.975 198.927 61.3225 198.927 55.5833C198.927 49.8442 194.224 45.1917 188.423 45.1917C182.622 45.1917 177.919 49.8442 177.919 55.5833C177.919 61.3225 182.622 65.975 188.423 65.975Z" fill="#00538F"/>
<path d="M172.463 64.2833C172.463 70.7277 174.662 78.8638 180.443 78.8638C186.225 78.8638 190.947 73.6277 190.947 67.1833C190.947 60.7388 186.225 55.5833 180.443 55.5833C174.662 55.5833 172.463 57.8388 172.463 64.2833Z" fill="#00538F"/>
<path d="M180.28 36.4111C187.431 36.4111 193.227 30.6766 193.227 23.6028C193.227 16.5289 187.431 10.7944 180.28 10.7944C173.13 10.7944 167.333 16.5289 167.333 23.6028C167.333 30.6766 173.13 36.4111 180.28 36.4111Z" fill="#00538F"/>
<path d="M166.031 24.8916C172.102 24.8916 177.023 20.0227 177.023 14.0166C177.023 8.0105 172.102 3.1416 166.031 3.1416C159.96 3.1416 155.038 8.0105 155.038 14.0166C155.038 20.0227 159.96 24.8916 166.031 24.8916Z" fill="#00538F"/>
<path d="M176.86 54.9389C186.844 54.9389 194.937 46.9323 194.937 37.0556C194.937 27.1789 186.844 19.1722 176.86 19.1722C166.877 19.1722 158.784 27.1789 158.784 37.0556C158.784 46.9323 166.877 54.9389 176.86 54.9389Z" fill="#00538F"/>
<path d="M149.419 31.0944C158.099 31.0944 165.135 24.1337 165.135 15.5472C165.135 6.96073 158.099 0 149.419 0C140.74 0 133.704 6.96073 133.704 15.5472C133.704 24.1337 140.74 31.0944 149.419 31.0944Z" fill="#00538F"/>
<path d="M131.261 29.0806C138.816 29.0806 144.941 23.0215 144.941 15.5472C144.941 8.07299 138.816 2.01392 131.261 2.01392C123.706 2.01392 117.581 8.07299 117.581 15.5472C117.581 23.0215 123.706 29.0806 131.261 29.0806Z" fill="#00538F"/>
<path d="M121.246 63.3972C121.246 63.3972 118.966 57.8389 114.161 60.0139C108.217 62.6722 112.044 75.9639 121.246 76.3667" fill="white"/>
<path d="M121.246 63.3972C121.246 63.3972 118.966 57.8389 114.161 60.0139C108.217 62.6722 112.044 75.9639 121.246 76.3667" stroke="#0075CB" stroke-width="1.218" stroke-miterlimit="10" stroke-linecap="round" stroke-linejoin="round"/>
<path d="M117.093 62.2694C115.79 61.7861 113.103 62.9944 114.487 67.0222L117.093 62.2694Z" fill="white"/>
<path d="M117.093 62.2694C115.79 61.7861 113.103 62.9944 114.487 67.0222" stroke="#0075CB" stroke-width="1.5225" stroke-miterlimit="10" stroke-linecap="round" stroke-linejoin="round"/>
<path d="M176.616 63.3972C176.616 63.3972 178.896 57.8389 183.7 60.0139C189.645 62.6722 185.818 75.9639 176.616 76.3667" fill="white"/>
<path d="M176.616 63.3972C176.616 63.3972 178.896 57.8389 183.7 60.0139C189.645 62.6722 185.818 75.9639 176.616 76.3667" stroke="#0075CB" stroke-width="1.218" stroke-miterlimit="10" stroke-linecap="round" stroke-linejoin="round"/>
<path d="M180.769 62.2694C182.072 61.7861 184.759 62.9944 183.375 67.0222L180.769 62.2694Z" fill="white"/>
<path d="M180.769 62.2694C182.072 61.7861 184.759 62.9944 183.375 67.0222" stroke="#0075CB" stroke-width="1.5225" stroke-miterlimit="10" stroke-linecap="round" stroke-linejoin="round"/>
<path d="M318.87 173.275H5.12987C2.68705 173.275 0.732788 171.342 0.732788 168.925C0.732788 166.508 2.68705 164.575 5.12987 164.575H318.87C321.313 164.575 323.267 166.508 323.267 168.925C323.267 171.261 321.313 173.275 318.87 173.275Z" fill="white" stroke="#0075CB" stroke-width="1.8271" stroke-miterlimit="10"/>
<path d="M5.19226 168.821H318.118" stroke="#6ED4FF" stroke-width="3.0451" stroke-miterlimit="10" stroke-linecap="round" stroke-linejoin="round"/>
<path d="M314.799 163.931H238.582C238.094 163.931 237.768 163.528 237.768 163.125V153.458C237.768 152.975 238.175 152.653 238.582 152.653H314.799C315.287 152.653 315.613 153.056 315.613 153.458V163.125C315.613 163.608 315.206 163.931 314.799 163.931Z" fill="white" stroke="#0075CB" stroke-width="2.1625" stroke-miterlimit="10"/>
<path d="M319.847 152.572H243.631C243.142 152.572 242.817 152.169 242.817 151.767V142.1C242.817 141.617 243.224 141.294 243.631 141.294H319.847C320.336 141.294 320.661 141.697 320.661 142.1V151.767C320.743 152.169 320.336 152.572 319.847 152.572Z" fill="white" stroke="#0075CB" stroke-width="2.1625" stroke-miterlimit="10"/>
<path d="M314.799 141.133H238.582C238.094 141.133 237.768 140.731 237.768 140.328V130.661C237.768 130.178 238.175 129.856 238.582 129.856H314.799C315.287 129.856 315.613 130.258 315.613 130.661V140.328C315.613 140.811 315.206 141.133 314.799 141.133Z" fill="white" stroke="#0075CB" stroke-width="2.1625" stroke-miterlimit="10"/>
<path d="M319.847 129.775H243.631C243.142 129.775 242.817 129.372 242.817 128.969V119.303C242.817 118.819 243.224 118.497 243.631 118.497H319.847C320.336 118.497 320.661 118.9 320.661 119.303V128.969C320.743 129.372 320.336 129.775 319.847 129.775Z" fill="white" stroke="#0075CB" stroke-width="2.1625" stroke-miterlimit="10"/>
<path d="M244.527 132.675H241.921V137.831H244.527V132.675Z" fill="#0791ED"/>
<path d="M317.323 143.953H299.897V149.753H317.323V143.953Z" fill="#99C8EA"/>
<path opacity="0.4" d="M312.193 132.675H246.969V138.475H312.193V132.675Z" fill="#0075CB"/>
<path opacity="0.4" d="M256.578 143.953H246.237V149.753H256.578V143.953Z" fill="#0075CB"/>
<path opacity="0.4" d="M298.35 143.953H258.451V149.753H298.35V143.953Z" fill="#0075CB"/>
<path d="M245.015 120.833H318.381" stroke="#0075CB" stroke-width="0.609" stroke-miterlimit="10" stroke-linecap="round" stroke-linejoin="round"/>
<path d="M245.015 122.444H318.381" stroke="#0075CB" stroke-width="0.609" stroke-miterlimit="10" stroke-linecap="round" stroke-linejoin="round"/>
<path d="M245.015 124.056H318.381" stroke="#0075CB" stroke-width="0.609" stroke-miterlimit="10" stroke-linecap="round" stroke-linejoin="round"/>
<path d="M245.015 125.667H318.381" stroke="#0075CB" stroke-width="0.609" stroke-miterlimit="10" stroke-linecap="round" stroke-linejoin="round"/>
<path d="M245.015 127.358H318.381" stroke="#0075CB" stroke-width="0.609" stroke-miterlimit="10" stroke-linecap="round" stroke-linejoin="round"/>
<path d="M239.967 154.989H313.333" stroke="#0075CB" stroke-width="0.609" stroke-miterlimit="10" stroke-linecap="round" stroke-linejoin="round"/>
<path d="M239.967 156.6H313.333" stroke="#0075CB" stroke-width="0.609" stroke-miterlimit="10" stroke-linecap="round" stroke-linejoin="round"/>
<path d="M239.967 158.211H313.333" stroke="#0075CB" stroke-width="0.609" stroke-miterlimit="10" stroke-linecap="round" stroke-linejoin="round"/>
<path d="M239.967 159.822H313.333" stroke="#0075CB" stroke-width="0.609" stroke-miterlimit="10" stroke-linecap="round" stroke-linejoin="round"/>
<path d="M239.967 161.514H313.333" stroke="#0075CB" stroke-width="0.609" stroke-miterlimit="10" stroke-linecap="round" stroke-linejoin="round"/>
<path d="M43.4008 163.931H36.0724C29.6396 163.931 24.4282 158.775 24.4282 152.411V129.775H55.1264V152.411C55.1264 158.775 49.8336 163.931 43.4008 163.931Z" fill="white" stroke="#0075CB" stroke-width="2.1625" stroke-miterlimit="10"/>
<path d="M59.1163 149.27H55.1263V139.844H59.1163C61.722 139.844 63.9205 141.939 63.9205 144.597C63.8391 147.175 61.722 149.27 59.1163 149.27Z" stroke="#0075CB" stroke-width="2.1625" stroke-miterlimit="10"/>
<path d="M155.608 61.3834C155.608 61.3834 161.552 58.8056 169.695 62.5111L155.608 61.3834Z" fill="white"/>
<path d="M155.608 61.3834C155.608 61.3834 161.552 58.8056 169.695 62.5111" stroke="#0075CB" stroke-width="1.5225" stroke-miterlimit="10" stroke-linecap="round" stroke-linejoin="round"/>
<path d="M142.58 61.4639C142.58 61.4639 136.635 59.3695 128.33 62.5917L142.58 61.4639Z" fill="white"/>
<path d="M142.58 61.4639C142.58 61.4639 136.635 59.3695 128.33 62.5917" stroke="#0075CB" stroke-width="1.5225" stroke-miterlimit="10" stroke-linecap="round" stroke-linejoin="round"/>
<path d="M129.958 67.5862C129.958 67.5862 130.61 68.4723 133.215 67.989C134.111 67.8278 135.821 70.8889 141.358 69.0362" fill="white"/>
<path d="M129.958 67.5862C129.958 67.5862 130.61 68.4723 133.215 67.989C134.111 67.8278 135.821 70.8889 141.358 69.0362" stroke="#0075CB" stroke-width="1.5225" stroke-miterlimit="10" stroke-linecap="round" stroke-linejoin="round"/>
<path d="M167.252 67.5862C167.252 67.5862 166.601 68.4723 163.995 67.989C163.099 67.8278 161.389 70.8889 155.852 69.0362" fill="white"/>
<path d="M167.252 67.5862C167.252 67.5862 166.601 68.4723 163.995 67.989C163.099 67.8278 161.389 70.8889 155.852 69.0362" stroke="#0075CB" stroke-width="1.5225" stroke-miterlimit="10" stroke-linecap="round" stroke-linejoin="round"/>
<path d="M149.419 67.1833C149.419 67.1833 149.582 69.3584 148.117 71.5334C145.511 75.6417 147.302 76.3667 149.419 76.3667" fill="white"/>
<path d="M149.419 67.1833C149.419 67.1833 149.582 69.3584 148.117 71.5334C145.511 75.6417 147.302 76.3667 149.419 76.3667" stroke="#0075CB" stroke-width="1.5225" stroke-miterlimit="10" stroke-linecap="round" stroke-linejoin="round"/>
<path d="M212.281 163.286H89.733C82.5674 163.286 76.8674 157.567 76.8674 150.558H225.228C225.228 157.567 219.447 163.286 212.281 163.286Z" fill="white" stroke="#0075CB" stroke-width="2.1625" stroke-miterlimit="10"/>
<path d="M210.49 160.225H90.4659C86.8016 160.225 83.8702 157.325 83.8702 153.7H217.086C217.086 157.325 214.154 160.225 210.49 160.225Z" fill="#B6E9FF"/>
<path d="M213.34 148.464H88.7559V82.65C88.7559 78.0583 92.5015 74.3528 97.1429 74.3528H204.953C209.594 74.3528 213.34 78.0583 213.34 82.65V148.464Z" fill="white" stroke="#0075CB" stroke-width="2.1625" stroke-miterlimit="10"/>
<path d="M210.164 144.517H92.1759V80.6361C92.1759 79.1861 93.3973 77.9778 94.863 77.9778H207.477C208.943 77.9778 210.164 79.1861 210.164 80.6361V144.517Z" fill="#B6E9FF"/>
<path fill-rule="evenodd" clip-rule="evenodd" d="M138.02 121.8C137.775 121.88 137.612 121.961 137.531 122.122C137.368 122.283 137.287 122.444 137.205 122.605C137.124 122.767 137.042 123.008 137.042 123.25C137.042 123.411 137.124 123.572 137.124 123.653C137.205 123.894 137.368 124.136 137.531 124.378C137.612 124.458 137.775 124.539 137.857 124.619C138.101 124.78 138.345 124.861 138.671 124.861C138.834 124.861 139.078 124.78 139.241 124.7C139.485 124.619 139.648 124.539 139.73 124.378C139.892 124.217 139.974 124.055 140.055 123.894C140.137 123.733 140.218 123.492 140.218 123.25C140.218 123.089 140.137 122.928 140.137 122.847C140.055 122.605 139.892 122.364 139.73 122.122C139.648 122.042 139.485 121.961 139.404 121.88C139.16 121.719 138.915 121.639 138.59 121.639H138.508C138.345 121.719 138.182 121.719 138.02 121.8Z" fill="white"/>
<path fill-rule="evenodd" clip-rule="evenodd" d="M133.622 109.797C131.587 109.797 131.587 112.939 133.622 112.939H136.554C138.59 112.939 138.59 109.797 136.554 109.797H133.622Z" fill="white"/>
<path fill-rule="evenodd" clip-rule="evenodd" d="M159.028 109.314C156.341 109.314 154.142 111.489 154.142 114.147C154.142 116.806 156.341 118.981 159.028 118.981C161.634 118.981 163.751 116.806 163.751 114.147C163.751 111.489 161.634 109.394 159.028 109.314Z" fill="white"/>
<path fill-rule="evenodd" clip-rule="evenodd" d="M169.939 113.986C169.858 108.106 164.972 103.433 159.109 103.514H159.028V103.594H132.483C130.528 103.675 130.528 106.656 132.564 106.656H146.651C148.687 106.656 148.687 109.717 146.651 109.717H140.625C139.241 110.119 139.241 112.294 140.625 112.617H146.651C148.687 112.617 148.687 115.678 146.651 115.678H135.088C133.053 115.678 133.053 118.739 135.088 118.739H146.651C148.687 118.739 148.687 121.8 146.651 121.8H143.394C141.358 121.8 141.358 124.861 143.394 124.861H159.354C165.298 124.619 170.021 119.786 169.939 113.986ZM165.542 114.067C165.542 117.692 162.611 120.672 158.946 120.672C155.282 120.672 152.351 117.692 152.351 114.067C152.351 110.522 155.282 107.542 158.946 107.542C162.611 107.542 165.542 110.442 165.542 114.067Z" fill="white"/>
</g>
<defs>
<clipPath id="clip0_2_2239">
<rect width="324" height="174" fill="white"/>
</clipPath>
</defs>
</svg>
