<?xml version="1.0" encoding="utf-8"?>
<!-- Generator: Adobe Illustrator 26.2.1, SVG Export Plug-In . SVG Version: 6.00 Build 0)  -->
<svg version="1.1" id="Layer_1" xmlns="http://www.w3.org/2000/svg" xmlns:xlink="http://www.w3.org/1999/xlink" x="0px" y="0px"
	 viewBox="0 0 35.1 20" style="enable-background:new 0 0 35.1 20;" xml:space="preserve">
<style type="text/css">
	.st0{fill:#FFFFFF;}
</style>
<path class="st0" d="M6.9,16.3c-0.2,0.1-0.3,0.1-0.4,0.3c-0.1,0.1-0.2,0.3-0.3,0.4c-0.1,0.2-0.1,0.3-0.1,0.5c0,0.1,0,0.2,0,0.4
	c0.1,0.2,0.2,0.4,0.3,0.6c0.1,0.1,0.2,0.1,0.3,0.2c0.2,0.1,0.4,0.2,0.7,0.2h0c0,0,0,0,0,0h0c0.2,0,0.3,0,0.5-0.1
	c0.2-0.1,0.3-0.1,0.4-0.3c0.1-0.1,0.2-0.3,0.3-0.4c0.1-0.2,0.1-0.3,0.1-0.5c0-0.1,0-0.2,0-0.4c-0.1-0.2-0.2-0.4-0.3-0.6
	c-0.1-0.1-0.2-0.1-0.3-0.2c-0.2-0.1-0.4-0.2-0.7-0.2h0c0,0,0,0,0,0C7.2,16.2,7.1,16.2,6.9,16.3z"/>
<path class="st0" d="M2.8,5.6c-1.7,0-1.7,3,0,3h2.5c1.7,0,1.7-3,0-3H2.8z"/>
<ellipse class="st0" cx="25.5" cy="9.6" rx="4.3" ry="4.4"/>
<path class="st0" d="M25.6,0h-0.1c-0.1,0-0.1,0-0.2,0v0H1.4c-1.8,0-1.7,2.8,0,2.8h12.8c1.8,0,1.8,2.8,0,2.8H8.8
	C7.6,6,7.6,7.9,8.8,8.3h5.4c1.8,0,1.8,2.8,0,2.8H3.8c-1.8,0-1.8,2.8,0,2.8h10.5c1.8,0,1.8,2.8,0,2.8h-2.9c-1.8,0-1.8,2.8,0,2.8h14.1
	c0,0,0,0,0,0h0.3v0c5.2-0.2,9.3-4.5,9.3-9.7C35.1,4.4,30.9,0.1,25.6,0z M25.5,15.7c-3.3,0-5.9-2.7-5.9-6.1c0-3.3,2.7-6.1,5.9-6.1
	c3.3,0,5.9,2.7,5.9,6.1C31.4,13,28.7,15.7,25.5,15.7z"/>
</svg>
