<svg xmlns="http://www.w3.org/2000/svg" xmlns:xlink="http://www.w3.org/1999/xlink" viewBox="0 0 1249.15 365.58"><defs><style>.cls-1{isolation:isolate;}.cls-18,.cls-2{fill:#ccc;}.cls-2,.cls-24{opacity:0.5;}.cls-3{fill:#0c232b;}.cls-4{fill:#f0a5a6;}.cls-5{fill:#231f20;}.cls-6{fill:#023b54;}.cls-7{fill:#0a5d8c;}.cls-8{fill:#ff4e00;}.cls-9{fill:#00647e;}.cls-10{fill:#039b8e;}.cls-11{fill:#c080b1;}.cls-12{fill:#cc7f7f;}.cls-13{fill:#0791ed;}.cls-14{fill:#999;}.cls-15{fill:url(#linear-gradient);}.cls-16{fill:#bbbdbf;}.cls-17{fill:#e6e7e8;}.cls-17,.cls-18,.cls-19,.cls-24{mix-blend-mode:multiply;}.cls-19{fill:gray;}.cls-20{fill:#024251;}.cls-21{fill:#44d1a0;}.cls-22{fill:url(#linear-gradient-2);}.cls-23{fill:#fff200;}.cls-24{fill:#c94545;}</style><linearGradient id="linear-gradient" x1="529.89" y1="47.56" x2="580.81" y2="47.56" gradientUnits="userSpaceOnUse"><stop offset="0.31" stop-color="#ccc"/><stop offset="0.89" stop-color="#666"/></linearGradient><linearGradient id="linear-gradient-2" x1="654.96" y1="47.56" x2="705.88" y2="47.56" gradientTransform="translate(1360.84 95.11) rotate(-180)" gradientUnits="userSpaceOnUse"><stop offset="0.2" stop-color="#666"/><stop offset="0.57" stop-color="#ccc"/></linearGradient></defs><g class="cls-1"><g id="Layer_1" data-name="Layer 1"><ellipse class="cls-2" cx="399.81" cy="353.08" rx="91.5" ry="12.5"/><ellipse class="cls-2" cx="904.81" cy="353.08" rx="91.5" ry="12.5"/><path class="cls-3" d="M881,27.05s-5.23-6.12.64-15.09c4-6,8.17-3.47,8-.52S885.93,22.83,881,27.05Z"/><path class="cls-4" d="M467.85,76.22s-4.91,1.54-5.37,2.08c-.15.17-1.73,1-.61,4.07.42,1.15,1.23,2.29,2.4,2.42.71.08,2.92-1,4.49-1.56a2.62,2.62,0,0,0,1.41,1.07,8,8,0,0,0,4.67.2c2.21-.39,5.26-.67,7-2.06s.72-2.23.72-2.23a1.57,1.57,0,0,0,1-1.24,2.13,2.13,0,0,0-.53-1.66,3.17,3.17,0,0,0,.89-1.61,2.42,2.42,0,0,0-.63-1.57s1.27-.53,1.07-1.66S481.86,71,481.19,71l-1.95.11s.82-2.19-.08-2.34c-.46-.08-2.79,1.16-4.83,1-2.36-.13-4.05,1.83-4.54,2.54A20.31,20.31,0,0,0,467.85,76.22Z"/><path class="cls-5" d="M399.57,328.54,394.88,346s5.18,3.56,10.08.66l3.32-15.57S399.31,328.14,399.57,328.54Z"/><path class="cls-5" d="M404.38,338s-1.65,4.84.89,6.58,5.27,1.34,9.58.73c5.57-.79,14.2,7,3.31,6.35-1.61-.1-10.53-.79-14.72-4.21-2-1.67-1.74-5.65-1.14-6.78Z"/><path class="cls-6" d="M416.23,149.41c-11.22-11-23.67-16.8-35.14-7.54l-3.25,2.63C361.17,158,407,226.77,416.15,238.74c11.59,15.23,33.84,36.2,40.4,25.94,7.61-11.92,5.29-23.84,5.29-25.94,0-16.89-7.55-32.1-15.12-45.78C440.42,181.59,429.14,162.06,416.23,149.41Z"/><path class="cls-6" d="M407.32,339.47c8.74-9.55,26-31.22,36.19-50.48l.09-.15L457,265c4.89-11.79.84-17.77-5.27-21,0,0-23.41,7.55-23.43,7.6-10.58,19.21-27.92,68.95-31.06,81.37C397.25,333,403.26,339.56,407.32,339.47Z"/><path class="cls-5" d="M359.59,331l-6.88,16.7s4.68,4.2,9.91,2l5.29-15S359.39,330.58,359.59,331Z"/><path class="cls-5" d="M362.11,340.28s-1.38,4.93,1.26,6.52,5.34,1,9.61.17c5.52-1.11,14.58,6.13,3.67,6.15-1.61,0-10.55-.18-14.93-3.35-2.14-1.54-2.08-5.54-1.54-6.7Z"/><path class="cls-7" d="M365.3,344.45c10.1-10.71,30.39-35,43.3-56.49l.11-.16,6.08-10c7-11.56,8.14-23.75,2.43-27.23l-1.91-1.16c-5.71-3.48-21.23-1.7-21.26-1.64-26.82,43.45-33.15,75.84-38,89.63C356,337.42,361.2,344.63,365.3,344.45Z"/><path class="cls-7" d="M407.87,140.74c-7.2-14-24.39-10.67-38.19-5.47l-3.91,1.47c-20.06,7.54-12.52,32.66-4.74,51.17,5.88,14,29.76,70.66,39.23,78.31,3.75,3,14.25,3.06,16.22,2.31s3.58-3.33,4.4-8.08c2.58-14.83,1.5-40.92-.1-56.47C419.46,191.07,416.16,156.81,407.87,140.74Z"/><path class="cls-4" d="M395.56,13.8c4,6.9,3.63,19.8,1,21-5.58,2.61-17.61-2.23-21.6-9.13s-2.6-15.17,3.1-18.46S391.57,6.89,395.56,13.8Z"/><path class="cls-4" d="M389,44.57H378.24V28.23l12.42.69S387.48,37.5,389,44.57Z"/><path class="cls-4" d="M393.8,14.77s4.89,2.4,6.55,2.58,2.36.79.93,2.57a8.68,8.68,0,0,1-3.92,2.47Z"/><path class="cls-7" d="M466.27,78.37A2.1,2.1,0,0,0,464,76.78c-6.56.85-24.86,4.23-26.68,5S414.4,68.24,413.19,66.68c-8.08-2.1,0,15.32-3.43,20,2.65,4.5,18.32,9.13,18.32,9.13,9.46,2.33,31.33-7.38,38.12-11a2.09,2.09,0,0,0,1-2.32Z"/><path class="cls-7" d="M418.53,84c-1.56,1.75-3.64,3.94-5.32,5.57-8.57-4.42-13.56-5.62-23.81-14.27-9.35-8.81-18.25-11.54-16.29-21.37,2-7.52,12.73-9.84,12.76-9.81,10.87,4.81,27.87,22,38.36,33.91C422.72,80.32,420.36,82,418.53,84Z"/><path class="cls-8" d="M374.83,39.94c1.63-1,.17-2.34,1.56-2.35L388,38.92c3.62-.09,1.81,1.83,2.4,2.34,15.81,13.74,17.64,54.86,23.4,89.68a16.81,16.81,0,0,1,.21,1.95,6.35,6.35,0,0,1,.56,3.49c-.92,7.31-14.59,14-31.64,15-15.21.87-28.18-3-31.58-9.23l0-.06c-.08-.14-.15-.28-.22-.43a12.75,12.75,0,0,1-1.06-5.66c.27-13.57-.32-26.48,1.54-37.92C357.05,45.64,374.24,39.83,374.83,39.94Z"/><path class="cls-3" d="M377.6,27.39s1.61-.24,1.55-3.1c0-2.11,1.66-4.05,2.65-4.3s3.73-.83,4.3-4.8c.21-1.44-.33-3.6.72-4.79a2.73,2.73,0,0,1,1.23-.72c3.18-1.08,6.91-.23,9.81-2.19s2.32-6.37-.75-7.37-6.87,4.39-9.68,3.73c-1.43-.34-2.18-1.58-3.32-2.37A8.27,8.27,0,0,0,379.3.28c-3.53.11-6.84,1.48-8.54,4.7-1,1.89-1.88,4-4.09,4.67-1.17.37-2.4.5-3.57.83a8.67,8.67,0,0,0-5.1,3.71c-2.54,4.24.71,9,4.64,11,3.33,1.63,2.86,3.85,2.73,5.71-.23,3.37,4,8,9.62,4.35,1.16,1.24,3.23.68,3.23.68l1.35-3.75S377.72,29.44,377.6,27.39Z"/><path class="cls-4" d="M377.91,22.06c.78,2.2,2.41,3.62,3.65,3.19s1.59-2.58.81-4.78-2.42-3.62-3.65-3.18S377.13,19.87,377.91,22.06Z"/><path class="cls-5" d="M964.28,318.74l6.29,13.64s-2.07,5.8-7.63,6.31l-5.34-13.61S964.25,318.27,964.28,318.74Z"/><path class="cls-5" d="M959.71,329.86s2.79,4.48,1.77,7.32-3.43,4.09-7.2,6.08c-4.89,2.57-7.3,13.69,1,6.95,1.23-1,7.91-6.67,9.28-11.79.67-2.5-1.85-5.5-3-6.05Z"/><path class="cls-9" d="M956.42,332.46C946,324,905.33,273,905.33,273c-7.76-9.64-8.28-17.43-3.52-21.26l1.59-1.28c4.76-3.83,19-4.06,19.07-4a352,352,0,0,1,46.4,73,4.46,4.46,0,0,1-.21,4.36C966.57,327.08,962.08,332.85,956.42,332.46Z"/><path class="cls-5" d="M868.12,332.91l-1.8,14.92s-4.81,3.85-9.81,1.37l2.6-14.39S868.34,332.5,868.12,332.91Z"/><path class="cls-5" d="M858.4,340s0,5.27-2.34,7.15-5.06,1.69-9.32,1.4c-5.51-.37-13.39,7.83-2.78,6.45,1.57-.21,10.23-1.53,14.09-5.17,1.87-1.77,1.3-5.65.63-6.71Z"/><path class="cls-9" d="M856.45,338.3c-8.52-19.08-10.79-75.58-9.2-86.45,0,0,30.09-2,30.09-1.95.06,18.67-2.79,67.49-5.85,83.6a4.85,4.85,0,0,1-3.49,3.79C864.46,338.26,858.63,339.55,856.45,338.3Z"/><path class="cls-4" d="M773.74,89.13s5.07-.91,5.72-.65c.22.08,2,.09,2.43,3.32a3.32,3.32,0,0,1-1,3.26c-.59.4-3.06.46-4.7.7a2.64,2.64,0,0,1-.75,1.6,8.17,8.17,0,0,1-4.05,2.35c-2.14.67-5,1.84-7.18,1.43s-1.67-1.65-1.67-1.65a1.56,1.56,0,0,1-1.45-.64,2.13,2.13,0,0,1-.3-1.71,3.21,3.21,0,0,1-1.53-1,2.39,2.39,0,0,1-.17-1.68s-1.37.11-1.72-1,1.52-2.51,2.13-2.79l1.78-.81s-1.74-1.56-1-2.11c.37-.28,3-.26,4.77-1.32,2-1.21,4.43-.25,5.19.15A20.12,20.12,0,0,1,773.74,89.13Z"/><path class="cls-3" d="M915.41,21.26c-1.84-4.35-6.24-2.73-6.24-2.73s2.75-5.62-1.32-7.93-5.79,1.63-8,.93c-1.78-.55-1.67-2-2.58-2.84a4.89,4.89,0,0,1-1.71,2c-3.17,2.13-6.89,3.26-9.93,5.6a3.53,3.53,0,0,1-2.13.7l0,0a4.61,4.61,0,0,1-2.18.6c1.46,2.05,3.87,3,8.37,2.06,4.74-.95,6,1,6.13,4.5s1.48,4.76,1.48,4.76,3.19-2,3.84,1.9a4.71,4.71,0,0,1-2.64,5.26,27.26,27.26,0,0,1-.47,4.49c-.51,3.08-.19,3.45,2.37,2.67,3.39-1,6.22-2.54,8.08-5.17s2-5.39.47-6.09C908.89,32,917.11,25.28,915.41,21.26Z"/><path class="cls-9" d="M887.3,145.76c3-15.48,56.23-31.15,47.59,34.65-2,15.11-9.71,72-16.24,82.22-2.58,4-14.67,8.65-15.75,7.08a42.52,42.52,0,0,1-5-8.31c-5.79-13.28-4.7-36.38-7-51.63C889,197.1,883.81,163.57,887.3,145.76Z"/><path class="cls-9" d="M854.41,170c3.89-15.21,6-27.32,14.5-33.95l47,7.21c4.52,19.43-13.78,35-26.86,69.65-2.26,6-8.32,30.59-11.67,44.2-3.28,13.3-14.95,17.17-20.52,15-9.19-3.53-9.53-13.47-9.72-15.38C845.21,237,851,183.31,854.41,170Z"/><path class="cls-10" d="M910,75.4c-4.67-7.58-.66-27.5-.66-27.5,11.54-6.11,25.35,10.27,30.3,21,10.82,17.15,15.62,33.54,16.58,38.6,1,5.44-3.15,16.55-5.7,15.28-4.67-2.33-25.84-30.31-38.38-34.65C912.09,88.07,910,75.4,910,75.4Z"/><path class="cls-10" d="M876.13,47.43s27.37,10,21,15.39L878.89,76.88l-.09.08C864.36,89.52,839,98.9,834,99.41c-2.69.27-8.29-12-.46-17.58C841,77,865.54,54.53,876.13,47.43Z"/><path class="cls-11" d="M891.92,52.41a16.29,16.29,0,0,0,7.62-4.12l-.17,2.43L894,61l-4.65-8.41A11.1,11.1,0,0,0,891.92,52.41Z"/><path class="cls-10" d="M778.16,92.39l.14-2.86a5.52,5.52,0,0,1,5.86-5.07c37.49,1.26,49.24-2.94,49.24-2.94,23.54-3.4,8.81,19.67-3.88,18.65,0,0-41.16-1.15-47-2.38A5.33,5.33,0,0,1,778.16,92.39Z"/><path class="cls-10" d="M888.45,43.92c-2.42,0-12,7.91-17.14,23.49-4.39,13.38-7.45,48.41-8.36,72.8-.24,6.46,14.64,6.81,31.33,6.73,15.66-.07,39.72-.77,40-6.61.5-11.9-13.52-75.18-15.35-85.18-8.81-11.91-18.08-9.89-19.11-10.28Z"/><path class="cls-4" d="M888,47.53s8.81,5.76,15.43-1.75l-1.8-6.09-.13-6.13-15.64,5S888.56,40.89,888,47.53Z"/><path class="cls-12" d="M896.7,40.47c-1.18,2-2.76,5.67-5,6.62a4.37,4.37,0,0,1-3.56.07,44.94,44.94,0,0,0-2.23-8.55l14-4.9A29.85,29.85,0,0,1,896.7,40.47Z"/><path class="cls-4" d="M882.49,16.91c-4.93,16.2.78,23.81,3.39,24.49,5.49,1.42,15.57-5,18-11.89s-.19-14.17-5.9-16.19S884.63,9.89,882.49,16.91Z"/><path class="cls-13" d="M470.38,76.17c-4.68,20-10,42.74-22.59,55.33-33.83,33.78-79.45,34.29-157.12,23.14-47.54-6.83-86.33-.61-118.6,19-27.27,16.59-49.63,42.87-68.38,80.35C83.37,294.68,44.62,318.23,0,331.21v9.54c47.88-13.46,89.86-38.5,111.92-82.61,38.68-77.36,93.4-106.47,177.44-94.4,32.81,4.71,67.18,8.62,96.29,5.36,28.81-3.22,50.62-13.1,68.64-31.09,14.46-14.44,20.08-38.51,25-59.74,6.75-28.88,36.54-24.76,37.8-24.57l.7-4.54.7-4.55C504.93,42.5,477.35,46.38,470.38,76.17Z"/><path class="cls-13" d="M616.22,34.43H587.31a2.54,2.54,0,0,1-2.52-2.52h0a2.53,2.53,0,0,1,2.52-2.52h28.91a2.52,2.52,0,0,1,2.52,2.52h0A2.53,2.53,0,0,1,616.22,34.43Z"/><path class="cls-13" d="M616.22,65.73H587.31a2.54,2.54,0,0,1-2.52-2.52h0a2.53,2.53,0,0,1,2.52-2.52h28.91a2.52,2.52,0,0,1,2.52,2.52h0A2.53,2.53,0,0,1,616.22,65.73Z"/><path class="cls-14" d="M528.32,56.12,511,53.75c-1.8-.25-3.16-2.74-3.16-5.56h0c0-2.82,1.36-5.32,3.16-5.56l17.37-2.38c4.11-.56,7.94,3,7.94,7.94h0C536.26,53.15,532.43,56.68,528.32,56.12Z"/><rect class="cls-15" x="529.89" y="25.68" width="50.92" height="43.76" rx="9.95"/><rect class="cls-14" x="562.51" y="21.17" width="32.09" height="52.78" rx="5.04"/><rect class="cls-16" x="559.07" y="16.53" width="9.55" height="62.06" rx="2.65"/><rect class="cls-17" x="554.02" y="25.63" width="5.02" height="43.76"/><path class="cls-18" d="M529.81,40.23a6.2,6.2,0,0,0-1.49,0l-4.31.59V55.53l4.31.59a6.2,6.2,0,0,0,1.49,0Z"/><rect class="cls-19" x="568.58" y="21.26" width="2.77" height="52.78"/><path class="cls-9" d="M934.75,134.48q-1.25-9.6-3-19.1c-1.25-6.59-1.48-8.38-3.06-14.9-4.22-6-8.21-12.17-11.7-14.11-7.11-1.75-8.66-25.21-6.79-30a47.61,47.61,0,0,1,3.13-7c.59-1,2.14-2,2-3.36-.21-2.06-2.87-2-4.73-1.85l-.2,0c-3.3-.43-5.41,1.65-6.63,4.54a50.45,50.45,0,0,0-2.46,7.8c-.82,3.42-1,7.34-2.22,10.63-1.17,3.11-3,3.47-6,3.82a42.71,42.71,0,0,1-5.18.28c-3.43,0-9.68.31-9.72-4.4,0-6.69,2.54-14.09,5.46-20a1.13,1.13,0,0,0-1.25-1.58,6,6,0,0,0-3.27-.22,8,8,0,0,0-3.39.87,4,4,0,0,0-1.41,2.33,1.14,1.14,0,0,0,0,.24c-1.59,3.41-2.94,5.72-3.89,9.37-.49,1.88-.87,5-1.17,6.89-.49,3.17.47,19.86-3.36,21.35-2.33.9-4.54,8.16-5.44,19.81-.58,7.49-2.79,45.33-3.05,51.81-.1,2.56,36-2.93,43.43-2.84,10.07.12,34.18,11.33,35.06,6.86C937.61,152.42,935.43,139.81,934.75,134.48Z"/><path class="cls-20" d="M935.79,161.62c1.82-9.2-.36-21.81-1-27.14q-1.25-9.6-3-19.1c-1.25-6.59-1.48-8.38-3.06-14.9-4.22-6-8.21-12.17-11.7-14.11a4,4,0,0,1-1-.43c-.42,10.8-.72,21.6-2.92,32.23-1.89,9.14-5.89,17.47-10.12,25.71,5.81,4.73,8.5,13.62,11.41,20a274.52,274.52,0,0,1,12.63,35c1.35,4.52,2.44,9,3.34,13.56,2.14-13.56,3.82-26.06,4.61-32a95.23,95.23,0,0,0,.78-18.48A1.05,1.05,0,0,0,935.79,161.62Z"/><path class="cls-21" d="M1249.15,333.59c-22.46.69-47.1,3.14-72.92,5.71-45.68,4.55-92.91,9.26-130.19,3.93-41.19-5.88-63.12-22.79-69-53.23-10.86-56.13-30.73-98.26-59-125.2-26.58-25.29-54.13-30.61-68.18-31.53-2.2-.14-4.65-.23-7.24-.31-20.93-.72-52.53-1.81-68.65-35.49-11.12-27.73-25.38-45.19-42.41-51.91-13.43-5.29-23.54-1.57-24-1.41l3.26,8.6c.31-.12,31-11,54.64,48.28l.11.26c18.51,38.86,54.94,40.11,76.7,40.86,2.52.08,4.9.16,7,.3,12.81.84,38,5.72,62.44,29,26.91,25.6,45.87,66.07,56.37,120.29,6.64,34.34,31.75,54.16,76.74,60.59a280.31,280.31,0,0,0,39.29,2.45c29.46,0,61.65-3.2,93.11-6.34,25.54-2.54,49.94-5,72-5.66Z"/><path class="cls-4" d="M896.9,146.79s4.72-2,5.42-1.94c.23,0,2-.36,3.13,2.69a3.34,3.34,0,0,1-.24,3.4c-.49.52-2.87,1.15-4.42,1.75a2.63,2.63,0,0,1-.37,1.73,8.11,8.11,0,0,1-3.4,3.21c-1.93,1.14-4.42,2.92-6.66,3s-2-1.22-2-1.22a1.57,1.57,0,0,1-1.56-.3,2.13,2.13,0,0,1-.68-1.59,3.21,3.21,0,0,1-1.72-.64,2.44,2.44,0,0,1-.55-1.6s-1.31.42-1.9-.56.91-2.79,1.44-3.21l1.55-1.19s-2-1.12-1.48-1.82c.3-.36,2.87-.94,4.35-2.37,1.7-1.64,4.25-1.26,5.09-1A20.28,20.28,0,0,1,896.9,146.79Z"/><path class="cls-4" d="M463.14,95.15s-5.09.8-5.62,1.25c-.18.16-1.86.75-1.21,3.94a3.31,3.31,0,0,0,2,2.75c.69.19,3-.56,4.67-.87a2.58,2.58,0,0,0,1.23,1.26,8.14,8.14,0,0,0,4.6.9c2.24-.06,5.3.12,7.25-1s1-2.11,1-2.11a1.54,1.54,0,0,0,1.16-1.08,2.13,2.13,0,0,0-.27-1.71A3.25,3.25,0,0,0,479.11,97a2.43,2.43,0,0,0-.39-1.65S480.06,95,480,93.9s-2.26-1.88-2.93-2l-1.94-.18s1.13-2,.27-2.32c-.44-.15-2.93.73-4.94.31-2.31-.48-4.27,1.2-4.85,1.83A20.2,20.2,0,0,0,463.14,95.15Z"/><path class="cls-10" d="M902.4,152l-2.92-5.13a3.25,3.25,0,0,1,1-4.61A132,132,0,0,0,917.24,132a69.57,69.57,0,0,0,20-24.82c2.33-4.92,19.12,3.37,18.91,4.92-1.55,11.66-15.28,26.48-23.67,30.53l-6.16,3-.09,0a131.88,131.88,0,0,1-20.07,8.07A3.46,3.46,0,0,1,902.4,152Z"/><path class="cls-14" d="M707.45,55.49l17.37-2.37c1.8-.25,3.16-2.74,3.16-5.56h0c0-2.82-1.36-5.32-3.16-5.56l-17.37-2.38c-4.11-.56-7.93,3-7.93,7.94h0C699.52,52.52,703.34,56.05,707.45,55.49Z"/><path class="cls-18" d="M711,40.11l-3.53-.49c-4.11-.56-7.93,3-7.93,7.94s3.82,8.49,7.93,7.93L711,55Z"/><rect class="cls-22" x="654.96" y="25.68" width="50.92" height="43.76" rx="9.95" transform="translate(1360.84 95.11) rotate(180)"/><rect class="cls-14" x="641.17" y="21.17" width="32.09" height="52.78" rx="5.04" transform="translate(1314.42 95.11) rotate(180)"/><path class="cls-19" d="M668.22,21.17h-5.31V74h5.31a5.06,5.06,0,0,0,5-5V26.21A5.05,5.05,0,0,0,668.22,21.17Z"/><rect class="cls-16" x="667.16" y="16.53" width="9.55" height="62.06" rx="2.65" transform="translate(1343.86 95.11) rotate(180)"/><path class="cls-14" d="M696.55,36.64H680.38a.93.93,0,0,1-.93-.93h0a.93.93,0,0,1,.93-.93h16.17a.93.93,0,0,1,.93.93h0A.93.93,0,0,1,696.55,36.64Z"/><path class="cls-14" d="M696.55,41.38H680.38a.93.93,0,0,1-.93-.93h0a.93.93,0,0,1,.93-.93h16.17a.93.93,0,0,1,.93.93h0A.93.93,0,0,1,696.55,41.38Z"/><path class="cls-14" d="M696.55,46.12H680.38a.93.93,0,0,1-.93-.93h0a.93.93,0,0,1,.93-.93h16.17a.93.93,0,0,1,.93.93h0A.93.93,0,0,1,696.55,46.12Z"/><path class="cls-14" d="M696.55,50.85H680.38a.92.92,0,0,1-.93-.92h0a.93.93,0,0,1,.93-.93h16.17a.93.93,0,0,1,.93.93h0A.93.93,0,0,1,696.55,50.85Z"/><path class="cls-14" d="M696.55,55.59H680.38a.92.92,0,0,1-.93-.92h0a.92.92,0,0,1,.93-.93h16.17a.93.93,0,0,1,.93.93h0A.93.93,0,0,1,696.55,55.59Z"/><path class="cls-14" d="M696.55,60.33H680.38a.93.93,0,0,1-.93-.93h0a.92.92,0,0,1,.93-.92h16.17a.93.93,0,0,1,.93.92h0A.93.93,0,0,1,696.55,60.33Z"/><path class="cls-4" d="M766.51,97.75a2.7,2.7,0,0,0,.91-2.19A1.33,1.33,0,0,0,766,94.34a2.25,2.25,0,0,0,.53-2.4,1.66,1.66,0,0,0-2-1.1,1.77,1.77,0,0,0,.23-1.23,1.69,1.69,0,0,0-1.47-1.32c-2.48-.46-4.46,1.81-5.46,3.76a.37.37,0,0,0,.13.5.32.32,0,0,0,.19.22c2.25,1.07,3.61,3.71,4.86,5.76.7,1.16,1,2.57,2.51,2.21C767.59,100.25,767.88,98.12,766.51,97.75Z"/><path class="cls-4" d="M481.31,82.79c1.48-.58.89-1.89.81-3.24-.14-2.4-.52-5.34.71-7.51a.29.29,0,0,0,0-.28.38.38,0,0,0-.17-.49c-1.94-1-4.85-1.77-6.63,0a1.7,1.7,0,0,0-.46,1.93,1.77,1.77,0,0,0,.89.88,1.65,1.65,0,0,0-1,2,2.24,2.24,0,0,0,1.8,1.67,1.33,1.33,0,0,0-.47,1.81,2.7,2.7,0,0,0,2,1.29C477.92,82,479.37,83.55,481.31,82.79Z"/><path class="cls-6" d="M394,101.67c-8-7.46-16.79-16.64-23.21-25.58l-.09-.12-5.22-7.13c-6.05-8.27,2.28-20.57,2.28-20.57,5.83-4.29,14.76-4.69,20.81,3.58L393.75,59l.08.12a170.82,170.82,0,0,1,14.49,24A91.52,91.52,0,0,0,394,101.67Z"/><path class="cls-23" d="M404.6,96.41l4.24-.14c-.7-4.86-1.44-9.65-2.26-14.25A156.94,156.94,0,0,1,354.05,81c-.69,3.64-1.32,7.59-1.86,11.89C368.9,98.18,387.31,97,404.6,96.41Z"/><path class="cls-23" d="M390.38,121.92a80.87,80.87,0,0,0,21.24-5.57c-.46-3.29-.91-6.59-1.36-9.88l-4.49.16c-18,.61-37.33,1.84-54.85-3.43-.39,3.88-.58,7.91-.67,12A74.45,74.45,0,0,0,390.38,121.92Z"/><path class="cls-24" d="M413.81,130.94c-2.73-16.52-4.58-34.44-7.46-50.2l-9-1.36c-8.47-1.31-17.11-3.46-25.7-4.3,6.7,19.18,16.07,38.67,31.7,51.27a70.48,70.48,0,0,0,10.9,7.18c-.08-.21-.15-.43-.25-.64A16.81,16.81,0,0,0,413.81,130.94Z"/><path class="cls-7" d="M460.4,97a1.62,1.62,0,0,0-1.93-1.47c-8.18,1.64-28.61,2.84-32.47,3.81a11,11,0,0,1-12.81-6.1c-4.9-10.86-11.81-24-19.36-34.17l-.08-.12-5.22-7.13c-3.66-3.58-10.73-4.34-16.57,0,0,0-9,12-6.52,17L370.66,76l.09.12c11.77,16.39,31.45,33.57,39.84,39.55,3.56,6.54,18.23,4.57,30.45-1.27,0,0,17.92-9,19.81-10.68Z"/><path class="cls-3" d="M902.87,13.68A13.57,13.57,0,0,0,901,16.17c-.8,1.31-1.57.5-2.26,2,.25.21.24,2.73.49,2.93a16,16,0,0,1,2.34,2.53c.93-5.49,3.6-.88,3.84.83s-1.79,4.6-.38,4.56,2.73-4.48,2.73-4.48c-.35-7.25-1.83-7.08-3.62-9.71A4.56,4.56,0,0,0,902.87,13.68Z"/><path class="cls-3" d="M900.72,22.06c-.41.21-2.22-4.62-2.6-4.58.25.95,1.72,7.26,2.08,8.63.56,2.14,1.92,2.25,2,2,.1-.53-.25-1-.39-1.49a13.84,13.84,0,0,1-.15-3.22,15.69,15.69,0,0,1-.28-1.61Z"/><path class="cls-10" d="M882.87,17.92a11.52,11.52,0,0,0,1.79.78h28.52a16,16,0,0,0-6.71-13.51C901,1.6,892,1.48,886.75,3.39,883.37,4.64,876.93,15.43,882.87,17.92Z"/><path class="cls-9" d="M882.25,18.7H898.6c-.1-1.59-3.28-2.37-4.75-2.78l-20.78-5.76a32.16,32.16,0,0,0-7-1.39,2.5,2.5,0,0,0-1.53.29,2.14,2.14,0,0,0-.48,2.63,5.19,5.19,0,0,0,2,2c4.53,3,8.69,5.3,14,5.09A17.87,17.87,0,0,1,882.25,18.7Z"/></g></g></svg>