<svg id="Layer_1" data-name="Layer 1" xmlns="http://www.w3.org/2000/svg" viewBox="0 0 131 131"><defs><style>.cls-2{stroke-miterlimit:10;fill:#039b8e;stroke:#039b8e}</style></defs><circle cx="65.5" cy="65.5" r="65" stroke-miterlimit="10" fill="#f5f5f5" stroke="#f5f5f5"/><path class="cls-2" d="M65.5 71.42a1.26 1.26 0 01-.59-.15L30.8 53.19a1.26 1.26 0 010-2.23l34.1-17.61a1.31 1.31 0 011.16 0L100.18 51a1.26 1.26 0 010 2.23L66.09 71.27a1.26 1.26 0 01-.59.15zM34.11 52.09L65.5 68.74l31.39-16.65-31.39-16.2z"/><path class="cls-2" d="M65.5 105.53a1.25 1.25 0 01-.65-.18 1.26 1.26 0 01-.61-1.08V70.16a1.26 1.26 0 011.86-1.1l13.71 7.43L99 66.31a1.23 1.23 0 011.23 0 1.26 1.26 0 01.61 1.08v18.79a1.25 1.25 0 01-.67 1.12l-34.1 18.08a1.26 1.26 0 01-.57.15zm1.26-33.25v29.9l31.59-16.75V69.51L80.39 79a1.26 1.26 0 01-1.18 0z"/><path class="cls-2" d="M79.81 79.17a1.24 1.24 0 01-.6-.15L64.9 71.27a1.26 1.26 0 010-2.22L99 51a1.24 1.24 0 011.18 0l14.31 7.76a1.25 1.25 0 010 2.21L80.39 79a1.3 1.3 0 01-.58.17zm-11.65-9l11.65 6.31 31.44-16.67-11.65-6.3z"/><path class="cls-2" d="M65.5 105.53a1.26 1.26 0 01-.59-.15L30.8 87.3a1.26 1.26 0 01-.66-1.12V67.41a1.23 1.23 0 01.61-1.07 1.25 1.25 0 011.23 0l19.21 10.15 13.71-7.43a1.26 1.26 0 011.86 1.1v34.11a1.26 1.26 0 01-.61 1.08 1.28 1.28 0 01-.65.18zm-32.85-20.1l31.59 16.75V72.27L51.79 79a1.24 1.24 0 01-1.18 0l-18-9.52z"/><path class="cls-2" d="M51.19 79.17a1.19 1.19 0 01-.58-.15L16.5 60.94a1.26 1.26 0 010-2.22L30.8 51a1.24 1.24 0 011.2 0l34.09 18.05a1.26 1.26 0 010 2.24L51.79 79a1.24 1.24 0 01-.6.17zM19.75 59.82l31.44 16.67 11.65-6.32L31.4 53.5z"/><path class="cls-2" d="M31.4 53.33a1.31 1.31 0 01-.59-.14L16.5 45.58a1.27 1.27 0 01-.67-1.11 1.28 1.28 0 01.68-1.12l34.1-17.74a1.29 1.29 0 011.18 0l14.31 7.75a1.26 1.26 0 01.66 1.12 1.29 1.29 0 01-.68 1.11L32 53.19a1.17 1.17 0 01-.6.14zm-11.61-8.85l11.62 6.18 31.4-16.22-11.63-6.29z"/><path class="cls-2" d="M99.6 53.34a1.18 1.18 0 01-.57-.15l-34.11-17.6a1.26 1.26 0 010-2.23l14.31-7.73a1.24 1.24 0 011.18 0l34.1 17.74a1.24 1.24 0 01.68 1.11 1.27 1.27 0 01-.67 1.11l-14.3 7.61a1.27 1.27 0 01-.62.14zM68.19 34.45L99.6 50.66l11.61-6.18-31.39-16.32z"/></svg>
