<svg id="Layer_1" data-name="Layer 1" xmlns="http://www.w3.org/2000/svg" viewBox="0 0 93.07 75"><defs><style>.cls-1{fill:#039b8e;}</style></defs><path class="cls-1" d="M46.53,43.05a1.18,1.18,0,0,1-.55-.14L14,26a1.18,1.18,0,0,1,0-2.09L46,7.38a1.21,1.21,0,0,1,1.08,0l32,16.5a1.16,1.16,0,0,1,.63,1A1.18,1.18,0,0,1,79,26L47.09,42.91A1.25,1.25,0,0,1,46.53,43.05ZM17.12,24.94l29.41,15.6,29.41-15.6L46.53,9.76Z"/><path class="cls-1" d="M46.53,75a1.16,1.16,0,0,1-.6-.17,1.18,1.18,0,0,1-.58-1V41.87a1.16,1.16,0,0,1,.58-1,1.2,1.2,0,0,1,1.16,0l12.85,7,18-9.54a1.18,1.18,0,0,1,1.73,1V56.88a1.17,1.17,0,0,1-.62,1L47.09,74.86A1.25,1.25,0,0,1,46.53,75Zm1.18-31.15v28l29.6-15.69V41.25L60.49,50.17a1.17,1.17,0,0,1-1.12,0Z"/><path class="cls-1" d="M59.94,50.31a1.26,1.26,0,0,1-.57-.14L46,42.91a1.18,1.18,0,0,1,0-2.08l32-16.94a1.17,1.17,0,0,1,1.12,0l13.4,7.26a1.18,1.18,0,0,1,0,2.08L60.49,50.17A1.21,1.21,0,0,1,59.94,50.31ZM49,41.88,59.94,47.8,89.39,32.18,78.48,26.26Z"/><path class="cls-1" d="M46.53,75a1.18,1.18,0,0,1-.55-.14L14,57.92a1.16,1.16,0,0,1-.63-1V39.29a1.18,1.18,0,0,1,1.73-1l18,9.54,12.84-7a1.17,1.17,0,0,1,1.09,0,1.16,1.16,0,0,1,.65,1V73.82a1.19,1.19,0,0,1-.57,1A1.22,1.22,0,0,1,46.53,75ZM15.76,56.17,45.35,71.86v-28L33.69,50.17a1.18,1.18,0,0,1-1.11,0L15.76,41.25Z"/><path class="cls-1" d="M33.13,50.31a1.18,1.18,0,0,1-.55-.14L.63,33.23a1.17,1.17,0,0,1-.63-1,1.2,1.2,0,0,1,.62-1L14,23.89a1.18,1.18,0,0,1,1.11,0l32,17A1.19,1.19,0,0,1,47.71,42a1.17,1.17,0,0,1-.65,1L33.69,50.17A1.22,1.22,0,0,1,33.13,50.31ZM3.67,32.18,33.13,47.79,44,41.88,14.59,26.26Z"/><path class="cls-1" d="M14.58,26.1A1.07,1.07,0,0,1,14,26L.63,18.84a1.18,1.18,0,0,1,0-2.09L32.59.13a1.19,1.19,0,0,1,1.1,0l13.4,7.25a1.17,1.17,0,0,1,0,2.08L15.12,26A1.13,1.13,0,0,1,14.58,26.1ZM3.71,17.81l10.88,5.78L44,8.4,33.12,2.51Z"/><path class="cls-1" d="M78.48,26.1a1.16,1.16,0,0,1-.54-.13L46,9.48a1.18,1.18,0,0,1,0-2.09L59.38.14a1.19,1.19,0,0,1,1.1,0l32,16.63a1.19,1.19,0,0,1,.64,1,1.17,1.17,0,0,1-.63,1L79,26A1.24,1.24,0,0,1,78.48,26.1ZM49.05,8.41,78.48,23.6l10.88-5.79L60,2.51Z"/></svg>