<svg id="Layer_1" data-name="Layer 1" xmlns="http://www.w3.org/2000/svg" viewBox="0 0 130 130"><defs><style>.cls-2{fill:#818181}</style></defs><circle cx="65" cy="65" r="65" fill="#f5f5f5"/><path class="cls-2" d="M50.15 84.47h-.39c-5.15-.29-10.25-6.34-11.09-7.38-10-10-5.82-17.82-5.64-18.15l.13-.22 31.11-31.14 2.64 2.63L36.2 60.92c-.43 1-2.08 6.34 5.17 13.59l.15.16c1.21 1.52 5.36 5.89 8.46 6.07a2.63 2.63 0 002.07-.82L85.7 47.84l2.57 2.69-33.62 32.06a6.28 6.28 0 01-4.5 1.88z"/><path class="cls-2" d="M89.38 106a1.82 1.82 0 01-1.31-.55 1.85 1.85 0 010-2.63l8.57-8.57a6.37 6.37 0 002.12-5c-.24-4.17-4.59-8.46-6.25-9.77l-.16-.14C85.08 72 78.56 78 77.84 78.73L58.69 98c-4.71 4.7-9.56 7.08-14.43 7.08h-.18a15.1 15.1 0 01-10.16-4.18c-4.39-4.38-6.55-8.94-6.41-13.51a14.37 14.37 0 014.38-9.69l5.36-5.13a1.85 1.85 0 012.63.05 1.87 1.87 0 01-.05 2.64l-5.42 5.18a10.77 10.77 0 00-3.18 7.11c-.09 3.49 1.71 7.11 5.35 10.75a11.59 11.59 0 007.61 3.06c3.89 0 7.86-2 11.86-6l19.16-19.27c.1-.1 9.67-9.45 19.7.49.88.71 7.2 6.06 7.57 12.4a10 10 0 01-3.21 7.89l-8.57 8.57a1.83 1.83 0 01-1.32.56zm-3.66-69.4l-2.66 2.66a18.87 18.87 0 012.38 4.15c.81 2 .89 3.76.2 4.49-1.39 1.46-7 .14-12.75-5.27s-7.33-11-6-12.45a2.41 2.41 0 011.76-.56 14 14 0 016.83 2.57l2.71-2.7c-5.67-3.88-11.25-4.77-14-1.87-3.4 3.58-.78 11.2 6.08 17.71C75 49.74 80 52.18 83.86 52.18a6 6 0 004.48-1.71c1.78-1.88 2-4.88.56-8.44a23.66 23.66 0 00-3.18-5.43z"/><path d="M78.24 38.56a1.87 1.87 0 01-1.32-.56 1.85 1.85 0 010-2.63l10.82-10.81a1.86 1.86 0 112.63 2.63L79.55 38a1.87 1.87 0 01-1.31.56z" fill="#039b8e"/></svg>