<svg width="36" height="32" viewBox="0 0 36 32" fill="none" xmlns="http://www.w3.org/2000/svg">
<path d="M31.5448 20H13.2233L13.6323 22H30.4084C31.371 22 32.0844 22.8938 31.8711 23.8324L31.5263 25.3497C32.6945 25.9168 33.5 27.1143 33.5 28.5C33.5 30.4501 31.9051 32.0278 29.9485 31.9996C28.0846 31.9728 26.5516 30.4602 26.5013 28.5967C26.4738 27.5788 26.8816 26.6561 27.5515 25.9999H14.4485C15.0971 26.6353 15.5 27.5204 15.5 28.5C15.5 30.4883 13.842 32.0894 11.8331 31.9961C10.0494 31.9133 8.59869 30.4721 8.50494 28.6888C8.43256 27.3117 9.15719 26.0979 10.2581 25.4647L5.86769 4H1.5C0.671563 4 0 3.32844 0 2.5V1.5C0 0.671563 0.671563 0 1.5 0H7.90806C8.62063 0 9.23482 0.501313 9.37763 1.19938L9.9505 4H34.4994C35.4619 4 36.1754 4.89381 35.9621 5.83244L33.0075 18.8324C32.8523 19.5154 32.2452 20 31.5448 20ZM25.5 10.5H22.5V8C22.5 7.44769 22.0523 7 21.5 7H20.5C19.9477 7 19.5 7.44769 19.5 8V10.5H16.5C15.9477 10.5 15.5 10.9477 15.5 11.5V12.5C15.5 13.0523 15.9477 13.5 16.5 13.5H19.5V16C19.5 16.5523 19.9477 17 20.5 17H21.5C22.0523 17 22.5 16.5523 22.5 16V13.5H25.5C26.0523 13.5 26.5 13.0523 26.5 12.5V11.5C26.5 10.9477 26.0523 10.5 25.5 10.5Z" fill="#039B8E"/>
</svg>
