<svg width="27" height="36" viewBox="0 0 27 36" fill="none" xmlns="http://www.w3.org/2000/svg">
<path d="M23.625 4.5H18C18 2.01797 15.982 0 13.5 0C11.018 0 9 2.01797 9 4.5H3.375C1.51172 4.5 0 6.01172 0 7.875V32.625C0 34.4883 1.51172 36 3.375 36H23.625C25.4883 36 27 34.4883 27 32.625V7.875C27 6.01172 25.4883 4.5 23.625 4.5ZM6.75 29.8125C5.81484 29.8125 5.0625 29.0602 5.0625 28.125C5.0625 27.1898 5.81484 26.4375 6.75 26.4375C7.68516 26.4375 8.4375 27.1898 8.4375 28.125C8.4375 29.0602 7.68516 29.8125 6.75 29.8125ZM6.75 23.0625C5.81484 23.0625 5.0625 22.3102 5.0625 21.375C5.0625 20.4398 5.81484 19.6875 6.75 19.6875C7.68516 19.6875 8.4375 20.4398 8.4375 21.375C8.4375 22.3102 7.68516 23.0625 6.75 23.0625ZM6.75 16.3125C5.81484 16.3125 5.0625 15.5602 5.0625 14.625C5.0625 13.6898 5.81484 12.9375 6.75 12.9375C7.68516 12.9375 8.4375 13.6898 8.4375 14.625C8.4375 15.5602 7.68516 16.3125 6.75 16.3125ZM13.5 2.8125C14.4352 2.8125 15.1875 3.56484 15.1875 4.5C15.1875 5.43516 14.4352 6.1875 13.5 6.1875C12.5648 6.1875 11.8125 5.43516 11.8125 4.5C11.8125 3.56484 12.5648 2.8125 13.5 2.8125ZM22.5 28.6875C22.5 28.9969 22.2469 29.25 21.9375 29.25H11.8125C11.5031 29.25 11.25 28.9969 11.25 28.6875V27.5625C11.25 27.2531 11.5031 27 11.8125 27H21.9375C22.2469 27 22.5 27.2531 22.5 27.5625V28.6875ZM22.5 21.9375C22.5 22.2469 22.2469 22.5 21.9375 22.5H11.8125C11.5031 22.5 11.25 22.2469 11.25 21.9375V20.8125C11.25 20.5031 11.5031 20.25 11.8125 20.25H21.9375C22.2469 20.25 22.5 20.5031 22.5 20.8125V21.9375ZM22.5 15.1875C22.5 15.4969 22.2469 15.75 21.9375 15.75H11.8125C11.5031 15.75 11.25 15.4969 11.25 15.1875V14.0625C11.25 13.7531 11.5031 13.5 11.8125 13.5H21.9375C22.2469 13.5 22.5 13.7531 22.5 14.0625V15.1875Z" fill="#039B8E"/>
</svg>
