<?xml version="1.0" encoding="UTF-8"?>
<svg width="20px" height="25px" viewBox="0 0 20 25" version="1.1" xmlns="http://www.w3.org/2000/svg" xmlns:xlink="http://www.w3.org/1999/xlink">
    <title>Group 25 Copy 12</title>
    <g id="Page-1" stroke="none" stroke-width="1" fill="none" fill-rule="evenodd">
        <g id="Desktop_Deals_tile" transform="translate(-523.000000, -668.000000)">
            <g id="Group-25-Copy-12" transform="translate(523.000000, 668.000000)">
                <path d="M1.53309524,4.40690476 L4.40690476,4.40690476 L4.40690476,1.53309524 L1.53309524,4.40690476 Z M4.76880952,5.13071429 L0.66047619,5.13071429 C0.514047619,5.13071429 0.380714286,5.04261905 0.324761905,4.90690476 C0.268809524,4.77238095 0.300952381,4.61642857 0.40452381,4.51285714 L4.51285714,0.403333333 C4.61642857,0.299761905 4.77238095,0.268809524 4.90690476,0.324761905 C5.04261905,0.381904762 5.12952381,0.512857143 5.12952381,0.659285714 L5.12952381,4.76880952 C5.12952381,4.96880952 4.96880952,5.13071429 4.76880952,5.13071429 L4.76880952,5.13071429 Z" id="Fill-1" fill="#818181"></path>
                <path d="M1.53309524,4.40690476 L4.40690476,4.40690476 L4.40690476,1.53309524 L1.53309524,4.40690476 Z M4.76880952,5.13071429 L0.66047619,5.13071429 C0.514047619,5.13071429 0.380714286,5.04261905 0.324761905,4.90690476 C0.268809524,4.77238095 0.300952381,4.61642857 0.40452381,4.51285714 L4.51285714,0.403333333 C4.61642857,0.299761905 4.77238095,0.268809524 4.90690476,0.324761905 C5.04261905,0.381904762 5.12952381,0.512857143 5.12952381,0.659285714 L5.12952381,4.76880952 C5.12952381,4.96880952 4.96880952,5.13071429 4.76880952,5.13071429 Z" id="Stroke-3" stroke="#818181" stroke-width="0.5"></path>
                <path d="M1.02154762,23.3835714 L17.6394048,23.3835714 L17.6394048,1.02166667 L4.91797619,1.02166667 L1.02154762,4.91809524 L1.02154762,23.3835714 Z M18.0025,24.107381 L0.659642857,24.107381 C0.459642857,24.107381 0.297738095,23.9454762 0.297738095,23.7454762 L0.297738095,4.76928571 C0.297738095,4.67285714 0.335833333,4.58119048 0.403690476,4.51214286 L4.51321429,0.403809524 C4.57988095,0.335952381 4.6727381,0.297857143 4.76797619,0.297857143 L18.0025,0.297857143 C18.2013095,0.297857143 18.3632143,0.459761905 18.3632143,0.659761905 L18.3632143,23.7454762 C18.3632143,23.9454762 18.2013095,24.107381 18.0025,24.107381 L18.0025,24.107381 Z" id="Fill-5" fill="#818181"></path>
                <path d="M1.02154762,23.3835714 L17.6394048,23.3835714 L17.6394048,1.02166667 L4.91797619,1.02166667 L1.02154762,4.91809524 L1.02154762,23.3835714 Z M18.0025,24.107381 L0.659642857,24.107381 C0.459642857,24.107381 0.297738095,23.9454762 0.297738095,23.7454762 L0.297738095,4.76928571 C0.297738095,4.67285714 0.335833333,4.58119048 0.403690476,4.51214286 L4.51321429,0.403809524 C4.57988095,0.335952381 4.6727381,0.297857143 4.76797619,0.297857143 L18.0025,0.297857143 C18.2013095,0.297857143 18.3632143,0.459761905 18.3632143,0.659761905 L18.3632143,23.7454762 C18.3632143,23.9454762 18.2013095,24.107381 18.0025,24.107381 Z" id="Stroke-7" stroke="#818181" stroke-width="0.5"></path>
                <path d="M14.8642857,7.97547619 L7.06547619,7.97547619 C6.86547619,7.97547619 6.7047619,7.81357143 6.7047619,7.61357143 C6.7047619,7.41357143 6.86547619,7.25166667 7.06547619,7.25166667 L14.8642857,7.25166667 C15.0642857,7.25166667 15.2261905,7.41357143 15.2261905,7.61357143 C15.2261905,7.81357143 15.0642857,7.97547619 14.8642857,7.97547619" id="Fill-9" fill="#818181"></path>
                <path d="M14.8642857,7.97547619 L7.06547619,7.97547619 C6.86547619,7.97547619 6.7047619,7.81357143 6.7047619,7.61357143 C6.7047619,7.41357143 6.86547619,7.25166667 7.06547619,7.25166667 L14.8642857,7.25166667 C15.0642857,7.25166667 15.2261905,7.41357143 15.2261905,7.61357143 C15.2261905,7.81357143 15.0642857,7.97547619 14.8642857,7.97547619 Z" id="Stroke-11" stroke="#818181" stroke-width="0.5"></path>
                <path d="M14.8642857,12.0869048 L3.79642857,12.0869048 C3.59642857,12.0869048 3.43452381,11.925 3.43452381,11.725 C3.43452381,11.525 3.59642857,11.3630952 3.79642857,11.3630952 L14.8642857,11.3630952 C15.0642857,11.3630952 15.2261905,11.525 15.2261905,11.725 C15.2261905,11.925 15.0642857,12.0869048 14.8642857,12.0869048" id="Fill-13" fill="#818181"></path>
                <path d="M14.8642857,12.0869048 L3.79642857,12.0869048 C3.59642857,12.0869048 3.43452381,11.925 3.43452381,11.725 C3.43452381,11.525 3.59642857,11.3630952 3.79642857,11.3630952 L14.8642857,11.3630952 C15.0642857,11.3630952 15.2261905,11.525 15.2261905,11.725 C15.2261905,11.925 15.0642857,12.0869048 14.8642857,12.0869048 Z" id="Stroke-15" stroke="#818181" stroke-width="0.5"></path>
                <path d="M14.8642857,16.1989286 L3.79642857,16.1989286 C3.59642857,16.1989286 3.43452381,16.0370238 3.43452381,15.8370238 C3.43452381,15.6370238 3.59642857,15.475119 3.79642857,15.475119 L14.8642857,15.475119 C15.0642857,15.475119 15.2261905,15.6370238 15.2261905,15.8370238 C15.2261905,16.0370238 15.0642857,16.1989286 14.8642857,16.1989286" id="Fill-17" fill="#818181"></path>
                <path d="M14.8642857,16.1989286 L3.79642857,16.1989286 C3.59642857,16.1989286 3.43452381,16.0370238 3.43452381,15.8370238 C3.43452381,15.6370238 3.59642857,15.475119 3.79642857,15.475119 L14.8642857,15.475119 C15.0642857,15.475119 15.2261905,15.6370238 15.2261905,15.8370238 C15.2261905,16.0370238 15.0642857,16.1989286 14.8642857,16.1989286 Z" id="Stroke-19" stroke="#818181" stroke-width="0.5"></path>
                <path d="M10.847619,20.3109524 L3.79642857,20.3109524 C3.59642857,20.3109524 3.43452381,20.1490476 3.43452381,19.9490476 C3.43452381,19.7490476 3.59642857,19.5871429 3.79642857,19.5871429 L10.847619,19.5871429 C11.047619,19.5871429 11.2107143,19.7490476 11.2107143,19.9490476 C11.2107143,20.1490476 11.047619,20.3109524 10.847619,20.3109524" id="Fill-21" fill="#818181"></path>
                <path d="M10.847619,20.3109524 L3.79642857,20.3109524 C3.59642857,20.3109524 3.43452381,20.1490476 3.43452381,19.9490476 C3.43452381,19.7490476 3.59642857,19.5871429 3.79642857,19.5871429 L10.847619,19.5871429 C11.047619,19.5871429 11.2107143,19.7490476 11.2107143,19.9490476 C11.2107143,20.1490476 11.047619,20.3109524 10.847619,20.3109524 Z" id="Stroke-23" stroke="#818181" stroke-width="0.5"></path>
            </g>
        </g>
    </g>
</svg>