<?xml version="1.0" encoding="UTF-8"?>
<svg width="19px" height="25px" viewBox="0 0 19 25" version="1.1" xmlns="http://www.w3.org/2000/svg" xmlns:xlink="http://www.w3.org/1999/xlink">
    <title>Group 21 Copy 18</title>
    <defs>
        <polygon id="path-1" points="0.000454545455 0.156136364 17.8056818 0.156136364 17.8056818 7.63340909 0.000454545455 7.63340909"></polygon>
        <polygon id="path-3" points="0 0.445 17.8056818 0.445 17.8056818 4.32568182 0 4.32568182"></polygon>
        <polygon id="path-5" points="0 0.962159091 17.8056818 0.962159091 17.8056818 4.84284091 0 4.84284091"></polygon>
        <polygon id="path-7" points="0 0.343409091 17.8056818 0.343409091 17.8056818 20.4545455 0 20.4545455"></polygon>
    </defs>
    <g id="Page-1" stroke="none" stroke-width="1" fill="none" fill-rule="evenodd">
        <g id="Desktop_Deals_tile" transform="translate(-643.000000, -667.000000)">
            <g id="Group-21-Copy-18" transform="translate(643.000000, 667.000000)">
                <path d="M8.90386364,2.56954545 C4.34363636,2.56954545 1.43340909,3.93545455 1.43340909,4.87522727 C1.43340909,5.815 4.34363636,7.18090909 8.90386364,7.18090909 C13.4629545,7.18090909 16.3731818,5.815 16.3731818,4.87522727 C16.3731818,3.93545455 13.4629545,2.56954545 8.90386364,2.56954545 M8.90386364,8.47181818 C4.54931818,8.47181818 0.1425,7.23659091 0.1425,4.87522727 C0.1425,2.51386364 4.54931818,1.27863636 8.90386364,1.27863636 C13.2572727,1.27863636 17.6640909,2.51386364 17.6640909,4.87522727 C17.6640909,7.23659091 13.2572727,8.47181818 8.90386364,8.47181818" id="Fill-1" fill="#818181"></path>
                <g id="Group-5" transform="translate(0.000000, 0.980455)">
                    <mask id="mask-2" fill="white">
                        <use xlink:href="#path-1"></use>
                    </mask>
                    <g id="Clip-4"></g>
                    <path d="M8.90386364,1.73113636 C4.16181818,1.73113636 1.57545455,3.16068182 1.57545455,3.89477273 C1.57545455,4.62886364 4.16181818,6.05840909 8.90386364,6.05840909 C13.6447727,6.05840909 16.2311364,4.62886364 16.2311364,3.89477273 C16.2311364,3.16068182 13.6447727,1.73113636 8.90386364,1.73113636 M8.90386364,6.3425 C4.54704545,6.3425 1.29136364,5.04931818 1.29136364,3.89477273 C1.29136364,2.73909091 4.54704545,1.44704545 8.90386364,1.44704545 C13.2606818,1.44704545 16.5152273,2.73909091 16.5152273,3.89477273 C16.5152273,5.04931818 13.2606818,6.3425 8.90386364,6.3425 M8.90386364,0.440227273 C4.61977273,0.440227273 0.284545455,1.62659091 0.284545455,3.89477273 C0.284545455,6.16181818 4.61977273,7.34931818 8.90386364,7.34931818 C13.1868182,7.34931818 17.5220455,6.16181818 17.5220455,3.89477273 C17.5220455,1.62659091 13.1868182,0.440227273 8.90386364,0.440227273 M8.90386364,7.63340909 C6.64704545,7.63340909 4.43681818,7.29704545 2.84136364,6.71181818 C0.982272727,6.03 0.000454545455,5.05613636 0.000454545455,3.89477273 C0.000454545455,2.73340909 0.982272727,1.75954545 2.84136364,1.07772727 C4.43681818,0.491363636 6.64704545,0.156136364 8.90386364,0.156136364 C11.1595455,0.156136364 13.3697727,0.491363636 14.9652273,1.07772727 C16.8243182,1.75954545 17.8061364,2.73340909 17.8061364,3.89477273 C17.8061364,5.05613636 16.8243182,6.03 14.9652273,6.71181818 C13.3697727,7.29704545 11.1595455,7.63340909 8.90386364,7.63340909" id="Fill-3" fill="#818181" mask="url(#mask-2)"></path>
                </g>
                <path d="M8.90386364,18.8 C4.54931818,18.8 0.1425,17.5647727 0.1425,15.2034091 L1.43340909,15.2034091 C1.43340909,16.1443182 4.34363636,17.5090909 8.90386364,17.5090909 C13.4629545,17.5090909 16.3731818,16.1443182 16.3731818,15.2034091 L17.6640909,15.2034091 C17.6640909,17.5647727 13.2572727,18.8 8.90386364,18.8" id="Fill-6" fill="#818181"></path>
                <g id="Group-10" transform="translate(0.000000, 14.616818)">
                    <mask id="mask-4" fill="white">
                        <use xlink:href="#path-3"></use>
                    </mask>
                    <g id="Clip-9"></g>
                    <path d="M0.289659091,0.729090909 C0.466931818,2.90409091 4.71125,4.04159091 8.90443182,4.04159091 C13.0964773,4.04159091 17.3385227,2.90409091 17.5169318,0.729090909 L16.49875,0.729090909 C16.2476136,1.845 13.0817045,3.03477273 8.90443182,3.03477273 C4.72488636,3.03477273 1.55897727,1.845 1.30784091,0.729090909 L0.289659091,0.729090909 Z M8.90443182,4.32568182 C6.64647727,4.32568182 4.43738636,3.98931818 2.84079545,3.40409091 C0.982840909,2.72227273 -0.000113636364,1.74727273 -0.000113636364,0.587045455 L-0.000113636364,0.445 L1.57488636,0.445 L1.57488636,0.587045455 C1.57488636,1.32113636 4.16238636,2.75068182 8.90443182,2.75068182 C13.6442045,2.75068182 16.2317045,1.32113636 16.2317045,0.587045455 L16.2317045,0.445 L17.8067045,0.445 L17.8067045,0.587045455 C17.8067045,1.74727273 16.82375,2.72227273 14.9657955,3.40409091 C13.3692045,3.98931818 11.1601136,4.32568182 8.90443182,4.32568182 L8.90443182,4.32568182 Z" id="Fill-8" fill="#818181" mask="url(#mask-4)"></path>
                </g>
                <path d="M8.90386364,13.6357955 C4.54931818,13.6357955 0.1425,12.4005682 0.1425,10.0392045 L1.43340909,10.0392045 C1.43340909,10.9801136 4.34363636,12.3448864 8.90386364,12.3448864 C13.4629545,12.3448864 16.3731818,10.9801136 16.3731818,10.0392045 L17.6640909,10.0392045 C17.6640909,12.4005682 13.2572727,13.6357955 8.90386364,13.6357955" id="Fill-11" fill="#818181"></path>
                <g id="Group-15" transform="translate(0.000000, 8.935000)">
                    <mask id="mask-6" fill="white">
                        <use xlink:href="#path-5"></use>
                    </mask>
                    <g id="Clip-14"></g>
                    <path d="M0.289659091,1.24625 C0.466931818,3.42125 4.71125,4.55875 8.90443182,4.55875 C13.0964773,4.55875 17.3385227,3.42125 17.5169318,1.24625 L16.49875,1.24625 C16.2476136,2.36215909 13.0817045,3.55193182 8.90443182,3.55193182 C4.72488636,3.55193182 1.55897727,2.36215909 1.30784091,1.24625 L0.289659091,1.24625 Z M8.90443182,4.84284091 C6.64647727,4.84284091 4.43738636,4.50761364 2.84079545,3.92125 C0.982840909,3.23943182 -0.000113636364,2.26556818 -0.000113636364,1.10420455 L-0.000113636364,0.962159091 L1.57488636,0.962159091 L1.57488636,1.10420455 C1.57488636,1.83829545 4.16238636,3.26784091 8.90443182,3.26784091 C13.6442045,3.26784091 16.2317045,1.83829545 16.2317045,1.10420455 L16.2317045,0.962159091 L17.8067045,0.962159091 L17.8067045,1.10420455 C17.8067045,2.26556818 16.82375,3.23943182 14.9657955,3.92125 C13.3692045,4.50761364 11.1601136,4.84284091 8.90443182,4.84284091 L8.90443182,4.84284091 Z" id="Fill-13" fill="#818181" mask="url(#mask-6)"></path>
                </g>
                <path d="M8.90386364,24.7020455 C4.54931818,24.7020455 0.1425,23.4668182 0.1425,21.1054545 L0.1425,4.87477273 L1.43340909,4.87477273 L1.43340909,21.1054545 C1.43340909,22.0463636 4.34363636,23.4111364 8.90386364,23.4111364 C13.4629545,23.4111364 16.3731818,22.0463636 16.3731818,21.1054545 L16.3731818,4.87477273 L17.6640909,4.87477273 L17.6640909,21.1054545 C17.6640909,23.4668182 13.2572727,24.7020455 8.90386364,24.7020455" id="Fill-16" fill="#818181"></path>
                <g id="Group-20" transform="translate(0.000000, 4.389545)">
                    <mask id="mask-8" fill="white">
                        <use xlink:href="#path-7"></use>
                    </mask>
                    <g id="Clip-19"></g>
                    <path d="M0.284090909,0.6275 L0.284090909,16.7161364 C0.284090909,18.9831818 4.62045455,20.1706818 8.90340909,20.1706818 C13.1863636,20.1706818 17.5215909,18.9831818 17.5215909,16.7161364 L17.5215909,0.6275 L16.5159091,0.6275 L16.5159091,16.7161364 C16.5159091,17.8706818 13.2602273,19.1638636 8.90340909,19.1638636 C4.54659091,19.1638636 1.29090909,17.8706818 1.29090909,16.7161364 L1.29090909,0.6275 L0.284090909,0.6275 Z M8.90340909,20.4547727 C6.64659091,20.4547727 4.4375,20.1184091 2.84090909,19.5331818 C0.982954545,18.8513636 0,17.8775 0,16.7161364 L0,0.343409091 L1.575,0.343409091 L1.575,16.7161364 C1.575,17.4502273 4.1625,18.8797727 8.90340909,18.8797727 C13.6443182,18.8797727 16.2318182,17.4502273 16.2318182,16.7161364 L16.2318182,0.343409091 L17.8056818,0.343409091 L17.8056818,16.7161364 C17.8056818,17.8775 16.8238636,18.8513636 14.9647727,19.5331818 C13.3693182,20.1184091 11.1602273,20.4547727 8.90340909,20.4547727 L8.90340909,20.4547727 Z" id="Fill-18" fill="#818181" mask="url(#mask-8)"></path>
                </g>
            </g>
        </g>
    </g>
</svg>