<svg width="36" height="28" viewBox="0 0 36 28" fill="none" xmlns="http://www.w3.org/2000/svg">
<path d="M18 0C8.05875 0 0 8.05875 0 18C0 21.3 0.890625 24.3912 2.44125 27.05C2.79188 27.6512 3.46 28 4.15625 28H31.8438C32.54 28 33.2081 27.6512 33.5588 27.05C35.1094 24.3912 36 21.3 36 18C36 8.05875 27.9412 0 18 0ZM18 4C18.9194 4 19.6613 4.63313 19.895 5.47813C19.8256 5.61938 19.73 5.7425 19.6794 5.895L19.1031 7.62438C18.7825 7.8425 18.4175 8 18.0006 8C16.8962 8 16.0006 7.10437 16.0006 6C16.0006 4.89563 16.8956 4 18 4ZM6 22C4.89563 22 4 21.1044 4 20C4 18.8956 4.89563 18 6 18C7.10437 18 8 18.8956 8 20C8 21.1044 7.10437 22 6 22ZM9 12C7.89563 12 7 11.1044 7 10C7 8.89563 7.89563 8 9 8C10.1044 8 11 8.89563 11 10C11 11.1044 10.1044 12 9 12ZM24.4231 7.47437L20.59 18.9744C21.4456 19.7081 22 20.7838 22 22C22 22.7325 21.7887 23.4094 21.445 24H14.555C14.2113 23.4094 14 22.7325 14 22C14 19.8787 15.6562 18.1606 17.7437 18.0256L21.5775 6.525C21.8381 5.74 22.6856 5.30938 23.475 5.57688C24.2606 5.83875 24.6844 6.68875 24.4231 7.47437ZM25.3394 11.0494L26.3094 8.14C26.5263 8.05938 26.755 8.00062 27 8.00062C28.1044 8.00062 29 8.89625 29 10.0006C29 11.105 28.1044 12.0006 27 12.0006C26.2887 12 25.6944 11.6081 25.3394 11.0494ZM30 22C28.8956 22 28 21.1044 28 20C28 18.8956 28.8956 18 30 18C31.1044 18 32 18.8956 32 20C32 21.1044 31.1044 22 30 22Z" fill="#039B8E"/>
</svg>
