<svg width="13" height="22" viewBox="0 0 13 22" fill="none" xmlns="http://www.w3.org/2000/svg">
<path d="M6.76638 9.71667C4.11805 9.02833 3.26638 8.31667 3.26638 7.20833C3.26638 5.93667 4.44471 5.05 6.41638 5.05C8.49305 5.05 9.26305 6.04167 9.33305 7.5H11.9114C11.8297 5.49333 10.6047 3.65 8.16638 3.055V0.5H4.66638V3.02C2.40305 3.51 0.583047 4.98 0.583047 7.23167C0.583047 9.92667 2.81138 11.2683 6.06638 12.05C8.98305 12.75 9.56638 13.7767 9.56638 14.8617C9.56638 15.6667 8.99471 16.95 6.41638 16.95C4.01305 16.95 3.06805 15.8767 2.93971 14.5H0.373047C0.513047 17.055 2.42638 18.49 4.66638 18.9683V21.5H8.16638V18.9917C10.4414 18.56 12.2497 17.2417 12.2497 14.85C12.2497 11.5367 9.41471 10.405 6.76638 9.71667Z" fill="#039B8E"/>
</svg>
