<svg id="Layer_1" data-name="Layer 1" xmlns="http://www.w3.org/2000/svg" viewBox="0 0 130 130"><defs><style>.cls-2,.cls-4{fill:#039b8e;stroke:#039b8e;stroke-miterlimit:10}.cls-2{stroke-width:2px}.cls-4{stroke-width:1.5px}</style></defs><circle cx="65" cy="65" r="65" fill="#f5f5f5"/><path class="cls-2" d="M57.6 36.83a.46.46 0 01-.13.31 7 7 0 000 10 .45.45 0 010 .63.45.45 0 01-.64 0 7.94 7.94 0 010-11.22.45.45 0 01.64 0 .48.48 0 01.13.28zM52 31.22a.44.44 0 01-.13.32 15 15 0 000 21.16.45.45 0 01-.64.64 15.9 15.9 0 010-22.44.47.47 0 01.64 0 .45.45 0 01.13.32z"/><path class="cls-2" d="M46.53 25.76a.45.45 0 01-.13.32 22.68 22.68 0 000 32.09.45.45 0 010 .63.45.45 0 01-.64 0 23.59 23.59 0 010-33.36.47.47 0 01.64 0 .44.44 0 01.13.32zm25.75 21.65a.46.46 0 01.13-.31 7 7 0 000-10 .45.45 0 010-.63.45.45 0 01.64 0 7.94 7.94 0 010 11.22.45.45 0 01-.64 0 .48.48 0 01-.13-.28zM77.89 53a.45.45 0 01.11-.3 15 15 0 000-21.16.45.45 0 01.64-.64 15.9 15.9 0 010 22.44.47.47 0 01-.64 0 .44.44 0 01-.11-.34z"/><path class="cls-2" d="M83.35 58.48a.42.42 0 01.13-.31 22.68 22.68 0 000-32.09.45.45 0 01.64-.64 23.59 23.59 0 010 33.36.45.45 0 01-.64 0 .44.44 0 01-.13-.32z"/><path fill="none" stroke="#818181" stroke-linecap="round" stroke-linejoin="round" stroke-width="3" d="M28.63 74.58h72.73v20.11H28.63z"/><circle class="cls-4" cx="90.75" cy="84.63" r="2.27"/><circle class="cls-4" cx="81.65" cy="84.63" r="2.27"/><path d="M65 75.34a2.27 2.27 0 01-2.27-2.28V39a2.27 2.27 0 014.54 0v34.06A2.27 2.27 0 0165 75.34z" fill="#818181"/></svg>