<svg id="Layer_1" data-name="Layer 1" xmlns="http://www.w3.org/2000/svg" viewBox="0 0 385.86 74.56"><defs><style>.cls-1{fill:#54565a}</style></defs><path class="cls-1" d="M108.14 22.95v12.13h19.82v6.81h-19.82v12.39h23.15v6.8h-30.73V16.14h29.97v6.81h-22.39zM164 61.08V55.8h-.12c-2.46 4.18-6.94 6.14-11.55 6.14-11.49 0-18.06-8.78-18.06-17.75 0-8.29 5.84-18.06 18.06-18.06 4.73 0 9.09 2 11.55 5.72h.12v-4.8h7v34zm-11-28.47c-7.23 0-10.74 6.46-10.74 11.52 0 5.82 4.47 11.35 10.69 11.35a11.11 11.11 0 0010.91-11.35c0-6.87-4.81-11.52-10.86-11.52m30.69 1.12c2.31-4.62 6.42-7.06 11.81-7.06v7.06c-6.87-.38-11.23 3.66-11.81 9.5v17.85h-7.38V26.93h7.38zm31.76 19.92a12.9 12.9 0 01-4.31 1.08c-2.31 0-3.65-1.09-3.65-4.63V33.73h10.07v-6.59h-10.07v-11h-7.32v35.31c0 7 4.43 9.95 9.56 9.95a15.3 15.3 0 005.72-1.16zm40.05-13.82v21.25h-7.38V41.89c0-5.14-3.08-8.28-8.22-8.28-6.1.06-9.76 4.62-9.76 10.65v16.82h-7.38v-48.7h7.38v21.23c2.44-4.82 6.81-6.94 12.65-6.94 8 0 12.71 5 12.71 13.16m32.62 14.38v6.87h-27.03V16.14h7.57v38.07h19.46zm3.96-27.28h7.32v34.15h-7.32zm45.44 12.9v21.25h-7.39V41.89c0-5.14-3.08-8.28-8.21-8.28-5.65.06-9.18 4-9.7 9.3v18.17h-7.38V26.93h7.38v6.55c2.44-4.75 6.81-6.81 12.58-6.81 8 0 12.72 5 12.72 13.16m12.52 11.69v9.56h-7.39V16.14h7.39v26.07l15.08-15.28h8.48l-12.65 13.22 13.61 20.93h-8.73l-10.02-15.66-5.77 6.1zM300 19.54a4.3 4.3 0 11-4.3-4.31 4.3 4.3 0 014.3 4.31m85.86 1.77a5.47 5.47 0 01-5.46 5.48 5.46 5.46 0 115.46-5.48m-1.15 0a4.28 4.28 0 10-4.31 4.27 4.24 4.24 0 004.31-4.27m-3 .72l1.14 1.74h-1.34l-.83-1.51h-1.19v1.51h-1.15v-5.22h2.21c1.38 0 2.15.66 2.15 1.8a1.69 1.69 0 01-1 1.68m-1.16-.7c.66 0 1-.34 1-.93s-.38-.92-1-.92h-1.06v1.85z"/><path d="M13.4 43.6a28.39 28.39 0 0138.42-32.69c2.7-1.79 5.7-3.66 8.75-5.37a37.17 37.17 0 00-53.9 45.78c2-2.48 4.27-5.07 6.73-7.72m61.37-21.96l-.11-.24c-.35-.75-.73-1.49-1.13-2.21a2.53 2.53 0 01-.13-.19 37.64 37.64 0 00-7.68-9.52l-.12.06c-1.56.82-3.27 1.79-5.06 2.87-.94.56-1.92 1.18-2.92 1.81a28.37 28.37 0 11-41.91 35.69c-2 2.24-4 4.62-6 7.19a37.39 37.39 0 008.86 9.65l.18.14q1 .73 2 1.41l.24.15a37.15 37.15 0 0053.8-46.84z" fill="#f68c20"/><path class="cls-1" d="M81.08 4.23a4.85 4.85 0 00-3.9-1.5c-5.6 0-16.9 5.82-29.89 15.24a9 9 0 011.59 2.18c4-2.89 8.08-5.63 11.68-7.8 1.79-1.08 3.5-2 5.06-2.87 5-2.65 9-4.05 11.56-4.05A2.43 2.43 0 0179 6c.78.92.47 4.68-5.64 13l.12.22c.41.72.79 1.46 1.14 2.21l.11.24.07-.09c6.57-8.67 8.67-14.5 6.24-17.32M41 18.78a5.37 5.37 0 00-4.8 7.85c-1.31 1.1-2.89 2.42-3.27 2.75-10.45 9-19.56 18.36-25.64 26.36C.62 64.56-1.45 70.22 1 73.05a4.73 4.73 0 003.83 1.51c3.55 0 9.27-2.15 16.11-6.06h.08l-.24-.15q-1-.67-2-1.41l-.18-.14c-6 3.34-10.87 5.18-13.76 5.18A2.28 2.28 0 013 71.29c-.9-1.06 0-5.77 6.45-13.92a178.57 178.57 0 0125-25.73c.39-.34 2.13-1.8 3.54-3a5.41 5.41 0 103-9.89"/></svg>