<svg width="25" height="24" viewBox="0 0 25 24" fill="none" xmlns="http://www.w3.org/2000/svg">
<path d="M16.6663 2.66683C16.6663 1.37183 17.7047 0.333496 18.9997 0.333496C20.2947 0.333496 21.333 1.37183 21.333 2.66683C21.333 3.96183 20.2947 5.00016 18.9997 5.00016C17.7047 5.00016 16.6663 3.96183 16.6663 2.66683ZM21.333 23.6668V16.6668H24.2497L21.2863 7.76516C20.9597 6.8085 20.073 6.16683 19.0697 6.16683H18.9297C17.9263 6.16683 17.028 6.8085 16.713 7.76516L15.7097 10.7752C16.9697 11.4752 17.833 12.7935 17.833 14.3335V23.6668H21.333ZM12.583 11.4168C13.5513 11.4168 14.333 10.6352 14.333 9.66683C14.333 8.6985 13.5513 7.91683 12.583 7.91683C11.6147 7.91683 10.833 8.6985 10.833 9.66683C10.833 10.6352 11.6147 11.4168 12.583 11.4168ZM4.41634 5.00016C5.71134 5.00016 6.74967 3.96183 6.74967 2.66683C6.74967 1.37183 5.71134 0.333496 4.41634 0.333496C3.12134 0.333496 2.08301 1.37183 2.08301 2.66683C2.08301 3.96183 3.12134 5.00016 4.41634 5.00016ZM6.74967 23.6668V15.5002H8.49967V8.50016C8.49967 7.21683 7.44967 6.16683 6.16634 6.16683H2.66634C1.38301 6.16683 0.333008 7.21683 0.333008 8.50016V15.5002H2.08301V23.6668H6.74967ZM14.333 23.6668V19.0002H15.4997V14.3335C15.4997 13.3768 14.7063 12.5835 13.7497 12.5835H11.4163C10.4597 12.5835 9.66634 13.3768 9.66634 14.3335V19.0002H10.833V23.6668H14.333Z" fill="#039B8E"/>
</svg>
