<svg data-name="Layer 1" xmlns="http://www.w3.org/2000/svg" viewBox="0 0 130 130"><circle cx="65" cy="65" r="65" fill="#f5f5f5"/><path d="M92.25 58.57a65 65 0 00-11.57 3.48A65.73 65.73 0 0059.75 75.2l-1.65-1.66L89.24 42.4l-2.06-2.07L56 71.47l-1.66-1.65a65.63 65.63 0 0013.18-20.93A63.89 63.89 0 0071 37.33L68.09 37a62.84 62.84 0 01-3.32 10.89A62.75 62.75 0 0152.3 67.75L51 66.47A27 27 0 0057.2 53a22.79 22.79 0 00.06-6.46l-2.92.27a19.88 19.88 0 01-.05 5.9 23.84 23.84 0 01-5.35 11.73l-1.44-1.5a3.51 3.51 0 00-5 0L28.06 77.43a1.93 1.93 0 102.73 2.73L45 65.92l20.21 20.19-13.37 13.37a1.92 1.92 0 001.36 3.28 1.89 1.89 0 001.36-.56l13.63-13.62a3.51 3.51 0 000-5l-2.38-2.38a23.83 23.83 0 0111.73-5.34 19.88 19.88 0 015.9 0l.27-2.92a23.07 23.07 0 00-6.46 0 27.14 27.14 0 00-13.52 6.19l-1.91-1.91a66 66 0 0130.6-15.75" fill="#818181"/><path d="M55.2 48.11a5.71 5.71 0 115.71-5.71 5.72 5.72 0 01-5.71 5.71zm0-8.77a3.06 3.06 0 103.06 3.06 3.06 3.06 0 00-3.06-3.06zm14.66-.69a5.71 5.71 0 115.71-5.71 5.71 5.71 0 01-5.71 5.71zm0-8.76a3.06 3.06 0 103.06 3 3.06 3.06 0 00-3.06-3zm21.22 14.47a5.71 5.71 0 115.71-5.71 5.72 5.72 0 01-5.71 5.71zm0-8.76a3.06 3.06 0 103.06 3 3.06 3.06 0 00-3.06-3zm5.71 30.17a5.71 5.71 0 115.71-5.71 5.71 5.71 0 01-5.71 5.71zm0-8.76a3.06 3.06 0 103 3.05 3.06 3.06 0 00-3-3.06zM88 80.53a5.71 5.71 0 115.71-5.71A5.71 5.71 0 0188 80.53zm0-8.76a3 3 0 103 3 3.06 3.06 0 00-3-3z" fill="#039b8e"/></svg>