<svg viewBox="2 2 270 31" xmlns="http://www.w3.org/2000/svg" xmlns:xlink="http://www.w3.org/1999/xlink"><defs><path d="M1.791.244C1.517.333 1.28.484 1.08.7a1.657 1.657 0 00-.459.713c-.14.263-.202.547-.19.852l.079.587c.105.375.294.702.57.978l.447.346c.345.2.718.3 1.118.302h.001l.044.001h.047c.271-.004.525-.068.763-.191.274-.09.512-.242.712-.458.216-.2.368-.438.458-.712.137-.265.202-.55.19-.853l-.079-.588A2.201 2.201 0 004.211.7L3.764.354a2.19 2.19 0 00-1.117-.3h-.001L2.575.05c-.28 0-.54.065-.784.193" id="b"/><path d="M-4.454-16.84c-2.77 0-2.775 4.427 0 4.427H-.33c2.77 0 2.775-4.427 0-4.427h-4.125z" id="c"/><path d="M31.121-25.61c-.099.003-.197.015-.296.017v-.017H-6.059c-2.694.071-2.675 4.323.068 4.323h19.807c2.767 0 2.763 4.325 0 4.325H5.417c-1.906.556-1.908 3.587 0 4.144h8.4c2.766 0 2.762 4.323 0 4.323H-2.349c-2.762 0-2.766 4.325 0 4.325h16.164c2.767 0 2.763 4.325 0 4.325H9.28c-2.763 0-2.767 4.324 0 4.324h21.868l.025.001.025-.001h.493v-.025c8.003-.278 14.412-6.886 14.412-15.019 0-8.256-6.596-14.958-14.767-15.045h-.214z" id="f"/><path d="M15.217 24.121c.37 0 .67-.117.895-.35.226-.235.339-.537.339-.908V8.082c0-.371-.113-.674-.34-.908-.225-.233-.523-.35-.894-.35s-.67.117-.895.35c-.226.234-.339.537-.339.908v6.241H4.451V8.082c0-.371-.113-.674-.338-.908-.226-.233-.525-.35-.895-.35-.371 0-.67.117-.896.35-.225.234-.338.537-.338.908v14.781c0 .387.113.693.338.92.226.225.525.338.896.338.37 0 .669-.117.895-.35.225-.235.338-.537.338-.908v-6.508h9.532v6.508c0 .387.113.693.339.92.225.225.524.338.895.338zm6.145-14.54c.467 0 .838-.128 1.112-.387.275-.258.412-.596.412-1.016 0-.419-.141-.754-.424-1.004-.282-.25-.649-.375-1.1-.375-.468 0-.84.125-1.113.375-.274.25-.412.585-.412 1.004 0 .42.138.758.412 1.016.274.259.645.388 1.113.388zm0 14.54c.354 0 .645-.097.87-.29.226-.194.34-.484.34-.871v-9.822c0-.387-.114-.682-.34-.883-.225-.202-.516-.303-.87-.303-.355 0-.65.101-.883.303-.234.201-.351.496-.351.883v9.822c0 .387.117.677.35.87.234.194.529.291.884.291zm9.918 4.403c1.871 0 3.286-.46 4.246-1.379.96-.92 1.44-2.282 1.44-4.088v-9.92c0-.354-.11-.64-.327-.858-.218-.218-.512-.327-.883-.327s-.666.105-.883.315c-.218.21-.327.492-.327.847v1.016a3.797 3.797 0 00-1.56-1.645c-.686-.387-1.48-.581-2.383-.581-1.032 0-1.948.246-2.746.738s-1.423 1.181-1.875 2.068c-.451.887-.677 1.911-.677 3.073 0 1.16.222 2.185.665 3.072.444.887 1.069 1.573 1.875 2.056.806.484 1.726.726 2.758.726.92 0 1.726-.197 2.42-.593a3.706 3.706 0 001.547-1.657v1.863c0 2.242-1.112 3.363-3.338 3.363-.694 0-1.29-.077-1.79-.23-.5-.153-1.04-.367-1.621-.641-.452-.242-.782-.363-.992-.363a.722.722 0 00-.569.266c-.153.177-.23.403-.23.677 0 .468.299.871.896 1.21 1.16.661 2.612.992 4.354.992zm-.097-6.822c-1.048 0-1.878-.347-2.491-1.04-.613-.694-.92-1.654-.92-2.88 0-1.225.303-2.185.908-2.878.604-.694 1.439-1.04 2.503-1.04 1.065 0 1.891.35 2.48 1.052.589.701.883 1.657.883 2.867 0 1.225-.298 2.185-.895 2.879-.597.693-1.42 1.04-2.468 1.04zM49.74 24.12c.37 0 .67-.105.895-.315.226-.21.339-.491.339-.846v-6.29c0-3.177-1.404-4.766-4.21-4.766-.87 0-1.645.177-2.322.532a4.042 4.042 0 00-1.621 1.549V7.937c0-.34-.109-.61-.327-.81-.217-.203-.504-.303-.859-.303-.37 0-.673.105-.907.314-.234.21-.35.492-.35.847V22.96c0 .355.112.637.338.846.226.21.524.315.895.315s.666-.105.883-.315c.218-.21.327-.491.327-.846v-5.685c0-1.033.298-1.855.895-2.468s1.387-.92 2.37-.92c.84 0 1.456.227 1.851.678.396.452.593 1.161.593 2.129v6.266c0 .355.109.637.327.846.217.21.512.315.883.315zm10.5.073c1.273 0 2.398-.206 3.374-.617.976-.412 1.734-.992 2.274-1.742s.81-1.609.81-2.577c0-.951-.262-1.73-.786-2.334-.524-.605-1.226-1.08-2.105-1.427s-2.028-.682-3.447-1.004c-1.355-.323-2.339-.682-2.951-1.077-.613-.395-.92-.98-.92-1.754 0-.903.347-1.609 1.04-2.117.694-.508 1.662-.762 2.904-.762.919 0 1.705.125 2.358.375.654.25 1.351.657 2.093 1.222.323.21.589.314.798.314.226 0 .424-.104.593-.314.17-.21.254-.452.254-.726 0-.387-.161-.718-.484-.992-.677-.629-1.5-1.104-2.467-1.427-.968-.323-2.024-.484-3.17-.484-1.241 0-2.346.214-3.314.641-.968.428-1.722 1.024-2.262 1.79s-.81 1.641-.81 2.625.246 1.794.738 2.432c.491.637 1.173 1.14 2.044 1.512.87.37 1.984.701 3.338.991 1.42.323 2.452.662 3.097 1.016.645.355.968.888.968 1.597 0 .903-.347 1.597-1.04 2.08-.694.484-1.686.726-2.976.726-1.839 0-3.476-.532-4.911-1.596-.323-.21-.597-.315-.823-.315-.226 0-.42.101-.58.303a1.144 1.144 0 00-.242.737c0 .404.153.734.46.992.66.597 1.544 1.065 2.648 1.404 1.105.338 2.27.508 3.496.508zm10.498 4.282c.355 0 .641-.101.86-.303.217-.201.326-.472.326-.81v-5.395c.355.71.87 1.254 1.548 1.633.677.379 1.46.568 2.347.568 1.032 0 1.947-.25 2.746-.75.798-.5 1.415-1.21 1.85-2.129.436-.919.653-1.983.653-3.193 0-1.226-.221-2.306-.665-3.242-.443-.935-1.064-1.66-1.863-2.177-.798-.516-1.705-.774-2.721-.774-.887 0-1.67.194-2.347.58a3.816 3.816 0 00-1.548 1.646v-.992c0-.355-.113-.641-.339-.859-.226-.218-.516-.327-.87-.327-.372 0-.67.11-.896.327-.226.218-.339.504-.339.859v14.176c0 .355.117.637.351.847.234.21.536.315.907.315zm4.5-6.242c-1.064 0-1.883-.363-2.455-1.089-.573-.725-.86-1.758-.86-3.096 0-1.339.287-2.371.86-3.097.572-.726 1.39-1.088 2.455-1.088 1.048 0 1.867.37 2.456 1.112.588.742.883 1.783.883 3.121 0 1.323-.29 2.343-.871 3.06-.58.718-1.403 1.077-2.468 1.077zm13.91 1.935c.613 0 1.254-.088 1.924-.266a7.674 7.674 0 001.85-.75c.581-.322.871-.717.871-1.185 0-.274-.072-.5-.217-.678a.687.687 0 00-.557-.266c-.145 0-.326.053-.544.158-.218.104-.35.173-.4.205a11.26 11.26 0 01-1.378.63c-.436.16-.952.241-1.548.241-2.242 0-3.444-1.25-3.605-3.75h7.475c.58 0 .871-.322.871-.967 0-1.726-.46-3.097-1.379-4.113-.92-1.016-2.169-1.524-3.75-1.524-1.096 0-2.076.258-2.939.774s-1.532 1.242-2.008 2.177c-.476.936-.713 2.008-.713 3.218 0 1.887.54 3.375 1.62 4.463 1.081 1.089 2.557 1.633 4.428 1.633zm2.637-7.064h-6.241c.113-1.08.451-1.919 1.016-2.516.564-.596 1.314-.895 2.25-.895.92 0 1.633.295 2.14.883.509.589.787 1.432.835 2.528zm10.161 7.064c.613 0 1.254-.088 1.923-.266a7.674 7.674 0 001.851-.75c.58-.322.871-.717.871-1.185 0-.274-.073-.5-.218-.678a.687.687 0 00-.556-.266c-.145 0-.327.053-.545.158-.217.104-.35.173-.399.205a11.26 11.26 0 01-1.379.63c-.435.16-.951.241-1.548.241-2.242 0-3.443-1.25-3.605-3.75h7.476c.58 0 .87-.322.87-.967 0-1.726-.459-3.097-1.378-4.113-.92-1.016-2.17-1.524-3.75-1.524-1.097 0-2.076.258-2.94.774-.862.516-1.531 1.242-2.007 2.177-.476.936-.714 2.008-.714 3.218 0 1.887.54 3.375 1.621 4.463 1.08 1.089 2.556 1.633 4.427 1.633zm2.637-7.064H98.34c.113-1.08.452-1.919 1.017-2.516.564-.596 1.314-.895 2.25-.895.919 0 1.632.295 2.14.883.508.589.787 1.432.835 2.528zm9.362 7.064c.887 0 1.67-.19 2.347-.568a3.743 3.743 0 001.548-1.633v.968c0 .37.11.66.327.87.218.21.512.315.883.315.37 0 .665-.105.883-.315.218-.21.326-.5.326-.87V7.985c0-.355-.112-.637-.338-.847-.226-.21-.524-.314-.895-.314s-.666.1-.883.302c-.218.202-.327.472-.327.81v6.145a3.793 3.793 0 00-1.536-1.608c-.67-.38-1.448-.569-2.335-.569-1.032 0-1.943.25-2.733.75s-1.408 1.21-1.851 2.129c-.444.92-.665 1.992-.665 3.217 0 1.21.221 2.282.665 3.218.443.935 1.064 1.661 1.863 2.177.798.516 1.705.774 2.721.774zm.58-1.935c-1.047 0-1.87-.375-2.467-1.125-.596-.75-.895-1.786-.895-3.109 0-1.322.295-2.342.883-3.06.589-.718 1.415-1.076 2.48-1.076 1.064 0 1.883.362 2.455 1.088.573.726.86 1.758.86 3.097 0 1.338-.291 2.37-.872 3.096-.58.726-1.395 1.089-2.443 1.089z" id="i"/><path d="M130.274 25.09c1.629 0 3.04-.355 4.234-1.065 1.193-.71 2.108-1.722 2.745-3.036s.956-2.859.956-4.633-.319-3.318-.956-4.633c-.637-1.314-1.552-2.322-2.745-3.024-1.194-.701-2.605-1.052-4.234-1.052-1.613 0-3.016.35-4.21 1.052-1.193.702-2.108 1.71-2.745 3.024-.637 1.315-.956 2.867-.956 4.657 0 1.774.323 3.315.968 4.621.645 1.306 1.56 2.314 2.746 3.024 1.185.71 2.584 1.065 4.197 1.065zm0-2.033c-1.694 0-3.012-.58-3.955-1.741-.944-1.162-1.416-2.815-1.416-4.96s.472-3.794 1.416-4.947c.943-1.153 2.261-1.73 3.955-1.73 1.726 0 3.06.577 4.004 1.73.943 1.153 1.415 2.802 1.415 4.947s-.476 3.798-1.427 4.96c-.952 1.16-2.283 1.741-3.992 1.741zm12.29 6.315c.354 0 .64-.101.858-.303.218-.201.327-.472.327-.81v-5.395c.355.71.87 1.254 1.548 1.633s1.46.568 2.347.568c1.032 0 1.947-.25 2.746-.75.798-.5 1.415-1.21 1.85-2.129.436-.919.653-1.983.653-3.193 0-1.226-.221-2.306-.665-3.242-.443-.935-1.064-1.66-1.863-2.177-.798-.516-1.705-.774-2.721-.774-.887 0-1.67.194-2.347.58a3.816 3.816 0 00-1.548 1.646v-.992c0-.355-.113-.641-.339-.859-.226-.218-.516-.327-.87-.327-.372 0-.67.11-.896.327-.226.218-.339.504-.339.859V28.21c0 .355.117.637.351.847.234.21.537.315.907.315zm4.5-6.242c-1.065 0-1.884-.363-2.456-1.089-.573-.725-.86-1.758-.86-3.096 0-1.339.287-2.371.86-3.097.572-.726 1.39-1.088 2.455-1.088 1.048 0 1.867.37 2.456 1.112.588.742.883 1.783.883 3.121 0 1.323-.29 2.343-.871 3.06-.58.718-1.403 1.077-2.468 1.077zm13.789 1.887c.483.032.85-.036 1.1-.206.25-.169.375-.415.375-.738 0-.274-.076-.487-.23-.64-.153-.154-.407-.247-.762-.279l-.677-.048c-.645-.049-1.125-.25-1.44-.605-.314-.355-.471-.911-.471-1.67v-5.854h2.395c.339 0 .6-.08.786-.242.186-.16.278-.395.278-.701 0-.29-.092-.52-.278-.69-.185-.169-.447-.254-.786-.254h-2.395V10.6c0-.371-.113-.662-.339-.871-.226-.21-.524-.315-.895-.315-.37 0-.665.105-.883.315-.218.21-.326.5-.326.87v2.492h-1.452c-.339 0-.6.085-.786.254-.186.17-.278.4-.278.69 0 .629.354.943 1.064.943h1.452v5.685c0 1.371.322 2.408.967 3.11.645.7 1.621 1.1 2.927 1.197l.654.048zm4.475-14.54c.468 0 .839-.128 1.113-.387.274-.258.411-.596.411-1.016 0-.419-.14-.754-.423-1.004-.282-.25-.65-.375-1.1-.375-.469 0-.84.125-1.114.375-.274.25-.411.585-.411 1.004 0 .42.137.758.411 1.016.274.259.645.388 1.113.388zm0 14.54c.355 0 .645-.097.871-.29.226-.194.339-.484.339-.871v-9.822c0-.387-.113-.682-.339-.883-.226-.202-.516-.303-.87-.303-.356 0-.65.101-.884.303-.234.201-.35.496-.35.883v9.822c0 .387.116.677.35.87.234.194.528.291.883.291zm9.75.048c1.16 0 2.18-.25 3.06-.75a5.06 5.06 0 002.032-2.14c.476-.928.714-2.005.714-3.23 0-1.242-.238-2.327-.714-3.254a5.06 5.06 0 00-2.032-2.141c-.88-.5-1.9-.75-3.06-.75-1.162 0-2.182.25-3.06.75a5.06 5.06 0 00-2.033 2.14c-.476.928-.714 2.013-.714 3.255 0 1.225.238 2.302.714 3.23a5.06 5.06 0 002.032 2.14c.88.5 1.9.75 3.06.75zm0-1.935c-1.081 0-1.908-.355-2.48-1.064-.573-.71-.859-1.75-.859-3.121 0-1.355.29-2.391.87-3.109.582-.718 1.404-1.076 2.469-1.076 1.064 0 1.886.358 2.467 1.076.58.718.871 1.754.871 3.109 0 1.37-.286 2.41-.859 3.12-.572.71-1.399 1.065-2.48 1.065zm17.877 1.887c.387 0 .69-.1.908-.302.217-.202.326-.488.326-.86v-6.29c0-3.176-1.411-4.765-4.233-4.765-.871 0-1.654.185-2.347.556a3.925 3.925 0 00-1.62 1.621v-.992c0-.338-.106-.612-.315-.822-.21-.21-.492-.315-.847-.315s-.65.11-.883.327a1.09 1.09 0 00-.35.835v9.846c0 .355.112.637.338.846.226.21.524.315.895.315.37 0 .665-.105.883-.315.218-.21.326-.491.326-.846V18.17c0-1.033.299-1.855.896-2.468.596-.613 1.387-.92 2.37-.92.84 0 1.456.235 1.851.702.395.468.593 1.202.593 2.202v6.169c0 .355.109.637.326.846.218.21.512.315.883.315zm8.685.048c1.468 0 2.641-.318 3.52-.955.88-.637 1.319-1.48 1.319-2.528 0-.662-.133-1.206-.4-1.633-.266-.428-.705-.787-1.318-1.077-.613-.29-1.46-.548-2.54-.774-1.048-.226-1.762-.464-2.141-.714-.38-.25-.569-.6-.569-1.052 0-.5.206-.895.617-1.185.412-.29.956-.436 1.633-.436.565 0 1.037.073 1.416.218.379.145.786.347 1.221.605.242.145.436.25.58.314.146.065.291.097.436.097.21 0 .391-.089.545-.266a.964.964 0 00.23-.653c0-.468-.267-.88-.799-1.234a5.33 5.33 0 00-1.62-.738 7.052 7.052 0 00-1.888-.254c-.903 0-1.71.153-2.419.46-.71.306-1.266.738-1.67 1.294a3.118 3.118 0 00-.604 1.875c0 .903.31 1.617.931 2.14.621.525 1.641.94 3.06 1.247.823.177 1.444.342 1.863.496.42.153.714.326.883.52.17.193.254.451.254.774 0 .5-.217.887-.653 1.161-.435.274-1.04.411-1.814.411-.694 0-1.27-.08-1.73-.242-.46-.16-.931-.37-1.415-.629-.452-.258-.782-.387-.992-.387a.687.687 0 00-.556.266.998.998 0 00-.218.654c0 .242.06.46.181.653s.327.379.617.556c1.049.678 2.395 1.016 4.04 1.016z" id="j"/><linearGradient x1="878.505%" y1="50%" x2="0%" y2="50%" id="a"><stop stop-color="#02A093" offset="0%"/><stop stop-color="#41C798" offset="100%"/></linearGradient><linearGradient x1="544.781%" y1="35.722%" x2="0%" y2="50%" id="d"><stop stop-color="#02A093" offset="0%"/><stop stop-color="#41C798" offset="100%"/></linearGradient><linearGradient x1="100%" y1="50%" x2="0%" y2="50%" id="g"><stop stop-color="#039B8E" offset="0%"/><stop stop-color="#44D1A0" offset="100%"/></linearGradient></defs><g fill="none" fill-rule="evenodd"><g transform="translate(9.72 28.224)"><use fill="url(#a)" xlink:href="#b"/><mask id="e" fill="#fff"><use xlink:href="#c"/></mask><path d="M-4.454-16.84c-2.77 0-2.775 4.427 0 4.427H-.33c2.77 0 2.775-4.427 0-4.427h-4.125z" fill="url(#d)" mask="url(#e)"/><mask id="h" fill="#fff"><use xlink:href="#f"/></mask><path d="M31.121-25.61c-.099.003-.197.015-.296.017v-.017H-6.059c-2.694.071-2.675 4.323.068 4.323h19.807c2.767 0 2.763 4.325 0 4.325H5.417c-1.906.556-1.908 3.587 0 4.144h8.4c2.766 0 2.762 4.323 0 4.323H-2.349c-2.762 0-2.766 4.325 0 4.325h16.164c2.767 0 2.763 4.325 0 4.325H9.28c-2.763 0-2.767 4.324 0 4.324h21.868l.025.001.025-.001h.493v-.025c8.003-.278 14.412-6.886 14.412-15.019 0-8.256-6.596-14.958-14.767-15.045h-.214z" fill="url(#g)" mask="url(#h)"/><path d="M31.136-17.52c-3.643 0-6.607 3.036-6.607 6.768 0 3.732 2.964 6.769 6.607 6.769 3.643 0 6.607-3.037 6.607-6.769s-2.964-6.769-6.607-6.769m0 16.177c-5.065 0-9.184-4.221-9.184-9.408 0-5.188 4.12-9.408 9.184-9.408 5.065 0 9.184 4.22 9.184 9.408 0 5.187-4.12 9.408-9.184 9.408" fill="#FFF" mask="url(#h)"/></g><g fill="#FFF" fill-rule="nonzero"><g transform="translate(63.032)"><use xlink:href="#i"/><use xlink:href="#i"/></g><g transform="translate(63.032)"><use xlink:href="#j"/><use xlink:href="#j"/></g></g></g></svg>