<svg width="30" height="26" viewBox="0 0 30 26" fill="none" xmlns="http://www.w3.org/2000/svg">
<path d="M9.375 14.8571H8.4375C6.36621 14.8571 4.6875 16.5228 4.6875 18.5784V22.2787C4.6875 24.3338 6.36621 26 8.4375 26H9.375C10.4104 26 11.25 25.1666 11.25 24.1394V16.7178C11.25 15.69 10.4104 14.8571 9.375 14.8571ZM21.5625 14.8571H20.625C19.5896 14.8571 18.75 15.69 18.75 16.7178V24.1394C18.75 25.1666 19.5896 26 20.625 26H21.5625C23.6338 26 25.3125 24.3338 25.3125 22.2787V18.5784C25.3125 16.5233 23.6338 14.8571 21.5625 14.8571ZM15 0C6.61582 0 0.267773 6.91379 0 14.8571V21.3571C0 21.8702 0.419531 22.2857 0.9375 22.2857H1.875C2.39297 22.2857 2.8125 21.8702 2.8125 21.3571V14.8571C2.8125 8.20219 8.28105 2.79732 15 2.79616C21.7189 2.79732 27.1875 8.20219 27.1875 14.8571V21.3571C27.1875 21.8702 27.607 22.2857 28.125 22.2857H29.0625C29.5805 22.2857 30 21.8702 30 21.3571V14.8571C29.7322 6.91379 23.3842 0 15 0Z" fill="#039B8E"/>
</svg>
