<svg xmlns="http://www.w3.org/2000/svg" viewBox="0 0 296.7 29.88"><defs><style>.cls-1{fill:#fff;}.cls-2{fill:#039b8e;}</style></defs><g id="Layer_2" data-name="Layer 2"><g id="Layer_1-2" data-name="Layer 1"><g id="Layer_2-2" data-name="Layer 2"><g id="afad0bc9-c5ca-41c1-8caf-fa4845787c00"><path class="cls-1" d="M59.7,23.09V3.9h2.37v8.46H72.16V3.9h2.38V23.09H72.16V14.61H62.07v8.48Z"/><path class="cls-1" d="M78.8,6.15V3.7h2.37V6.15Zm0,16.94V8.7h2.37V23.09Z"/><path class="cls-1" d="M91.08,23.49a6,6,0,0,1-3.45-1,6.43,6.43,0,0,1-2.22-2.73,9.4,9.4,0,0,1-.77-3.88A9.4,9.4,0,0,1,85.41,12a6.45,6.45,0,0,1,2.22-2.71,5.92,5.92,0,0,1,3.44-1,5.71,5.71,0,0,1,3.42,1A6,6,0,0,1,96.59,12a9.9,9.9,0,0,1,.72,3.88,10.09,10.09,0,0,1-.72,3.88,6.19,6.19,0,0,1-2.1,2.72A5.63,5.63,0,0,1,91.08,23.49Zm.18,6.39A7.2,7.2,0,0,1,89,29.54a6.6,6.6,0,0,1-2-1.05,5.94,5.94,0,0,1-1.5-1.77l2.17-1.14a3.34,3.34,0,0,0,1.51,1.53,4.47,4.47,0,0,0,2,.48,4.69,4.69,0,0,0,2.27-.5,3.09,3.09,0,0,0,1.34-1.49,5.87,5.87,0,0,0,.43-2.45V19.22h.28V8.7h2.1V24.32a7.64,7.64,0,0,1-.14,1.07,5.5,5.5,0,0,1-1.11,2.53,5,5,0,0,1-2.13,1.48A8.75,8.75,0,0,1,91.26,29.88Zm.12-8.57a4,4,0,0,0,2.38-.69,4.14,4.14,0,0,0,1.38-1.94,8.34,8.34,0,0,0,.45-2.8,7.89,7.89,0,0,0-.46-2.81,4,4,0,0,0-1.36-1.91,3.8,3.8,0,0,0-2.33-.69,3.91,3.91,0,0,0-2.41.72,4.29,4.29,0,0,0-1.42,1.94,8,8,0,0,0-.46,2.75,7.85,7.85,0,0,0,.47,2.76,4.18,4.18,0,0,0,1.41,2A3.7,3.7,0,0,0,91.38,21.31Z"/><path class="cls-1" d="M101.68,23.09V3.9h2.13V14.49h.26v8.6Zm10.25,0V15.88a11.19,11.19,0,0,0-.18-2,5.71,5.71,0,0,0-.63-1.7,3.19,3.19,0,0,0-1.19-1.2,3.6,3.6,0,0,0-1.9-.44,4.24,4.24,0,0,0-1.62.3,3.23,3.23,0,0,0-1.24.92,4.11,4.11,0,0,0-.81,1.53,7.3,7.3,0,0,0-.29,2.18L102.51,15a7.94,7.94,0,0,1,.76-3.59,5.43,5.43,0,0,1,2.12-2.31,6.09,6.09,0,0,1,3.21-.81,5.93,5.93,0,0,1,2.39.44,4.91,4.91,0,0,1,1.64,1.18,6,6,0,0,1,1,1.62,8.34,8.34,0,0,1,.53,1.83,12.77,12.77,0,0,1,.15,1.74v8Z"/><path class="cls-1" d="M124.87,23.49a9.22,9.22,0,0,1-3.67-.7,6.91,6.91,0,0,1-2.69-2,6.53,6.53,0,0,1-1.38-3.05l2.45-.39a4.76,4.76,0,0,0,1.94,2.84,5.94,5.94,0,0,0,3.47,1,6.42,6.42,0,0,0,2.33-.4A3.86,3.86,0,0,0,129,19.66a2.81,2.81,0,0,0,.62-1.8,2.4,2.4,0,0,0-.23-1.09,2.3,2.3,0,0,0-.6-.78,3.35,3.35,0,0,0-.85-.55,9.4,9.4,0,0,0-1-.39L122,13.6a9.24,9.24,0,0,1-1.54-.59,5.35,5.35,0,0,1-1.33-.92,4.06,4.06,0,0,1-.94-1.34,4.53,4.53,0,0,1-.34-1.85,4.78,4.78,0,0,1,.91-2.9,5.41,5.41,0,0,1,2.41-1.84,8.91,8.91,0,0,1,3.42-.63,8.38,8.38,0,0,1,3.46.68,6.59,6.59,0,0,1,2.53,1.93,6.77,6.77,0,0,1,1.35,3l-2.52.44a4.35,4.35,0,0,0-.88-2,4.67,4.67,0,0,0-1.71-1.31,5.65,5.65,0,0,0-2.26-.47,5.26,5.26,0,0,0-2.11.38,3.72,3.72,0,0,0-1.51,1.08,2.36,2.36,0,0,0-.56,1.56,2,2,0,0,0,.51,1.43,3.63,3.63,0,0,0,1.24.84,14.71,14.71,0,0,0,1.45.52l3.65,1.05a12.16,12.16,0,0,1,1.44.48,6.5,6.5,0,0,1,1.6.86,4.38,4.38,0,0,1,1.28,1.46,4.8,4.8,0,0,1,.5,2.3A5.06,5.06,0,0,1,130,22a6.83,6.83,0,0,1-2.29,1.1A10.09,10.09,0,0,1,124.87,23.49Z"/><path class="cls-1" d="M135.1,29.48V8.7h2.12V19.29h.27V29.48Zm6.62-6a5.66,5.66,0,0,1-3.41-1,6.25,6.25,0,0,1-2.1-2.72,10.08,10.08,0,0,1-.71-3.88,10.08,10.08,0,0,1,.71-3.88,6.06,6.06,0,0,1,2.11-2.71,5.69,5.69,0,0,1,3.42-1,5.94,5.94,0,0,1,3.44,1A6.37,6.37,0,0,1,147.4,12a9.4,9.4,0,0,1,.77,3.88,9.4,9.4,0,0,1-.77,3.88,6.43,6.43,0,0,1-2.22,2.73,6,6,0,0,1-3.46,1Zm-.29-2.18a3.67,3.67,0,0,0,2.35-.71,4.32,4.32,0,0,0,1.41-2,7.84,7.84,0,0,0,.46-2.76,7.79,7.79,0,0,0-.46-2.75,4.35,4.35,0,0,0-1.41-1.94,3.9,3.9,0,0,0-2.42-.72,3.73,3.73,0,0,0-2.31.69A4,4,0,0,0,137.67,13a7.88,7.88,0,0,0-.45,2.81,8.09,8.09,0,0,0,.45,2.8,4,4,0,0,0,1.38,1.94,3.91,3.91,0,0,0,2.38.74Z"/><path class="cls-1" d="M157.6,23.49a7.12,7.12,0,0,1-3.69-.94,6.43,6.43,0,0,1-2.46-2.63,8.38,8.38,0,0,1-.88-3.93,8.92,8.92,0,0,1,.87-4.09,6.26,6.26,0,0,1,2.41-2.66,6.86,6.86,0,0,1,3.65-.94,6.63,6.63,0,0,1,3.7,1,6,6,0,0,1,2.29,2.85,10.35,10.35,0,0,1,.66,4.41h-2.4v-.85a6.58,6.58,0,0,0-1.08-4,3.72,3.72,0,0,0-3.09-1.31,4.07,4.07,0,0,0-3.35,1.41,6.29,6.29,0,0,0-1.14,4,6.07,6.07,0,0,0,1.14,3.95,4,4,0,0,0,3.27,1.39,4.61,4.61,0,0,0,2.48-.65,4.42,4.42,0,0,0,1.65-1.88l2.28.79a6.45,6.45,0,0,1-2.53,3A7,7,0,0,1,157.6,23.49Zm-5.31-6.93V14.65h10.63v1.91Z"/><path class="cls-1" d="M173.61,23.49a7.13,7.13,0,0,1-3.7-.94,6.56,6.56,0,0,1-2.46-2.63,8.38,8.38,0,0,1-.88-3.93,8.92,8.92,0,0,1,.87-4.09,6.28,6.28,0,0,1,2.42-2.66,6.83,6.83,0,0,1,3.64-.94,6.63,6.63,0,0,1,3.7,1,6,6,0,0,1,2.29,2.85,10.35,10.35,0,0,1,.66,4.41h-2.4v-.85a6.58,6.58,0,0,0-1.08-4,3.72,3.72,0,0,0-3.09-1.31,4.07,4.07,0,0,0-3.35,1.41,6.29,6.29,0,0,0-1.14,4,6.07,6.07,0,0,0,1.14,3.95,4,4,0,0,0,3.27,1.39,4.61,4.61,0,0,0,2.48-.65,4.42,4.42,0,0,0,1.65-1.88l2.28.79a6.45,6.45,0,0,1-2.53,3A7,7,0,0,1,173.61,23.49Zm-5.32-6.93V14.65h10.63v1.91Z"/><path class="cls-1" d="M189,23.49a6,6,0,0,1-3.45-1,6.43,6.43,0,0,1-2.22-2.73,9.26,9.26,0,0,1-.78-3.88,9.26,9.26,0,0,1,.78-3.88,6.45,6.45,0,0,1,2.22-2.71,5.92,5.92,0,0,1,3.44-1,5.71,5.71,0,0,1,3.42,1,6.22,6.22,0,0,1,2.1,2.71,10.08,10.08,0,0,1,.71,3.88,10.08,10.08,0,0,1-.71,3.88,6.33,6.33,0,0,1-2.1,2.72A5.63,5.63,0,0,1,189,23.49Zm.29-2.18a3.91,3.91,0,0,0,2.39-.69,4.14,4.14,0,0,0,1.38-1.94,8.59,8.59,0,0,0,.44-2.8,8.11,8.11,0,0,0-.45-2.81,4.09,4.09,0,0,0-1.36-1.91,3.8,3.8,0,0,0-2.33-.69,3.92,3.92,0,0,0-2.42.72,4.35,4.35,0,0,0-1.41,1.94,7.57,7.57,0,0,0-.46,2.75,7.85,7.85,0,0,0,.47,2.76,4.28,4.28,0,0,0,1.4,2,3.77,3.77,0,0,0,2.37.67Zm4.21,1.78V12.5h-.26V3.9h2.38V23.09Z"/><path class="cls-1" d="M207.53,23.49a9,9,0,0,1-4.87-1.27,8.15,8.15,0,0,1-3-3.52,12.15,12.15,0,0,1-1-5.21,12.08,12.08,0,0,1,1-5.2,8,8,0,0,1,3-3.52,10,10,0,0,1,9.74,0,8,8,0,0,1,3,3.52,12.21,12.21,0,0,1,1,5.2,12.26,12.26,0,0,1-1,5.21,8,8,0,0,1-3,3.52A9,9,0,0,1,207.53,23.49Zm0-2.27a5.77,5.77,0,0,0,5.71-3.73,10.5,10.5,0,0,0,.72-4,10.5,10.5,0,0,0-.72-4,6,6,0,0,0-2.14-2.71,6.27,6.27,0,0,0-3.57-1,6,6,0,0,0-3.57,1,5.91,5.91,0,0,0-2.14,2.72,10.74,10.74,0,0,0-.73,4,10.3,10.3,0,0,0,.71,4,6,6,0,0,0,2.2,2.73A6.29,6.29,0,0,0,207.53,21.22Z"/><path class="cls-1" d="M219.4,29.48V8.7h2.11V19.29h.27V29.48Zm6.62-6a5.66,5.66,0,0,1-3.41-1,6.12,6.12,0,0,1-2.1-2.72,10.08,10.08,0,0,1-.71-3.88,9.72,9.72,0,0,1,.71-3.88,6,6,0,0,1,2.1-2.71,5.69,5.69,0,0,1,3.42-1,6,6,0,0,1,3.45,1A6.43,6.43,0,0,1,231.69,12a9.41,9.41,0,0,1,.78,3.88,9.41,9.41,0,0,1-.78,3.88,6.48,6.48,0,0,1-2.21,2.73,6.06,6.06,0,0,1-3.48,1Zm-.3-2.18a3.72,3.72,0,0,0,2.36-.71,4.35,4.35,0,0,0,1.4-2,7.85,7.85,0,0,0,.47-2.76,7.8,7.8,0,0,0-.47-2.75,4.35,4.35,0,0,0-1.41-1.94,3.85,3.85,0,0,0-2.41-.72,3.75,3.75,0,0,0-2.32.69,4,4,0,0,0-1.34,2,8.12,8.12,0,0,0-.46,2.81,8.09,8.09,0,0,0,.45,2.8,4.14,4.14,0,0,0,1.38,1.94,3.86,3.86,0,0,0,2.35.69Z"/><path class="cls-1" d="M233.88,10.66v-2h9.63v2Zm9.63,12.43a10.7,10.7,0,0,1-2.52.22,5.72,5.72,0,0,1-2.23-.51,3.09,3.09,0,0,1-1.47-1.45,4,4,0,0,1-.46-1.72V4.7h2.37V19.05a2.25,2.25,0,0,0,.27,1.08,2,2,0,0,0,1.53,1,8.87,8.87,0,0,0,2.52-.08Z"/><path class="cls-1" d="M246.79,6.15V3.7h2.37V6.15Zm0,16.94V8.7h2.37V23.09Z"/><path class="cls-1" d="M259.37,23.49a6.78,6.78,0,0,1-3.7-1,6.32,6.32,0,0,1-2.39-2.68,8.83,8.83,0,0,1-.84-3.95,8.66,8.66,0,0,1,.85-4,6.41,6.41,0,0,1,2.41-2.67,6.94,6.94,0,0,1,3.67-.95,6.83,6.83,0,0,1,3.71,1A6.4,6.4,0,0,1,265.47,12a8.75,8.75,0,0,1,.84,3.93,8.91,8.91,0,0,1-.84,4,6.35,6.35,0,0,1-2.4,2.68A6.94,6.94,0,0,1,259.37,23.49Zm0-2.26a3.85,3.85,0,0,0,3.32-1.49,6.38,6.38,0,0,0,1.1-3.86A6.23,6.23,0,0,0,262.68,12a3.89,3.89,0,0,0-3.31-1.45,4.27,4.27,0,0,0-2.48.68,4.11,4.11,0,0,0-1.46,1.88,7.51,7.51,0,0,0-.47,2.77,6.28,6.28,0,0,0,1.11,3.89A3.89,3.89,0,0,0,259.37,21.23Z"/><path class="cls-1" d="M269.3,23.09V8.7h2.14v3.85h.26V23.09Zm10.26,0V15.88a11.19,11.19,0,0,0-.18-2,5.71,5.71,0,0,0-.63-1.7,3.19,3.19,0,0,0-1.19-1.2,3.6,3.6,0,0,0-1.9-.44,4.06,4.06,0,0,0-1.62.3,3.45,3.45,0,0,0-1.25.92,4.24,4.24,0,0,0-.8,1.53,7.3,7.3,0,0,0-.29,2.18L270.14,15a7.94,7.94,0,0,1,.76-3.59A5.38,5.38,0,0,1,273,9.13a6.15,6.15,0,0,1,3.22-.81,5.93,5.93,0,0,1,2.39.44,5.05,5.05,0,0,1,1.64,1.18,6,6,0,0,1,1,1.62,8.34,8.34,0,0,1,.53,1.83,12.77,12.77,0,0,1,.15,1.74v8Z"/><path class="cls-1" d="M290.94,23.47a7.38,7.38,0,0,1-4.22-1.12,4.67,4.67,0,0,1-2-3.15l2.42-.39a3,3,0,0,0,1.35,1.86,4.6,4.6,0,0,0,2.61.68,3.94,3.94,0,0,0,2.31-.61,2,2,0,0,0,.85-1.66,1.55,1.55,0,0,0-.29-1,2.53,2.53,0,0,0-1.15-.72c-.58-.22-1.46-.49-2.63-.81a16.77,16.77,0,0,1-3-1,3.91,3.91,0,0,1-1.56-1.26,3.2,3.2,0,0,1-.46-1.76,3.58,3.58,0,0,1,.69-2.21,4.57,4.57,0,0,1,1.94-1.48,7.38,7.38,0,0,1,2.9-.52,7.75,7.75,0,0,1,2.93.52,5.11,5.11,0,0,1,2.08,1.47,4.13,4.13,0,0,1,.94,2.22l-2.42.44a2.64,2.64,0,0,0-1.12-1.82,4.2,4.2,0,0,0-2.41-.71,4,4,0,0,0-2.27.5,1.68,1.68,0,0,0-.88,1.47,1.3,1.3,0,0,0,.33.9,3.13,3.13,0,0,0,1.21.7c.59.22,1.45.47,2.58.76a14.48,14.48,0,0,1,3,1,3.82,3.82,0,0,1,1.57,1.33,3.71,3.71,0,0,1,.46,1.9,3.9,3.9,0,0,1-1.54,3.27A6.62,6.62,0,0,1,290.94,23.47Z"/></g></g><path class="cls-2" d="M7.54,12.35c2.65,0,2.66-4.12,0-4.12H3.6c-2.65,0-2.66,4.12,0,4.12Z"/><path class="cls-2" d="M11.92,25.13l-.42-.32a2,2,0,0,0-1-.28h0a1.66,1.66,0,0,0-.79.17,1.58,1.58,0,0,0-.67.43,1.5,1.5,0,0,0-.42.66,1.59,1.59,0,0,0-.18.8l.07.54A2.16,2.16,0,0,0,9,28l.42.32a2,2,0,0,0,1,.28h0a1.68,1.68,0,0,0,.79-.17,1.71,1.71,0,0,0,.67-.43,2.36,2.36,0,0,0,.6-1.45l0-.55A2.22,2.22,0,0,0,11.92,25.13Z"/><path class="cls-2" d="M37.47,7.58A6.41,6.41,0,1,0,43.88,14,6.41,6.41,0,0,0,37.47,7.58Z"/><path class="cls-2" d="M52,14.32A14.32,14.32,0,0,0,37.68,0H2C-.66,0-.67,4.12,2,4.12H21c2.65,0,2.65,4.11,0,4.11H12.93A2.11,2.11,0,0,0,11.7,11a2.08,2.08,0,0,0,1.23,1.23H21c2.65,0,2.65,4.11,0,4.11H5.48c-2.65,0-2.65,4.12,0,4.12H21c2.65,0,2.65,4.12,0,4.12H16.64c-2.65,0-2.66,4.11,0,4.11H38.13A14.32,14.32,0,0,0,52,14.32ZM37.47,22.9A8.91,8.91,0,1,1,46.38,14h0A8.93,8.93,0,0,1,37.47,22.9Z"/></g></g></svg>