<?xml version="1.0" encoding="UTF-8"?>
<svg width="45px" height="25px" viewBox="0 0 45 25" version="1.1" xmlns="http://www.w3.org/2000/svg" xmlns:xlink="http://www.w3.org/1999/xlink">
    <title>Icon Copy</title>
    <defs>
        <linearGradient x1="948.923966%" y1="50%" x2="0%" y2="50%" id="linearGradient-1">
            <stop stop-color="#039B8E" offset="0%"></stop>
            <stop stop-color="#44D1A0" offset="100%"></stop>
        </linearGradient>
        <path d="M1.43302656,0.1949696 C1.21368576,0.26636288 1.0235904,0.38764544 0.86360064,0.5605376 L0.86360064,0.5605376 C0.69070848,0.72138752 0.56856576,0.91062272 0.49717248,1.13082368 L0.49717248,1.13082368 C0.38535168,1.34156288 0.3354624,1.56864512 0.34492416,1.81293056 L0.34492416,1.81293056 C0.365568,1.96947968 0.38621184,2.1260288 0.40771584,2.28257792 L0.40771584,2.28257792 C0.49201152,2.58277376 0.64339968,2.8442624 0.86360064,3.06446336 L0.86360064,3.06446336 C0.98230272,3.15650048 1.10186496,3.2485376 1.2214272,3.34143488 L1.2214272,3.34143488 C1.49753856,3.50142464 1.79601408,3.58141952 2.1159936,3.58313984 L2.1159936,3.58313984 L2.11685376,3.58313984 C2.128896,3.584 2.14007808,3.584 2.15212032,3.584 L2.15212032,3.584 L2.18996736,3.584 C2.40672768,3.58055936 2.60972544,3.52980992 2.7998208,3.43089152 L2.7998208,3.43089152 C3.0191616,3.35863808 3.20925696,3.23735552 3.36924672,3.06446336 L3.36924672,3.06446336 C3.54213888,2.9044736 3.6642816,2.71437824 3.73567488,2.49503744 L3.73567488,2.49503744 C3.84577536,2.28343808 3.89738496,2.05549568 3.8879232,1.81293056 L3.8879232,1.81293056 C3.86727936,1.65552128 3.84577536,1.49897216 3.82513152,1.34242304 L3.82513152,1.34242304 C3.74083584,1.04136704 3.58944768,0.78159872 3.36924672,0.5605376 L3.36924672,0.5605376 C3.24968448,0.46850048 3.13012224,0.3756032 3.01056,0.28356608 L3.01056,0.28356608 C2.73444864,0.12357632 2.43683328,0.04272128 2.11685376,0.04272128 L2.11685376,0.04272128 L2.1159936,0.04272128 C2.09707008,0.04186112 2.07814656,0.04100096 2.0600832,0.04100096 L2.0600832,0.04100096 C1.8364416,0.04100096 1.62828288,0.09261056 1.43302656,0.1949696" id="path-2"></path>
        <path d="M-3.56345173,-13.4718259 C-5.77872213,-13.4718259 -5.78290347,-9.9305472 -3.56345173,-9.9305472 L-3.56345173,-9.9305472 L-0.263543467,-9.9305472 C1.95339947,-9.9305472 1.95674453,-13.4718259 -0.263543467,-13.4718259 L-0.263543467,-13.4718259 L-3.56345173,-13.4718259 Z" id="path-4"></path>
        <linearGradient x1="599.547067%" y1="64.2781037%" x2="0%" y2="50%" id="linearGradient-6">
            <stop stop-color="#039B8E" offset="0%"></stop>
            <stop stop-color="#44D1A0" offset="100%"></stop>
        </linearGradient>
        <path d="M24.8968694,-20.4880225 C24.8176423,-20.4855014 24.7392492,-20.4762571 24.6600222,-20.4745763 L24.6600222,-20.4745763 L24.6600222,-20.4880225 L-4.84747717,-20.4880225 C-7.00245366,-20.4308762 -6.98744222,-17.0298333 -4.7924352,-17.0298333 L-4.7924352,-17.0298333 L9.71279163,-17.0298333 L11.0529802,-17.0298333 C13.2663345,-17.0298333 13.2629986,-13.5699633 11.0529802,-13.5699633 L11.0529802,-13.5699633 L8.30588554,-13.5699633 L4.33369009,-13.5699633 C2.80919434,-13.1245586 2.8075264,-10.7000444 4.33369009,-10.2546397 L4.33369009,-10.2546397 L11.0529802,-10.2546397 C13.2663345,-10.2546397 13.2629986,-6.79561004 11.0529802,-6.79561004 L11.0529802,-6.79561004 L9.71279163,-6.79561004 L8.30588554,-6.79561004 L0.681738831,-6.79561004 L-1.87771274,-6.79561004 C-4.0877312,-6.79561004 -4.09106708,-3.33574003 -1.87771274,-3.33574003 L-1.87771274,-3.33574003 L9.71279163,-3.33574003 L11.0529802,-3.33574003 C13.2663345,-3.33574003 13.2629986,0.124129986 11.0529802,0.124129986 L11.0529802,0.124129986 L9.71279163,0.124129986 L8.30588554,0.124129986 L7.42354609,0.124129986 C5.21269366,0.124129986 5.20935778,3.58315961 7.42354609,3.58315961 L7.42354609,3.58315961 L24.9177186,3.58315961 C24.9243904,3.58315961 24.9302282,3.584 24.9377339,3.584 L24.9377339,3.584 C24.9444057,3.584 24.9502434,3.58315961 24.9577492,3.58315961 L24.9577492,3.58315961 L25.3522166,3.58315961 L25.3513826,3.56299034 C31.7545984,3.34112839 36.8818412,-1.94574124 36.8818412,-8.45201126 L36.8818412,-8.45201126 C36.8818412,-15.0566065 31.6044839,-20.4182705 25.0678331,-20.4880225 L25.0678331,-20.4880225 L24.8968694,-20.4880225 Z" id="path-7"></path>
        <linearGradient x1="100%" y1="50%" x2="0%" y2="50%" id="linearGradient-9">
            <stop stop-color="#039B8E" offset="0%"></stop>
            <stop stop-color="#44D1A0" offset="100%"></stop>
        </linearGradient>
    </defs>
    <g id="Page-1" stroke="none" stroke-width="1" fill="none" fill-rule="evenodd">
        <g id="Green-Tablet-Open" transform="translate(-52.000000, -13.000000)">
            <g id="Top-Nav">
                <g id="Logo" transform="translate(54.000000, 11.000000)">
                    <g id="Icon-Copy" transform="translate(0.000000, 8.960000)">
                        <g id="Group-3"></g>
                        <g id="Group-6" transform="translate(5.376000, 13.619200)"></g>
                        <g id="icon" transform="translate(5.376000, 13.619200)">
                            <mask id="mask-3" fill="white">
                                <use xlink:href="#path-2"></use>
                            </mask>
                            <use id="Clip-5" fill="url(#linearGradient-1)" xlink:href="#path-2"></use>
                            <mask id="mask-5" fill="white">
                                <use xlink:href="#path-4"></use>
                            </mask>
                            <g id="Clip-2"></g>
                            <path d="M-3.56345173,-13.4718259 C-5.77872213,-13.4718259 -5.78290347,-9.9305472 -3.56345173,-9.9305472 L-3.56345173,-9.9305472 L-0.263543467,-9.9305472 C1.95339947,-9.9305472 1.95674453,-13.4718259 -0.263543467,-13.4718259 L-0.263543467,-13.4718259 L-3.56345173,-13.4718259 Z" id="Fill-1" fill="url(#linearGradient-6)" mask="url(#mask-5)"></path>
                            <mask id="mask-8" fill="white">
                                <use xlink:href="#path-7"></use>
                            </mask>
                            <g id="Clip-8"></g>
                            <path d="M24.8968694,-20.4880225 C24.8176423,-20.4855014 24.7392492,-20.4762571 24.6600222,-20.4745763 L24.6600222,-20.4880225 L-4.84747717,-20.4880225 C-7.00245366,-20.4308762 -6.98744222,-17.0298333 -4.7924352,-17.0298333 L9.71279163,-17.0298333 L11.0529802,-17.0298333 C13.2663345,-17.0298333 13.2629986,-13.5699633 11.0529802,-13.5699633 L8.30588554,-13.5699633 L4.33369009,-13.5699633 C2.80919434,-13.1245586 2.8075264,-10.7000444 4.33369009,-10.2546397 L11.0529802,-10.2546397 C13.2663345,-10.2546397 13.2629986,-6.79561004 11.0529802,-6.79561004 L9.71279163,-6.79561004 L8.30588554,-6.79561004 L0.681738831,-6.79561004 L-1.87771274,-6.79561004 C-4.0877312,-6.79561004 -4.09106708,-3.33574003 -1.87771274,-3.33574003 L9.71279163,-3.33574003 L11.0529802,-3.33574003 C13.2663345,-3.33574003 13.2629986,0.124129986 11.0529802,0.124129986 L9.71279163,0.124129986 L8.30588554,0.124129986 L7.42354609,0.124129986 C5.21269366,0.124129986 5.20935778,3.58315961 7.42354609,3.58315961 L24.9177186,3.58315961 C24.9243904,3.58315961 24.9302282,3.584 24.9377339,3.584 C24.9444057,3.584 24.9502434,3.58315961 24.9577492,3.58315961 L25.3522166,3.58315961 L25.3513826,3.56299034 C31.7545984,3.34112839 36.8818412,-1.94574124 36.8818412,-8.45201126 C36.8818412,-15.0566065 31.6044839,-20.4182705 25.0678331,-20.4880225 L24.8968694,-20.4880225 Z" id="Fill-7" fill="url(#linearGradient-9)" mask="url(#mask-8)"></path>
                            <path d="M24.9088,-14.0164525 C21.9941606,-14.0164525 19.6228726,-11.5873282 19.6228726,-8.6016 C19.6228726,-5.6158718 21.9941606,-3.18674753 24.9088,-3.18674753 C27.8234394,-3.18674753 30.1947274,-5.6158718 30.1947274,-8.6016 C30.1947274,-11.5873282 27.8234394,-14.0164525 24.9088,-14.0164525 M24.9088,-1.0752 C20.8571626,-1.0752 17.5616,-4.4519868 17.5616,-8.6016 C17.5616,-12.7520578 20.8571626,-16.128 24.9088,-16.128 C28.9604374,-16.128 32.256,-12.7520578 32.256,-8.6016 C32.256,-4.4519868 28.9604374,-1.0752 24.9088,-1.0752" id="Fill-10" fill="#FFFFFF" mask="url(#mask-8)"></path>
                        </g>
                    </g>
                </g>
            </g>
        </g>
    </g>
</svg>