<svg xmlns="http://www.w3.org/2000/svg" viewBox="0 0 296.7 29.88"><defs><style>.cls-1{fill:#2c2c2c;}.cls-2{fill:#039b8e;}</style></defs><g id="Layer_2" data-name="Layer 2"><g id="afad0bc9-c5ca-41c1-8caf-fa4845787c00"><path class="cls-1" d="M59.7,23.09V3.9h2.37v8.46H72.16V3.9h2.38V23.09H72.16V14.61H62.07v8.48Z"/><path class="cls-1" d="M78.8,6.15V3.7h2.37V6.15Zm0,16.94V8.7h2.37V23.09Z"/><path class="cls-1" d="M91.08,23.49a6,6,0,0,1-3.45-1,6.52,6.52,0,0,1-2.22-2.73,9.46,9.46,0,0,1-.77-3.88A9.46,9.46,0,0,1,85.41,12a6.47,6.47,0,0,1,2.22-2.71,5.93,5.93,0,0,1,3.44-1,5.72,5.72,0,0,1,3.42,1A6,6,0,0,1,96.59,12a9.9,9.9,0,0,1,.72,3.88,10,10,0,0,1-.72,3.88,6.16,6.16,0,0,1-2.1,2.72A5.65,5.65,0,0,1,91.08,23.49Zm.18,6.39A7.25,7.25,0,0,1,89,29.54a6.57,6.57,0,0,1-2-1.05,5.89,5.89,0,0,1-1.5-1.77l2.17-1.14a3.29,3.29,0,0,0,1.51,1.53,4.54,4.54,0,0,0,2,.48,4.68,4.68,0,0,0,2.27-.5,3.05,3.05,0,0,0,1.34-1.49,5.88,5.88,0,0,0,.43-2.45V19.22h.28V8.7h2.1V23.18q0,.6,0,1.14a7.64,7.64,0,0,1-.14,1.07,5.49,5.49,0,0,1-1.11,2.53,5,5,0,0,1-2.13,1.48A8.74,8.74,0,0,1,91.26,29.88Zm.12-8.57a3.9,3.9,0,0,0,2.38-.69,4.11,4.11,0,0,0,1.38-1.94,8.1,8.1,0,0,0,.45-2.8,7.89,7.89,0,0,0-.46-2.81,4,4,0,0,0-1.36-1.91,3.77,3.77,0,0,0-2.33-.69,3.88,3.88,0,0,0-2.41.72,4.26,4.26,0,0,0-1.42,1.94,8,8,0,0,0-.46,2.75,7.76,7.76,0,0,0,.47,2.76,4.27,4.27,0,0,0,1.41,2A3.73,3.73,0,0,0,91.38,21.31Z"/><path class="cls-1" d="M101.68,23.09V3.9h2.13V14.49h.26v8.6Zm10.25,0V15.88a10.43,10.43,0,0,0-.18-2,5.65,5.65,0,0,0-.63-1.7,3.19,3.19,0,0,0-1.19-1.2,3.66,3.66,0,0,0-1.9-.44,4.25,4.25,0,0,0-1.62.3,3.3,3.3,0,0,0-1.24.92,4.12,4.12,0,0,0-.81,1.53,7.43,7.43,0,0,0-.29,2.18L102.51,15a8,8,0,0,1,.76-3.59,5.46,5.46,0,0,1,2.12-2.31,6.17,6.17,0,0,1,3.21-.81,5.9,5.9,0,0,1,2.39.44,4.86,4.86,0,0,1,1.64,1.18,6,6,0,0,1,1,1.62,8.11,8.11,0,0,1,.53,1.83,11,11,0,0,1,.15,1.74v8Z"/><path class="cls-1" d="M124.87,23.49a9.17,9.17,0,0,1-3.67-.7,6.9,6.9,0,0,1-2.69-2,6.51,6.51,0,0,1-1.38-3.05l2.45-.39a4.79,4.79,0,0,0,1.94,2.84,5.94,5.94,0,0,0,3.47,1,6.36,6.36,0,0,0,2.33-.4A3.91,3.91,0,0,0,129,19.66a2.75,2.75,0,0,0,.62-1.8,2.36,2.36,0,0,0-.23-1.09,2.33,2.33,0,0,0-.6-.78,3.36,3.36,0,0,0-.85-.55,8,8,0,0,0-1-.39L122,13.6a9.58,9.58,0,0,1-1.54-.59,5.44,5.44,0,0,1-1.33-.92,4,4,0,0,1-.94-1.34,4.56,4.56,0,0,1-.34-1.85A4.8,4.8,0,0,1,118.76,6a5.47,5.47,0,0,1,2.41-1.84,8.83,8.83,0,0,1,3.42-.63,8.48,8.48,0,0,1,3.46.68,6.56,6.56,0,0,1,2.53,1.93,6.78,6.78,0,0,1,1.35,3l-2.52.44a4.27,4.27,0,0,0-.88-2,4.61,4.61,0,0,0-1.71-1.31,5.6,5.6,0,0,0-2.26-.47,5.12,5.12,0,0,0-2.11.38,3.71,3.71,0,0,0-1.51,1.08,2.39,2.39,0,0,0-.56,1.56,2,2,0,0,0,.51,1.43,3.67,3.67,0,0,0,1.24.84,14.19,14.19,0,0,0,1.45.52l3.65,1.05a13.43,13.43,0,0,1,1.44.48,6.74,6.74,0,0,1,1.6.86,4.44,4.44,0,0,1,1.28,1.46,4.8,4.8,0,0,1,.5,2.3,5.35,5.35,0,0,1-.55,2.47A5.25,5.25,0,0,1,130,22a6.86,6.86,0,0,1-2.29,1.1A10.08,10.08,0,0,1,124.87,23.49Z"/><path class="cls-1" d="M135.1,29.48V8.7h2.12V19.29h.27V29.48Zm6.62-6a5.67,5.67,0,0,1-3.41-1,6.31,6.31,0,0,1-2.1-2.72,10.16,10.16,0,0,1-.71-3.88,10.09,10.09,0,0,1,.71-3.88,6.11,6.11,0,0,1,2.11-2.71,5.76,5.76,0,0,1,3.42-1,5.93,5.93,0,0,1,3.44,1A6.39,6.39,0,0,1,147.4,12a9.46,9.46,0,0,1,.77,3.88,9.46,9.46,0,0,1-.77,3.88,6.45,6.45,0,0,1-2.22,2.73A6,6,0,0,1,141.72,23.49Zm-.29-2.18a3.73,3.73,0,0,0,2.35-.71,4.27,4.27,0,0,0,1.41-2,7.76,7.76,0,0,0,.46-2.76,7.74,7.74,0,0,0-.46-2.75,4.32,4.32,0,0,0-1.41-1.94,3.89,3.89,0,0,0-2.42-.72,3.73,3.73,0,0,0-2.31.69,4,4,0,0,0-1.38,1.91,8.12,8.12,0,0,0-.45,2.81,8.1,8.1,0,0,0,.45,2.8,4,4,0,0,0,1.38,1.94A3.88,3.88,0,0,0,141.43,21.31Z"/><path class="cls-1" d="M157.6,23.49a7.13,7.13,0,0,1-3.69-.94,6.44,6.44,0,0,1-2.46-2.63,8.31,8.31,0,0,1-.88-3.93,9,9,0,0,1,.87-4.09,6.29,6.29,0,0,1,2.41-2.66,6.89,6.89,0,0,1,3.65-.94,6.58,6.58,0,0,1,3.7,1,6.05,6.05,0,0,1,2.29,2.85,10.36,10.36,0,0,1,.66,4.41h-2.4v-.85a6.55,6.55,0,0,0-1.08-4,3.71,3.71,0,0,0-3.09-1.31,4.07,4.07,0,0,0-3.35,1.41,6.3,6.3,0,0,0-1.14,4.05,6.11,6.11,0,0,0,1.14,3.95,4,4,0,0,0,3.27,1.39,4.59,4.59,0,0,0,2.48-.65,4.41,4.41,0,0,0,1.65-1.88l2.28.79a6.47,6.47,0,0,1-2.53,3A7,7,0,0,1,157.6,23.49Zm-5.31-6.93V14.65h10.63v1.91Z"/><path class="cls-1" d="M173.61,23.49a7.14,7.14,0,0,1-3.7-.94,6.51,6.51,0,0,1-2.46-2.63,8.31,8.31,0,0,1-.88-3.93,9,9,0,0,1,.87-4.09,6.25,6.25,0,0,1,2.42-2.66,6.83,6.83,0,0,1,3.64-.94,6.58,6.58,0,0,1,3.7,1,6.05,6.05,0,0,1,2.29,2.85,10.36,10.36,0,0,1,.66,4.41h-2.4v-.85a6.55,6.55,0,0,0-1.08-4,3.71,3.71,0,0,0-3.09-1.31,4.07,4.07,0,0,0-3.35,1.41,6.3,6.3,0,0,0-1.14,4.05,6.11,6.11,0,0,0,1.14,3.95,4,4,0,0,0,3.27,1.39,4.57,4.57,0,0,0,2.48-.65,4.41,4.41,0,0,0,1.65-1.88l2.28.79a6.41,6.41,0,0,1-2.53,3A7,7,0,0,1,173.61,23.49Zm-5.32-6.93V14.65h10.63v1.91Z"/><path class="cls-1" d="M189,23.49a6,6,0,0,1-3.45-1,6.52,6.52,0,0,1-2.22-2.73,9.3,9.3,0,0,1-.78-3.88,9.3,9.3,0,0,1,.78-3.88,6.47,6.47,0,0,1,2.22-2.71,5.91,5.91,0,0,1,3.44-1,5.72,5.72,0,0,1,3.42,1,6.16,6.16,0,0,1,2.1,2.71,10.09,10.09,0,0,1,.71,3.88,10.16,10.16,0,0,1-.71,3.88,6.31,6.31,0,0,1-2.1,2.72A5.65,5.65,0,0,1,189,23.49Zm.29-2.18a3.91,3.91,0,0,0,2.39-.69,4.11,4.11,0,0,0,1.38-1.94,8.35,8.35,0,0,0,.44-2.8,8.12,8.12,0,0,0-.45-2.81,4.07,4.07,0,0,0-1.36-1.91,3.77,3.77,0,0,0-2.33-.69,3.91,3.91,0,0,0-2.42.72,4.32,4.32,0,0,0-1.41,1.94,7.74,7.74,0,0,0-.46,2.75,7.76,7.76,0,0,0,.47,2.76,4.32,4.32,0,0,0,1.4,2A3.75,3.75,0,0,0,189.31,21.31Zm4.21,1.78V12.5h-.26V3.9h2.38V23.09Z"/><path class="cls-2" d="M207.53,23.49a9,9,0,0,1-4.87-1.27,8.11,8.11,0,0,1-3-3.52,12.18,12.18,0,0,1-1.05-5.21,12.16,12.16,0,0,1,1.05-5.2,8.05,8.05,0,0,1,3-3.52,10,10,0,0,1,9.74,0,8,8,0,0,1,3,3.52,12.31,12.31,0,0,1,1,5.2,12.33,12.33,0,0,1-1,5.21,8,8,0,0,1-3,3.52A9,9,0,0,1,207.53,23.49Zm0-2.27a6.1,6.1,0,0,0,3.57-1,6,6,0,0,0,2.14-2.73,10.52,10.52,0,0,0,.72-4,10.5,10.5,0,0,0-.72-4,6,6,0,0,0-2.14-2.71,6.26,6.26,0,0,0-3.57-1,6.1,6.1,0,0,0-3.57,1,5.92,5.92,0,0,0-2.14,2.72,10.78,10.78,0,0,0-.73,4,10.28,10.28,0,0,0,.71,4A5.93,5.93,0,0,0,204,20.23,6.29,6.29,0,0,0,207.53,21.22Z"/><path class="cls-2" d="M219.4,29.48V8.7h2.11V19.29h.27V29.48Zm6.62-6a5.65,5.65,0,0,1-3.41-1,6.16,6.16,0,0,1-2.1-2.72,10,10,0,0,1-.71-3.88,9.91,9.91,0,0,1,.71-3.88,6.09,6.09,0,0,1,2.1-2.71,5.76,5.76,0,0,1,3.42-1,6,6,0,0,1,3.45,1A6.37,6.37,0,0,1,231.69,12a9.3,9.3,0,0,1,.78,3.88,9.3,9.3,0,0,1-.78,3.88,6.43,6.43,0,0,1-2.21,2.73A6,6,0,0,1,226,23.49Zm-.3-2.18a3.76,3.76,0,0,0,2.36-.71,4.32,4.32,0,0,0,1.4-2,7.76,7.76,0,0,0,.47-2.76,7.74,7.74,0,0,0-.47-2.75,4.32,4.32,0,0,0-1.41-1.94,3.86,3.86,0,0,0-2.41-.72,3.76,3.76,0,0,0-2.32.69A4,4,0,0,0,222,13.07a8.11,8.11,0,0,0-.46,2.81,8.1,8.1,0,0,0,.45,2.8,4.11,4.11,0,0,0,1.38,1.94A3.9,3.9,0,0,0,225.72,21.31Z"/><path class="cls-2" d="M233.88,10.66v-2h9.63v2Zm9.63,12.43a10.84,10.84,0,0,1-2.52.22,5.62,5.62,0,0,1-2.23-.51,3.09,3.09,0,0,1-1.47-1.45,4,4,0,0,1-.46-1.72q0-.87,0-2V4.7h2.37V17.54c0,.59,0,1.09,0,1.51a2.27,2.27,0,0,0,.27,1.08,2,2,0,0,0,1.53,1,8.78,8.78,0,0,0,2.52-.08Z"/><path class="cls-2" d="M246.79,6.15V3.7h2.37V6.15Zm0,16.94V8.7h2.37V23.09Z"/><path class="cls-2" d="M259.37,23.49a6.78,6.78,0,0,1-3.7-1,6.35,6.35,0,0,1-2.39-2.68,8.86,8.86,0,0,1-.84-3.95,8.74,8.74,0,0,1,.85-4,6.37,6.37,0,0,1,2.41-2.67,6.94,6.94,0,0,1,3.67-.95,6.86,6.86,0,0,1,3.71,1A6.34,6.34,0,0,1,265.47,12a8.8,8.8,0,0,1,.84,3.93,8.88,8.88,0,0,1-.84,4,6.37,6.37,0,0,1-2.4,2.68A6.94,6.94,0,0,1,259.37,23.49Zm0-2.26a3.84,3.84,0,0,0,3.32-1.49,6.35,6.35,0,0,0,1.1-3.86A6.23,6.23,0,0,0,262.68,12a3.88,3.88,0,0,0-3.31-1.45,4.25,4.25,0,0,0-2.48.68,4.06,4.06,0,0,0-1.46,1.88,7.62,7.62,0,0,0-.47,2.77,6.28,6.28,0,0,0,1.11,3.89A3.89,3.89,0,0,0,259.37,21.23Z"/><path class="cls-2" d="M269.3,23.09V8.7h2.14v3.85h.26V23.09Zm10.26,0V15.88a10.43,10.43,0,0,0-.18-2,5.65,5.65,0,0,0-.63-1.7,3.19,3.19,0,0,0-1.19-1.2,3.66,3.66,0,0,0-1.9-.44,4.18,4.18,0,0,0-1.62.3,3.42,3.42,0,0,0-1.25.92,4.26,4.26,0,0,0-.8,1.53,7.43,7.43,0,0,0-.29,2.18L270.14,15a7.86,7.86,0,0,1,.76-3.59A5.44,5.44,0,0,1,273,9.13a6.21,6.21,0,0,1,3.22-.81,5.93,5.93,0,0,1,2.39.44,5,5,0,0,1,1.64,1.18,6,6,0,0,1,1,1.62,8.11,8.11,0,0,1,.53,1.83,11,11,0,0,1,.15,1.74v8Z"/><path class="cls-2" d="M290.94,23.47a7.34,7.34,0,0,1-4.22-1.12,4.67,4.67,0,0,1-2-3.15l2.42-.39a3,3,0,0,0,1.35,1.86,4.65,4.65,0,0,0,2.61.68,3.88,3.88,0,0,0,2.31-.61,2,2,0,0,0,.85-1.66,1.58,1.58,0,0,0-.29-1,2.55,2.55,0,0,0-1.15-.72c-.58-.22-1.46-.49-2.63-.81a17,17,0,0,1-3-1,3.92,3.92,0,0,1-1.56-1.26,3.18,3.18,0,0,1-.46-1.76,3.63,3.63,0,0,1,.69-2.21,4.6,4.6,0,0,1,1.94-1.48,7.43,7.43,0,0,1,2.9-.52,7.73,7.73,0,0,1,2.93.52,5.07,5.07,0,0,1,2.08,1.47,4.14,4.14,0,0,1,.94,2.22l-2.42.44a2.64,2.64,0,0,0-1.12-1.82,4.22,4.22,0,0,0-2.41-.71,4,4,0,0,0-2.27.5,1.67,1.67,0,0,0-.88,1.47,1.32,1.32,0,0,0,.33.9,3.17,3.17,0,0,0,1.21.7c.59.22,1.45.47,2.58.76a14.24,14.24,0,0,1,3,1,3.78,3.78,0,0,1,1.57,1.33A3.6,3.6,0,0,1,296.7,19a3.89,3.89,0,0,1-1.54,3.27A6.66,6.66,0,0,1,290.94,23.47Z"/><path class="cls-2" d="M7.54,12.35c2.65,0,2.66-4.12,0-4.12H3.6c-2.65,0-2.66,4.12,0,4.12Z"/><path class="cls-2" d="M11.92,25.13l-.42-.32a2,2,0,0,0-1-.28h0a1.63,1.63,0,0,0-.79.17,1.64,1.64,0,0,0-.67.43,1.55,1.55,0,0,0-.42.66,1.57,1.57,0,0,0-.18.8l.07.54A2.15,2.15,0,0,0,9,28l.42.32a2,2,0,0,0,1,.28h0a1.63,1.63,0,0,0,.79-.17,1.64,1.64,0,0,0,.67-.43,2.33,2.33,0,0,0,.6-1.45L12.45,26A2.15,2.15,0,0,0,11.92,25.13Z"/><path class="cls-2" d="M37.47,7.58A6.41,6.41,0,1,0,43.88,14,6.42,6.42,0,0,0,37.47,7.58Z"/><path class="cls-2" d="M52,14.32A14.32,14.32,0,0,0,37.64,0l-.33,0V0H2C-.66,0-.67,4.12,2,4.12H21c2.65,0,2.65,4.11,0,4.11H12.93a2.11,2.11,0,0,0,0,3.95H21c2.65,0,2.65,4.11,0,4.11H5.48c-2.65,0-2.65,4.12,0,4.12H21c2.65,0,2.65,4.12,0,4.12H16.64c-2.65,0-2.66,4.11,0,4.11H38.13v0A14.32,14.32,0,0,0,52,14.32ZM37.47,22.9A8.91,8.91,0,1,1,46.38,14,8.92,8.92,0,0,1,37.47,22.9Z"/></g></g></svg>