<svg id="Layer_1" data-name="Layer 1" xmlns="http://www.w3.org/2000/svg" viewBox="0 0 131 131"><defs><style>.cls-2{stroke-miterlimit:10;fill:#039b8e;stroke:#039b8e;stroke-width:1.5px}</style></defs><circle cx="65.5" cy="65.5" r="65" stroke-miterlimit="10" fill="#f5f5f5" stroke="#f5f5f5"/><path class="cls-2" d="M80.63 82.13a1.29 1.29 0 01-.91-.38 20.11 20.11 0 00-28.44 0 1.29 1.29 0 01-1.82-1.82 22.69 22.69 0 0132.08 0 1.29 1.29 0 01-.91 2.2zM96.66 66.1a1.29 1.29 0 01-.91-.38 42.83 42.83 0 00-60.5 0 1.28 1.28 0 01-1.81 0 1.26 1.26 0 010-1.81 45.39 45.39 0 0164.12 0 1.29 1.29 0 01-.9 2.19z"/><path class="cls-2" d="M112.27 50.49a1.29 1.29 0 01-.91-.38 64.87 64.87 0 00-91.72 0 1.26 1.26 0 01-1.81 0 1.28 1.28 0 010-1.81 67.4 67.4 0 0195.34 0 1.29 1.29 0 01-.9 2.19z"/><path d="M65.5 102.45a6.06 6.06 0 116.06-6.06 6.07 6.07 0 01-6.06 6.06zm0-9.55a3.49 3.49 0 103.5 3.49 3.5 3.5 0 00-3.5-3.49z" fill="#039b8e" stroke="#039b8e" stroke-miterlimit="10"/></svg>
