<svg id="Layer_1" data-name="Layer 1" xmlns="http://www.w3.org/2000/svg" viewBox="0 0 97.53 75"><defs><style>.cls-1{fill:#039b8e;}</style></defs><path class="cls-1" d="M64.12,54.37A1.27,1.27,0,0,1,63.2,54a20.41,20.41,0,0,0-28.87,0,1.3,1.3,0,1,1-1.84-1.84,23,23,0,0,1,32.55,0A1.3,1.3,0,0,1,65,54,1.27,1.27,0,0,1,64.12,54.37Z"/><path class="cls-1" d="M80.39,38.11a1.29,1.29,0,0,1-.92-.38,43.47,43.47,0,0,0-61.41,0,1.3,1.3,0,0,1-1.84-1.85,46.09,46.09,0,0,1,65.09,0,1.31,1.31,0,0,1,0,1.85A1.33,1.33,0,0,1,80.39,38.11Z"/><path class="cls-1" d="M96.23,22.27a1.26,1.26,0,0,1-.92-.39,65.85,65.85,0,0,0-93.09,0A1.3,1.3,0,1,1,.38,20a68.43,68.43,0,0,1,96.77,0,1.3,1.3,0,0,1,0,1.84A1.28,1.28,0,0,1,96.23,22.27Z"/><path class="cls-1" d="M48.77,75a6.15,6.15,0,1,1,6.14-6.15A6.16,6.16,0,0,1,48.77,75Zm0-9.69a3.54,3.54,0,1,0,3.54,3.54A3.55,3.55,0,0,0,48.77,65.31Z"/></svg>