<?xml version="1.0" encoding="utf-8"?>
<!-- Generator: Adobe Illustrator 25.2.1, SVG Export Plug-In . SVG Version: 6.00 Build 0)  -->
<svg version="1.1" id="Layer_1" xmlns="http://www.w3.org/2000/svg" xmlns:xlink="http://www.w3.org/1999/xlink" x="0px" y="0px"
	 width="49px" height="49px" viewBox="0 0 49 49" style="enable-background:new 0 0 49 49;" xml:space="preserve">
<style type="text/css">
	.st0{fill:#FFFFFF;}
</style>
<path class="st0" d="M24.5,0C11,0,0,11,0,24.5S11,49,24.5,49C38,49,49,38,49,24.5S38,0,24.5,0z M17.5,37.3h-5.3v-17h5.3V37.3z
	 M14.8,17.9c-1.7,0-3.1-1.4-3.1-3.1s1.4-3.1,3.1-3.1c1.7,0,3.1,1.4,3.1,3.1C17.9,16.5,16.5,17.9,14.8,17.9z M37.3,37.3L37.3,37.3
	L37.3,37.3l-5.3,0V29c0-2,0-4.5-2.8-4.5c-2.8,0-3.2,2.1-3.2,4.4v8.4h-5.3v-17h5.1v2.3h0.1c0.7-1.3,2.4-2.8,5-2.8
	c5.4,0,6.3,3.5,6.3,8.1V37.3z"/>
</svg>
