<svg width="22" height="25" viewBox="0 0 22 25" fill="none" xmlns="http://www.w3.org/2000/svg">
<path d="M4.89648 24.7251H0.361328V8.21741H4.89648V24.7251ZM2.62646 5.96561C1.17627 5.96561 0 4.60791 0 2.96873C1.03799e-08 2.18138 0.276716 1.42627 0.769274 0.869522C1.26183 0.312776 1.92988 0 2.62646 0C3.32305 0 3.9911 0.312776 4.48366 0.869522C4.97621 1.42627 5.25293 2.18138 5.25293 2.96873C5.25293 4.60791 4.07617 5.96561 2.62646 5.96561ZM21.8701 24.7251H17.3447V16.6893C17.3447 14.7741 17.3105 12.3181 14.9868 12.3181C12.6289 12.3181 12.2676 14.3988 12.2676 16.5513V24.7251H7.73731V8.21741H12.0869V10.4692H12.1504C12.7559 9.17222 14.2349 7.80348 16.4414 7.80348C21.0312 7.80348 21.875 11.2198 21.875 15.6572V24.7251H21.8701Z" fill="white"/>
</svg>
