<svg id="Layer_1" data-name="Layer 1" xmlns="http://www.w3.org/2000/svg" viewBox="0 0 115.05 26.28"><defs><style>.cls-2{fill:none;stroke:#76bc21;stroke-linecap:round;stroke-width:1.93px}</style></defs><path d="M1.92 19.18v6.93H0V14.53l5.79 5.79 5.81-5.79v11.58H9.64v-6.93l-3.85 3.87-3.87-3.87zm23.12-4.65v1.93h-5.79v2.91h5.79v1.92h-5.79v2.88h5.79v1.94h-7.71V14.53h7.71zm4.96 0h9.66v1.93h-3.85v9.65h-1.94v-9.65H30v-1.93zm22.05 11.58l-2.23-3.85h-3.27v3.85h-1.92V14.53h5.79a3.88 3.88 0 013.85 3.85 3.81 3.81 0 01-.68 2.19A3.75 3.75 0 0151.88 22l2.39 4.16zm-1.63-9.65h-3.87v3.84h3.87a1.85 1.85 0 001.35-.57 1.93 1.93 0 000-2.72 1.85 1.85 0 00-1.35-.57m26.92-1.93l7.71 6.94v-6.94h1.93v11.58-.02.04l-7.72-6.94v6.92h-1.92V14.51zm23.08.02v1.93h-5.78v2.91h5.78v1.92h-5.78v2.88h5.78v1.94h-7.7V14.53h7.7zm4.97 0h9.66v1.93h-3.86v9.65h-1.93v-9.65h-3.87v-1.93z" fill="#003057"/><path class="cls-2" d="M69.64 15.43a5.71 5.71 0 11-7.76 0"/><path fill="#fff" d="M65.72 12.51v7.3"/><path class="cls-2" d="M65.72 12.51v7.3"/><path d="M29 4.51h-2.15l-.43 1.26h-.91l2-5.39h.85l1.95 5.39h-.91zm-1.85-.75h1.55l-.78-2.3zm6.15 1.42a1.33 1.33 0 01-.48.49 1.24 1.24 0 01-.67.18 1.27 1.27 0 01-1-.41 1.92 1.92 0 01-.36-1.28V1.77h.89v2.4a1.2 1.2 0 00.17.73.62.62 0 00.51.21 1.15 1.15 0 00.55-.11.88.88 0 00.35-.34V1.77h.89v4h-.78zM36.21.8v1h.72v.66h-.72v2.19a.49.49 0 00.11.35.37.37 0 00.28.1h.28l.1.65a.77.77 0 01-.28.1 1.15 1.15 0 01-.33 0 1 1 0 01-.77-.29 1.27 1.27 0 01-.29-.91V2.43h-.61v-.66h.61V.8zm2.4 1.49a1.46 1.46 0 01.49-.44 1.34 1.34 0 01.63-.16 1.27 1.27 0 011 .41 1.79 1.79 0 01.35 1.23v2.44h-.89V3.32a1 1 0 00-.19-.68.74.74 0 00-.57-.21 1 1 0 00-.47.11 1 1 0 00-.35.3v2.93h-.89V0h.89zm3.24 1.44a2.15 2.15 0 01.49-1.46 1.65 1.65 0 011.34-.58 1.67 1.67 0 011.32.58 2.13 2.13 0 01.49 1.46v.08A2.16 2.16 0 0145 5.28a1.87 1.87 0 01-2.69 0 2.16 2.16 0 01-.49-1.47zm.9.08a1.72 1.72 0 00.23.95.87.87 0 001.41 0 1.72 1.72 0 00.24-.95v-.08a1.68 1.68 0 00-.24-.94.84.84 0 00-1.41 0 1.7 1.7 0 00-.23.94zm5.55-1.23h-.39a.81.81 0 00-.43.11.8.8 0 00-.28.31v2.77h-.89v-4h.82l.06.58a1.25 1.25 0 01.38-.48.91.91 0 01.55-.18h.28zM49.88.79H49V0h.89zm0 5H49v-4h.89zm1.96-.74h2.14v.72h-3.25v-.59l2.02-2.69h-1.98v-.72h3.12v.56l-2.05 2.72zm4.54.8A1.72 1.72 0 0155 5.29a2 2 0 01-.51-1.43v-.15A2.12 2.12 0 0155 2.27a1.73 1.73 0 012.5-.09A1.93 1.93 0 0158 3.5V4h-2.5a1.22 1.22 0 00.27.77.91.91 0 00.72.3 1.91 1.91 0 00.57-.07 2.17 2.17 0 00.5-.26l.29.59a1.89 1.89 0 01-.6.34 2.56 2.56 0 01-.87.14m-.1-3.44a.67.67 0 00-.55.27 1.3 1.3 0 00-.26.67h1.59v-.03a.94.94 0 00-.2-.62.68.68 0 00-.58-.25m2.23 1.41a2.6 2.6 0 01.41-1.54 1.33 1.33 0 011.15-.59 1.21 1.21 0 01.58.14 1.23 1.23 0 01.45.37V0h.9v5.77h-.76l-.08-.5a1.37 1.37 0 01-.47.43 1.28 1.28 0 01-.63.15 1.34 1.34 0 01-1.14-.54 2.23 2.23 0 01-.41-1.41zm.9.08a1.65 1.65 0 00.21.89.76.76 0 00.67.32 1 1 0 00.49-.11.84.84 0 00.32-.35V2.9a.93.93 0 00-.33-.35.89.89 0 00-.47-.12.71.71 0 00-.67.39 2 2 0 00-.22 1zm6.45-.17v2H65V.38h2.11a2 2 0 011.39.47 1.54 1.54 0 01.5 1.21 1.54 1.54 0 01-.51 1.21 2 2 0 01-1.39.46zm0-.72h1.21a1 1 0 00.75-.27.94.94 0 00.25-.68 1 1 0 00-.25-.68 1 1 0 00-.75-.27h-1.21zm6.25 2.76c0-.1-.06-.2-.08-.3a1.35 1.35 0 010-.29 1.72 1.72 0 01-.49.48 1.31 1.31 0 01-.68.19 1.33 1.33 0 01-1-.33 1.15 1.15 0 01-.33-.88 1 1 0 01.46-.9 2.18 2.18 0 011.29-.33H72v-.35a.63.63 0 00-.19-.49.86.86 0 00-1 0 .48.48 0 00-.18.38h-.87a1 1 0 01.42-.84 1.82 1.82 0 011.17-.37 1.7 1.7 0 011.13.36 1.28 1.28 0 01.43 1v1.75a3.59 3.59 0 000 .47 2.28 2.28 0 00.11.45zM71 5.13a1.17 1.17 0 00.62-.13.93.93 0 00.38-.43V4h-.72a.89.89 0 00-.61.19.58.58 0 00-.22.46.46.46 0 00.15.36.62.62 0 00.43.14m4.78-2.57h-.38a.84.84 0 00-.44.11.71.71 0 00-.27.32v2.76h-.9v-4h.82l.06.58a1.18 1.18 0 01.39-.48.89.89 0 01.55-.18h.28zM77.64.8v1h.71v.66h-.71v2.19a.49.49 0 00.1.35.39.39 0 00.29.1h.28l.09.65a.79.79 0 01-.27.1 1.24 1.24 0 01-.33 0 1.06 1.06 0 01-.8-.29 1.27 1.27 0 01-.28-.91V2.43h-.61v-.66h.61V.8zm2.36.97v.57a1.38 1.38 0 01.49-.47 1.27 1.27 0 01.67-.18 1.29 1.29 0 011 .38 1.73 1.73 0 01.35 1.18v2.52h-.9V3.26a.92.92 0 00-.19-.64.74.74 0 00-.57-.19.94.94 0 00-.47.12.87.87 0 00-.34.32v2.9h-.9v-4zm5.16 4.08a1.76 1.76 0 01-1.36-.56 2 2 0 01-.5-1.43v-.15a2.07 2.07 0 01.5-1.44 1.72 1.72 0 012.49-.09 1.93 1.93 0 01.43 1.32V4h-2.49a1.28 1.28 0 00.28.77.89.89 0 00.71.3 1.91 1.91 0 00.61-.07 2 2 0 00.5-.26l.29.59a1.89 1.89 0 01-.6.34 2.54 2.54 0 01-.86.14m-.11-3.44a.65.65 0 00-.54.27 1.23 1.23 0 00-.27.67h1.58v-.03a.94.94 0 00-.19-.62.7.7 0 00-.59-.25m4.4.17h-.38a.84.84 0 00-.44.11.71.71 0 00-.27.32v2.76h-.9v-4h.82l.06.58a1.18 1.18 0 01.39-.48.89.89 0 01.55-.18h.28z" fill="#8c9091"/></svg>