<svg id="Layer_1" data-name="Layer 1" xmlns="http://www.w3.org/2000/svg" viewBox="0 0 66.74 77"><defs><style>.cls-1{fill:#039b8e;stroke-miterlimit:10;}.cls-1,.cls-2{stroke:#039b8e;}.cls-2{fill:none;stroke-linecap:round;stroke-linejoin:round;stroke-width:3px;}</style></defs><path class="cls-1" d="M50.5,76.5a32.15,32.15,0,0,1-4.3-.45A32.5,32.5,0,0,1,39,73.82a59.84,59.84,0,0,1-9.58-5.25A71.64,71.64,0,0,1,18,59a75.22,75.22,0,0,1-7.93-9A66.09,66.09,0,0,1,5,42a44,44,0,0,1-2.9-6.71A36.23,36.23,0,0,1,.79,30a18,18,0,0,1-.28-3.55c.05-.76.07-1.19.07-1.3a.71.71,0,0,1,0-.14,7.45,7.45,0,0,1,.7-2.21,6.19,6.19,0,0,1,1.37-1.9L11.6,12a4,4,0,0,1,2.87-1.24,3.51,3.51,0,0,1,2.15.71A5.76,5.76,0,0,1,18,13l7.26,13.78a4.26,4.26,0,0,1,.43,3,5.23,5.23,0,0,1-1.42,2.66L21,35.73s0,0,0,.08,0,.11,0,.14A11.38,11.38,0,0,0,22,38.78a29.29,29.29,0,0,0,2.42,3.83,43,43,0,0,0,4.68,5.23,43.23,43.23,0,0,0,5.29,4.74A30.91,30.91,0,0,0,38.23,55a9.09,9.09,0,0,0,2.17.89l.67.14.11,0,.1,0,3.79-3.87a5.14,5.14,0,0,1,3.54-1.37,4.67,4.67,0,0,1,2.16.45.85.85,0,0,1,.24.09L64,59a4.39,4.39,0,0,1,2.16,2.89s0,0,0,.07A4.1,4.1,0,0,1,65,65.47l-9,8.92a6.08,6.08,0,0,1-1.86,1.33,7.41,7.41,0,0,1-2.22.7h-.14l-.3,0C51.22,76.48,50.9,76.5,50.5,76.5ZM2.57,25.29c0,.18,0,.62-.07,1.31a16.16,16.16,0,0,0,.26,3.13A35.15,35.15,0,0,0,4,34.65,40.93,40.93,0,0,0,6.78,41a63.17,63.17,0,0,0,4.91,7.74,72.92,72.92,0,0,0,7.73,8.79,69.69,69.69,0,0,0,11,9.33A59.11,59.11,0,0,0,39.71,72a31.28,31.28,0,0,0,6.79,2.1,30.69,30.69,0,0,0,4,.42l.79,0,.39,0a5.75,5.75,0,0,0,1.59-.51A4.26,4.26,0,0,0,54.55,73l9-9a2.12,2.12,0,0,0,.66-1.83A2.42,2.42,0,0,0,63,60.69l-12.86-7.6L49.92,53a2.56,2.56,0,0,0-1.31-.27,3.14,3.14,0,0,0-2.17.83l-3.8,3.87a2.07,2.07,0,0,1-.83.48,1.77,1.77,0,0,1-1,.14L40,57.88a11.21,11.21,0,0,1-2.68-1.07,31.44,31.44,0,0,1-4.08-2.62,45.34,45.34,0,0,1-5.53-4.93,45.05,45.05,0,0,1-4.88-5.48,31.29,31.29,0,0,1-2.59-4.09,13.48,13.48,0,0,1-1.3-3.5,1.23,1.23,0,0,1,0-.19,2.37,2.37,0,0,1,.16-.82,2.06,2.06,0,0,1,.47-.83L22.87,31a3.19,3.19,0,0,0,.88-1.66,2.33,2.33,0,0,0-.23-1.67L16.28,14a3.68,3.68,0,0,0-.86-.91,1.45,1.45,0,0,0-.95-.31,2,2,0,0,0-1.46.65l-9,9a4.2,4.2,0,0,0-1,1.31A5.86,5.86,0,0,0,2.57,25.29Z"/><line class="cls-2" x1="28.78" y1="14.98" x2="41.38" y2="6.58"/><line class="cls-2" x1="30.36" y1="22.75" x2="39.62" y2="24.02"/><line class="cls-2" x1="22.21" y1="10.55" x2="24.6" y2="1.5"/></svg>