<svg width="24" height="24" viewBox="0 0 24 24" fill="none" xmlns="http://www.w3.org/2000/svg">
<path d="M8.72134 5.40832C6.34134 8.07998 4.70801 11.9183 4.55634 12.28L0.333008 10.4716L5.05801 5.74665C5.60634 5.19832 6.39967 4.95332 7.16967 5.10498L8.72134 5.40832ZM11.0313 17.8333C11.0313 17.8333 15.3947 16.025 17.903 13.5166C24.203 7.21665 23.153 2.29332 22.8147 1.18498C21.7063 0.834983 16.783 -0.203351 10.483 6.09665C7.97467 8.60498 6.16634 12.9683 6.16634 12.9683L11.0313 17.8333ZM18.5913 15.2783C15.9197 17.6583 12.0813 19.2916 11.7197 19.4433L13.528 23.6666L18.253 18.9416C18.8013 18.3933 19.0463 17.6 18.8947 16.83L18.5913 15.2783ZM8.49967 19C8.49967 19.9683 8.10301 20.8433 7.47301 21.4733C6.09634 22.85 0.333008 23.6666 0.333008 23.6666C0.333008 23.6666 1.14967 17.9033 2.52634 16.5266C3.15634 15.8966 4.03134 15.5 4.99967 15.5C6.93634 15.5 8.49967 17.0633 8.49967 19ZM13.1663 8.49998C13.1663 7.21665 14.2163 6.16665 15.4997 6.16665C16.783 6.16665 17.833 7.21665 17.833 8.49998C17.833 9.78332 16.783 10.8333 15.4997 10.8333C14.2163 10.8333 13.1663 9.78332 13.1663 8.49998Z" fill="#039B8E"/>
</svg>
