<svg width="25" height="25" viewBox="0 0 25 25" fill="none" xmlns="http://www.w3.org/2000/svg">
<path d="M24.6578 0.932617C24.6264 0.786498 24.5535 0.65255 24.4479 0.546873C24.3422 0.441197 24.2082 0.368289 24.0621 0.336914C22.4899 0 21.2599 0 20.0343 0C14.9952 0 11.9728 2.69531 9.71739 6.25H4.6295C4.19498 6.25037 3.76912 6.37152 3.39948 6.59993C3.02983 6.82834 2.73096 7.15501 2.53624 7.54346L0.123155 12.3677C0.0340395 12.5464 -0.0079282 12.7449 0.00123432 12.9444C0.0103968 13.1439 0.0703856 13.3377 0.175507 13.5075C0.280629 13.6773 0.427396 13.8174 0.60188 13.9145C0.776363 14.0117 0.972774 14.0626 1.17247 14.0625H6.23937L5.1422 15.1597C4.84924 15.4527 4.68467 15.8501 4.68467 16.2644C4.68467 16.6787 4.84924 17.0761 5.1422 17.3691L7.62755 19.855C7.77264 20.0001 7.94491 20.1152 8.1345 20.1938C8.3241 20.2723 8.52731 20.3128 8.73253 20.3128C8.93775 20.3128 9.14096 20.2723 9.33055 20.1938C9.52015 20.1152 9.69241 20.0001 9.83751 19.855L10.9347 18.7578V23.8281C10.9346 24.0278 10.9856 24.2241 11.0827 24.3985C11.1798 24.5729 11.3198 24.7197 11.4895 24.8248C11.6593 24.9299 11.853 24.9899 12.0524 24.9991C12.2519 25.0083 12.4503 24.9664 12.629 24.8774L17.4483 22.4658C17.8374 22.2715 18.1646 21.9725 18.3932 21.6025C18.6218 21.2324 18.7427 20.806 18.7423 20.3711V15.2729C22.2867 13.0122 24.9923 9.97998 24.9923 4.96582C24.9972 3.73535 24.9972 2.50488 24.6578 0.932617ZM18.7472 8.20312C18.3609 8.20312 17.9833 8.08858 17.6621 7.87396C17.3409 7.65935 17.0906 7.35432 16.9427 6.99743C16.7949 6.64054 16.7562 6.24783 16.8316 5.86896C16.9069 5.4901 17.093 5.14208 17.3661 4.86893C17.6393 4.59578 17.9873 4.40977 18.3661 4.3344C18.745 4.25904 19.1377 4.29772 19.4946 4.44555C19.8515 4.59338 20.1565 4.84371 20.3711 5.1649C20.5858 5.48609 20.7003 5.86371 20.7003 6.25C20.7003 6.768 20.4945 7.26479 20.1282 7.63107C19.762 7.99735 19.2652 8.20312 18.7472 8.20312Z" fill="#039B8E"/>
</svg>
