<svg id="Layer_1" data-name="Layer 1" xmlns="http://www.w3.org/2000/svg" viewBox="0 0 130 130"><defs><style>.cls-2{fill:none;stroke:#818181;stroke-linejoin:round;stroke-width:3px}.cls-3{fill:#039b8e;stroke:#039b8e;stroke-miterlimit:10;stroke-width:2px}</style></defs><circle cx="65" cy="65" r="65" fill="#f5f5f5"/><path class="cls-2" d="M63 60.63c-12.33-11.11-24.57-16.76-28.43-12.9C30.3 52 37.81 66.44 51.34 80s28 21 32.25 16.77c3.86-3.86-1.79-16.1-12.9-28.38"/><path class="cls-2" d="M34.57 47.73c-10 10-7.08 29 6.45 42.57s32.6 16.42 42.57 6.45M56.5 74.82l19.35-19.35m2.01 3.15l-5.16-5.15"/><path class="cls-3" d="M85.12 54.14a.51.51 0 01-.15-.35A7.94 7.94 0 0076.89 46a.52.52 0 01-.52-.5.5.5 0 01.5-.51A8.93 8.93 0 0186 53.77a.5.5 0 01-.5.51.48.48 0 01-.38-.14zm8.95-.14a.5.5 0 01-.16-.35A16.91 16.91 0 0076.73 37a.49.49 0 01-.51-.49.5.5 0 01.49-.52 17.93 17.93 0 0118.22 17.62.5.5 0 01-.5.51.47.47 0 01-.36-.12z"/><path class="cls-3" d="M102.78 53.83a.52.52 0 01-.16-.36 25.59 25.59 0 00-26-25.14.5.5 0 01-.52-.49.52.52 0 01.5-.52 26.62 26.62 0 0127.08 26.13.52.52 0 01-.5.52.51.51 0 01-.4-.14z"/></svg>