<svg id="Layer_1" data-name="Layer 1" xmlns="http://www.w3.org/2000/svg" viewBox="0 0 77.15 75"><defs><style>.cls-1,.cls-2{fill:#039b8e;}.cls-1{fill-rule:evenodd;}</style></defs><path class="cls-1" d="M26.27,33.92,16.05,23.7l-3.76.16a1,1,0,0,1-.81-.37L.47,10A1,1,0,0,1,.55,8.62l5.9-5.89a1,1,0,0,1,1.34-.06l13.52,11a1,1,0,0,1,.36.82l-.17,3.75L31.72,28.47l5.75-5.74A19.87,19.87,0,0,1,38.25,14,19.83,19.83,0,0,1,53,.69a19.87,19.87,0,0,1,11.23.88,1,1,0,0,1,.58,1.28,1,1,0,0,1-.23.35h0L53,14.71l2.19,7.22,7.22,2.19L74,12.62a1,1,0,0,1,1.41,0,1.06,1.06,0,0,1,.24.39A19.81,19.81,0,0,1,54.16,39.64L70.79,56.27l0,.06a6,6,0,0,1,0,8.4l-.92.91v0L62.52,73a6,6,0,0,1-8.45,0h0L37.46,56.39,21.1,73a6,6,0,0,1-1.93,1.33l0,0a6.22,6.22,0,0,1-2.26.43,6,6,0,0,1-2.3-.44,6.14,6.14,0,0,1-2-1.31L4.15,64.5a6,6,0,0,1,0-8.45h0L26.27,33.92ZM43.32,50.45,62.74,70l5-5L48.3,45.42l-5,5Zm18,20.92-19.4-19.5L38.86,55,55.47,71.59h0a4,4,0,0,0,5.64,0l.22-.22ZM41,50a.94.94,0,0,1,.2-.29l6.4-6.41h0L52,38.88l0,0,1.08-1.1a1,1,0,0,1,1.33-.12l.05,0A18,18,0,0,0,62.57,37,17.82,17.82,0,0,0,74.22,15.17L63.43,26h0a1,1,0,0,1-1,.25l-8.3-2.53h0a1,1,0,0,1-.66-.66L51,14.8a1,1,0,0,1,.22-1.08L62,2.93a18,18,0,0,0-8.62-.29A17.89,17.89,0,0,0,40.14,14.57a18.07,18.07,0,0,0-.64,8.29.51.51,0,0,1,0,.13,1,1,0,0,1-.34.85l-6.75,6.75-4.05,4L5.56,57.46h0a4,4,0,0,0,0,5.63L14,71.57a4,4,0,0,0,1.29.88,4.11,4.11,0,0,0,1.55.29,4,4,0,0,0,1.48-.28l0,0a3.94,3.94,0,0,0,1.28-.89l17-17.22,0,0,0,0L41,50Zm8.71-6L69.15,63.55l.23-.23a4,4,0,0,0,.05-5.59l-.05,0L52.68,41l-3,3ZM11.45,59.22l6.47,6.47,6.47-6.47-6.47-6.47-6.47,6.47Zm5.77,8.59a1,1,0,0,0,1.41,0l7.88-7.88a1,1,0,0,0,0-1.41l-7.88-7.88a1,1,0,0,0-1.41,0L9.34,58.52a1,1,0,0,0,0,1.41l7.88,7.88ZM17.14,22,27.68,32.52l2.64-2.64L19.78,19.34a1.09,1.09,0,0,1-.29-.74l.17-3.69L7.22,4.76,2.58,9.4,12.71,21.85l3.68-.16a1,1,0,0,1,.75.3ZM7.78,2.66h0Z"/><path class="cls-2" d="M58.29,75a6.17,6.17,0,0,1-4.37-1.79l0,0L37.46,56.75,21.28,73.13a6,6,0,0,1-2,1.38,6.25,6.25,0,0,1-2.39.47,6.09,6.09,0,0,1-4.43-1.83L4,64.68a6.24,6.24,0,0,1,0-8.78l0,0L25.91,33.92,16,24l-3.65.15a1.23,1.23,0,0,1-1-.46L.28,10.12a1.25,1.25,0,0,1,.1-1.68L6.27,2.55a1.26,1.26,0,0,1,1.65-.11l0,0,13.51,11a1.3,1.3,0,0,1,.46,1l-.17,3.64,10,10,5.48-5.48A20.23,20.23,0,0,1,38,13.89a19.74,19.74,0,0,1,4.9-8A20,20,0,0,1,64.27,1.33,1.24,1.24,0,0,1,65,2.94a1.22,1.22,0,0,1-.28.44l-11.4,11.4,2.12,6.94,6.94,2.12,11.4-11.4a1.25,1.25,0,0,1,1.77,0,1.39,1.39,0,0,1,.3.48,20.09,20.09,0,0,1-4.57,21.32,19.81,19.81,0,0,1-8,4.9,20.19,20.19,0,0,1-8.39.85L71,56.16A6.24,6.24,0,0,1,71,64.91L62.7,73.18A6.22,6.22,0,0,1,58.29,75Zm-4.08-2.22,0,0a5.73,5.73,0,0,0,8.09,0l8.27-8.27a5.73,5.73,0,0,0,0-8l-.06-.06L54,39.82a.26.26,0,0,1,0-.3.23.23,0,0,1,.26-.13,19.77,19.77,0,0,0,8.91-.73,19.27,19.27,0,0,0,7.81-4.78A19.52,19.52,0,0,0,75.36,13.1a.69.69,0,0,0-.18-.3.74.74,0,0,0-1.05,0L62.62,24.3a.24.24,0,0,1-.25.07l-7.22-2.2A.24.24,0,0,1,55,22l-2.2-7.22a.25.25,0,0,1,.07-.25L64.35,3a.73.73,0,0,0,.17-.26.75.75,0,0,0-.43-1A19.56,19.56,0,0,0,43.27,6.23,19.4,19.4,0,0,0,38.49,14a19.79,19.79,0,0,0-.77,8.65.26.26,0,0,1-.07.22L31.9,28.65a.23.23,0,0,1-.18.08h0a.27.27,0,0,1-.18-.08L21.32,18.42a.26.26,0,0,1-.07-.19l.17-3.75a.73.73,0,0,0-.27-.6L7.63,2.87h0a.74.74,0,0,0-1,.05L.73,8.8a.75.75,0,0,0-.06,1l11,13.53a.72.72,0,0,0,.6.28L16,23.44a.27.27,0,0,1,.19.08L26.45,33.75a.24.24,0,0,1,0,.35L4.36,56.2h0a5.7,5.7,0,0,0-1.69,4.07,5.65,5.65,0,0,0,1.67,4L12.8,72.8a5.6,5.6,0,0,0,4.07,1.67,5.49,5.49,0,0,0,4.05-1.7L37.28,56.21a.24.24,0,0,1,.18-.07h0a.24.24,0,0,1,.18.07Zm4.08.23a4.22,4.22,0,0,1-3-1.24l0,0L38.68,55.15a.24.24,0,0,1,0-.35l3.07-3.11a.24.24,0,0,1,.18-.07h0a.24.24,0,0,1,.18.07l19.4,19.5a.24.24,0,0,1,0,.36l-.22.22A4.2,4.2,0,0,1,58.29,73Zm-2.6-1.56a3.74,3.74,0,0,0,5.24,0l0,0-19-19.14L39.22,55,55.65,71.41A.08.08,0,0,1,55.69,71.45ZM16.87,73a4.39,4.39,0,0,1-1.64-.31,4.23,4.23,0,0,1-1.38-.94L5.38,63.27a4.24,4.24,0,0,1,0-6L39,23.66a.76.76,0,0,0,.27-.65s0-.07,0-.1a18.27,18.27,0,0,1,.65-8.41A18.12,18.12,0,0,1,53.31,2.39a18.33,18.33,0,0,1,8.74.29.27.27,0,0,1,.18.19.24.24,0,0,1-.07.24L51.38,13.9a.72.72,0,0,0-.17.8l2.51,8.24a.75.75,0,0,0,.49.49L62.51,26a.73.73,0,0,0,.74-.19l0,0L74,15a.24.24,0,0,1,.24-.07.24.24,0,0,1,.18.18,18.09,18.09,0,0,1,.29,8.74,18.09,18.09,0,0,1-12.1,13.41,18.34,18.34,0,0,1-8.23.68l-.12,0a.75.75,0,0,0-1,0l-5.49,5.55s0,0-.05.05l-6.36,6.36a.74.74,0,0,0-.15.21.35.35,0,0,1,0,.08L19.86,71.73a4.16,4.16,0,0,1-1.36.94A4.35,4.35,0,0,1,16.87,73ZM57.09,2.5A17.62,17.62,0,0,0,40.38,14.65a17.8,17.8,0,0,0-.63,8.17.59.59,0,0,1,0,.14A1.22,1.22,0,0,1,39.35,24L5.74,57.64a3.73,3.73,0,0,0,0,5.27l8.47,8.48a3.9,3.9,0,0,0,1.21.83,3.84,3.84,0,0,0,2.83,0,3.72,3.72,0,0,0,1.25-.84L40.78,49.85a1.18,1.18,0,0,1,.23-.32l6.4-6.41,0,0,5.45-5.51a1.25,1.25,0,0,1,1.66-.15,17.89,17.89,0,0,0,7.93-.66,17.57,17.57,0,0,0,11.6-21.11L63.61,26.13l0,0a1.26,1.26,0,0,1-1.21.29l-8.31-2.54a1.28,1.28,0,0,1-.83-.82l-2.5-8.22A1.23,1.23,0,0,1,51,13.54L61.49,3.06A17.63,17.63,0,0,0,57.09,2.5ZM41,50h0ZM62.74,70.21h0a.24.24,0,0,1-.18-.07L43.14,50.63a.24.24,0,0,1,0-.35l5-5a.26.26,0,0,1,.18-.07h0a.23.23,0,0,1,.18.07L67.93,64.77a.27.27,0,0,1,0,.36l-5,5A.24.24,0,0,1,62.74,70.21ZM43.68,50.45,62.74,69.6,67.39,65,48.3,45.78ZM17.92,68.35A1.24,1.24,0,0,1,17,68h0L9.16,60.11a1.24,1.24,0,0,1-.37-.89,1.26,1.26,0,0,1,.37-.88L17,50.46a1.27,1.27,0,0,1,1.77,0l7.88,7.88a1.25,1.25,0,0,1,.36.88,1.27,1.27,0,0,1-.36.89L18.81,68A1.28,1.28,0,0,1,17.92,68.35Zm-.52-.72a.74.74,0,0,0,1.05,0l7.88-7.88a.7.7,0,0,0,.21-.53.72.72,0,0,0-.21-.52l-7.88-7.88a.74.74,0,0,0-1.05,0L9.52,58.7a.73.73,0,0,0-.22.52.75.75,0,0,0,.22.53ZM17.92,66a.27.27,0,0,1-.18-.08L11.28,59.4a.25.25,0,0,1,0-.36l6.46-6.47a.27.27,0,0,1,.36,0L24.57,59a.27.27,0,0,1,.08.18.23.23,0,0,1-.08.18L18.1,65.87A.25.25,0,0,1,17.92,66Zm-6.11-6.73,6.11,6.11L24,59.22l-6.11-6.11ZM69.15,63.8h0a.24.24,0,0,1-.18-.07L49.52,44.18a.24.24,0,0,1,0-.35l3-3a.27.27,0,0,1,.18-.08h0a.23.23,0,0,1,.18.08L69.61,57.55a4.25,4.25,0,0,1,0,6l-.23.23A.24.24,0,0,1,69.15,63.8ZM50.06,44,69.15,63.19l0,0a3.74,3.74,0,0,0,0-5.23l0,0L52.68,41.35ZM27.68,32.78a.25.25,0,0,1-.18-.08L17,22.17h0A.64.64,0,0,0,16.4,22l-3.68.16a.32.32,0,0,1-.21-.1L2.38,9.56a.26.26,0,0,1,0-.34L7,4.58a.25.25,0,0,1,.34,0L19.82,14.71a.25.25,0,0,1,.1.21l-.17,3.69a.73.73,0,0,0,.22.55L30.5,29.7a.27.27,0,0,1,0,.36L27.86,32.7A.27.27,0,0,1,27.68,32.78Zm-10.35-11L27.68,32.16,30,29.88,19.61,19.52a1.27,1.27,0,0,1-.37-.93L19.4,15,7.24,5.11,2.92,9.42l9.91,12.17,3.55-.15A1.38,1.38,0,0,1,17.33,21.81Z"/></svg>