<?xml version="1.0" encoding="UTF-8"?>
<svg width="28px" height="22px" viewBox="0 0 28 22" version="1.1" xmlns="http://www.w3.org/2000/svg" xmlns:xlink="http://www.w3.org/1999/xlink">
    <title>Group 9 Copy 13</title>
    <g id="Page-1" stroke="none" stroke-width="1" fill="none" fill-rule="evenodd">
        <g id="Desktop_Deals_tile" transform="translate(-360.000000, -668.000000)">
            <g id="Group-9-Copy-13" transform="translate(361.000000, 669.000000)">
                <path d="M12.5968073,11.0391372 L12.4432703,11.0391372 C11.3612861,11.0391372 10.4761905,11.9766978 10.4761905,13.1386162 C10.4761905,14.3023587 11.3612861,15.2380952 12.4432703,15.2380952 C13.5252546,15.2380952 14.3958997,14.3023587 14.3958997,13.1386162 L14.3958997,12.9689798 L18.0952381,7.61904762" id="Fill-1" fill="#818181"></path>
                <path d="M23.2920036,20 C24.8050314,18.1074424 25.7142857,15.7545329 25.7142857,13.2004325 C25.7142857,6.97204237 20.3737646,1.9047619 13.8095238,1.9047619 C7.24528302,1.9047619 1.9047619,6.97204237 1.9047619,13.2004325 C1.9047619,15.7545329 2.81401617,18.1074424 4.32524708,20" id="Stroke-3" stroke="#818181" stroke-width="0.25"></path>
                <path d="M1.3559322,12.9807269 C1.3559322,6.55108686 6.72903955,1.32007392 13.3333333,1.32007392 C19.9376271,1.32007392 25.3107345,6.55108686 25.3107345,12.9807269 C25.3107345,15.6173546 24.3959322,18.0462906 22.8736723,20 L24.5315254,20 C25.8766102,17.9741266 26.6666667,15.5680718 26.6666667,12.9807269 C26.6666667,5.82416615 20.6842938,0 13.3333333,0 C5.98237288,0 0,5.82416615 0,12.9807269 C0,15.5680718 0.790056497,17.9741266 2.13514124,20 L3.79299435,20 C2.27073446,18.0462906 1.3559322,15.6173546 1.3559322,12.9807269" id="Fill-5" fill="#818181"></path>
                <path d="M1.3559322,12.9807269 C1.3559322,6.55108686 6.72903955,1.32007392 13.3333333,1.32007392 C19.9376271,1.32007392 25.3107345,6.55108686 25.3107345,12.9807269 C25.3107345,15.6173546 24.3959322,18.0462906 22.8736723,20 L24.5315254,20 C25.8766102,17.9741266 26.6666667,15.5680718 26.6666667,12.9807269 C26.6666667,5.82416615 20.6842938,0 13.3333333,0 C5.98237288,0 0,5.82416615 0,12.9807269 C0,15.5680718 0.790056497,17.9741266 2.13514124,20 L3.79299435,20 C2.27073446,18.0462906 1.3559322,15.6173546 1.3559322,12.9807269 Z" id="Stroke-7" stroke="#818181" stroke-width="0.25" stroke-linecap="round" stroke-linejoin="round"></path>
            </g>
        </g>
    </g>
</svg>