<svg id="Layer_1" data-name="Layer 1" xmlns="http://www.w3.org/2000/svg" viewBox="0 0 131 131"><defs><style>.cls-2{fill:#039b8e}</style></defs><circle cx="65.5" cy="65.5" r="65" fill="#f5f5f5" stroke="#f5f5f5" stroke-miterlimit="10"/><path class="cls-2" d="M65.5 115.65a20.06 20.06 0 01-20-20v-1a1.49 1.49 0 010-.21V39.33a.83.83 0 01.84-.84H84.7a.83.83 0 01.84.84v55.08a1.5 1.5 0 010 .22v1a20.06 20.06 0 01-20.04 20.02zM47.14 94.18a.9.9 0 010 .28v1.15a18.36 18.36 0 0036.72 0v-1.15a1.1 1.1 0 010-.31v-54H47.14z"/><path class="cls-2" d="M65.5 116.48a20.89 20.89 0 01-20.87-20.87v-.93a1.23 1.23 0 010-.27V39.33a1.67 1.67 0 011.67-1.67h38.4a1.67 1.67 0 011.67 1.67v55.08a1.27 1.27 0 010 .28v.92a20.89 20.89 0 01-20.87 20.87zM46.3 39.32v56.34a19.21 19.21 0 1038.42 0V39.33zm19.2 75.48a19.21 19.21 0 01-19.19-19.19V39.34h38.38v56.27A19.21 19.21 0 0165.5 114.8zM48 94.07a2.25 2.25 0 010 .44v1.1a17.53 17.53 0 1035.06 0v-1.1a1.79 1.79 0 010-.46V41H48z"/><circle class="cls-2" cx="53.88" cy="48.99" r="2.14"/><circle class="cls-2" cx="65.85" cy="48.99" r="2.14"/><circle class="cls-2" cx="77.83" cy="48.99" r="2.14"/><circle class="cls-2" cx="53.88" cy="59.74" r="2.14"/><circle class="cls-2" cx="65.85" cy="59.74" r="2.14"/><circle class="cls-2" cx="77.83" cy="59.74" r="2.14"/><circle class="cls-2" cx="53.88" cy="70.48" r="2.14"/><circle class="cls-2" cx="65.85" cy="70.48" r="2.14"/><circle class="cls-2" cx="77.83" cy="70.48" r="2.14"/><path class="cls-2" d="M66.05 105.3a10.49 10.49 0 1110.5-10.49 10.51 10.51 0 01-10.5 10.49zm0-17.66a7.17 7.17 0 107.17 7.17 7.17 7.17 0 00-7.17-7.17zm-.59-56.28a1.25 1.25 0 01-1.24-1.25V15.76a1.25 1.25 0 012.49 0v14.35a1.25 1.25 0 01-1.25 1.25zm6.95 2.84a1.22 1.22 0 01-.82-.31 1.24 1.24 0 01-.11-1.76l5.87-6.64a1.25 1.25 0 011.76-.1 1.23 1.23 0 01.11 1.75l-5.88 6.64a1.21 1.21 0 01-.93.42zm-13.9 0a1.24 1.24 0 01-.93-.42l-5.87-6.64a1.24 1.24 0 011.86-1.65l5.88 6.64a1.26 1.26 0 01-.11 1.76 1.24 1.24 0 01-.83.31z"/></svg>
