<svg id="Layer_1" data-name="Layer 1" xmlns="http://www.w3.org/2000/svg" viewBox="0 0 77 77"><defs><style>.cls-1,.cls-2{fill:#039b8e;}.cls-1,.cls-3,.cls-4{stroke:#039b8e;}.cls-1,.cls-3{stroke-miterlimit:10;}.cls-3,.cls-4{fill:none;stroke-width:3px;}.cls-4{stroke-linecap:round;stroke-linejoin:round;}</style></defs><path class="cls-1" d="M6.13,70.87a19.25,19.25,0,0,1,0-27.21c.23-.23.46-.44.69-.65l.12-.16L44.36,5.45a.81.81,0,0,1,1.14,0L71.59,31.53a.8.8,0,0,1,0,1.14L34.17,70.06l-.16.13c-.21.23-.42.46-.65.68A19.27,19.27,0,0,1,6.13,70.87Zm2.11-27a.69.69,0,0,1-.16.22q-.42.36-.81.75a17.64,17.64,0,0,0,25,24.93c.26-.26.51-.53.75-.8a.88.88,0,0,1,.24-.19L69.88,32.1,44.93,7.17Z"/><circle class="cls-2" cx="43.52" cy="17.73" r="2.06"/><circle class="cls-2" cx="51.65" cy="25.86" r="2.06"/><circle class="cls-2" cx="59.79" cy="33.99" r="2.06"/><circle class="cls-2" cx="36.22" cy="25.03" r="2.06"/><circle class="cls-2" cx="44.36" cy="33.16" r="2.06"/><circle class="cls-2" cx="52.49" cy="41.28" r="2.06"/><circle class="cls-2" cx="28.92" cy="32.32" r="2.06"/><circle class="cls-2" cx="37.06" cy="40.45" r="2.06"/><circle class="cls-2" cx="45.19" cy="48.58" r="2.06"/><ellipse class="cls-3" cx="20.67" cy="57.1" rx="8.48" ry="8.48"/><line class="cls-4" x1="64.21" y1="12.78" x2="73.96" y2="3.04"/><line class="cls-4" x1="67" y1="19.43" x2="75.5" y2="18.91"/><line class="cls-4" x1="57.56" y1="9.99" x2="58.08" y2="1.5"/></svg>