<svg data-name="Layer 1" xmlns="http://www.w3.org/2000/svg" viewBox="0 0 30 30"><circle cx="15" cy="15" r="15" fill="#f5f5f5" data-name="Dark Blue"/><path d="M12.25 22.91a10.21 10.21 0 0010.29-10.13v-.62a7.15 7.15 0 001.8-1.88 7.16 7.16 0 01-2.07.57 3.59 3.59 0 001.59-2 7.31 7.31 0 01-2.3.88 3.62 3.62 0 00-6.25 2.47 3.84 3.84 0 00.09.83A10.24 10.24 0 018 9.25a3.61 3.61 0 001.12 4.82 3.47 3.47 0 01-1.63-.45v.05a3.61 3.61 0 002.9 3.54 3.4 3.4 0 01-1 .13 3.08 3.08 0 01-.68-.07 3.6 3.6 0 003.37 2.52 7.29 7.29 0 01-4.49 1.54 6.17 6.17 0 01-.86 0A10.1 10.1 0 0012.3 23" fill="#2c2c2c" data-name="Logo FIXED"/></svg>
