<?xml version="1.0" encoding="utf-8"?>
<!-- Generator: Adobe Illustrator 25.2.1, SVG Export Plug-In . SVG Version: 6.00 Build 0)  -->
<svg version="1.1" id="Layer_1" xmlns="http://www.w3.org/2000/svg" xmlns:xlink="http://www.w3.org/1999/xlink" x="0px" y="0px"
	 width="49px" height="49px" viewBox="0 0 49 49" style="enable-background:new 0 0 49 49;" xml:space="preserve">
<style type="text/css">
	.st0{fill:#FFFFFF;}
</style>
<path class="st0" d="M24.5,0C11,0,0,11,0,24.5S11,49,24.5,49C38,49,49,38,49,24.5S38,0,24.5,0z M36.4,18.4c0,0.3,0,0.5,0,0.8
	c0,8.1-6.2,17.5-17.5,17.5c-3.5,0-6.7-1-9.4-2.8C10,34,10.5,34,11,34c2.9,0,5.5-1,7.6-2.6c-2.7-0.1-5-1.9-5.8-4.3
	c0.4,0.1,0.8,0.1,1.2,0.1c0.6,0,1.1-0.1,1.6-0.2c-2.8-0.6-4.9-3.1-4.9-6.1c0,0,0,0,0-0.1c0.8,0.5,1.8,0.7,2.8,0.8
	c-1.6-1.1-2.7-3-2.7-5.1c0-1.1,0.3-2.2,0.8-3.1c3,3.7,7.6,6.2,12.7,6.4c-0.1-0.4-0.1-0.9-0.1-1.4c0-3.4,2.7-6.2,6.2-6.2
	c1.8,0,3.4,0.7,4.5,1.9c1.4-0.3,2.7-0.8,3.9-1.5c-0.5,1.4-1.4,2.6-2.7,3.4c1.2-0.2,2.4-0.5,3.5-1C38.7,16.4,37.7,17.5,36.4,18.4z"/>
</svg>
