<svg width="25" height="24" viewBox="0 0 25 24" fill="none" xmlns="http://www.w3.org/2000/svg">
<path d="M22.4302 5.98046C22.446 6.23147 22.446 6.48254 22.446 6.73355C22.446 14.3897 17.2906 23.2114 7.86801 23.2114C4.96508 23.2114 2.26841 22.2611 0 20.6116C0.412451 20.6653 0.808984 20.6833 1.2373 20.6833C3.63257 20.6833 5.83754 19.7689 7.59833 18.2089C5.3458 18.1551 3.4581 16.4876 2.80771 14.1925C3.125 14.2463 3.44223 14.2822 3.77539 14.2822C4.2354 14.2822 4.69545 14.2104 5.12373 14.085C2.77602 13.547 1.01518 11.2161 1.01518 8.40105V8.32936C1.69726 8.75969 2.49048 9.02864 3.33115 9.06445C1.95107 8.02448 1.04692 6.24941 1.04692 4.24121C1.04692 3.16542 1.30068 2.17926 1.74487 1.3186C4.26709 4.83292 8.05834 7.12795 12.3096 7.37902C12.2303 6.94869 12.1827 6.50048 12.1827 6.05221C12.1827 2.86059 14.4669 0.260742 17.3064 0.260742C18.7816 0.260742 20.1141 0.960019 21.05 2.08962C22.208 1.83861 23.3184 1.35447 24.3019 0.691071C23.9212 2.03587 23.1122 3.16547 22.0494 3.88263C23.0805 3.75718 24.0799 3.43437 24.9999 2.98616C24.302 4.13364 23.4295 5.15562 22.4302 5.98046Z" fill="white"/>
</svg>
