<svg width="40" height="58" viewBox="0 0 40 58" fill="none" xmlns="http://www.w3.org/2000/svg">
<path d="M20.0535 0C10.9808 0 5.1043 3.70464 0.490674 10.3115C-0.346255 11.5101 -0.0882312 13.1533 1.07924 14.0355L5.9826 17.7409C7.16166 18.6318 8.83927 18.4235 9.76236 17.271C12.6096 13.7161 14.7216 11.6693 19.1691 11.6693C22.6659 11.6693 26.9912 13.9122 26.9912 17.2916C26.9912 19.8463 24.875 21.1583 21.4223 23.0875C17.3959 25.3373 12.0676 28.1371 12.0676 35.1412V36.25C12.0676 37.7515 13.289 38.9688 14.7956 38.9688H23.0332C24.5398 38.9688 25.7612 37.7515 25.7612 36.25V35.596C25.7612 30.7408 40 30.5386 40 17.4C40.0001 7.50556 29.7017 0 20.0535 0ZM18.9145 42.3059C14.5729 42.3059 11.0407 45.8261 11.0407 50.153C11.0407 54.4798 14.5729 58 18.9145 58C23.2561 58 26.7883 54.4798 26.7883 50.1529C26.7883 45.826 23.2561 42.3059 18.9145 42.3059Z" fill="#0791ED"/>
</svg>
