<svg width="423" height="150" viewBox="0 0 423 150" fill="none" xmlns="http://www.w3.org/2000/svg">
<g opacity="0.6">
<path d="M271.993 149.1V37.8584H170.194V149.1" fill="#C7E9F4"/>
<path d="M303.936 148.716V21.1104L338.641 0.383789L373.07 21.1104V149.272" fill="#C7E9F4"/>
<path d="M382.784 123.085C383.263 125.304 384.432 127.311 386.123 128.814C387.813 130.316 389.936 131.235 392.181 131.436C394.426 131.638 396.676 131.111 398.603 129.933C400.53 128.756 402.034 126.988 402.894 124.889C403.29 126.667 404.164 128.301 405.42 129.612C406.676 130.923 408.267 131.86 410.017 132.32C411.766 132.781 413.608 132.747 415.34 132.222C417.072 131.698 418.628 130.703 419.836 129.346C421.044 127.99 421.857 126.325 422.188 124.533C422.519 122.741 422.354 120.893 421.711 119.189C421.068 117.486 419.972 115.994 418.543 114.877C417.114 113.76 415.407 113.061 413.61 112.856C414.265 111.907 414.717 110.832 414.938 109.698C415.159 108.564 415.144 107.396 414.893 106.268C414.643 105.14 414.162 104.077 413.483 103.146C412.803 102.215 411.939 101.437 410.945 100.86C409.951 100.283 408.849 99.9202 407.709 99.7948C406.569 99.6695 405.415 99.7842 404.321 100.132C403.227 100.479 402.217 101.052 401.354 101.813C400.491 102.574 399.795 103.508 399.309 104.555C398.524 103.759 397.474 103.285 396.362 103.224C395.251 103.163 394.156 103.519 393.29 104.224C392.423 104.929 391.847 105.932 391.673 107.04C391.498 108.148 391.737 109.282 392.344 110.223C390.82 110.289 389.329 110.696 387.979 111.413C386.63 112.131 385.455 113.141 384.54 114.372C383.626 115.603 382.993 117.023 382.69 118.529C382.386 120.036 382.418 121.592 382.784 123.085Z" fill="#C0E3CF"/>
<path d="M412.507 133.274C410.413 133.268 408.368 132.636 406.631 131.459C404.894 130.281 403.543 128.61 402.749 126.658C401.791 128.266 400.45 129.61 398.848 130.567C397.246 131.524 395.433 132.065 393.572 132.142C391.711 132.218 389.861 131.827 388.187 131.004C386.513 130.18 385.069 128.951 383.984 127.426C382.898 125.901 382.206 124.128 381.97 122.266C381.733 120.405 381.96 118.513 382.629 116.762C383.298 115.01 384.388 113.454 385.802 112.233C387.216 111.011 388.909 110.163 390.729 109.764C390.926 109.724 391.123 109.694 391.315 109.667C391.217 109.423 391.139 109.17 391.083 108.913C390.86 107.888 390.95 106.819 391.34 105.846C391.731 104.873 392.404 104.042 393.271 103.461C394.139 102.881 395.161 102.578 396.202 102.593C397.244 102.608 398.256 102.94 399.107 103.545C400.309 101.546 402.236 100.097 404.479 99.5033C406.722 98.9097 409.107 99.2183 411.128 100.364C413.15 101.51 414.65 103.402 415.312 105.642C415.973 107.882 415.744 110.293 414.674 112.366C417.179 112.94 419.389 114.42 420.886 116.524C422.382 118.629 423.061 121.214 422.794 123.789C422.527 126.364 421.333 128.751 419.437 130.499C417.542 132.247 415.076 133.234 412.507 133.274ZM403.073 122.728L403.533 124.748C403.902 126.407 404.718 127.933 405.89 129.156C407.063 130.38 408.547 131.254 410.18 131.684C411.814 132.114 413.532 132.082 415.149 131.593C416.766 131.103 418.217 130.175 419.345 128.909C420.472 127.643 421.232 126.089 421.541 124.417C421.85 122.745 421.696 121.019 421.096 119.429C420.496 117.84 419.473 116.447 418.139 115.404C416.806 114.361 415.213 113.709 413.536 113.518L412.454 113.39L413.067 112.508C413.663 111.634 414.072 110.646 414.27 109.605C414.468 108.564 414.45 107.493 414.218 106.459C413.985 105.426 413.542 104.452 412.918 103.599C412.293 102.747 411.5 102.033 410.588 101.505C409.677 100.976 408.666 100.643 407.621 100.526C406.575 100.41 405.517 100.513 404.513 100.829C403.509 101.145 402.581 101.667 401.787 102.362C400.993 103.057 400.35 103.91 399.9 104.868L399.501 105.702L398.845 105.053C398.255 104.462 397.49 104.079 396.666 103.962C395.842 103.845 395.003 104 394.274 104.403C393.544 104.807 392.964 105.438 392.62 106.202C392.276 106.965 392.187 107.82 392.366 108.639C392.469 109.086 392.648 109.511 392.896 109.896L393.487 110.832L392.213 110.924C391.809 110.943 391.406 110.991 391.009 111.07C389.735 111.349 388.527 111.879 387.456 112.629C386.385 113.379 385.471 114.335 384.767 115.441C384.062 116.547 383.581 117.782 383.35 119.075C383.12 120.369 383.144 121.695 383.423 122.979C383.871 125.061 384.968 126.944 386.553 128.354C388.139 129.763 390.13 130.625 392.236 130.815C394.342 131.004 396.453 130.51 398.261 129.405C400.069 128.3 401.479 126.642 402.285 124.673L403.073 122.728Z" fill="#025E53"/>
<path d="M292.125 149.1V21.4942L326.83 0.771973L361.259 21.4942V149.656" fill="#C0E3CF"/>
<path d="M361.916 149.656H360.603V21.869L326.83 1.53939L292.782 21.8734V149.1H291.469V21.1192L326.834 0L327.167 0.202899L361.916 21.1192V149.656Z" fill="#025E53"/>
<path d="M361.264 62.8855H292.099C291.925 62.8855 291.758 62.8158 291.635 62.6917C291.512 62.5677 291.442 62.3994 291.442 62.2239C291.442 62.0484 291.512 61.8801 291.635 61.756C291.758 61.632 291.925 61.5623 292.099 61.5623H361.264C361.438 61.5623 361.605 61.632 361.728 61.756C361.851 61.8801 361.92 62.0484 361.92 62.2239C361.92 62.3994 361.851 62.5677 361.728 62.6917C361.605 62.8158 361.438 62.8855 361.264 62.8855Z" fill="#025E53"/>
<path d="M361.264 22.5173H292.099C291.925 22.5173 291.758 22.4476 291.635 22.3236C291.512 22.1995 291.442 22.0312 291.442 21.8557C291.442 21.6802 291.512 21.512 291.635 21.3879C291.758 21.2638 291.925 21.1941 292.099 21.1941H361.264C361.438 21.1941 361.605 21.2638 361.728 21.3879C361.851 21.512 361.92 21.6802 361.92 21.8557C361.92 22.0312 361.851 22.1995 361.728 22.3236C361.605 22.4476 361.438 22.5173 361.264 22.5173Z" fill="#025E53"/>
<path d="M310.721 29.4072H301.371V53.3097H310.721V29.4072Z" fill="white"/>
<path d="M310.725 53.9713H301.375C301.201 53.9713 301.034 53.9016 300.911 53.7775C300.787 53.6534 300.718 53.4852 300.718 53.3097V29.4072C300.718 29.2318 300.787 29.0635 300.911 28.9394C301.034 28.8153 301.201 28.7456 301.375 28.7456H310.725C310.899 28.7456 311.067 28.8153 311.19 28.9394C311.313 29.0635 311.382 29.2318 311.382 29.4072V53.3097C311.382 53.4852 311.313 53.6534 311.19 53.7775C311.067 53.9016 310.899 53.9713 310.725 53.9713ZM302.032 52.6481H310.069V30.0689H302.032V52.6481Z" fill="#025E53"/>
<path d="M331.247 29.4072H321.897V53.3097H331.247V29.4072Z" fill="white"/>
<path d="M331.252 53.9713H321.901C321.727 53.9713 321.56 53.9016 321.437 53.7775C321.314 53.6534 321.245 53.4852 321.245 53.3097V29.4072C321.245 29.2318 321.314 29.0635 321.437 28.9394C321.56 28.8153 321.727 28.7456 321.901 28.7456H331.252C331.426 28.7456 331.593 28.8153 331.716 28.9394C331.839 29.0635 331.908 29.2318 331.908 29.4072V53.3097C331.908 53.4852 331.839 53.6534 331.716 53.7775C331.593 53.9016 331.426 53.9713 331.252 53.9713ZM322.558 52.6481H330.595V30.0689H322.558V52.6481Z" fill="#025E53"/>
<path d="M351.773 29.4072H342.423V53.3097H351.773V29.4072Z" fill="white"/>
<path d="M351.773 53.9713H342.441C342.266 53.9713 342.099 53.9016 341.976 53.7775C341.853 53.6534 341.784 53.4852 341.784 53.3097V29.4072C341.784 29.2318 341.853 29.0635 341.976 28.9394C342.099 28.8153 342.266 28.7456 342.441 28.7456H351.791C351.965 28.7456 352.132 28.8153 352.255 28.9394C352.379 29.0635 352.448 29.2318 352.448 29.4072V53.3097C352.448 53.3981 352.43 53.4856 352.396 53.567C352.362 53.6485 352.312 53.7222 352.249 53.7838C352.186 53.8455 352.112 53.8939 352.03 53.9261C351.948 53.9583 351.861 53.9737 351.773 53.9713ZM343.08 52.6481H351.117V30.0689H343.08V52.6481Z" fill="#025E53"/>
<path d="M326.563 53.6626C326.389 53.6626 326.222 53.5929 326.099 53.4688C325.976 53.3447 325.906 53.1765 325.906 53.001V29.6587C325.906 29.4832 325.976 29.315 326.099 29.1909C326.222 29.0668 326.389 28.9971 326.563 28.9971C326.737 28.9971 326.904 29.0668 327.027 29.1909C327.151 29.315 327.22 29.4832 327.22 29.6587V53.001C327.22 53.1765 327.151 53.3447 327.027 53.4688C326.904 53.5929 326.737 53.6626 326.563 53.6626Z" fill="#025E53"/>
<path d="M330.958 42.2339H322.203C322.029 42.2339 321.862 42.1642 321.739 42.0401C321.616 41.916 321.547 41.7477 321.547 41.5723C321.547 41.3968 321.616 41.2285 321.739 41.1044C321.862 40.9803 322.029 40.9106 322.203 40.9106H330.958C331.132 40.9106 331.299 40.9803 331.423 41.1044C331.546 41.2285 331.615 41.3968 331.615 41.5723C331.615 41.7477 331.546 41.916 331.423 42.0401C331.299 42.1642 331.132 42.2339 330.958 42.2339Z" fill="#025E53"/>
<path d="M306.006 53.6624C305.832 53.6624 305.665 53.5927 305.542 53.4686C305.419 53.3445 305.35 53.1763 305.35 53.0008V29.5747C305.35 29.3992 305.419 29.2309 305.542 29.1069C305.665 28.9828 305.832 28.9131 306.006 28.9131C306.18 28.9131 306.347 28.9828 306.47 29.1069C306.594 29.2309 306.663 29.3992 306.663 29.5747V52.9875C306.665 53.0755 306.649 53.163 306.617 53.2448C306.584 53.3266 306.536 53.4011 306.475 53.464C306.414 53.5268 306.341 53.5767 306.261 53.6108C306.18 53.6449 306.094 53.6624 306.006 53.6624Z" fill="#025E53"/>
<path d="M310.357 42.2339H301.602C301.428 42.2339 301.261 42.1642 301.138 42.0401C301.015 41.916 300.946 41.7477 300.946 41.5723C300.946 41.3968 301.015 41.2285 301.138 41.1044C301.261 40.9803 301.428 40.9106 301.602 40.9106H310.357C310.532 40.9106 310.699 40.9803 310.822 41.1044C310.945 41.2285 311.014 41.3968 311.014 41.5723C311.014 41.7477 310.945 41.916 310.822 42.0401C310.699 42.1642 310.532 42.2339 310.357 42.2339Z" fill="#025E53"/>
<path d="M347.05 53.6626C346.876 53.6626 346.709 53.5929 346.586 53.4688C346.463 53.3447 346.393 53.1765 346.393 53.001V29.6587C346.393 29.4832 346.463 29.315 346.586 29.1909C346.709 29.0668 346.876 28.9971 347.05 28.9971C347.224 28.9971 347.391 29.0668 347.514 29.1909C347.638 29.315 347.707 29.4832 347.707 29.6587V53.001C347.707 53.1765 347.638 53.3447 347.514 53.4688C347.391 53.5929 347.224 53.6626 347.05 53.6626Z" fill="#025E53"/>
<path d="M351.603 42.2339H342.769C342.595 42.2339 342.428 42.1642 342.304 42.0401C342.181 41.916 342.112 41.7477 342.112 41.5723C342.112 41.3968 342.181 41.2285 342.304 41.1044C342.428 40.9803 342.595 40.9106 342.769 40.9106H351.603C351.777 40.9106 351.944 40.9803 352.067 41.1044C352.19 41.2285 352.259 41.3968 352.259 41.5723C352.259 41.7477 352.19 41.916 352.067 42.0401C351.944 42.1642 351.777 42.2339 351.603 42.2339Z" fill="#025E53"/>
<path d="M361.159 105.913H291.994C291.82 105.913 291.653 105.844 291.53 105.72C291.406 105.596 291.337 105.427 291.337 105.252C291.337 105.076 291.406 104.908 291.53 104.784C291.653 104.66 291.82 104.59 291.994 104.59H361.159C361.333 104.59 361.5 104.66 361.623 104.784C361.746 104.908 361.815 105.076 361.815 105.252C361.815 105.427 361.746 105.596 361.623 105.72C361.5 105.844 361.333 105.913 361.159 105.913Z" fill="#025E53"/>
<path d="M296.363 105.755C296.189 105.755 296.021 105.685 295.898 105.561C295.775 105.437 295.706 105.268 295.706 105.093V89.8137C295.706 89.6383 295.775 89.47 295.898 89.3459C296.021 89.2219 296.189 89.1521 296.363 89.1521C296.537 89.1521 296.704 89.2219 296.827 89.3459C296.95 89.47 297.019 89.6383 297.019 89.8137V105.093C297.019 105.268 296.95 105.437 296.827 105.561C296.704 105.685 296.537 105.755 296.363 105.755Z" fill="#025E53"/>
<path d="M316.946 105.883C316.772 105.883 316.605 105.813 316.481 105.689C316.358 105.565 316.289 105.396 316.289 105.221V89.2095C316.289 89.034 316.358 88.8657 316.481 88.7416C316.605 88.6176 316.772 88.5479 316.946 88.5479C317.12 88.5479 317.287 88.6176 317.41 88.7416C317.533 88.8657 317.602 89.034 317.602 89.2095V105.221C317.602 105.396 317.533 105.565 317.41 105.689C317.287 105.813 317.12 105.883 316.946 105.883Z" fill="#025E53"/>
<path d="M337.362 104.943C337.188 104.943 337.021 104.873 336.898 104.749C336.775 104.625 336.706 104.457 336.706 104.281V89.0022C336.706 88.8267 336.775 88.6584 336.898 88.5344C337.021 88.4103 337.188 88.3406 337.362 88.3406C337.537 88.3406 337.704 88.4103 337.827 88.5344C337.95 88.6584 338.019 88.8267 338.019 89.0022V104.281C338.019 104.457 337.95 104.625 337.827 104.749C337.704 104.873 337.537 104.943 337.362 104.943Z" fill="#025E53"/>
<path d="M356.799 105.653C356.625 105.653 356.458 105.584 356.334 105.459C356.211 105.335 356.142 105.167 356.142 104.992V89.7124C356.142 89.5369 356.211 89.3686 356.334 89.2446C356.458 89.1205 356.625 89.0508 356.799 89.0508C356.973 89.0508 357.14 89.1205 357.263 89.2446C357.386 89.3686 357.455 89.5369 357.455 89.7124V105C357.453 105.174 357.383 105.34 357.26 105.463C357.137 105.585 356.971 105.653 356.799 105.653Z" fill="#025E53"/>
<path d="M310.721 72.4395H301.371V96.3419H310.721V72.4395Z" fill="white"/>
<path d="M310.725 96.9991H301.375C301.201 96.9991 301.034 96.9294 300.911 96.8053C300.787 96.6812 300.718 96.5129 300.718 96.3375V72.4351C300.718 72.2596 300.787 72.0913 300.911 71.9672C301.034 71.8431 301.201 71.7734 301.375 71.7734H310.725C310.899 71.7734 311.067 71.8431 311.19 71.9672C311.313 72.0913 311.382 72.2596 311.382 72.4351V96.3375C311.382 96.5129 311.313 96.6812 311.19 96.8053C311.067 96.9294 310.899 96.9991 310.725 96.9991ZM302.032 95.6758H310.069V73.0967H302.032V95.6758Z" fill="#025E53"/>
<path d="M331.247 72.4395H321.897V96.3419H331.247V72.4395Z" fill="white"/>
<path d="M331.252 96.9991H321.901C321.727 96.9991 321.56 96.9294 321.437 96.8053C321.314 96.6812 321.245 96.5129 321.245 96.3375V72.4351C321.245 72.2596 321.314 72.0913 321.437 71.9672C321.56 71.8431 321.727 71.7734 321.901 71.7734H331.252C331.425 71.7746 331.592 71.8446 331.715 71.9685C331.837 72.0923 331.907 72.2599 331.908 72.4351V96.3375C331.908 96.5129 331.839 96.6812 331.716 96.8053C331.593 96.9294 331.426 96.9991 331.252 96.9991ZM322.558 95.6758H330.595V73.0967H322.558V95.6758Z" fill="#025E53"/>
<path d="M351.773 72.4395H342.423V96.3419H351.773V72.4395Z" fill="white"/>
<path d="M351.773 96.9991H342.441C342.266 96.9991 342.099 96.9294 341.976 96.8053C341.853 96.6812 341.784 96.5129 341.784 96.3375V72.4351C341.785 72.2599 341.855 72.0923 341.978 71.9685C342.1 71.8446 342.267 71.7746 342.441 71.7734H351.791C351.965 71.7734 352.132 71.8431 352.255 71.9672C352.379 72.0913 352.448 72.2596 352.448 72.4351V96.3375C352.448 96.4259 352.43 96.5133 352.396 96.5948C352.362 96.6762 352.312 96.75 352.249 96.8117C352.186 96.8733 352.112 96.9217 352.03 96.9539C351.948 96.9861 351.861 97.0015 351.773 96.9991ZM343.08 95.6758H351.117V73.0967H343.08V95.6758Z" fill="#025E53"/>
<path d="M326.563 105.653C326.389 105.653 326.222 105.584 326.099 105.459C325.976 105.335 325.906 105.167 325.906 104.992V72.6865C325.906 72.5111 325.976 72.3428 326.099 72.2187C326.222 72.0946 326.389 72.0249 326.563 72.0249C326.737 72.0249 326.904 72.0946 327.027 72.2187C327.151 72.3428 327.22 72.5111 327.22 72.6865V105C327.217 105.174 327.147 105.34 327.024 105.463C326.901 105.585 326.736 105.653 326.563 105.653Z" fill="#025E53"/>
<path d="M330.932 85.2617H322.212C322.038 85.2617 321.871 85.192 321.748 85.068C321.625 84.9439 321.555 84.7756 321.555 84.6001C321.555 84.4246 321.625 84.2563 321.748 84.1323C321.871 84.0082 322.038 83.9385 322.212 83.9385H330.932C331.106 83.9385 331.273 84.0082 331.396 84.1323C331.519 84.2563 331.589 84.4246 331.589 84.6001C331.589 84.7756 331.519 84.9439 331.396 85.068C331.273 85.192 331.106 85.2617 330.932 85.2617Z" fill="#025E53"/>
<path d="M306.006 105.883C305.832 105.883 305.665 105.813 305.542 105.689C305.419 105.565 305.35 105.396 305.35 105.221V72.6292C305.35 72.4537 305.419 72.2854 305.542 72.1613C305.665 72.0372 305.832 71.9675 306.006 71.9675C306.18 71.9675 306.347 72.0372 306.47 72.1613C306.594 72.2854 306.663 72.4537 306.663 72.6292V105.221C306.663 105.396 306.594 105.565 306.47 105.689C306.347 105.813 306.18 105.883 306.006 105.883Z" fill="#025E53"/>
<path d="M309.955 85.2617H301.585C301.411 85.2617 301.244 85.192 301.121 85.068C300.998 84.9439 300.928 84.7756 300.928 84.6001C300.928 84.4246 300.998 84.2563 301.121 84.1323C301.244 84.0082 301.411 83.9385 301.585 83.9385H309.955C310.129 83.9385 310.296 84.0082 310.419 84.1323C310.542 84.2563 310.612 84.4246 310.612 84.6001C310.612 84.7756 310.542 84.9439 310.419 85.068C310.296 85.192 310.129 85.2617 309.955 85.2617Z" fill="#025E53"/>
<path d="M347.05 105.058C346.876 105.058 346.709 104.988 346.586 104.864C346.463 104.74 346.393 104.572 346.393 104.396V72.6865C346.393 72.5111 346.463 72.3428 346.586 72.2187C346.709 72.0946 346.876 72.0249 347.05 72.0249C347.224 72.0249 347.391 72.0946 347.514 72.2187C347.638 72.3428 347.707 72.5111 347.707 72.6865V104.396C347.707 104.572 347.638 104.74 347.514 104.864C347.391 104.988 347.224 105.058 347.05 105.058Z" fill="#025E53"/>
<path d="M351.401 85.2617H342.769C342.595 85.2617 342.428 85.192 342.304 85.068C342.181 84.9439 342.112 84.7756 342.112 84.6001C342.112 84.4246 342.181 84.2563 342.304 84.1323C342.428 84.0082 342.595 83.9385 342.769 83.9385H351.401C351.575 83.9385 351.742 84.0082 351.866 84.1323C351.989 84.2563 352.058 84.4246 352.058 84.6001C352.058 84.7756 351.989 84.9439 351.866 85.068C351.742 85.192 351.575 85.2617 351.401 85.2617Z" fill="#025E53"/>
<path d="M310.612 116.283H301.261V140.186H310.612V116.283Z" fill="white"/>
<path d="M310.611 140.848H301.261C301.087 140.848 300.92 140.778 300.797 140.654C300.674 140.53 300.604 140.361 300.604 140.186V116.283C300.604 116.108 300.674 115.94 300.797 115.816C300.92 115.692 301.087 115.622 301.261 115.622H310.611C310.786 115.622 310.953 115.692 311.076 115.816C311.199 115.94 311.268 116.108 311.268 116.283V140.186C311.268 140.361 311.199 140.53 311.076 140.654C310.953 140.778 310.786 140.848 310.611 140.848ZM301.918 139.524H309.955V116.945H301.918V139.524Z" fill="#025E53"/>
<path d="M331.138 116.283H321.787V140.186H331.138V116.283Z" fill="white"/>
<path d="M331.138 140.848H321.787C321.613 140.848 321.446 140.778 321.323 140.654C321.2 140.53 321.131 140.361 321.131 140.186V116.283C321.131 116.108 321.2 115.94 321.323 115.816C321.446 115.692 321.613 115.622 321.787 115.622H331.138C331.312 115.622 331.479 115.692 331.602 115.816C331.725 115.94 331.794 116.108 331.794 116.283V140.186C331.794 140.361 331.725 140.53 331.602 140.654C331.479 140.778 331.312 140.848 331.138 140.848ZM322.444 139.524H330.481V116.945H322.444V139.524Z" fill="#025E53"/>
<path d="M351.659 116.283H342.309V140.186H351.659V116.283Z" fill="white"/>
<path d="M351.664 140.848H342.313C342.139 140.848 341.972 140.778 341.849 140.654C341.726 140.53 341.657 140.361 341.657 140.186V116.283C341.657 116.108 341.726 115.94 341.849 115.816C341.972 115.692 342.139 115.622 342.313 115.622H351.664C351.838 115.622 352.005 115.692 352.128 115.816C352.251 115.94 352.32 116.108 352.32 116.283V140.186C352.32 140.361 352.251 140.53 352.128 140.654C352.005 140.778 351.838 140.848 351.664 140.848ZM342.97 139.524H351.007V116.945H342.97V139.524Z" fill="#025E53"/>
<path d="M326.45 140.592C326.275 140.592 326.108 140.522 325.985 140.398C325.862 140.274 325.793 140.105 325.793 139.93V116.552C325.793 116.377 325.862 116.209 325.985 116.085C326.108 115.961 326.275 115.891 326.45 115.891C326.624 115.891 326.791 115.961 326.914 116.085C327.037 116.209 327.106 116.377 327.106 116.552V139.93C327.106 140.105 327.037 140.274 326.914 140.398C326.791 140.522 326.624 140.592 326.45 140.592Z" fill="#025E53"/>
<path d="M330.897 129.11H322.098C321.924 129.11 321.757 129.04 321.634 128.916C321.511 128.792 321.441 128.624 321.441 128.448C321.441 128.273 321.511 128.105 321.634 127.981C321.757 127.857 321.924 127.787 322.098 127.787H330.897C331.071 127.787 331.238 127.857 331.361 127.981C331.484 128.105 331.554 128.273 331.554 128.448C331.554 128.624 331.484 128.792 331.361 128.916C331.238 129.04 331.071 129.11 330.897 129.11Z" fill="#025E53"/>
<path d="M305.897 140.592C305.723 140.592 305.556 140.522 305.433 140.398C305.309 140.274 305.24 140.106 305.24 139.93V116.469C305.24 116.293 305.309 116.125 305.433 116.001C305.556 115.877 305.723 115.807 305.897 115.807C306.071 115.807 306.238 115.877 306.361 116.001C306.484 116.125 306.553 116.293 306.553 116.469V139.934C306.552 140.109 306.483 140.276 306.36 140.399C306.237 140.523 306.07 140.592 305.897 140.592Z" fill="#025E53"/>
<path d="M310.187 129.11H301.475C301.301 129.11 301.134 129.04 301.011 128.916C300.888 128.792 300.819 128.624 300.819 128.448C300.819 128.273 300.888 128.105 301.011 127.981C301.134 127.857 301.301 127.787 301.475 127.787H310.187C310.361 127.787 310.528 127.857 310.651 127.981C310.774 128.105 310.843 128.273 310.843 128.448C310.843 128.624 310.774 128.792 310.651 128.916C310.528 129.04 310.361 129.11 310.187 129.11Z" fill="#025E53"/>
<path d="M346.941 140.592C346.766 140.592 346.599 140.522 346.476 140.398C346.353 140.274 346.284 140.105 346.284 139.93V116.552C346.284 116.377 346.353 116.209 346.476 116.085C346.599 115.961 346.766 115.891 346.941 115.891C347.115 115.891 347.282 115.961 347.405 116.085C347.528 116.209 347.597 116.377 347.597 116.552V139.93C347.597 140.105 347.528 140.274 347.405 140.398C347.282 140.522 347.115 140.592 346.941 140.592Z" fill="#025E53"/>
<path d="M351.384 129.11H342.655C342.481 129.11 342.314 129.04 342.191 128.916C342.068 128.792 341.999 128.624 341.999 128.448C341.999 128.273 342.068 128.105 342.191 127.981C342.314 127.857 342.481 127.787 342.655 127.787H351.384C351.558 127.787 351.725 127.857 351.848 127.981C351.971 128.105 352.04 128.273 352.04 128.448C352.04 128.624 351.971 128.792 351.848 128.916C351.725 129.04 351.558 129.11 351.384 129.11Z" fill="#025E53"/>
<path d="M326.69 17.1229C329.009 17.1229 330.888 15.229 330.888 12.8929C330.888 10.5567 329.009 8.66284 326.69 8.66284C324.372 8.66284 322.492 10.5567 322.492 12.8929C322.492 15.229 324.372 17.1229 326.69 17.1229Z" fill="white"/>
<path d="M326.681 17.7845C325.72 17.7854 324.78 17.4989 323.98 16.9612C323.181 16.4236 322.557 15.6589 322.189 14.7641C321.82 13.8693 321.724 12.8845 321.911 11.9344C322.099 10.9842 322.561 10.1115 323.241 9.42646C323.921 8.74147 324.787 8.27507 325.73 8.0863C326.673 7.89752 327.65 7.99484 328.538 8.36596C329.427 8.73708 330.186 9.36529 330.719 10.1711C331.253 10.9769 331.537 11.9242 331.536 12.8929C331.535 14.1899 331.023 15.4334 330.113 16.3505C329.203 17.2676 327.969 17.7834 326.681 17.7845ZM326.681 9.32007C325.98 9.31919 325.294 9.52799 324.71 9.92004C324.127 10.3121 323.671 10.8698 323.402 11.5226C323.133 12.1754 323.063 12.8939 323.199 13.5872C323.335 14.2806 323.673 14.9176 324.168 15.4177C324.664 15.9178 325.296 16.2585 325.984 16.3967C326.672 16.5349 327.385 16.4644 328.033 16.1942C328.681 15.9239 329.235 15.4659 329.625 14.8783C330.015 14.2906 330.223 13.5997 330.223 12.8929C330.223 11.9461 329.85 11.038 329.186 10.3681C328.522 9.69817 327.621 9.32124 326.681 9.32007Z" fill="#025E53"/>
<path d="M84.9546 149.166V13.9207H149.234V149.166" fill="#C0E3CF"/>
<path d="M75.8582 149.166V13.9207H140.138V149.166" fill="#C7E9F4"/>
<path d="M140.138 149.828C139.963 149.828 139.796 149.758 139.673 149.634C139.55 149.51 139.481 149.342 139.481 149.166V14.5779H76.5147V149.162C76.5147 149.337 76.4454 149.506 76.3223 149.63C76.1992 149.754 76.0322 149.824 75.858 149.824C75.6839 149.824 75.5168 149.754 75.3937 149.63C75.2705 149.506 75.2014 149.337 75.2014 149.162V13.9207C75.2014 13.7452 75.2705 13.5769 75.3937 13.4528C75.5168 13.3287 75.6839 13.259 75.858 13.259H140.138C140.312 13.259 140.479 13.3287 140.602 13.4528C140.725 13.5769 140.794 13.7452 140.794 13.9207V149.166C140.794 149.342 140.725 149.51 140.602 149.634C140.479 149.758 140.312 149.828 140.138 149.828Z" fill="#025E53"/>
<path d="M140.046 23.7788H118.762V42.5029H140.046V23.7788Z" fill="white"/>
<path d="M140.046 43.1689H118.749C118.575 43.1689 118.408 43.0992 118.285 42.9751C118.162 42.8511 118.093 42.6828 118.093 42.5073V23.7788C118.094 23.6037 118.163 23.4361 118.286 23.3123C118.409 23.1884 118.575 23.1183 118.749 23.1172H140.033C140.207 23.1172 140.374 23.1869 140.497 23.311C140.62 23.435 140.689 23.6033 140.689 23.7788V42.5073C140.689 42.6805 140.622 42.8469 140.502 42.9706C140.381 43.0943 140.218 43.1655 140.046 43.1689ZM119.419 41.8457H139.389V24.4404H119.419V41.8457Z" fill="#025E53"/>
<path d="M111.99 23.7788H101.086V42.5029H111.99V23.7788Z" fill="white"/>
<path d="M111.99 43.1689H101.086C100.912 43.1689 100.745 43.0992 100.622 42.9751C100.498 42.8511 100.429 42.6828 100.429 42.5073V23.7788C100.429 23.6033 100.498 23.435 100.622 23.311C100.745 23.1869 100.912 23.1172 101.086 23.1172H111.99C112.164 23.1172 112.331 23.1869 112.455 23.311C112.578 23.435 112.647 23.6033 112.647 23.7788V42.5073C112.647 42.6828 112.578 42.8511 112.455 42.9751C112.331 43.0992 112.164 43.1689 111.99 43.1689ZM101.742 41.8457H111.334V24.4404H101.742V41.8457Z" fill="#025E53"/>
<path d="M95.859 23.7788H84.9546V42.5029H95.859V23.7788Z" fill="white"/>
<path d="M95.8591 43.1689H84.9547C84.7806 43.1689 84.6135 43.0992 84.4904 42.9751C84.3672 42.8511 84.2981 42.6828 84.2981 42.5073V23.7788C84.2981 23.6033 84.3672 23.435 84.4904 23.311C84.6135 23.1869 84.7806 23.1172 84.9547 23.1172H95.8591C96.0332 23.1172 96.2003 23.1869 96.3235 23.311C96.4466 23.435 96.5157 23.6033 96.5157 23.7788V42.5073C96.5157 42.6828 96.4466 42.8511 96.3235 42.9751C96.2003 43.0992 96.0332 43.1689 95.8591 43.1689ZM85.6114 41.8457H95.2025V24.4404H85.6114V41.8457Z" fill="#025E53"/>
<path d="M111.99 53.1111H101.086V71.8352H111.99V53.1111Z" fill="white"/>
<path d="M111.99 72.4968H101.086C100.912 72.4968 100.745 72.4271 100.622 72.303C100.498 72.1789 100.429 72.0107 100.429 71.8352V53.1111C100.429 52.9356 100.498 52.7673 100.622 52.6432C100.745 52.5192 100.912 52.4495 101.086 52.4495H111.99C112.164 52.4495 112.331 52.5192 112.455 52.6432C112.578 52.7673 112.647 52.9356 112.647 53.1111V71.8352C112.647 72.0107 112.578 72.1789 112.455 72.303C112.331 72.4271 112.164 72.4968 111.99 72.4968ZM101.742 71.1736H111.334V53.7727H101.742V71.1736Z" fill="#025E53"/>
<path d="M95.859 53.2258H84.9546V71.9499H95.859V53.2258Z" fill="white"/>
<path d="M95.8591 72.6159H84.9547C84.7806 72.6159 84.6135 72.5462 84.4904 72.4222C84.3672 72.2981 84.2981 72.1298 84.2981 71.9543V53.2258C84.2981 53.0504 84.3672 52.8821 84.4904 52.758C84.6135 52.6339 84.7806 52.5642 84.9547 52.5642H95.8591C96.0332 52.5642 96.2003 52.6339 96.3235 52.758C96.4466 52.8821 96.5157 53.0504 96.5157 53.2258V71.9543C96.5157 72.1298 96.4466 72.2981 96.3235 72.4222C96.2003 72.5462 96.0332 72.6159 95.8591 72.6159ZM85.6114 71.2927H95.2025V53.8875H85.6114V71.2927Z" fill="#025E53"/>
<path d="M111.99 82.2051H101.086V100.929H111.99V82.2051Z" fill="white"/>
<path d="M111.99 101.591H101.086C100.912 101.591 100.745 101.521 100.622 101.397C100.498 101.273 100.429 101.105 100.429 100.929V82.2007C100.429 82.0252 100.498 81.8569 100.622 81.7328C100.745 81.6088 100.912 81.5391 101.086 81.5391H111.99C112.164 81.5391 112.331 81.6088 112.455 81.7328C112.578 81.8569 112.647 82.0252 112.647 82.2007V100.929C112.647 101.105 112.578 101.273 112.455 101.397C112.331 101.521 112.164 101.591 111.99 101.591ZM101.742 100.268H111.334V82.8623H101.742V100.268Z" fill="#025E53"/>
<path d="M95.859 82.2051H84.9546V100.929H95.859V82.2051Z" fill="white"/>
<path d="M95.8591 101.591H84.9547C84.7806 101.591 84.6135 101.521 84.4904 101.397C84.3672 101.273 84.2981 101.105 84.2981 100.929V82.2007C84.2981 82.0252 84.3672 81.8569 84.4904 81.7328C84.6135 81.6088 84.7806 81.5391 84.9547 81.5391H95.8591C96.0332 81.5391 96.2003 81.6088 96.3235 81.7328C96.4466 81.8569 96.5157 82.0252 96.5157 82.2007V100.929C96.5157 101.105 96.4466 101.273 96.3235 101.397C96.2003 101.521 96.0332 101.591 95.8591 101.591ZM85.6114 100.268H95.2025V82.8623H85.6114V100.268Z" fill="#025E53"/>
<path d="M140.046 52.9919H118.762V71.716H140.046V52.9919Z" fill="white"/>
<path d="M140.046 72.3601H118.749C118.575 72.3601 118.408 72.2904 118.285 72.1663C118.162 72.0422 118.093 71.8739 118.093 71.6984V52.9744C118.093 52.7989 118.162 52.6306 118.285 52.5065C118.408 52.3824 118.575 52.3127 118.749 52.3127H140.033C140.207 52.3127 140.374 52.3824 140.497 52.5065C140.62 52.6306 140.689 52.7989 140.689 52.9744V71.6984C140.689 71.8716 140.622 72.038 140.502 72.1617C140.381 72.2854 140.218 72.3566 140.046 72.3601ZM119.419 71.0368H139.389V53.636H119.419V71.0368Z" fill="#025E53"/>
<path d="M140.046 82.2051H118.762V100.929H140.046V82.2051Z" fill="white"/>
<path d="M140.046 101.591H118.749C118.575 101.591 118.408 101.521 118.285 101.397C118.162 101.273 118.093 101.105 118.093 100.929V82.2007C118.094 82.0256 118.163 81.8579 118.286 81.7341C118.409 81.6103 118.575 81.5402 118.749 81.5391H140.033C140.207 81.5391 140.374 81.6088 140.497 81.7328C140.62 81.8569 140.689 82.0252 140.689 82.2007V100.929C140.689 101.102 140.622 101.269 140.502 101.392C140.381 101.516 140.218 101.587 140.046 101.591ZM119.419 100.268H139.389V82.8623H119.419V100.268Z" fill="#025E53"/>
<path d="M95.4957 36.8086H84.9896C84.8155 36.8086 84.6485 36.7389 84.5254 36.6148C84.4022 36.4907 84.333 36.3225 84.333 36.147C84.333 35.9715 84.4022 35.8032 84.5254 35.6791C84.6485 35.5551 84.8155 35.4854 84.9896 35.4854H95.4957C95.6698 35.4854 95.8369 35.5551 95.96 35.6791C96.0832 35.8032 96.1523 35.9715 96.1523 36.147C96.1523 36.3225 96.0832 36.4907 95.96 36.6148C95.8369 36.7389 95.6698 36.8086 95.4957 36.8086Z" fill="#025E53"/>
<path d="M111.859 36.8086H101.353C101.179 36.8086 101.011 36.7389 100.888 36.6148C100.765 36.4907 100.696 36.3225 100.696 36.147C100.696 35.9715 100.765 35.8032 100.888 35.6791C101.011 35.5551 101.179 35.4854 101.353 35.4854H111.859C112.033 35.4854 112.2 35.5551 112.323 35.6791C112.446 35.8032 112.515 35.9715 112.515 36.147C112.515 36.3225 112.446 36.4907 112.323 36.6148C112.2 36.7389 112.033 36.8086 111.859 36.8086Z" fill="#025E53"/>
<path d="M95.4957 66.4893H84.9896C84.8155 66.4893 84.6485 66.4196 84.5254 66.2955C84.4022 66.1714 84.333 66.0031 84.333 65.8276C84.333 65.6522 84.4022 65.4839 84.5254 65.3599C84.6485 65.2358 84.8155 65.166 84.9896 65.166H95.4957C95.6698 65.166 95.8369 65.2358 95.96 65.3599C96.0832 65.4839 96.1523 65.6522 96.1523 65.8276C96.1523 66.0031 96.0832 66.1714 95.96 66.2955C95.8369 66.4196 95.6698 66.4893 95.4957 66.4893Z" fill="#025E53"/>
<path d="M111.859 66.4893H101.353C101.179 66.4893 101.011 66.4196 100.888 66.2955C100.765 66.1714 100.696 66.0031 100.696 65.8276C100.696 65.6522 100.765 65.4839 100.888 65.3599C101.011 65.2358 101.179 65.166 101.353 65.166H111.859C112.033 65.166 112.2 65.2358 112.323 65.3599C112.446 65.4839 112.515 65.6522 112.515 65.8276C112.515 66.0031 112.446 66.1714 112.323 66.2955C112.2 66.4196 112.033 66.4893 111.859 66.4893Z" fill="#025E53"/>
<path d="M95.4957 95.2305H84.9896C84.8155 95.2305 84.6485 95.1608 84.5254 95.0367C84.4022 94.9126 84.333 94.7443 84.333 94.5689C84.333 94.3934 84.4022 94.2251 84.5254 94.101C84.6485 93.9769 84.8155 93.9072 84.9896 93.9072H95.4957C95.6698 93.9072 95.8369 93.9769 95.96 94.101C96.0832 94.2251 96.1523 94.3934 96.1523 94.5689C96.1523 94.7443 96.0832 94.9126 95.96 95.0367C95.8369 95.1608 95.6698 95.2305 95.4957 95.2305Z" fill="#025E53"/>
<path d="M111.859 95.2305H101.353C101.179 95.2305 101.011 95.1608 100.888 95.0367C100.765 94.9126 100.696 94.7443 100.696 94.5689C100.696 94.3934 100.765 94.2251 100.888 94.101C101.011 93.9769 101.179 93.9072 101.353 93.9072H111.859C112.033 93.9072 112.2 93.9769 112.323 94.101C112.446 94.2251 112.515 94.3934 112.515 94.5689C112.515 94.7443 112.446 94.9126 112.323 95.0367C112.2 95.1608 112.033 95.2305 111.859 95.2305Z" fill="#025E53"/>
<path d="M140.4 111.692H75.7706C75.5965 111.692 75.4294 111.622 75.3063 111.498C75.1831 111.374 75.114 111.206 75.114 111.03C75.114 110.855 75.1831 110.686 75.3063 110.562C75.4294 110.438 75.5965 110.368 75.7706 110.368H140.4C140.574 110.368 140.742 110.438 140.865 110.562C140.988 110.686 141.057 110.855 141.057 111.03C141.057 111.206 140.988 111.374 140.865 111.498C140.742 111.622 140.574 111.692 140.4 111.692Z" fill="#025E53"/>
<path d="M132.897 121.237H83.335V149.034H132.897V121.237Z" fill="white"/>
<path d="M132.902 149.696H83.3392C83.1651 149.696 82.998 149.626 82.8749 149.502C82.7517 149.378 82.6826 149.209 82.6826 149.034V121.246C82.6826 121.07 82.7517 120.902 82.8749 120.778C82.998 120.654 83.1651 120.584 83.3392 120.584H132.902C133.076 120.584 133.243 120.654 133.366 120.778C133.489 120.902 133.558 121.07 133.558 121.246V149.034C133.558 149.209 133.489 149.378 133.366 149.502C133.243 149.626 133.076 149.696 132.902 149.696ZM83.9959 148.372H132.245V121.907H83.9959V148.372Z" fill="#025E53"/>
<path d="M202.452 115.375H193.101V135.232H202.452V115.375Z" fill="white"/>
<path d="M202.452 135.876H193.101C192.927 135.876 192.76 135.807 192.637 135.683C192.514 135.559 192.445 135.39 192.445 135.215V115.366C192.445 115.19 192.514 115.022 192.637 114.898C192.76 114.774 192.927 114.704 193.101 114.704H202.452C202.626 114.704 202.793 114.774 202.916 114.898C203.039 115.022 203.108 115.19 203.108 115.366V135.215C203.108 135.39 203.039 135.559 202.916 135.683C202.793 135.807 202.626 135.876 202.452 135.876ZM193.758 134.553H201.795V116.028H193.758V134.553Z" fill="#025E53"/>
<path d="M189.249 115.375H184.14V135.232H189.249V115.375Z" fill="white"/>
<path d="M189.254 135.876H184.145C183.971 135.876 183.804 135.807 183.681 135.683C183.558 135.559 183.488 135.39 183.488 135.215V115.366C183.488 115.19 183.558 115.022 183.681 114.898C183.804 114.774 183.971 114.704 184.145 114.704H189.254C189.428 114.704 189.595 114.774 189.718 114.898C189.841 115.022 189.91 115.19 189.91 115.366V135.215C189.91 135.39 189.841 135.559 189.718 135.683C189.595 135.807 189.428 135.876 189.254 135.876ZM184.802 134.553H188.597V116.028H184.802V134.553Z" fill="#025E53"/>
<path d="M211.312 115.375H206.203V135.232H211.312V115.375Z" fill="white"/>
<path d="M211.312 135.876H206.208C206.034 135.876 205.866 135.807 205.743 135.683C205.62 135.559 205.551 135.39 205.551 135.215V115.366C205.551 115.19 205.62 115.022 205.743 114.898C205.866 114.774 206.034 114.704 206.208 114.704H211.312C211.486 114.704 211.653 114.774 211.776 114.898C211.899 115.022 211.969 115.19 211.969 115.366V135.215C211.969 135.39 211.899 135.559 211.776 135.683C211.653 135.807 211.486 135.876 211.312 135.876ZM206.864 134.553H210.677V116.028H206.886L206.864 134.553Z" fill="#025E53"/>
<path d="M132.888 131.223H83.4225C83.2483 131.223 83.0813 131.153 82.9581 131.029C82.835 130.905 82.7659 130.737 82.7659 130.561C82.7659 130.386 82.835 130.218 82.9581 130.093C83.0813 129.969 83.2483 129.9 83.4225 129.9H132.888C133.063 129.9 133.23 129.969 133.353 130.093C133.476 130.218 133.545 130.386 133.545 130.561C133.545 130.737 133.476 130.905 133.353 131.029C133.23 131.153 133.063 131.223 132.888 131.223Z" fill="#025E53"/>
<path d="M132.888 140.618H83.4225C83.2483 140.618 83.0813 140.548 82.9581 140.424C82.835 140.3 82.7659 140.132 82.7659 139.957C82.7659 139.781 82.835 139.613 82.9581 139.489C83.0813 139.365 83.2483 139.295 83.4225 139.295H132.888C133.063 139.295 133.23 139.365 133.353 139.489C133.476 139.613 133.545 139.781 133.545 139.957C133.545 140.132 133.476 140.3 133.353 140.424C133.23 140.548 133.063 140.618 132.888 140.618Z" fill="#025E53"/>
<path d="M253.113 112.243H227.088V148.981H253.113V112.243Z" fill="white"/>
<path d="M253.139 149.643H227.093C226.919 149.643 226.752 149.573 226.628 149.449C226.505 149.325 226.436 149.157 226.436 148.981V112.243C226.436 112.068 226.505 111.899 226.628 111.775C226.752 111.651 226.919 111.582 227.093 111.582H253.139C253.313 111.582 253.48 111.651 253.603 111.775C253.726 111.899 253.796 112.068 253.796 112.243V148.981C253.796 149.157 253.726 149.325 253.603 149.449C253.48 149.573 253.313 149.643 253.139 149.643ZM227.771 148.32H252.482V112.905H227.749L227.771 148.32Z" fill="#025E53"/>
<path d="M253.113 144.958H227.088V148.986H253.113V144.958Z" fill="white"/>
<path d="M253.139 149.643H227.093C226.919 149.643 226.752 149.573 226.628 149.449C226.505 149.325 226.436 149.157 226.436 148.981V144.959C226.436 144.783 226.505 144.615 226.628 144.491C226.752 144.367 226.919 144.297 227.093 144.297H253.139C253.313 144.297 253.48 144.367 253.603 144.491C253.726 144.615 253.796 144.783 253.796 144.959V148.981C253.796 149.157 253.726 149.325 253.603 149.449C253.48 149.573 253.313 149.643 253.139 149.643ZM227.771 148.32H252.482V145.62H227.749L227.771 148.32Z" fill="#025E53"/>
<path d="M253.113 140.931H227.088V144.958H253.113V140.931Z" fill="white"/>
<path d="M253.139 145.62H227.093C226.919 145.62 226.752 145.55 226.628 145.426C226.505 145.302 226.436 145.134 226.436 144.958V140.931C226.436 140.756 226.505 140.587 226.628 140.463C226.752 140.339 226.919 140.27 227.093 140.27H253.139C253.313 140.27 253.48 140.339 253.603 140.463C253.726 140.587 253.796 140.756 253.796 140.931V144.958C253.796 145.134 253.726 145.302 253.603 145.426C253.48 145.55 253.313 145.62 253.139 145.62ZM227.771 144.297H252.482V141.61H227.749L227.771 144.297Z" fill="#025E53"/>
<path d="M238.404 127.707V123.636H236.478V127.707H238.404Z" fill="#025E53"/>
<path d="M243.57 127.707V123.636H241.644V127.707H243.57Z" fill="#025E53"/>
<path d="M259.775 45.2378H177.355C177.181 45.2378 177.014 45.1681 176.891 45.044C176.768 44.9199 176.699 44.7517 176.699 44.5762C176.699 44.4007 176.768 44.2324 176.891 44.1083C177.014 43.9843 177.181 43.9146 177.355 43.9146H259.775C259.95 43.9146 260.117 43.9843 260.24 44.1083C260.363 44.2324 260.432 44.4007 260.432 44.5762C260.432 44.7517 260.363 44.9199 260.24 45.044C260.117 45.1681 259.95 45.2378 259.775 45.2378Z" fill="#025E53"/>
<path d="M254.382 48.9827C254.556 48.9827 254.724 49.0524 254.847 49.1764C254.97 49.3005 255.039 49.4688 255.039 49.6443C255.039 49.8198 254.97 49.9881 254.847 50.1121C254.724 50.2362 254.556 50.3059 254.382 50.3059H181.82C181.646 50.3059 181.479 50.2362 181.356 50.1121C181.233 49.9881 181.164 49.8198 181.164 49.6443C181.164 49.4688 181.233 49.3005 181.356 49.1764C181.479 49.0524 181.646 48.9827 181.82 48.9827" fill="#025E53"/>
<path d="M185.524 49.9795C185.428 49.98 185.332 49.9588 185.245 49.9176C185.158 49.8764 185.081 49.8162 185.02 49.7413L181.4 45.3569C181.34 45.2911 181.293 45.2135 181.263 45.129C181.233 45.0444 181.221 44.9546 181.227 44.865C181.232 44.7755 181.256 44.6881 181.296 44.608C181.337 44.528 181.393 44.4571 181.461 44.3996C181.53 44.342 181.609 44.2992 181.694 44.2735C181.779 44.2478 181.869 44.2399 181.958 44.2502C182.046 44.2606 182.132 44.2889 182.209 44.3336C182.286 44.3783 182.353 44.4383 182.407 44.51L186.031 48.8945C186.087 48.9612 186.129 49.0382 186.154 49.1213C186.18 49.2043 186.189 49.2916 186.181 49.3782C186.172 49.4648 186.147 49.5488 186.107 49.6255C186.066 49.7023 186.011 49.7701 185.944 49.8251C185.826 49.9243 185.677 49.9788 185.524 49.9795Z" fill="#025E53"/>
<path d="M191.25 49.9795C191.153 49.98 191.058 49.9588 190.971 49.9176C190.884 49.8764 190.807 49.8162 190.746 49.7413L187.126 45.3569C187.065 45.2911 187.019 45.2135 186.989 45.129C186.959 45.0444 186.947 44.9546 186.953 44.865C186.958 44.7755 186.982 44.6881 187.022 44.608C187.063 44.528 187.119 44.4571 187.187 44.3996C187.255 44.342 187.335 44.2992 187.42 44.2735C187.505 44.2478 187.595 44.2399 187.683 44.2502C187.772 44.2606 187.857 44.2889 187.935 44.3336C188.012 44.3783 188.079 44.4383 188.133 44.51L191.757 48.8945C191.813 48.9612 191.854 49.0382 191.88 49.1213C191.906 49.2043 191.915 49.2916 191.906 49.3782C191.898 49.4648 191.873 49.5488 191.833 49.6255C191.792 49.7023 191.737 49.7701 191.67 49.8251C191.552 49.9243 191.403 49.9788 191.25 49.9795Z" fill="#025E53"/>
<path d="M196.975 49.9795C196.879 49.9799 196.784 49.9588 196.697 49.9176C196.61 49.8764 196.533 49.8161 196.472 49.7413L192.847 45.3569C192.736 45.2218 192.682 45.0476 192.698 44.8726C192.714 44.6977 192.799 44.5363 192.933 44.424C193.067 44.3117 193.24 44.2577 193.413 44.2738C193.587 44.2899 193.747 44.3749 193.859 44.51L197.479 48.8944C197.534 48.9608 197.576 49.0377 197.602 49.1206C197.628 49.2034 197.638 49.2907 197.63 49.3772C197.622 49.4638 197.598 49.5479 197.557 49.6248C197.517 49.7017 197.462 49.7698 197.396 49.8251C197.278 49.9242 197.129 49.9788 196.975 49.9795Z" fill="#025E53"/>
<path d="M202.701 49.9795C202.605 49.9802 202.51 49.9592 202.423 49.918C202.335 49.8768 202.259 49.8164 202.198 49.7413L198.573 45.3569C198.462 45.2218 198.408 45.0476 198.424 44.8726C198.44 44.6977 198.524 44.5363 198.659 44.424C198.793 44.3117 198.966 44.2577 199.139 44.2738C199.313 44.2899 199.473 44.3749 199.584 44.51L203.205 48.8944C203.26 48.9608 203.302 49.0377 203.328 49.1206C203.354 49.2034 203.364 49.2907 203.356 49.3772C203.348 49.4638 203.323 49.5479 203.283 49.6248C203.243 49.7017 203.188 49.7698 203.121 49.8251C203.003 49.9242 202.855 49.9788 202.701 49.9795Z" fill="#025E53"/>
<path d="M208.427 49.9795C208.331 49.9802 208.235 49.9592 208.148 49.918C208.061 49.8768 207.984 49.8164 207.923 49.7413L204.299 45.3569C204.187 45.2218 204.134 45.0476 204.15 44.8726C204.166 44.6977 204.25 44.5363 204.384 44.424C204.518 44.3117 204.691 44.2577 204.865 44.2738C205.038 44.2899 205.199 44.3749 205.31 44.51L208.93 48.8944C208.986 48.9608 209.028 49.0377 209.054 49.1206C209.08 49.2034 209.089 49.2907 209.081 49.3772C209.074 49.4638 209.049 49.5479 209.009 49.6248C208.969 49.7017 208.914 49.7698 208.847 49.8251C208.729 49.9242 208.581 49.9788 208.427 49.9795Z" fill="#025E53"/>
<path d="M214.153 49.9795C214.056 49.98 213.96 49.9588 213.872 49.9177C213.784 49.8765 213.707 49.8162 213.645 49.7413L210.025 45.3569C209.913 45.2218 209.86 45.0476 209.876 44.8726C209.892 44.6977 209.976 44.5363 210.11 44.424C210.244 44.3117 210.417 44.2577 210.591 44.2738C210.764 44.2899 210.924 44.3749 211.036 44.51L214.656 48.8944C214.736 48.991 214.787 49.1084 214.803 49.233C214.819 49.3576 214.799 49.4842 214.746 49.598C214.694 49.7119 214.61 49.8082 214.504 49.8757C214.399 49.9433 214.277 49.9793 214.153 49.9795Z" fill="#025E53"/>
<path d="M222.277 49.9795C222.118 49.9842 221.962 49.9292 221.84 49.8251C221.706 49.7127 221.623 49.5515 221.607 49.3771C221.592 49.2026 221.645 49.029 221.757 48.8944L225.377 44.51C225.488 44.3749 225.648 44.2899 225.822 44.2738C225.996 44.2577 226.168 44.3117 226.302 44.424C226.437 44.5363 226.521 44.6977 226.537 44.8726C226.553 45.0476 226.499 45.2218 226.388 45.3569L222.768 49.7413C222.708 49.814 222.633 49.8729 222.548 49.914C222.464 49.9551 222.371 49.9774 222.277 49.9795Z" fill="#025E53"/>
<path d="M228.004 49.9795C227.844 49.9851 227.687 49.93 227.566 49.8251C227.432 49.7127 227.349 49.5515 227.333 49.3771C227.318 49.2026 227.371 49.029 227.483 48.8944L231.103 44.51C231.214 44.3749 231.374 44.2899 231.548 44.2738C231.722 44.2577 231.894 44.3117 232.029 44.424C232.163 44.5363 232.247 44.6977 232.263 44.8726C232.279 45.0476 232.226 45.2218 232.114 45.3569L228.494 49.7413C228.434 49.814 228.359 49.8729 228.274 49.914C228.19 49.9551 228.097 49.9774 228.004 49.9795Z" fill="#025E53"/>
<path d="M233.729 49.9795C233.569 49.9851 233.413 49.93 233.291 49.8251C233.158 49.7127 233.074 49.5515 233.059 49.3771C233.043 49.2026 233.097 49.029 233.208 48.8944L236.828 44.51C236.94 44.3749 237.1 44.2899 237.274 44.2738C237.447 44.2577 237.62 44.3117 237.754 44.424C237.888 44.5363 237.973 44.6977 237.989 44.8726C238.005 45.0476 237.951 45.2218 237.839 45.3569L234.219 49.7413C234.159 49.814 234.085 49.8729 234 49.914C233.915 49.9551 233.823 49.9774 233.729 49.9795Z" fill="#025E53"/>
<path d="M239.455 49.9795C239.295 49.9851 239.139 49.93 239.017 49.8251C238.884 49.7127 238.8 49.5515 238.785 49.3771C238.769 49.2026 238.823 49.029 238.934 48.8944L242.554 44.51C242.666 44.3749 242.826 44.2899 243 44.2738C243.173 44.2577 243.346 44.3117 243.48 44.424C243.614 44.5363 243.699 44.6977 243.715 44.8726C243.731 45.0476 243.677 45.2218 243.566 45.3569L239.945 49.7413C239.885 49.814 239.81 49.8729 239.726 49.914C239.641 49.9551 239.549 49.9774 239.455 49.9795Z" fill="#025E53"/>
<path d="M245.181 49.9795C245.021 49.9851 244.864 49.93 244.743 49.8251C244.676 49.7698 244.621 49.7017 244.581 49.6248C244.541 49.5479 244.516 49.4638 244.508 49.3772C244.501 49.2907 244.51 49.2034 244.536 49.1206C244.562 49.0377 244.604 48.9608 244.66 48.8944L248.28 44.51C248.391 44.3749 248.551 44.2899 248.725 44.2738C248.899 44.2577 249.072 44.3117 249.206 44.424C249.34 44.5363 249.424 44.6977 249.44 44.8726C249.456 45.0476 249.403 45.2218 249.291 45.3569L245.667 49.7413C245.608 49.8141 245.534 49.8731 245.45 49.9143C245.366 49.9554 245.274 49.9776 245.181 49.9795Z" fill="#025E53"/>
<path d="M250.907 49.9795C250.747 49.9851 250.59 49.93 250.469 49.8251C250.402 49.7698 250.347 49.7017 250.307 49.6248C250.267 49.5479 250.242 49.4638 250.235 49.3772C250.227 49.2907 250.236 49.2034 250.262 49.1206C250.288 49.0377 250.33 48.9608 250.386 48.8944L254.006 44.51C254.117 44.3749 254.277 44.2899 254.451 44.2738C254.625 44.2577 254.798 44.3117 254.932 44.424C255.066 44.5363 255.15 44.6977 255.166 44.8726C255.182 45.0476 255.129 45.2218 255.017 45.3569L251.392 49.7413C251.333 49.8141 251.26 49.8731 251.176 49.9143C251.092 49.9554 251 49.9776 250.907 49.9795Z" fill="#025E53"/>
<path d="M266.473 149.762C266.299 149.762 266.132 149.692 266.009 149.568C265.886 149.444 265.816 149.276 265.816 149.1V38.52H171.314V149.109C171.314 149.284 171.245 149.453 171.122 149.577C170.999 149.701 170.832 149.771 170.658 149.771C170.484 149.771 170.317 149.701 170.193 149.577C170.07 149.453 170.001 149.284 170.001 149.109V37.8672C170.001 37.6917 170.07 37.5234 170.193 37.3993C170.317 37.2753 170.484 37.2056 170.658 37.2056H266.473C266.647 37.2056 266.814 37.2753 266.937 37.3993C267.06 37.5234 267.13 37.6917 267.13 37.8672V149.109C267.127 149.283 267.057 149.449 266.934 149.571C266.811 149.693 266.646 149.762 266.473 149.762Z" fill="#025E53"/>
<path d="M188.881 127.085H184.464C184.29 127.085 184.123 127.016 184 126.892C183.877 126.768 183.808 126.599 183.808 126.424C183.808 126.248 183.877 126.08 184 125.956C184.123 125.832 184.29 125.762 184.464 125.762H188.881C189.055 125.762 189.223 125.832 189.346 125.956C189.469 126.08 189.538 126.248 189.538 126.424C189.538 126.599 189.469 126.768 189.346 126.892C189.223 127.016 189.055 127.085 188.881 127.085Z" fill="#025E53"/>
<path d="M210.992 127.085H206.299C206.125 127.085 205.958 127.016 205.835 126.892C205.712 126.768 205.643 126.599 205.643 126.424C205.643 126.248 205.712 126.08 205.835 125.956C205.958 125.832 206.125 125.762 206.299 125.762H210.979C211.153 125.762 211.32 125.832 211.443 125.956C211.566 126.08 211.636 126.248 211.636 126.424C211.636 126.599 211.566 126.768 211.443 126.892C211.32 127.016 211.153 127.085 210.979 127.085H210.992Z" fill="#025E53"/>
<path d="M202.058 127.085H193.329C193.155 127.085 192.988 127.016 192.865 126.892C192.741 126.768 192.672 126.599 192.672 126.424C192.672 126.248 192.741 126.08 192.865 125.956C192.988 125.832 193.155 125.762 193.329 125.762H202.058C202.232 125.762 202.399 125.832 202.522 125.956C202.645 126.08 202.714 126.248 202.714 126.424C202.714 126.599 202.645 126.768 202.522 126.892C202.399 127.016 202.232 127.085 202.058 127.085Z" fill="#025E53"/>
<path d="M244.253 85.8264H234.902V105.684H244.253V85.8264Z" fill="white"/>
<path d="M244.257 106.346H234.907C234.732 106.346 234.566 106.276 234.442 106.152C234.319 106.028 234.25 105.86 234.25 105.684V85.8352C234.25 85.6597 234.319 85.4914 234.442 85.3674C234.566 85.2433 234.732 85.1736 234.907 85.1736H244.257C244.431 85.1736 244.598 85.2433 244.721 85.3674C244.844 85.4914 244.914 85.6597 244.914 85.8352V105.684C244.914 105.86 244.844 106.028 244.721 106.152C244.598 106.276 244.431 106.346 244.257 106.346ZM235.563 105.022H243.6V86.4968H235.563V105.022Z" fill="#025E53"/>
<path d="M231.054 85.8264H225.946V105.684H231.054V85.8264Z" fill="white"/>
<path d="M231.054 106.346H225.946C225.772 106.346 225.605 106.276 225.481 106.152C225.358 106.028 225.289 105.86 225.289 105.684V85.8352C225.289 85.6597 225.358 85.4914 225.481 85.3674C225.605 85.2433 225.772 85.1736 225.946 85.1736H231.054C231.228 85.1736 231.396 85.2433 231.519 85.3674C231.642 85.4914 231.711 85.6597 231.711 85.8352V105.684C231.711 105.86 231.642 106.028 231.519 106.152C231.396 106.276 231.228 106.346 231.054 106.346ZM226.602 105.022H230.398V86.4968H226.602V105.022Z" fill="#025E53"/>
<path d="M253.117 85.8264H248.009V105.684H253.117V85.8264Z" fill="white"/>
<path d="M253.139 106.346H248.03C247.856 106.346 247.689 106.276 247.566 106.152C247.443 106.028 247.374 105.86 247.374 105.684V85.8352C247.374 85.6597 247.443 85.4914 247.566 85.3674C247.689 85.2433 247.856 85.1736 248.03 85.1736H253.139C253.313 85.1736 253.48 85.2433 253.603 85.3674C253.726 85.4914 253.796 85.6597 253.796 85.8352V105.684C253.796 105.86 253.726 106.028 253.603 106.152C253.48 106.276 253.313 106.346 253.139 106.346ZM248.687 105.022H252.482V86.4968H248.687V105.022Z" fill="#025E53"/>
<path d="M244.253 56.5383H234.902V76.396H244.253V56.5383Z" fill="white"/>
<path d="M244.257 77.0576H234.907C234.732 77.0576 234.566 76.9879 234.442 76.8638C234.319 76.7397 234.25 76.5715 234.25 76.396V56.5471C234.25 56.3717 234.319 56.2034 234.442 56.0793C234.566 55.9552 234.732 55.8855 234.907 55.8855H244.257C244.431 55.8855 244.598 55.9552 244.721 56.0793C244.844 56.2034 244.914 56.3717 244.914 56.5471V76.396C244.914 76.5715 244.844 76.7397 244.721 76.8638C244.598 76.9879 244.431 77.0576 244.257 77.0576ZM235.563 75.7344H243.6V57.2088H235.563V75.7344Z" fill="#025E53"/>
<path d="M231.054 56.5383H225.946V76.396H231.054V56.5383Z" fill="white"/>
<path d="M231.054 77.0576H225.946C225.772 77.0576 225.605 76.9879 225.481 76.8638C225.358 76.7397 225.289 76.5715 225.289 76.396V56.5471C225.289 56.3717 225.358 56.2034 225.481 56.0793C225.605 55.9552 225.772 55.8855 225.946 55.8855H231.054C231.228 55.8855 231.396 55.9552 231.519 56.0793C231.642 56.2034 231.711 56.3717 231.711 56.5471V76.396C231.711 76.5715 231.642 76.7397 231.519 76.8638C231.396 76.9879 231.228 77.0576 231.054 77.0576ZM226.602 75.7344H230.398V57.2088H226.602V75.7344Z" fill="#025E53"/>
<path d="M253.117 56.5383H248.009V76.396H253.117V56.5383Z" fill="white"/>
<path d="M253.139 77.0576H248.03C247.856 77.0576 247.689 76.9879 247.566 76.8638C247.443 76.7397 247.374 76.5715 247.374 76.396V56.5471C247.374 56.3717 247.443 56.2034 247.566 56.0793C247.689 55.9552 247.856 55.8855 248.03 55.8855H253.139C253.313 55.8855 253.48 55.9552 253.603 56.0793C253.726 56.2034 253.796 56.3717 253.796 56.5471V76.396C253.796 76.5715 253.726 76.7397 253.603 76.8638C253.48 76.9879 253.313 77.0576 253.139 77.0576ZM248.687 75.7344H252.482V57.2088H248.687V75.7344Z" fill="#025E53"/>
<path d="M202.452 85.8264H193.101V105.684H202.452V85.8264Z" fill="white"/>
<path d="M202.452 106.346H193.101C192.927 106.346 192.76 106.276 192.637 106.152C192.514 106.028 192.445 105.86 192.445 105.684V85.8352C192.445 85.6597 192.514 85.4914 192.637 85.3674C192.76 85.2433 192.927 85.1736 193.101 85.1736H202.452C202.626 85.1736 202.793 85.2433 202.916 85.3674C203.039 85.4914 203.108 85.6597 203.108 85.8352V105.684C203.108 105.86 203.039 106.028 202.916 106.152C202.793 106.276 202.626 106.346 202.452 106.346ZM193.758 105.022H201.795V86.4968H193.758V105.022Z" fill="#025E53"/>
<path d="M189.249 85.8264H184.14V105.684H189.249V85.8264Z" fill="white"/>
<path d="M189.254 106.346H184.145C183.971 106.346 183.804 106.276 183.681 106.152C183.558 106.028 183.488 105.86 183.488 105.684V85.8352C183.488 85.6597 183.558 85.4914 183.681 85.3674C183.804 85.2433 183.971 85.1736 184.145 85.1736H189.254C189.428 85.1736 189.595 85.2433 189.718 85.3674C189.841 85.4914 189.91 85.6597 189.91 85.8352V105.684C189.91 105.86 189.841 106.028 189.718 106.152C189.595 106.276 189.428 106.346 189.254 106.346ZM184.802 105.022H188.597V86.4968H184.802V105.022Z" fill="#025E53"/>
<path d="M211.312 85.8264H206.203V105.684H211.312V85.8264Z" fill="white"/>
<path d="M211.312 106.346H206.208C206.034 106.346 205.866 106.276 205.743 106.152C205.62 106.028 205.551 105.86 205.551 105.684V85.8352C205.551 85.6597 205.62 85.4914 205.743 85.3674C205.866 85.2433 206.034 85.1736 206.208 85.1736H211.312C211.486 85.1736 211.653 85.2433 211.776 85.3674C211.899 85.4914 211.969 85.6597 211.969 85.8352V105.684C211.969 105.86 211.899 106.028 211.776 106.152C211.653 106.276 211.486 106.346 211.312 106.346ZM206.864 105.022H210.677V86.4968H206.886L206.864 105.022Z" fill="#025E53"/>
<path d="M202.452 56.5383H193.101V76.396H202.452V56.5383Z" fill="white"/>
<path d="M202.452 77.0576H193.101C192.927 77.0576 192.76 76.9879 192.637 76.8638C192.514 76.7397 192.445 76.5715 192.445 76.396V56.5471C192.445 56.3717 192.514 56.2034 192.637 56.0793C192.76 55.9552 192.927 55.8855 193.101 55.8855H202.452C202.626 55.8855 202.793 55.9552 202.916 56.0793C203.039 56.2034 203.108 56.3717 203.108 56.5471V76.396C203.108 76.5715 203.039 76.7397 202.916 76.8638C202.793 76.9879 202.626 77.0576 202.452 77.0576ZM193.758 75.7344H201.795V57.2088H193.758V75.7344Z" fill="#025E53"/>
<path d="M189.249 56.5383H184.14V76.396H189.249V56.5383Z" fill="white"/>
<path d="M189.254 77.0576H184.145C183.971 77.0576 183.804 76.9879 183.681 76.8638C183.558 76.7397 183.488 76.5715 183.488 76.396V56.5471C183.488 56.3717 183.558 56.2034 183.681 56.0793C183.804 55.9552 183.971 55.8855 184.145 55.8855H189.254C189.428 55.8855 189.595 55.9552 189.718 56.0793C189.841 56.2034 189.91 56.3717 189.91 56.5471V76.396C189.91 76.5715 189.841 76.7397 189.718 76.8638C189.595 76.9879 189.428 77.0576 189.254 77.0576ZM184.802 75.7344H188.597V57.2088H184.802V75.7344Z" fill="#025E53"/>
<path d="M211.312 56.5383H206.203V76.396H211.312V56.5383Z" fill="white"/>
<path d="M211.312 77.0576H206.208C206.034 77.0576 205.866 76.9879 205.743 76.8638C205.62 76.7397 205.551 76.5715 205.551 76.396V56.5471C205.551 56.3717 205.62 56.2034 205.743 56.0793C205.866 55.9552 206.034 55.8855 206.208 55.8855H211.312C211.486 55.8855 211.653 55.9552 211.776 56.0793C211.899 56.2034 211.969 56.3717 211.969 56.5471V76.396C211.969 76.5715 211.899 76.7397 211.776 76.8638C211.653 76.9879 211.486 77.0576 211.312 77.0576ZM206.864 75.7344H210.677V57.2088H206.886L206.864 75.7344Z" fill="#025E53"/>
<path d="M188.982 67.7771H184.145C183.971 67.7771 183.804 67.7074 183.681 67.5833C183.558 67.4593 183.488 67.291 183.488 67.1155C183.488 66.94 183.558 66.7717 183.681 66.6476C183.804 66.5236 183.971 66.4539 184.145 66.4539H188.982C189.156 66.4539 189.323 66.5236 189.446 66.6476C189.57 66.7717 189.639 66.94 189.639 67.1155C189.639 67.291 189.57 67.4593 189.446 67.5833C189.323 67.7074 189.156 67.7771 188.982 67.7771Z" fill="#025E53"/>
<path d="M211.027 67.7771H206.65C206.476 67.7771 206.309 67.7074 206.185 67.5833C206.062 67.4593 205.993 67.291 205.993 67.1155C205.993 66.94 206.062 66.7717 206.185 66.6476C206.309 66.5236 206.476 66.4539 206.65 66.4539H211.027C211.201 66.4539 211.369 66.5236 211.492 66.6476C211.615 66.7717 211.684 66.94 211.684 67.1155C211.684 67.291 211.615 67.4593 211.492 67.5833C211.369 67.7074 211.201 67.7771 211.027 67.7771Z" fill="#025E53"/>
<path d="M201.953 67.7771H193.469C193.295 67.7771 193.128 67.7074 193.005 67.5833C192.881 67.4593 192.812 67.291 192.812 67.1155C192.812 66.94 192.881 66.7717 193.005 66.6476C193.128 66.5236 193.295 66.4539 193.469 66.4539H201.953C202.127 66.4539 202.294 66.5236 202.417 66.6476C202.54 66.7717 202.609 66.94 202.609 67.1155C202.609 67.291 202.54 67.4593 202.417 67.5833C202.294 67.7074 202.127 67.7771 201.953 67.7771Z" fill="#025E53"/>
<path d="M230.787 67.7771H225.946C225.772 67.7771 225.605 67.7074 225.481 67.5833C225.358 67.4593 225.289 67.291 225.289 67.1155C225.289 66.94 225.358 66.7717 225.481 66.6476C225.605 66.5236 225.772 66.4539 225.946 66.4539H230.787C230.961 66.4539 231.128 66.5236 231.252 66.6476C231.375 66.7717 231.444 66.94 231.444 67.1155C231.444 67.291 231.375 67.4593 231.252 67.5833C231.128 67.7074 230.961 67.7771 230.787 67.7771Z" fill="#025E53"/>
<path d="M252.789 67.7771H248.214C248.04 67.7771 247.873 67.7074 247.75 67.5833C247.627 67.4593 247.558 67.291 247.558 67.1155C247.558 66.94 247.627 66.7717 247.75 66.6476C247.873 66.5236 248.04 66.4539 248.214 66.4539H252.789C252.963 66.4539 253.13 66.5236 253.253 66.6476C253.376 66.7717 253.445 66.94 253.445 67.1155C253.445 67.291 253.376 67.4593 253.253 67.5833C253.13 67.7074 252.963 67.7771 252.789 67.7771Z" fill="#025E53"/>
<path d="M244.257 67.7771H234.907C234.732 67.7771 234.566 67.7074 234.442 67.5833C234.319 67.4593 234.25 67.291 234.25 67.1155C234.25 66.94 234.319 66.7717 234.442 66.6476C234.566 66.5236 234.732 66.4539 234.907 66.4539H244.257C244.431 66.4539 244.598 66.5236 244.721 66.6476C244.844 66.7717 244.914 66.94 244.914 67.1155C244.914 67.291 244.844 67.4593 244.721 67.5833C244.598 67.7074 244.431 67.7771 244.257 67.7771Z" fill="#025E53"/>
<path d="M230.787 97.3299H225.946C225.772 97.3299 225.605 97.2602 225.481 97.1361C225.358 97.012 225.289 96.8437 225.289 96.6682C225.289 96.4927 225.358 96.3245 225.481 96.2004C225.605 96.0763 225.772 96.0066 225.946 96.0066H230.787C230.961 96.0066 231.128 96.0763 231.252 96.2004C231.375 96.3245 231.444 96.4927 231.444 96.6682C231.444 96.8437 231.375 97.012 231.252 97.1361C231.128 97.2602 230.961 97.3299 230.787 97.3299Z" fill="#025E53"/>
<path d="M252.789 97.3299H248.214C248.04 97.3299 247.873 97.2602 247.75 97.1361C247.627 97.012 247.558 96.8437 247.558 96.6682C247.558 96.4927 247.627 96.3245 247.75 96.2004C247.873 96.0763 248.04 96.0066 248.214 96.0066H252.789C252.963 96.0066 253.13 96.0763 253.253 96.2004C253.376 96.3245 253.445 96.4927 253.445 96.6682C253.445 96.8437 253.376 97.012 253.253 97.1361C253.13 97.2602 252.963 97.3299 252.789 97.3299Z" fill="#025E53"/>
<path d="M244.257 97.3299H234.907C234.732 97.3299 234.566 97.2602 234.442 97.1361C234.319 97.012 234.25 96.8437 234.25 96.6682C234.25 96.4927 234.319 96.3245 234.442 96.2004C234.566 96.0763 234.732 96.0066 234.907 96.0066H244.257C244.431 96.0066 244.598 96.0763 244.721 96.2004C244.844 96.3245 244.914 96.4927 244.914 96.6682C244.914 96.8437 244.844 97.012 244.721 97.1361C244.598 97.2602 244.431 97.3299 244.257 97.3299Z" fill="#025E53"/>
<path d="M188.352 97.3299H184.281C184.107 97.3299 183.94 97.2602 183.816 97.1361C183.693 97.012 183.624 96.8437 183.624 96.6682C183.624 96.4927 183.693 96.3245 183.816 96.2004C183.94 96.0763 184.107 96.0066 184.281 96.0066H188.352C188.526 96.0066 188.693 96.0763 188.816 96.2004C188.939 96.3245 189.008 96.4927 189.008 96.6682C189.008 96.8437 188.939 97.012 188.816 97.1361C188.693 97.2602 188.526 97.3299 188.352 97.3299Z" fill="#025E53"/>
<path d="M211.312 97.3299H206.299C206.125 97.3299 205.958 97.2602 205.835 97.1361C205.712 97.012 205.643 96.8437 205.643 96.6682C205.643 96.4927 205.712 96.3245 205.835 96.2004C205.958 96.0763 206.125 96.0066 206.299 96.0066H211.299C211.473 96.0066 211.64 96.0763 211.763 96.2004C211.886 96.3245 211.955 96.4927 211.955 96.6682C211.955 96.8437 211.886 97.012 211.763 97.1361C211.64 97.2602 211.473 97.3299 211.299 97.3299H211.312Z" fill="#025E53"/>
<path d="M202.093 97.3299H193.749C193.575 97.3299 193.408 97.2602 193.285 97.1361C193.162 97.012 193.093 96.8437 193.093 96.6682C193.093 96.4927 193.162 96.3245 193.285 96.2004C193.408 96.0763 193.575 96.0066 193.749 96.0066H202.093C202.267 96.0066 202.434 96.0763 202.557 96.2004C202.68 96.3245 202.749 96.4927 202.749 96.6682C202.749 96.8437 202.68 97.012 202.557 97.1361C202.434 97.2602 202.267 97.3299 202.093 97.3299Z" fill="#025E53"/>
<path d="M212.367 81.398H183.037C182.863 81.398 182.696 81.3283 182.573 81.2042C182.45 81.0801 182.381 80.9118 182.381 80.7363C182.381 80.5609 182.45 80.3926 182.573 80.2685C182.696 80.1444 182.863 80.0747 183.037 80.0747H212.367C212.541 80.0747 212.708 80.1444 212.831 80.2685C212.954 80.3926 213.023 80.5609 213.023 80.7363C213.023 80.9118 212.954 81.0801 212.831 81.2042C212.708 81.3283 212.541 81.398 212.367 81.398Z" fill="#025E53"/>
<path d="M254.076 81.398H224.746C224.572 81.398 224.405 81.3283 224.282 81.2042C224.159 81.0801 224.09 80.9118 224.09 80.7363C224.09 80.5609 224.159 80.3926 224.282 80.2685C224.405 80.1444 224.572 80.0747 224.746 80.0747H254.076C254.25 80.0747 254.417 80.1444 254.54 80.2685C254.663 80.3926 254.732 80.5609 254.732 80.7363C254.732 80.9118 254.663 81.0801 254.54 81.2042C254.417 81.3283 254.25 81.398 254.076 81.398Z" fill="#025E53"/>
<path d="M212.367 111.317H183.037C182.863 111.317 182.696 111.247 182.573 111.123C182.45 110.999 182.381 110.831 182.381 110.655C182.381 110.48 182.45 110.311 182.573 110.187C182.696 110.063 182.863 109.993 183.037 109.993H212.367C212.541 109.993 212.708 110.063 212.831 110.187C212.954 110.311 213.023 110.48 213.023 110.655C213.023 110.831 212.954 110.999 212.831 111.123C212.708 111.247 212.541 111.317 212.367 111.317Z" fill="#025E53"/>
<path d="M212.367 140.508H183.037C182.863 140.508 182.696 140.438 182.573 140.314C182.45 140.19 182.381 140.022 182.381 139.846C182.381 139.671 182.45 139.502 182.573 139.378C182.696 139.254 182.863 139.185 183.037 139.185H212.367C212.541 139.185 212.708 139.254 212.831 139.378C212.954 139.502 213.023 139.671 213.023 139.846C213.023 140.022 212.954 140.19 212.831 140.314C212.708 140.438 212.541 140.508 212.367 140.508Z" fill="#025E53"/>
<path d="M61.5787 149.109C63.7412 143.013 60.3837 140.256 57.6653 139.14C58.3554 137.646 58.5067 135.956 58.0933 134.361C57.6799 132.767 56.7276 131.367 55.4003 130.404C54.073 129.44 52.4539 128.974 50.8219 129.084C49.1898 129.194 47.6469 129.874 46.4589 131.007C45.9189 130.4 45.1749 130.017 44.3708 129.93C43.4979 129.838 42.6242 130.098 41.9413 130.654C41.2585 131.209 40.8224 132.015 40.7286 132.895C40.6669 133.5 40.7745 134.112 41.0394 134.659C39.4059 134.885 37.9111 135.706 36.8371 136.967C35.763 138.227 35.184 139.84 35.2093 141.502C35.2346 143.163 35.8624 144.757 36.9744 145.984C38.0864 147.211 39.6055 147.985 41.2452 148.161" fill="#B2DDC9"/>
<path d="M61.5785 149.762C61.5024 149.761 61.4269 149.748 61.3552 149.722C61.1916 149.662 61.0582 149.54 60.9843 149.381C60.9104 149.222 60.9022 149.04 60.9613 148.875C62.9268 143.339 60.1208 140.852 57.4199 139.745C57.3376 139.712 57.263 139.663 57.2004 139.6C57.1379 139.537 57.089 139.461 57.0566 139.379C57.0219 139.296 57.004 139.208 57.004 139.118C57.004 139.029 57.0219 138.94 57.0566 138.858C57.6855 137.502 57.8247 135.968 57.4505 134.52C57.0763 133.072 56.2121 131.801 55.007 130.927C53.8019 130.052 52.3315 129.63 50.8499 129.731C49.3683 129.833 47.9685 130.452 46.892 131.483C46.8284 131.543 46.7537 131.589 46.6723 131.619C46.5908 131.649 46.5042 131.663 46.4175 131.659C46.3308 131.655 46.2457 131.635 46.1671 131.597C46.0885 131.56 46.0179 131.508 45.9595 131.443C45.6204 131.053 45.175 130.772 44.6787 130.635C44.1823 130.498 43.6569 130.511 43.1677 130.672C42.6785 130.833 42.2471 131.136 41.9271 131.542C41.6071 131.948 41.4125 132.44 41.3675 132.956C41.3151 133.445 41.4017 133.94 41.6171 134.381C41.6624 134.475 41.6849 134.578 41.6827 134.682C41.6805 134.787 41.6538 134.889 41.6046 134.981C41.5554 135.073 41.4852 135.151 41.3998 135.21C41.3144 135.27 41.2163 135.307 41.1136 135.321C39.6398 135.526 38.2914 136.267 37.3226 137.404C36.3537 138.542 35.8314 139.997 35.854 141.496C35.8767 142.995 36.4427 144.434 37.4454 145.541C38.4481 146.648 39.8183 147.348 41.2975 147.508C41.3837 147.517 41.4674 147.543 41.5436 147.584C41.6199 147.626 41.6872 147.682 41.7419 147.75C41.7966 147.818 41.8375 147.896 41.8622 147.979C41.887 148.063 41.8952 148.151 41.8863 148.238C41.8774 148.325 41.8515 148.409 41.8103 148.486C41.7691 148.563 41.7132 148.63 41.6459 148.686C41.5786 148.741 41.5013 148.782 41.4182 148.807C41.3351 148.832 41.248 148.84 41.1618 148.831C39.4278 148.65 37.8129 147.858 36.6014 146.595C35.39 145.332 34.6597 143.679 34.5394 141.927C34.4191 140.174 34.9163 138.436 35.9436 137.016C36.9709 135.597 38.4622 134.589 40.1549 134.169C40.0484 133.737 40.0173 133.289 40.063 132.846C40.1202 132.325 40.2788 131.82 40.5298 131.36C40.7809 130.9 41.1193 130.495 41.5259 130.167C41.9325 129.84 42.3991 129.596 42.8992 129.45C43.3993 129.304 43.9231 129.259 44.4405 129.317C45.184 129.398 45.8888 129.692 46.4717 130.164C47.6613 129.208 49.1053 128.628 50.6217 128.497C52.138 128.366 53.6588 128.691 54.9924 129.429C56.3261 130.168 57.413 131.288 58.116 132.648C58.8191 134.008 59.1069 135.547 58.9432 137.072C58.8709 137.676 58.7238 138.269 58.5055 138.836C60.7862 139.956 64.494 142.854 62.1827 149.369C62.1312 149.487 62.0465 149.587 61.9391 149.657C61.8317 149.727 61.7063 149.763 61.5785 149.762Z" fill="#025E53"/>
<path d="M41.5778 149.109C42.3688 148.364 42.8399 147.336 42.891 146.246C42.9146 145.268 42.6123 144.31 42.0323 143.525C41.4523 142.74 40.628 142.173 39.691 141.915C39.9002 141.595 40.0205 141.225 40.0394 140.843C40.0583 140.461 39.9751 140.081 39.7985 139.742C39.6219 139.403 39.3584 139.118 39.0354 138.917C38.7123 138.716 38.3416 138.606 37.9619 138.598C37.4415 138.587 36.9352 138.769 36.5392 139.11C36.131 138.598 35.6174 138.182 35.0339 137.89C34.4504 137.599 33.8109 137.438 33.1598 137.42C32.4361 137.393 31.7166 137.541 31.0619 137.853C30.4072 138.165 29.8367 138.631 29.3987 139.212C28.9607 139.793 28.668 140.472 28.5454 141.191C28.4229 141.911 28.4742 142.649 28.6948 143.344C26.8649 143.825 24.6543 145.549 25.4423 148.752" fill="#B2DDC9"/>
<path d="M41.5778 149.762C41.4424 149.762 41.3104 149.719 41.1997 149.641C41.0891 149.562 41.0053 149.451 40.9598 149.323C40.9143 149.194 40.9093 149.055 40.9455 148.923C40.9817 148.792 41.0572 148.675 41.1619 148.588C41.8108 147.968 42.1993 147.12 42.2475 146.22C42.2683 145.389 42.0117 144.575 41.5188 143.909C41.0258 143.243 40.3252 142.763 39.5291 142.546C39.4297 142.517 39.3382 142.466 39.262 142.396C39.1859 142.325 39.1271 142.238 39.0905 142.141C39.0539 142.043 39.0404 141.939 39.0512 141.835C39.062 141.732 39.0967 141.632 39.1526 141.544C39.2993 141.324 39.3842 141.068 39.3983 140.803C39.4124 140.538 39.3553 140.274 39.2329 140.039C39.1104 139.804 38.9273 139.607 38.7029 139.468C38.4784 139.329 38.2209 139.254 37.9575 139.251C37.5989 139.248 37.2512 139.375 36.977 139.608C36.9101 139.664 36.8329 139.706 36.7498 139.732C36.6666 139.758 36.5793 139.767 36.4926 139.759C36.406 139.751 36.3218 139.725 36.2449 139.684C36.168 139.643 36.1 139.587 36.0446 139.52C35.4819 138.802 34.6865 138.307 33.7979 138.121C32.9094 137.936 31.9842 138.071 31.1846 138.503C30.3849 138.935 29.7617 139.637 29.4241 140.486C29.0866 141.335 29.0561 142.276 29.3382 143.145C29.3638 143.231 29.3719 143.321 29.3622 143.409C29.3524 143.498 29.3249 143.584 29.2814 143.662C29.1927 143.818 29.0462 143.932 28.8742 143.979C28.4977 144.076 25.219 145.042 26.0901 148.58C26.1325 148.75 26.106 148.93 26.0165 149.081C25.927 149.231 25.7819 149.34 25.6129 149.382C25.444 149.425 25.2652 149.398 25.1158 149.308C24.9664 149.218 24.8586 149.072 24.8162 148.902C24.0589 145.814 25.8056 143.715 27.9243 142.899C27.8589 142.56 27.8296 142.215 27.8368 141.871C27.8732 140.476 28.4573 139.153 29.4608 138.192C30.4316 137.257 31.7256 136.738 33.0688 136.747C34.4121 136.756 35.6992 137.292 36.6574 138.241C37.0691 138.025 37.5287 137.918 37.9926 137.932C38.7318 137.952 39.4332 138.266 39.9428 138.806C40.4524 139.346 40.7287 140.067 40.711 140.812C40.7016 141.054 40.6634 141.294 40.5972 141.527C41.4999 141.931 42.2633 142.596 42.7908 143.438C43.3183 144.28 43.5863 145.26 43.5608 146.255C43.5014 147.538 42.9394 148.746 41.998 149.612C41.8795 149.71 41.7309 149.763 41.5778 149.762Z" fill="#025E53"/>
<path d="M44.4407 139.233C44.7247 138.349 45.3089 137.594 46.0907 137.102C46.8725 136.609 47.8017 136.41 48.7147 136.54C49.6278 136.669 50.4662 137.119 51.0824 137.81C51.6987 138.502 52.0533 139.39 52.0838 140.318C52.2438 140.339 52.402 140.373 52.5566 140.42C53.2841 140.659 53.8877 141.179 54.2348 141.866C54.582 142.554 54.6444 143.351 54.4083 144.085" fill="#B2DDC9"/>
<path d="M54.3995 144.747C54.3311 144.747 54.2632 144.737 54.1981 144.716C54.1143 144.691 54.0363 144.65 53.9687 144.594C53.901 144.539 53.8451 144.47 53.8043 144.392C53.7635 144.315 53.7385 144.229 53.731 144.142C53.7234 144.054 53.7334 143.966 53.7604 143.882C53.9426 143.315 53.8942 142.699 53.6258 142.168C53.3575 141.637 52.891 141.235 52.3289 141.05C52.2088 141.014 52.0857 140.989 51.9612 140.975C51.8093 140.951 51.6706 140.875 51.5684 140.759C51.4663 140.643 51.407 140.495 51.4008 140.34C51.3758 139.566 51.0799 138.826 50.5655 138.251C50.0511 137.675 49.3512 137.302 48.5898 137.196C47.8285 137.091 47.0545 137.26 46.4049 137.674C45.7554 138.088 45.272 138.72 45.0404 139.458C44.9864 139.625 44.8686 139.764 44.713 139.844C44.5575 139.924 44.3769 139.938 44.2108 139.884C44.0448 139.829 43.907 139.711 43.8278 139.554C43.7486 139.397 43.7344 139.215 43.7884 139.048C44.1058 138.059 44.7458 137.206 45.6046 136.63C46.4633 136.053 47.4903 135.786 48.5187 135.872C49.547 135.958 50.5165 136.392 51.2694 137.103C52.0223 137.814 52.5145 138.76 52.666 139.789L52.7316 139.811C53.6253 140.104 54.367 140.742 54.7938 141.586C55.2207 142.429 55.2976 143.409 55.0079 144.31C54.9625 144.437 54.8801 144.546 54.7714 144.624C54.6627 144.702 54.5329 144.745 54.3995 144.747Z" fill="#025E53"/>
<path d="M402.618 149.991C402.444 149.991 402.277 149.921 402.154 149.797C402.031 149.673 401.962 149.505 401.962 149.329V127.602L395.137 125.206C395.042 125.173 394.956 125.119 394.886 125.047C394.815 124.975 394.762 124.888 394.73 124.792L392.646 118.515C392.588 118.349 392.598 118.167 392.674 118.008C392.749 117.849 392.884 117.727 393.049 117.668C393.214 117.61 393.395 117.62 393.553 117.696C393.71 117.772 393.831 117.908 393.889 118.074L395.873 124.042L402.837 126.486C402.966 126.531 403.077 126.616 403.155 126.728C403.234 126.841 403.276 126.975 403.275 127.112V149.307C403.278 149.396 403.263 149.485 403.231 149.567C403.2 149.65 403.152 149.726 403.091 149.79C403.029 149.853 402.956 149.904 402.875 149.939C402.794 149.973 402.707 149.991 402.618 149.991Z" fill="#025E53"/>
<path d="M389.201 126.614C389.027 126.632 388.853 126.581 388.716 126.47C388.58 126.359 388.493 126.198 388.475 126.023C388.456 125.847 388.507 125.671 388.617 125.534C388.727 125.397 388.887 125.309 389.061 125.29L395.216 123.941C395.3 123.921 395.387 123.919 395.472 123.934C395.557 123.949 395.638 123.98 395.71 124.027C395.783 124.074 395.846 124.135 395.894 124.206C395.943 124.278 395.978 124.358 395.995 124.443C396.032 124.615 395.999 124.795 395.905 124.943C395.811 125.091 395.662 125.195 395.492 125.233L389.363 126.583C389.311 126.601 389.256 126.612 389.201 126.614Z" fill="#025E53"/>
<path d="M402.623 127.804H402.54C402.453 127.793 402.37 127.765 402.295 127.721C402.22 127.677 402.154 127.618 402.102 127.548C402.049 127.479 402.011 127.399 401.989 127.314C401.967 127.23 401.963 127.141 401.975 127.055L403.45 114.907L398.775 111.612C398.704 111.562 398.644 111.499 398.597 111.426C398.551 111.353 398.52 111.271 398.504 111.185C398.474 111.012 398.513 110.834 398.613 110.69C398.713 110.547 398.865 110.448 399.037 110.418C399.208 110.387 399.385 110.427 399.528 110.527L404.522 114.056C404.621 114.124 404.699 114.218 404.747 114.328C404.796 114.437 404.814 114.559 404.798 114.678L403.279 127.218C403.261 127.38 403.184 127.53 403.063 127.638C402.941 127.746 402.785 127.806 402.623 127.804Z" fill="#025E53"/>
<path d="M403.783 123.398C403.643 123.397 403.508 123.352 403.396 123.268C403.284 123.185 403.201 123.067 403.16 122.933C403.118 122.799 403.12 122.655 403.165 122.522C403.21 122.389 403.296 122.274 403.411 122.194L410.45 117.298C410.521 117.245 410.601 117.208 410.687 117.187C410.772 117.167 410.861 117.164 410.948 117.178C411.035 117.193 411.118 117.225 411.192 117.273C411.266 117.321 411.33 117.383 411.38 117.456C411.43 117.529 411.465 117.611 411.482 117.698C411.5 117.785 411.5 117.874 411.483 117.961C411.465 118.048 411.431 118.131 411.381 118.204C411.332 118.277 411.268 118.34 411.194 118.387L404.155 123.284C404.046 123.36 403.916 123.4 403.783 123.398Z" fill="#025E53"/>
<path d="M409.224 124.016C409.084 124.017 408.947 123.972 408.834 123.888L405.77 121.621C405.636 121.515 405.548 121.36 405.525 121.19C405.502 121.021 405.545 120.848 405.646 120.71C405.746 120.571 405.896 120.478 406.064 120.448C406.232 120.419 406.404 120.457 406.545 120.553L409.609 122.82C409.721 122.903 409.803 123.018 409.846 123.151C409.888 123.283 409.888 123.426 409.845 123.558C409.803 123.691 409.72 123.806 409.608 123.888C409.497 123.971 409.362 124.015 409.224 124.016Z" fill="#025E53"/>
<path d="M404.137 115.264C404.008 115.265 403.881 115.227 403.774 115.154C403.629 115.056 403.529 114.903 403.495 114.731C403.462 114.558 403.497 114.379 403.594 114.232L405.722 111.052C405.819 110.907 405.969 110.807 406.139 110.773C406.31 110.74 406.486 110.776 406.63 110.873C406.774 110.971 406.874 111.122 406.907 111.294C406.94 111.466 406.904 111.644 406.807 111.789L404.684 114.973C404.624 115.064 404.543 115.138 404.447 115.188C404.352 115.239 404.245 115.265 404.137 115.264Z" fill="#025E53"/>
<path d="M417.467 149.762H0.656628C0.48248 149.762 0.315513 149.692 0.192372 149.568C0.0692299 149.444 0 149.276 0 149.1C0 148.925 0.0692299 148.756 0.192372 148.632C0.315513 148.508 0.48248 148.438 0.656628 148.438H417.467C417.641 148.438 417.808 148.508 417.931 148.632C418.054 148.756 418.124 148.925 418.124 149.1C418.124 149.276 418.054 149.444 417.931 149.568C417.808 149.692 417.641 149.762 417.467 149.762Z" fill="#025E53"/>
<path d="M240.103 141.611C239.929 141.609 239.763 141.539 239.64 141.415C239.517 141.292 239.447 141.124 239.446 140.949V112.278C239.446 112.103 239.515 111.935 239.638 111.81C239.762 111.686 239.929 111.617 240.103 111.617C240.277 111.617 240.444 111.686 240.567 111.81C240.69 111.935 240.76 112.103 240.76 112.278V140.949C240.76 141.124 240.69 141.293 240.567 141.417C240.444 141.541 240.277 141.611 240.103 141.611Z" fill="#025E53"/>
<path d="M361.623 89.5359H291.539C291.365 89.5359 291.197 89.4662 291.074 89.3421C290.951 89.218 290.882 89.0498 290.882 88.8743C290.882 88.6988 290.951 88.5306 291.074 88.4065C291.197 88.2824 291.365 88.2126 291.539 88.2126H361.623C361.797 88.2126 361.964 88.2824 362.087 88.4065C362.21 88.5306 362.279 88.6988 362.279 88.8743C362.279 89.0498 362.21 89.218 362.087 89.3421C361.964 89.4662 361.797 89.5359 361.623 89.5359Z" fill="#025E53"/>
</g>
</svg>
