<?xml version="1.0" encoding="utf-8"?>
<!-- Generator: Adobe Illustrator 26.2.1, SVG Export Plug-In . SVG Version: 6.00 Build 0)  -->
<svg version="1.1" id="Layer_1" xmlns="http://www.w3.org/2000/svg" xmlns:xlink="http://www.w3.org/1999/xlink" x="0px" y="0px"
	 viewBox="0 0 430 430" style="enable-background:new 0 0 430 430;" xml:space="preserve">
<style type="text/css">
	.st0{fill:#121331;}
	.st1{fill:#08A78A;}
</style>
<path class="st0" d="M127.1,286.7c-39.5,0-71.7-32.2-71.7-71.7s32.2-71.7,71.7-71.7s71.7,32.2,71.7,71.7
	C198.8,254.5,166.7,286.7,127.1,286.7z M127.1,155.3c-32.9,0-59.7,26.8-59.7,59.7s26.8,59.7,59.7,59.7s59.7-26.8,59.7-59.7
	S160,155.3,127.1,155.3z"/>
<path class="st0" d="M302.8,286.7c-39.5,0-71.7-32.2-71.7-71.7s32.2-71.7,71.7-71.7s71.7,32.2,71.7,71.7S342.3,286.7,302.8,286.7z
	 M302.8,155.3c-32.9,0-59.7,26.8-59.7,59.7s26.8,59.7,59.7,59.7s59.7-26.8,59.7-59.7S335.7,155.3,302.8,155.3z"/>
<path class="st0" d="M191.4,207.2c-3.3,0-6-2.7-6-6c0-1.2,0.4-2.4,1-3.4c6.5-9.7,17.4-15.5,29.1-15.5c11,0,21.6,5.3,28.1,14.2
	c2,2.7,1.4,6.4-1.2,8.4c-2.7,2-6.4,1.4-8.4-1.2c-4.4-5.9-11.1-9.3-18.5-9.3c-7.6,0-14.8,3.8-19.1,10.1
	C195.4,206.1,193.5,207.2,191.4,207.2z"/>
<path class="st0" d="M61.7,223.1H44.1c-3.3,0-6-2.7-6-6s2.7-6,6-6h17.5c3.3,0,6,2.7,6,6S65,223.1,61.7,223.1z"/>
<path class="st0" d="M385.9,223.1h-17.5c-3.3,0-6-2.7-6-6s2.7-6,6-6h17.5c3.3,0,6,2.7,6,6S389.2,223.1,385.9,223.1z"/>
<path class="st1" d="M124.4,240L124.4,240c-5.9,0-10.7-4.8-10.7-10.7v-28.7c0-5.9,4.8-10.7,10.7-10.7h0c5.9,0,10.7,4.8,10.7,10.7
	v28.7C135.1,235.2,130.3,240,124.4,240z"/>
<path class="st1" d="M303.6,240L303.6,240c-5.9,0-10.7-4.8-10.7-10.7v-28.7c0-5.9,4.8-10.7,10.7-10.7h0c5.9,0,10.7,4.8,10.7,10.7
	v28.7C314.3,235.2,309.5,240,303.6,240z"/>
</svg>
