<?xml version="1.0" encoding="utf-8"?>
<!-- Generator: Adobe Illustrator 24.1.2, SVG Export Plug-In . SVG Version: 6.00 Build 0)  -->
<svg version="1.1" id="Warstwa_3" xmlns="http://www.w3.org/2000/svg" xmlns:xlink="http://www.w3.org/1999/xlink" x="0px" y="0px"
	 viewBox="0 0 430 430" style="enable-background:new 0 0 430 430;" xml:space="preserve">
<style type="text/css">
	.st0{fill:#08a88a;}
	.st1{fill:#121331;}
	.st2{fill:none;}
	.st3{fill:#08a88a;fill-opacity:0;}
</style>
<g>
	<path class="st1" d="M215,260.67c-3.48,0-6.3-2.82-6.3-6.3v-23.52h-79.92c-2.53,0-4.82-1.52-5.81-3.85
		c-0.98-2.34-0.47-5.03,1.3-6.85c24.06-24.64,56.29-38.21,90.73-38.21s66.67,13.57,90.73,38.21c1.77,1.81,2.28,4.51,1.3,6.85
		c-0.98,2.34-3.27,3.85-5.81,3.85H221.3v23.52C221.3,257.85,218.48,260.67,215,260.67z M145.28,218.25h139.44
		c-19.87-15.39-44.11-23.71-69.72-23.71S165.15,202.86,145.28,218.25z M395.39,167.29H286.91c-7.94,0-14.41-6.46-14.41-14.4v-46.77
		c0-7.94,6.46-14.41,14.41-14.41h108.49c7.94,0,14.41,6.46,14.41,14.41v46.77C409.8,160.83,403.34,167.29,395.39,167.29z
		 M347.45,154.69h47.94c1,0,1.81-0.81,1.81-1.81V135.8h-49.75V154.69z M285.1,135.8v17.08c0,1,0.81,1.81,1.81,1.81h47.94V135.8
		H285.1z M347.45,123.2h49.75v-17.08c0-1-0.81-1.81-1.81-1.81h-47.94V123.2z M285.1,123.2h49.75v-18.89h-47.94
		c-1,0-1.81,0.81-1.81,1.81V123.2z M250.25,167.29h-70.49c-3.48,0-6.3-2.82-6.3-6.3V97.42c0-22.91,18.64-41.54,41.54-41.54
		c22.91,0,41.54,18.64,41.54,41.54v63.57C256.55,164.47,253.73,167.29,250.25,167.29z M186.06,154.69h57.89V97.42
		c0-15.96-12.99-28.95-28.95-28.95s-28.94,12.98-28.94,28.95V154.69z M143.09,167.29H34.61c-7.94,0-14.41-6.46-14.41-14.4v-46.77
		c0-7.94,6.46-14.41,14.41-14.41h108.49c7.94,0,14.41,6.46,14.41,14.41v46.77C157.5,160.83,151.04,167.29,143.09,167.29z
		 M95.15,154.69h47.94c1,0,1.81-0.81,1.81-1.81V135.8H95.15V154.69z M32.8,135.8v17.08c0,1,0.81,1.81,1.81,1.81h47.94V135.8H32.8z
		 M95.15,123.2h49.75v-17.08c0-1-0.81-1.81-1.81-1.81H95.15V123.2z M32.8,123.2h49.75v-18.89H34.61c-1,0-1.81,0.81-1.81,1.81V123.2z
		"/>
	<path class="st0" d="M215,316.47c-23.95,0-47.91-9.12-66.14-27.35c-2.46-2.46-2.46-6.45,0-8.91c2.46-2.46,6.45-2.46,8.91,0
		c31.56,31.56,82.91,31.56,114.47,0c2.46-2.46,6.45-2.46,8.91,0c2.46,2.46,2.46,6.45,0,8.91C262.91,307.35,238.95,316.47,215,316.47
		z"/>
	<path class="st0" d="M215,345.47c-31.38,0-62.77-11.95-86.66-35.84c-2.46-2.46-2.46-6.45,0-8.91c2.46-2.46,6.45-2.46,8.91,0
		c42.87,42.87,112.63,42.87,155.5,0c2.46-2.46,6.45-2.46,8.91,0c2.46,2.46,2.46,6.45,0,8.91C277.77,333.52,246.38,345.47,215,345.47
		z"/>
	<path class="st0" d="M215,374.13c-40.38,0-78.33-15.72-106.88-44.27c-2.46-2.46-2.46-6.45,0-8.91c2.46-2.46,6.45-2.46,8.91,0
		c26.17,26.17,60.96,40.58,97.97,40.58s71.81-14.41,97.97-40.58c2.46-2.46,6.45-2.46,8.91,0c2.46,2.46,2.46,6.45,0,8.91
		C293.33,358.41,255.38,374.13,215,374.13z"/>
</g>
</svg>
